M48
METRIC,LZ,000.000
;FILE_FORMAT=3:3
;TYPE=PLATED
;Layer: Drill PTH
;EasyEDA v6.4.25, 2021-11-04T19:40:49--3:00
;bceacf3c99fb4bb2a8aa43b2ed6fd2bc,9d8cb5f435b04c98b99c45f15073e7be,10
;Gerber Generator version 0.2
;Holesize 1 = 0.305 mm
T01C0.305
;Holesize 2 = 0.915 mm
T02C0.915
;Holesize 3 = 1.001 mm
T03C1.001
;Holesize 4 = 1.194 mm
T04C1.194
%
G05
G90
T01
X119380Y030226
X107188Y028448
X076835Y018923
X083439Y030480
X077330Y076454
X097650Y076454
X117983Y076454
X079872Y074803
X100192Y074803
X120523Y074803
X085098Y073067
X105370Y073109
X125603Y073152
X087495Y071374
X107849Y071374
X128143Y071374
X094488Y043561
X097028Y045593
X094107Y064897
X103124Y064897
X099822Y006350
X112522Y006350
X125222Y006350
X084582Y009525
X097314Y009525
X122682Y009525
X109982Y009525
X089662Y012827
X102362Y012827
X115062Y012827
X083439Y013843
X086868Y013970
X104648Y025527
X099568Y030226
X102172Y031496
X112268Y019939
X092837Y026543
X091948Y041783
X076073Y045974
X069215Y008763
X049530Y008763
T02
X069723Y068834
X067183Y068834
X062103Y068834
X064643Y068834
X054483Y068834
X057023Y068834
X059563Y068834
X135636Y044069
X135636Y046609
X135636Y049149
X135636Y051689
X053467Y003556
X053467Y006096
X053467Y008636
X053467Y011176
X053467Y013716
X053467Y016256
X053467Y018796
X053467Y021336
X053467Y023876
X053467Y026416
X110363Y068834
X107823Y068834
X102743Y068834
X105283Y068834
X095123Y068834
X097663Y068834
X100203Y068834
X114808Y058420
X112268Y058420
X109728Y058420
X107188Y058420
X104648Y058420
X102108Y058420
X099568Y058420
X097028Y058420
X094488Y058420
X091948Y058420
X089408Y058420
X086868Y058420
X084328Y058420
X081788Y058420
X079248Y058420
X076708Y058420
X074168Y058420
X071628Y058420
X071628Y035560
X074168Y035560
X076708Y035560
X079248Y035560
X081788Y035560
X084328Y035560
X086868Y035560
X089408Y035560
X091948Y035560
X094488Y035560
X097028Y035560
X099568Y035560
X102108Y035560
X104648Y035560
X107188Y035560
X109728Y035560
X112268Y035560
X114808Y035560
X090043Y068834
X087503Y068834
X082423Y068834
X084963Y068834
X074803Y068834
X077343Y068834
X079883Y068834
X130683Y068834
X128143Y068834
X123063Y068834
X125603Y068834
X115443Y068834
X117983Y068834
X120523Y068834
X053467Y034036
X053467Y036576
X053467Y039116
X053467Y041656
X053467Y044196
X053467Y046736
X053467Y049276
X053467Y051816
X053467Y054356
X053467Y056896
T03
X084582Y001651
X087122Y001651
X089662Y001651
X092202Y001651
X097282Y001651
X099822Y001651
X102362Y001651
X104902Y001651
X109982Y001651
X112522Y001651
X115062Y001651
X117602Y001651
X122682Y001651
X125222Y001651
X127762Y001651
X130302Y001651
T04
X066421Y011303
X066421Y008763
X066421Y006223
X066421Y003683
X066421Y013843
X066421Y021463
X066421Y024003
X066421Y026543
X079121Y003683
X079121Y006223
X079121Y008763
X079121Y011303
X079121Y013843
X079121Y016383
X079121Y018923
X079121Y021463
X079121Y024003
X079121Y026543
X066421Y016383
X066421Y018923
M30
