G04 Layer: BottomSilkLayer*
G04 EasyEDA v6.4.25, 2021-11-04T19:40:49--3:00*
G04 bceacf3c99fb4bb2a8aa43b2ed6fd2bc,9d8cb5f435b04c98b99c45f15073e7be,10*
G04 Gerber Generator version 0.2*
G04 Scale: 100 percent, Rotated: No, Reflected: No *
G04 Dimensions in millimeters *
G04 leading zeros omitted , absolute positions ,4 integer and 5 decimal *
%FSLAX45Y45*%
%MOMM*%

%ADD21C,0.2032*%

%LPD*%
D21*
X5988050Y6629400D02*
G01*
X5995415Y6622287D01*
X5998972Y6611365D01*
X5998972Y6596887D01*
X5995415Y6585965D01*
X5988050Y6578600D01*
X5980684Y6578600D01*
X5973572Y6582155D01*
X5969761Y6585965D01*
X5966206Y6593078D01*
X5958840Y6614921D01*
X5955284Y6622287D01*
X5951727Y6625844D01*
X5944361Y6629400D01*
X5933440Y6629400D01*
X5926074Y6622287D01*
X5922518Y6611365D01*
X5922518Y6596887D01*
X5926074Y6585965D01*
X5933440Y6578600D01*
X5998972Y6653529D02*
G01*
X5922518Y6653529D01*
X5998972Y6653529D02*
G01*
X5998972Y6678929D01*
X5995415Y6689852D01*
X5988050Y6697218D01*
X5980684Y6700773D01*
X5969761Y6704329D01*
X5951727Y6704329D01*
X5940806Y6700773D01*
X5933440Y6697218D01*
X5926074Y6689852D01*
X5922518Y6678929D01*
X5922518Y6653529D01*
X5998972Y6728460D02*
G01*
X5922518Y6728460D01*
X5485384Y6582410D02*
G01*
X5492750Y6578600D01*
X5500115Y6571487D01*
X5503672Y6564121D01*
X5503672Y6549644D01*
X5500115Y6542278D01*
X5492750Y6535165D01*
X5485384Y6531355D01*
X5474461Y6527800D01*
X5456427Y6527800D01*
X5445506Y6531355D01*
X5438140Y6535165D01*
X5430774Y6542278D01*
X5427218Y6549644D01*
X5427218Y6564121D01*
X5430774Y6571487D01*
X5438140Y6578600D01*
X5445506Y6582410D01*
X5456427Y6582410D01*
X5456427Y6564121D02*
G01*
X5456427Y6582410D01*
X5503672Y6606286D02*
G01*
X5427218Y6606286D01*
X5503672Y6606286D02*
G01*
X5427218Y6657339D01*
X5503672Y6657339D02*
G01*
X5427218Y6657339D01*
X5503672Y6681215D02*
G01*
X5427218Y6681215D01*
X5503672Y6681215D02*
G01*
X5503672Y6706615D01*
X5500115Y6717537D01*
X5492750Y6724904D01*
X5485384Y6728460D01*
X5474461Y6732270D01*
X5456427Y6732270D01*
X5445506Y6728460D01*
X5438140Y6724904D01*
X5430774Y6717537D01*
X5427218Y6706615D01*
X5427218Y6681215D01*
X5744972Y6502400D02*
G01*
X5668518Y6502400D01*
X5744972Y6502400D02*
G01*
X5744972Y6535165D01*
X5741415Y6546087D01*
X5737606Y6549644D01*
X5730493Y6553200D01*
X5719572Y6553200D01*
X5712206Y6549644D01*
X5708650Y6546087D01*
X5704840Y6535165D01*
X5704840Y6502400D01*
X5744972Y6577329D02*
G01*
X5668518Y6595363D01*
X5744972Y6613652D02*
G01*
X5668518Y6595363D01*
X5744972Y6613652D02*
G01*
X5668518Y6631939D01*
X5744972Y6649973D02*
G01*
X5668518Y6631939D01*
X5744972Y6674104D02*
G01*
X5668518Y6674104D01*
X5744972Y6674104D02*
G01*
X5668518Y6703060D01*
X5744972Y6732270D02*
G01*
X5668518Y6703060D01*
X5744972Y6732270D02*
G01*
X5668518Y6732270D01*
X6496050Y6578600D02*
G01*
X6503415Y6571487D01*
X6506972Y6560565D01*
X6506972Y6546087D01*
X6503415Y6535165D01*
X6496050Y6527800D01*
X6488684Y6527800D01*
X6481572Y6531355D01*
X6477761Y6535165D01*
X6474206Y6542278D01*
X6466840Y6564121D01*
X6463284Y6571487D01*
X6459727Y6575044D01*
X6452361Y6578600D01*
X6441440Y6578600D01*
X6434074Y6571487D01*
X6430518Y6560565D01*
X6430518Y6546087D01*
X6434074Y6535165D01*
X6441440Y6527800D01*
X6488684Y6657339D02*
G01*
X6496050Y6653529D01*
X6503415Y6646418D01*
X6506972Y6639052D01*
X6506972Y6624573D01*
X6503415Y6617208D01*
X6496050Y6610095D01*
X6488684Y6606286D01*
X6477761Y6602729D01*
X6459727Y6602729D01*
X6448806Y6606286D01*
X6441440Y6610095D01*
X6434074Y6617208D01*
X6430518Y6624573D01*
X6430518Y6639052D01*
X6434074Y6646418D01*
X6441440Y6653529D01*
X6448806Y6657339D01*
X6506972Y6681215D02*
G01*
X6430518Y6681215D01*
X6506972Y6732270D02*
G01*
X6455918Y6681215D01*
X6474206Y6699504D02*
G01*
X6430518Y6732270D01*
X6254750Y6578600D02*
G01*
X6262115Y6571487D01*
X6265672Y6560565D01*
X6265672Y6546087D01*
X6262115Y6535165D01*
X6254750Y6527800D01*
X6247384Y6527800D01*
X6240272Y6531355D01*
X6236461Y6535165D01*
X6232906Y6542278D01*
X6225540Y6564121D01*
X6221984Y6571487D01*
X6218427Y6575044D01*
X6211061Y6578600D01*
X6200140Y6578600D01*
X6192774Y6571487D01*
X6189218Y6560565D01*
X6189218Y6546087D01*
X6192774Y6535165D01*
X6200140Y6527800D01*
X6265672Y6602729D02*
G01*
X6189218Y6602729D01*
X6265672Y6602729D02*
G01*
X6265672Y6628129D01*
X6262115Y6639052D01*
X6254750Y6646418D01*
X6247384Y6649973D01*
X6236461Y6653529D01*
X6218427Y6653529D01*
X6207506Y6649973D01*
X6200140Y6646418D01*
X6192774Y6639052D01*
X6189218Y6628129D01*
X6189218Y6602729D01*
X6265672Y6699504D02*
G01*
X6262115Y6692137D01*
X6254750Y6684771D01*
X6247384Y6681215D01*
X6236461Y6677660D01*
X6218427Y6677660D01*
X6207506Y6681215D01*
X6200140Y6684771D01*
X6192774Y6692137D01*
X6189218Y6699504D01*
X6189218Y6713981D01*
X6192774Y6721347D01*
X6200140Y6728460D01*
X6207506Y6732270D01*
X6218427Y6735826D01*
X6236461Y6735826D01*
X6247384Y6732270D01*
X6254750Y6728460D01*
X6262115Y6721347D01*
X6265672Y6713981D01*
X6265672Y6699504D01*
X6742684Y6658610D02*
G01*
X6750050Y6654800D01*
X6757415Y6647687D01*
X6760972Y6640321D01*
X6760972Y6625844D01*
X6757415Y6618478D01*
X6750050Y6611365D01*
X6742684Y6607555D01*
X6731761Y6604000D01*
X6713727Y6604000D01*
X6702806Y6607555D01*
X6695440Y6611365D01*
X6688074Y6618478D01*
X6684518Y6625844D01*
X6684518Y6640321D01*
X6688074Y6647687D01*
X6695440Y6654800D01*
X6702806Y6658610D01*
X6750050Y6733539D02*
G01*
X6757415Y6726173D01*
X6760972Y6715252D01*
X6760972Y6700773D01*
X6757415Y6689852D01*
X6750050Y6682486D01*
X6742684Y6682486D01*
X6735572Y6686295D01*
X6731761Y6689852D01*
X6728206Y6696963D01*
X6720840Y6718808D01*
X6717284Y6726173D01*
X6713727Y6729729D01*
X6706361Y6733539D01*
X6695440Y6733539D01*
X6688074Y6726173D01*
X6684518Y6715252D01*
X6684518Y6700773D01*
X6688074Y6689852D01*
X6695440Y6682486D01*
X7002272Y6515100D02*
G01*
X6925818Y6544310D01*
X7002272Y6573265D02*
G01*
X6925818Y6544310D01*
X6983984Y6651752D02*
G01*
X6991350Y6648195D01*
X6998715Y6640829D01*
X7002272Y6633718D01*
X7002272Y6618986D01*
X6998715Y6611873D01*
X6991350Y6604508D01*
X6983984Y6600952D01*
X6973061Y6597395D01*
X6955027Y6597395D01*
X6944106Y6600952D01*
X6936740Y6604508D01*
X6929374Y6611873D01*
X6925818Y6618986D01*
X6925818Y6633718D01*
X6929374Y6640829D01*
X6936740Y6648195D01*
X6944106Y6651752D01*
X6983984Y6730492D02*
G01*
X6991350Y6726681D01*
X6998715Y6719570D01*
X7002272Y6712204D01*
X7002272Y6697726D01*
X6998715Y6690360D01*
X6991350Y6682994D01*
X6983984Y6679437D01*
X6973061Y6675881D01*
X6955027Y6675881D01*
X6944106Y6679437D01*
X6936740Y6682994D01*
X6929374Y6690360D01*
X6925818Y6697726D01*
X6925818Y6712204D01*
X6929374Y6719570D01*
X6936740Y6726681D01*
X6944106Y6730492D01*
X8494684Y419100D02*
G01*
X8418311Y448195D01*
X8494684Y477288D02*
G01*
X8418311Y448195D01*
X8476500Y555843D02*
G01*
X8483772Y552208D01*
X8491047Y544934D01*
X8494684Y537659D01*
X8494684Y523112D01*
X8491047Y515838D01*
X8483772Y508566D01*
X8476500Y504929D01*
X8465588Y501291D01*
X8447404Y501291D01*
X8436495Y504929D01*
X8429221Y508566D01*
X8421946Y515838D01*
X8418311Y523112D01*
X8418311Y537659D01*
X8421946Y544934D01*
X8429221Y552208D01*
X8436495Y555843D01*
X8476500Y634400D02*
G01*
X8483772Y630763D01*
X8491047Y623488D01*
X8494684Y616216D01*
X8494684Y601667D01*
X8491047Y594395D01*
X8483772Y587120D01*
X8476500Y583483D01*
X8465588Y579846D01*
X8447404Y579846D01*
X8436495Y583483D01*
X8429221Y587120D01*
X8421946Y594395D01*
X8418311Y601667D01*
X8418311Y616216D01*
X8421946Y623488D01*
X8429221Y630763D01*
X8436495Y634400D01*
X8748684Y444558D02*
G01*
X8672311Y444558D01*
X8748684Y419100D02*
G01*
X8748684Y470014D01*
X8748684Y494017D02*
G01*
X8672311Y494017D01*
X8748684Y494017D02*
G01*
X8748684Y526750D01*
X8745047Y537659D01*
X8741409Y541296D01*
X8734135Y544934D01*
X8726863Y544934D01*
X8719588Y541296D01*
X8715951Y537659D01*
X8712316Y526750D01*
X8712316Y494017D01*
X8712316Y519475D02*
G01*
X8672311Y544934D01*
X8748684Y568937D02*
G01*
X8672311Y568937D01*
X8730500Y647491D02*
G01*
X8737772Y643854D01*
X8745047Y636582D01*
X8748684Y629307D01*
X8748684Y614761D01*
X8745047Y607486D01*
X8737772Y600214D01*
X8730500Y596577D01*
X8719588Y592940D01*
X8701404Y592940D01*
X8690495Y596577D01*
X8683221Y600214D01*
X8675946Y607486D01*
X8672311Y614761D01*
X8672311Y629307D01*
X8675946Y636582D01*
X8683221Y643854D01*
X8690495Y647491D01*
X8701404Y647491D01*
X8701404Y629307D02*
G01*
X8701404Y647491D01*
X9017172Y415554D02*
G01*
X8940800Y415554D01*
X9017172Y415554D02*
G01*
X9017172Y462833D01*
X8980804Y415554D02*
G01*
X8980804Y444649D01*
X8940800Y415554D02*
G01*
X8940800Y462833D01*
X8998988Y541388D02*
G01*
X9006263Y537753D01*
X9013535Y530479D01*
X9017172Y523204D01*
X9017172Y508657D01*
X9013535Y501383D01*
X9006263Y494111D01*
X8998988Y490473D01*
X8988079Y486836D01*
X8969893Y486836D01*
X8958983Y490473D01*
X8951709Y494111D01*
X8944437Y501383D01*
X8940800Y508657D01*
X8940800Y523204D01*
X8944437Y530479D01*
X8951709Y537753D01*
X8958983Y541388D01*
X9017172Y565391D02*
G01*
X8940800Y565391D01*
X9017172Y616308D02*
G01*
X8940800Y616308D01*
X8980804Y565391D02*
G01*
X8980804Y616308D01*
X9017172Y662132D02*
G01*
X9013535Y654857D01*
X9006263Y647583D01*
X8998988Y643948D01*
X8988079Y640311D01*
X8969893Y640311D01*
X8958983Y643948D01*
X8951709Y647583D01*
X8944437Y654857D01*
X8940800Y662132D01*
X8940800Y676678D01*
X8944437Y683953D01*
X8951709Y691225D01*
X8958983Y694862D01*
X8969893Y698500D01*
X8988079Y698500D01*
X8998988Y694862D01*
X9006263Y691225D01*
X9013535Y683953D01*
X9017172Y676678D01*
X9017172Y662132D01*
X9252988Y472462D02*
G01*
X9260263Y468825D01*
X9267535Y461553D01*
X9271172Y454279D01*
X9271172Y439732D01*
X9267535Y432457D01*
X9260263Y425183D01*
X9252988Y421548D01*
X9242079Y417911D01*
X9223895Y417911D01*
X9212983Y421548D01*
X9205709Y425183D01*
X9198437Y432457D01*
X9194800Y439732D01*
X9194800Y454279D01*
X9198437Y461553D01*
X9205709Y468825D01*
X9212983Y472462D01*
X9223895Y472462D01*
X9223895Y454279D02*
G01*
X9223895Y472462D01*
X9271172Y496465D02*
G01*
X9194800Y496465D01*
X9271172Y496465D02*
G01*
X9194800Y547382D01*
X9271172Y547382D02*
G01*
X9194800Y547382D01*
X9271172Y571385D02*
G01*
X9194800Y571385D01*
X9271172Y571385D02*
G01*
X9271172Y596841D01*
X9267535Y607753D01*
X9260263Y615025D01*
X9252988Y618662D01*
X9242079Y622300D01*
X9223895Y622300D01*
X9212983Y618662D01*
X9205709Y615025D01*
X9198437Y607753D01*
X9194800Y596841D01*
X9194800Y571385D01*
X13347700Y4946650D02*
G01*
X13354811Y4954015D01*
X13365734Y4957571D01*
X13380211Y4957571D01*
X13391134Y4954015D01*
X13398500Y4946650D01*
X13398500Y4939284D01*
X13394943Y4932171D01*
X13391134Y4928362D01*
X13384022Y4924805D01*
X13362177Y4917439D01*
X13354811Y4913884D01*
X13351256Y4910328D01*
X13347700Y4902962D01*
X13347700Y4892039D01*
X13354811Y4884673D01*
X13365734Y4881118D01*
X13380211Y4881118D01*
X13391134Y4884673D01*
X13398500Y4892039D01*
X13323570Y4957571D02*
G01*
X13323570Y4881118D01*
X13323570Y4957571D02*
G01*
X13298170Y4957571D01*
X13287247Y4954015D01*
X13279881Y4946650D01*
X13276325Y4939284D01*
X13272770Y4928362D01*
X13272770Y4910328D01*
X13276325Y4899405D01*
X13279881Y4892039D01*
X13287247Y4884673D01*
X13298170Y4881118D01*
X13323570Y4881118D01*
X13219684Y4957571D02*
G01*
X13248640Y4881118D01*
X13219684Y4957571D02*
G01*
X13190474Y4881118D01*
X13237718Y4906518D02*
G01*
X13201395Y4906518D01*
X13347700Y5213350D02*
G01*
X13354811Y5220715D01*
X13365734Y5224271D01*
X13380211Y5224271D01*
X13391134Y5220715D01*
X13398500Y5213350D01*
X13398500Y5205984D01*
X13394943Y5198871D01*
X13391134Y5195062D01*
X13384022Y5191505D01*
X13362177Y5184139D01*
X13354811Y5180584D01*
X13351256Y5177028D01*
X13347700Y5169662D01*
X13347700Y5158739D01*
X13354811Y5151373D01*
X13365734Y5147818D01*
X13380211Y5147818D01*
X13391134Y5151373D01*
X13398500Y5158739D01*
X13268959Y5205984D02*
G01*
X13272770Y5213350D01*
X13279881Y5220715D01*
X13287247Y5224271D01*
X13301725Y5224271D01*
X13309091Y5220715D01*
X13316204Y5213350D01*
X13320013Y5205984D01*
X13323570Y5195062D01*
X13323570Y5177028D01*
X13320013Y5166105D01*
X13316204Y5158739D01*
X13309091Y5151373D01*
X13301725Y5147818D01*
X13287247Y5147818D01*
X13279881Y5151373D01*
X13272770Y5158739D01*
X13268959Y5166105D01*
X13245084Y5224271D02*
G01*
X13245084Y5147818D01*
X13245084Y5147818D02*
G01*
X13201395Y5147818D01*
X13398500Y4703571D02*
G01*
X13369290Y4627118D01*
X13340334Y4703571D02*
G01*
X13369290Y4627118D01*
X13261847Y4685284D02*
G01*
X13265404Y4692650D01*
X13272770Y4700015D01*
X13279881Y4703571D01*
X13294613Y4703571D01*
X13301725Y4700015D01*
X13309091Y4692650D01*
X13312647Y4685284D01*
X13316204Y4674362D01*
X13316204Y4656328D01*
X13312647Y4645405D01*
X13309091Y4638039D01*
X13301725Y4630673D01*
X13294613Y4627118D01*
X13279881Y4627118D01*
X13272770Y4630673D01*
X13265404Y4638039D01*
X13261847Y4645405D01*
X13183108Y4685284D02*
G01*
X13186918Y4692650D01*
X13194029Y4700015D01*
X13201395Y4703571D01*
X13215874Y4703571D01*
X13223240Y4700015D01*
X13230606Y4692650D01*
X13234161Y4685284D01*
X13237718Y4674362D01*
X13237718Y4656328D01*
X13234161Y4645405D01*
X13230606Y4638039D01*
X13223240Y4630673D01*
X13215874Y4627118D01*
X13201395Y4627118D01*
X13194029Y4630673D01*
X13186918Y4638039D01*
X13183108Y4645405D01*
X13343890Y4431284D02*
G01*
X13347700Y4438650D01*
X13354811Y4446015D01*
X13362177Y4449571D01*
X13376656Y4449571D01*
X13384022Y4446015D01*
X13391134Y4438650D01*
X13394943Y4431284D01*
X13398500Y4420362D01*
X13398500Y4402328D01*
X13394943Y4391405D01*
X13391134Y4384039D01*
X13384022Y4376673D01*
X13376656Y4373118D01*
X13362177Y4373118D01*
X13354811Y4376673D01*
X13347700Y4384039D01*
X13343890Y4391405D01*
X13343890Y4402328D01*
X13362177Y4402328D02*
G01*
X13343890Y4402328D01*
X13320013Y4449571D02*
G01*
X13320013Y4373118D01*
X13320013Y4449571D02*
G01*
X13268959Y4373118D01*
X13268959Y4449571D02*
G01*
X13268959Y4373118D01*
X13245084Y4449571D02*
G01*
X13245084Y4373118D01*
X13245084Y4449571D02*
G01*
X13219684Y4449571D01*
X13208761Y4446015D01*
X13201395Y4438650D01*
X13197840Y4431284D01*
X13194029Y4420362D01*
X13194029Y4402328D01*
X13197840Y4391405D01*
X13201395Y4384039D01*
X13208761Y4376673D01*
X13219684Y4373118D01*
X13245084Y4373118D01*
X5181600Y410971D02*
G01*
X5152390Y334518D01*
X5123434Y410971D02*
G01*
X5152390Y334518D01*
X5044947Y392684D02*
G01*
X5048504Y400050D01*
X5055870Y407415D01*
X5062981Y410971D01*
X5077713Y410971D01*
X5084825Y407415D01*
X5092191Y400050D01*
X5095747Y392684D01*
X5099304Y381762D01*
X5099304Y363728D01*
X5095747Y352805D01*
X5092191Y345439D01*
X5084825Y338073D01*
X5077713Y334518D01*
X5062981Y334518D01*
X5055870Y338073D01*
X5048504Y345439D01*
X5044947Y352805D01*
X4966208Y392684D02*
G01*
X4970018Y400050D01*
X4977129Y407415D01*
X4984495Y410971D01*
X4998974Y410971D01*
X5006340Y407415D01*
X5013706Y400050D01*
X5017261Y392684D01*
X5020818Y381762D01*
X5020818Y363728D01*
X5017261Y352805D01*
X5013706Y345439D01*
X5006340Y338073D01*
X4998974Y334518D01*
X4984495Y334518D01*
X4977129Y338073D01*
X4970018Y345439D01*
X4966208Y352805D01*
X5127053Y634044D02*
G01*
X5130690Y641316D01*
X5137962Y648591D01*
X5145237Y652226D01*
X5159781Y652226D01*
X5167053Y648591D01*
X5174327Y641316D01*
X5177962Y634044D01*
X5181600Y623135D01*
X5181600Y604954D01*
X5177962Y594045D01*
X5174327Y586773D01*
X5167053Y579501D01*
X5159781Y575863D01*
X5145237Y575863D01*
X5137962Y579501D01*
X5130690Y586773D01*
X5127053Y594045D01*
X5127053Y604954D01*
X5145237Y604954D02*
G01*
X5127053Y604954D01*
X5103055Y652226D02*
G01*
X5103055Y575863D01*
X5103055Y652226D02*
G01*
X5052146Y575863D01*
X5052146Y652226D02*
G01*
X5052146Y575863D01*
X5028145Y652226D02*
G01*
X5028145Y575863D01*
X5028145Y652226D02*
G01*
X5002690Y652226D01*
X4991780Y648591D01*
X4984508Y641316D01*
X4980873Y634044D01*
X4977236Y623135D01*
X4977236Y604954D01*
X4980873Y594045D01*
X4984508Y586773D01*
X4991780Y579501D01*
X5002690Y575863D01*
X5028145Y575863D01*
X5181600Y918926D02*
G01*
X5181600Y842563D01*
X5181600Y918926D02*
G01*
X5134328Y918926D01*
X5181600Y882563D02*
G01*
X5152509Y882563D01*
X5181600Y842563D02*
G01*
X5134328Y842563D01*
X5110327Y918926D02*
G01*
X5110327Y842563D01*
X5110327Y918926D02*
G01*
X5059418Y842563D01*
X5059418Y918926D02*
G01*
X5059418Y842563D01*
X5035417Y904382D02*
G01*
X5028145Y908016D01*
X5017236Y918926D01*
X5017236Y842563D01*
X5181600Y1160226D02*
G01*
X5181600Y1083863D01*
X5181600Y1160226D02*
G01*
X5134328Y1160226D01*
X5181600Y1123863D02*
G01*
X5152509Y1123863D01*
X5181600Y1083863D02*
G01*
X5134328Y1083863D01*
X5110327Y1160226D02*
G01*
X5110327Y1083863D01*
X5110327Y1160226D02*
G01*
X5059418Y1083863D01*
X5059418Y1160226D02*
G01*
X5059418Y1083863D01*
X5031780Y1142044D02*
G01*
X5031780Y1145682D01*
X5028145Y1152954D01*
X5024508Y1156591D01*
X5017236Y1160226D01*
X5002690Y1160226D01*
X4995418Y1156591D01*
X4991780Y1152954D01*
X4988145Y1145682D01*
X4988145Y1138410D01*
X4991780Y1131135D01*
X4999055Y1120226D01*
X5035417Y1083863D01*
X4984508Y1083863D01*
X5139753Y1396044D02*
G01*
X5143390Y1403316D01*
X5150662Y1410591D01*
X5157937Y1414226D01*
X5172481Y1414226D01*
X5179753Y1410591D01*
X5187027Y1403316D01*
X5190662Y1396044D01*
X5194300Y1385135D01*
X5194300Y1366954D01*
X5190662Y1356045D01*
X5187027Y1348773D01*
X5179753Y1341501D01*
X5172481Y1337863D01*
X5157937Y1337863D01*
X5150662Y1341501D01*
X5143390Y1348773D01*
X5139753Y1356045D01*
X5061209Y1396044D02*
G01*
X5064846Y1403316D01*
X5072118Y1410591D01*
X5079390Y1414226D01*
X5093936Y1414226D01*
X5101209Y1410591D01*
X5108481Y1403316D01*
X5112118Y1396044D01*
X5115755Y1385135D01*
X5115755Y1366954D01*
X5112118Y1356045D01*
X5108481Y1348773D01*
X5101209Y1341501D01*
X5093936Y1337863D01*
X5079390Y1337863D01*
X5072118Y1341501D01*
X5064846Y1348773D01*
X5061209Y1356045D01*
X5037208Y1414226D02*
G01*
X5019027Y1337863D01*
X5000845Y1414226D02*
G01*
X5019027Y1337863D01*
X5000845Y1414226D02*
G01*
X4982664Y1337863D01*
X4964480Y1414226D02*
G01*
X4982664Y1337863D01*
X4936845Y1396044D02*
G01*
X4936845Y1399682D01*
X4933208Y1406954D01*
X4929573Y1410591D01*
X4922299Y1414226D01*
X4907754Y1414226D01*
X4900482Y1410591D01*
X4896845Y1406954D01*
X4893208Y1399682D01*
X4893208Y1392410D01*
X4896845Y1385135D01*
X4904117Y1374226D01*
X4940482Y1337863D01*
X4889573Y1337863D01*
X5139753Y1662744D02*
G01*
X5143390Y1670016D01*
X5150662Y1677291D01*
X5157937Y1680926D01*
X5172481Y1680926D01*
X5179753Y1677291D01*
X5187027Y1670016D01*
X5190662Y1662744D01*
X5194300Y1651835D01*
X5194300Y1633654D01*
X5190662Y1622745D01*
X5187027Y1615473D01*
X5179753Y1608201D01*
X5172481Y1604563D01*
X5157937Y1604563D01*
X5150662Y1608201D01*
X5143390Y1615473D01*
X5139753Y1622745D01*
X5061209Y1662744D02*
G01*
X5064846Y1670016D01*
X5072118Y1677291D01*
X5079390Y1680926D01*
X5093936Y1680926D01*
X5101209Y1677291D01*
X5108481Y1670016D01*
X5112118Y1662744D01*
X5115755Y1651835D01*
X5115755Y1633654D01*
X5112118Y1622745D01*
X5108481Y1615473D01*
X5101209Y1608201D01*
X5093936Y1604563D01*
X5079390Y1604563D01*
X5072118Y1608201D01*
X5064846Y1615473D01*
X5061209Y1622745D01*
X5037208Y1680926D02*
G01*
X5019027Y1604563D01*
X5000845Y1680926D02*
G01*
X5019027Y1604563D01*
X5000845Y1680926D02*
G01*
X4982664Y1604563D01*
X4964480Y1680926D02*
G01*
X4982664Y1604563D01*
X4940482Y1666382D02*
G01*
X4933208Y1670016D01*
X4922299Y1680926D01*
X4922299Y1604563D01*
X5127053Y1904044D02*
G01*
X5130690Y1911316D01*
X5137962Y1918591D01*
X5145237Y1922226D01*
X5159781Y1922226D01*
X5167053Y1918591D01*
X5174327Y1911316D01*
X5177962Y1904044D01*
X5181600Y1893135D01*
X5181600Y1874954D01*
X5177962Y1864045D01*
X5174327Y1856773D01*
X5167053Y1849501D01*
X5159781Y1845863D01*
X5145237Y1845863D01*
X5137962Y1849501D01*
X5130690Y1856773D01*
X5127053Y1864045D01*
X5103055Y1922226D02*
G01*
X5084871Y1845863D01*
X5066690Y1922226D02*
G01*
X5084871Y1845863D01*
X5066690Y1922226D02*
G01*
X5048509Y1845863D01*
X5030327Y1922226D02*
G01*
X5048509Y1845863D01*
X5006327Y1907682D02*
G01*
X4999055Y1911316D01*
X4988145Y1922226D01*
X4988145Y1845863D01*
X5181600Y2176226D02*
G01*
X5181600Y2099863D01*
X5181600Y2176226D02*
G01*
X5148872Y2176226D01*
X5137962Y2172591D01*
X5134328Y2168954D01*
X5130690Y2161682D01*
X5130690Y2150772D01*
X5134328Y2143500D01*
X5137962Y2139863D01*
X5148872Y2136226D01*
X5181600Y2136226D01*
X5106690Y2176226D02*
G01*
X5088509Y2099863D01*
X5070327Y2176226D02*
G01*
X5088509Y2099863D01*
X5070327Y2176226D02*
G01*
X5052146Y2099863D01*
X5033962Y2176226D02*
G01*
X5052146Y2099863D01*
X5009964Y2176226D02*
G01*
X5009964Y2099863D01*
X5009964Y2176226D02*
G01*
X4980873Y2099863D01*
X4951780Y2176226D02*
G01*
X4980873Y2099863D01*
X4951780Y2176226D02*
G01*
X4951780Y2099863D01*
X4924145Y2158044D02*
G01*
X4924145Y2161682D01*
X4920508Y2168954D01*
X4916873Y2172591D01*
X4909599Y2176226D01*
X4895054Y2176226D01*
X4887782Y2172591D01*
X4884145Y2168954D01*
X4880508Y2161682D01*
X4880508Y2154410D01*
X4884145Y2147135D01*
X4891417Y2136226D01*
X4927782Y2099863D01*
X4876873Y2099863D01*
X5181600Y2417526D02*
G01*
X5181600Y2341163D01*
X5181600Y2417526D02*
G01*
X5148872Y2417526D01*
X5137962Y2413891D01*
X5134328Y2410254D01*
X5130690Y2402982D01*
X5130690Y2392072D01*
X5134328Y2384800D01*
X5137962Y2381163D01*
X5148872Y2377526D01*
X5181600Y2377526D01*
X5106690Y2417526D02*
G01*
X5088509Y2341163D01*
X5070327Y2417526D02*
G01*
X5088509Y2341163D01*
X5070327Y2417526D02*
G01*
X5052146Y2341163D01*
X5033962Y2417526D02*
G01*
X5052146Y2341163D01*
X5009964Y2417526D02*
G01*
X5009964Y2341163D01*
X5009964Y2417526D02*
G01*
X4980873Y2341163D01*
X4951780Y2417526D02*
G01*
X4980873Y2341163D01*
X4951780Y2417526D02*
G01*
X4951780Y2341163D01*
X4927782Y2402982D02*
G01*
X4920508Y2406616D01*
X4909599Y2417526D01*
X4909599Y2341163D01*
X5139753Y2666044D02*
G01*
X5143390Y2673316D01*
X5150662Y2680591D01*
X5157937Y2684226D01*
X5172481Y2684226D01*
X5179753Y2680591D01*
X5187027Y2673316D01*
X5190662Y2666044D01*
X5194300Y2655135D01*
X5194300Y2636954D01*
X5190662Y2626045D01*
X5187027Y2618773D01*
X5179753Y2611501D01*
X5172481Y2607863D01*
X5157937Y2607863D01*
X5150662Y2611501D01*
X5143390Y2618773D01*
X5139753Y2626045D01*
X5115755Y2684226D02*
G01*
X5097571Y2607863D01*
X5079390Y2684226D02*
G01*
X5097571Y2607863D01*
X5079390Y2684226D02*
G01*
X5061209Y2607863D01*
X5043027Y2684226D02*
G01*
X5061209Y2607863D01*
X5015390Y2666044D02*
G01*
X5015390Y2669682D01*
X5011755Y2676954D01*
X5008118Y2680591D01*
X5000845Y2684226D01*
X4986299Y2684226D01*
X4979027Y2680591D01*
X4975390Y2676954D01*
X4971755Y2669682D01*
X4971755Y2662410D01*
X4975390Y2655135D01*
X4982664Y2644226D01*
X5019027Y2607863D01*
X4968118Y2607863D01*
X10052050Y6629400D02*
G01*
X10059415Y6622287D01*
X10062972Y6611365D01*
X10062972Y6596887D01*
X10059415Y6585965D01*
X10052050Y6578600D01*
X10044684Y6578600D01*
X10037572Y6582155D01*
X10033761Y6585965D01*
X10030206Y6593078D01*
X10022840Y6614921D01*
X10019284Y6622287D01*
X10015727Y6625844D01*
X10008361Y6629400D01*
X9997440Y6629400D01*
X9990074Y6622287D01*
X9986518Y6611365D01*
X9986518Y6596887D01*
X9990074Y6585965D01*
X9997440Y6578600D01*
X10062972Y6653529D02*
G01*
X9986518Y6653529D01*
X10062972Y6653529D02*
G01*
X10062972Y6678929D01*
X10059415Y6689852D01*
X10052050Y6697218D01*
X10044684Y6700773D01*
X10033761Y6704329D01*
X10015727Y6704329D01*
X10004806Y6700773D01*
X9997440Y6697218D01*
X9990074Y6689852D01*
X9986518Y6678929D01*
X9986518Y6653529D01*
X10062972Y6728460D02*
G01*
X9986518Y6728460D01*
X9549384Y6582410D02*
G01*
X9556750Y6578600D01*
X9564115Y6571487D01*
X9567672Y6564121D01*
X9567672Y6549644D01*
X9564115Y6542278D01*
X9556750Y6535165D01*
X9549384Y6531355D01*
X9538461Y6527800D01*
X9520427Y6527800D01*
X9509506Y6531355D01*
X9502140Y6535165D01*
X9494774Y6542278D01*
X9491218Y6549644D01*
X9491218Y6564121D01*
X9494774Y6571487D01*
X9502140Y6578600D01*
X9509506Y6582410D01*
X9520427Y6582410D01*
X9520427Y6564121D02*
G01*
X9520427Y6582410D01*
X9567672Y6606286D02*
G01*
X9491218Y6606286D01*
X9567672Y6606286D02*
G01*
X9491218Y6657339D01*
X9567672Y6657339D02*
G01*
X9491218Y6657339D01*
X9567672Y6681215D02*
G01*
X9491218Y6681215D01*
X9567672Y6681215D02*
G01*
X9567672Y6706615D01*
X9564115Y6717537D01*
X9556750Y6724904D01*
X9549384Y6728460D01*
X9538461Y6732270D01*
X9520427Y6732270D01*
X9509506Y6728460D01*
X9502140Y6724904D01*
X9494774Y6717537D01*
X9491218Y6706615D01*
X9491218Y6681215D01*
X9808972Y6502400D02*
G01*
X9732518Y6502400D01*
X9808972Y6502400D02*
G01*
X9808972Y6535165D01*
X9805415Y6546087D01*
X9801606Y6549644D01*
X9794493Y6553200D01*
X9783572Y6553200D01*
X9776206Y6549644D01*
X9772650Y6546087D01*
X9768840Y6535165D01*
X9768840Y6502400D01*
X9808972Y6577329D02*
G01*
X9732518Y6595363D01*
X9808972Y6613652D02*
G01*
X9732518Y6595363D01*
X9808972Y6613652D02*
G01*
X9732518Y6631939D01*
X9808972Y6649973D02*
G01*
X9732518Y6631939D01*
X9808972Y6674104D02*
G01*
X9732518Y6674104D01*
X9808972Y6674104D02*
G01*
X9732518Y6703060D01*
X9808972Y6732270D02*
G01*
X9732518Y6703060D01*
X9808972Y6732270D02*
G01*
X9732518Y6732270D01*
X10560050Y6578600D02*
G01*
X10567415Y6571487D01*
X10570972Y6560565D01*
X10570972Y6546087D01*
X10567415Y6535165D01*
X10560050Y6527800D01*
X10552684Y6527800D01*
X10545572Y6531355D01*
X10541761Y6535165D01*
X10538206Y6542278D01*
X10530840Y6564121D01*
X10527284Y6571487D01*
X10523727Y6575044D01*
X10516361Y6578600D01*
X10505440Y6578600D01*
X10498074Y6571487D01*
X10494518Y6560565D01*
X10494518Y6546087D01*
X10498074Y6535165D01*
X10505440Y6527800D01*
X10552684Y6657339D02*
G01*
X10560050Y6653529D01*
X10567415Y6646418D01*
X10570972Y6639052D01*
X10570972Y6624573D01*
X10567415Y6617208D01*
X10560050Y6610095D01*
X10552684Y6606286D01*
X10541761Y6602729D01*
X10523727Y6602729D01*
X10512806Y6606286D01*
X10505440Y6610095D01*
X10498074Y6617208D01*
X10494518Y6624573D01*
X10494518Y6639052D01*
X10498074Y6646418D01*
X10505440Y6653529D01*
X10512806Y6657339D01*
X10570972Y6681215D02*
G01*
X10494518Y6681215D01*
X10570972Y6732270D02*
G01*
X10519918Y6681215D01*
X10538206Y6699504D02*
G01*
X10494518Y6732270D01*
X10318750Y6578600D02*
G01*
X10326115Y6571487D01*
X10329672Y6560565D01*
X10329672Y6546087D01*
X10326115Y6535165D01*
X10318750Y6527800D01*
X10311384Y6527800D01*
X10304272Y6531355D01*
X10300461Y6535165D01*
X10296906Y6542278D01*
X10289540Y6564121D01*
X10285984Y6571487D01*
X10282427Y6575044D01*
X10275061Y6578600D01*
X10264140Y6578600D01*
X10256774Y6571487D01*
X10253218Y6560565D01*
X10253218Y6546087D01*
X10256774Y6535165D01*
X10264140Y6527800D01*
X10329672Y6602729D02*
G01*
X10253218Y6602729D01*
X10329672Y6602729D02*
G01*
X10329672Y6628129D01*
X10326115Y6639052D01*
X10318750Y6646418D01*
X10311384Y6649973D01*
X10300461Y6653529D01*
X10282427Y6653529D01*
X10271506Y6649973D01*
X10264140Y6646418D01*
X10256774Y6639052D01*
X10253218Y6628129D01*
X10253218Y6602729D01*
X10329672Y6699504D02*
G01*
X10326115Y6692137D01*
X10318750Y6684771D01*
X10311384Y6681215D01*
X10300461Y6677660D01*
X10282427Y6677660D01*
X10271506Y6681215D01*
X10264140Y6684771D01*
X10256774Y6692137D01*
X10253218Y6699504D01*
X10253218Y6713981D01*
X10256774Y6721347D01*
X10264140Y6728460D01*
X10271506Y6732270D01*
X10282427Y6735826D01*
X10300461Y6735826D01*
X10311384Y6732270D01*
X10318750Y6728460D01*
X10326115Y6721347D01*
X10329672Y6713981D01*
X10329672Y6699504D01*
X10806684Y6658610D02*
G01*
X10814050Y6654800D01*
X10821415Y6647687D01*
X10824972Y6640321D01*
X10824972Y6625844D01*
X10821415Y6618478D01*
X10814050Y6611365D01*
X10806684Y6607555D01*
X10795761Y6604000D01*
X10777727Y6604000D01*
X10766806Y6607555D01*
X10759440Y6611365D01*
X10752074Y6618478D01*
X10748518Y6625844D01*
X10748518Y6640321D01*
X10752074Y6647687D01*
X10759440Y6654800D01*
X10766806Y6658610D01*
X10814050Y6733539D02*
G01*
X10821415Y6726173D01*
X10824972Y6715252D01*
X10824972Y6700773D01*
X10821415Y6689852D01*
X10814050Y6682486D01*
X10806684Y6682486D01*
X10799572Y6686295D01*
X10795761Y6689852D01*
X10792206Y6696963D01*
X10784840Y6718808D01*
X10781284Y6726173D01*
X10777727Y6729729D01*
X10770361Y6733539D01*
X10759440Y6733539D01*
X10752074Y6726173D01*
X10748518Y6715252D01*
X10748518Y6700773D01*
X10752074Y6689852D01*
X10759440Y6682486D01*
X11066272Y6515100D02*
G01*
X10989818Y6544310D01*
X11066272Y6573265D02*
G01*
X10989818Y6544310D01*
X11047984Y6651752D02*
G01*
X11055350Y6648195D01*
X11062715Y6640829D01*
X11066272Y6633718D01*
X11066272Y6618986D01*
X11062715Y6611873D01*
X11055350Y6604508D01*
X11047984Y6600952D01*
X11037061Y6597395D01*
X11019027Y6597395D01*
X11008106Y6600952D01*
X11000740Y6604508D01*
X10993374Y6611873D01*
X10989818Y6618986D01*
X10989818Y6633718D01*
X10993374Y6640829D01*
X11000740Y6648195D01*
X11008106Y6651752D01*
X11047984Y6730492D02*
G01*
X11055350Y6726681D01*
X11062715Y6719570D01*
X11066272Y6712204D01*
X11066272Y6697726D01*
X11062715Y6690360D01*
X11055350Y6682994D01*
X11047984Y6679437D01*
X11037061Y6675881D01*
X11019027Y6675881D01*
X11008106Y6679437D01*
X11000740Y6682994D01*
X10993374Y6690360D01*
X10989818Y6697726D01*
X10989818Y6712204D01*
X10993374Y6719570D01*
X11000740Y6726681D01*
X11008106Y6730492D01*
X9764684Y419100D02*
G01*
X9688311Y448195D01*
X9764684Y477288D02*
G01*
X9688311Y448195D01*
X9746500Y555843D02*
G01*
X9753772Y552208D01*
X9761047Y544934D01*
X9764684Y537659D01*
X9764684Y523112D01*
X9761047Y515838D01*
X9753772Y508566D01*
X9746500Y504929D01*
X9735588Y501291D01*
X9717404Y501291D01*
X9706495Y504929D01*
X9699221Y508566D01*
X9691946Y515838D01*
X9688311Y523112D01*
X9688311Y537659D01*
X9691946Y544934D01*
X9699221Y552208D01*
X9706495Y555843D01*
X9746500Y634400D02*
G01*
X9753772Y630763D01*
X9761047Y623488D01*
X9764684Y616216D01*
X9764684Y601667D01*
X9761047Y594395D01*
X9753772Y587120D01*
X9746500Y583483D01*
X9735588Y579846D01*
X9717404Y579846D01*
X9706495Y583483D01*
X9699221Y587120D01*
X9691946Y594395D01*
X9688311Y601667D01*
X9688311Y616216D01*
X9691946Y623488D01*
X9699221Y630763D01*
X9706495Y634400D01*
X10018684Y444558D02*
G01*
X9942311Y444558D01*
X10018684Y419100D02*
G01*
X10018684Y470014D01*
X10018684Y494017D02*
G01*
X9942311Y494017D01*
X10018684Y494017D02*
G01*
X10018684Y526750D01*
X10015047Y537659D01*
X10011409Y541296D01*
X10004135Y544934D01*
X9996863Y544934D01*
X9989588Y541296D01*
X9985951Y537659D01*
X9982316Y526750D01*
X9982316Y494017D01*
X9982316Y519475D02*
G01*
X9942311Y544934D01*
X10018684Y568937D02*
G01*
X9942311Y568937D01*
X10000500Y647491D02*
G01*
X10007772Y643854D01*
X10015047Y636582D01*
X10018684Y629307D01*
X10018684Y614761D01*
X10015047Y607486D01*
X10007772Y600214D01*
X10000500Y596577D01*
X9989588Y592940D01*
X9971404Y592940D01*
X9960495Y596577D01*
X9953221Y600214D01*
X9945946Y607486D01*
X9942311Y614761D01*
X9942311Y629307D01*
X9945946Y636582D01*
X9953221Y643854D01*
X9960495Y647491D01*
X9971404Y647491D01*
X9971404Y629307D02*
G01*
X9971404Y647491D01*
X10324292Y415544D02*
G01*
X10247929Y415544D01*
X10324292Y415544D02*
G01*
X10324292Y462815D01*
X10287929Y415544D02*
G01*
X10287929Y444634D01*
X10247929Y415544D02*
G01*
X10247929Y462815D01*
X10306110Y541362D02*
G01*
X10313382Y537725D01*
X10320657Y530453D01*
X10324292Y523181D01*
X10324292Y508635D01*
X10320657Y501362D01*
X10313382Y494088D01*
X10306110Y490453D01*
X10295201Y486816D01*
X10277020Y486816D01*
X10266111Y490453D01*
X10258839Y494088D01*
X10251566Y501362D01*
X10247929Y508635D01*
X10247929Y523181D01*
X10251566Y530453D01*
X10258839Y537725D01*
X10266111Y541362D01*
X10324292Y565363D02*
G01*
X10247929Y565363D01*
X10324292Y616270D02*
G01*
X10247929Y616270D01*
X10287929Y565363D02*
G01*
X10287929Y616270D01*
X10324292Y662089D02*
G01*
X10320657Y654817D01*
X10313382Y647545D01*
X10306110Y643907D01*
X10295201Y640270D01*
X10277020Y640270D01*
X10266111Y643907D01*
X10258839Y647545D01*
X10251566Y654817D01*
X10247929Y662089D01*
X10247929Y676635D01*
X10251566Y683907D01*
X10258839Y691179D01*
X10266111Y694817D01*
X10277020Y698454D01*
X10295201Y698454D01*
X10306110Y694817D01*
X10313382Y691179D01*
X10320657Y683907D01*
X10324292Y676635D01*
X10324292Y662089D01*
X10522988Y472462D02*
G01*
X10530263Y468825D01*
X10537535Y461553D01*
X10541172Y454279D01*
X10541172Y439732D01*
X10537535Y432457D01*
X10530263Y425183D01*
X10522988Y421548D01*
X10512079Y417911D01*
X10493895Y417911D01*
X10482983Y421548D01*
X10475709Y425183D01*
X10468437Y432457D01*
X10464800Y439732D01*
X10464800Y454279D01*
X10468437Y461553D01*
X10475709Y468825D01*
X10482983Y472462D01*
X10493895Y472462D01*
X10493895Y454279D02*
G01*
X10493895Y472462D01*
X10541172Y496465D02*
G01*
X10464800Y496465D01*
X10541172Y496465D02*
G01*
X10464800Y547382D01*
X10541172Y547382D02*
G01*
X10464800Y547382D01*
X10541172Y571385D02*
G01*
X10464800Y571385D01*
X10541172Y571385D02*
G01*
X10541172Y596841D01*
X10537535Y607753D01*
X10530263Y615025D01*
X10522988Y618662D01*
X10512079Y622300D01*
X10493895Y622300D01*
X10482983Y618662D01*
X10475709Y615025D01*
X10468437Y607753D01*
X10464800Y596841D01*
X10464800Y571385D01*
X11034684Y419100D02*
G01*
X10958311Y448195D01*
X11034684Y477288D02*
G01*
X10958311Y448195D01*
X11016500Y555843D02*
G01*
X11023772Y552208D01*
X11031047Y544934D01*
X11034684Y537659D01*
X11034684Y523112D01*
X11031047Y515838D01*
X11023772Y508566D01*
X11016500Y504929D01*
X11005588Y501291D01*
X10987404Y501291D01*
X10976495Y504929D01*
X10969221Y508566D01*
X10961946Y515838D01*
X10958311Y523112D01*
X10958311Y537659D01*
X10961946Y544934D01*
X10969221Y552208D01*
X10976495Y555843D01*
X11016500Y634400D02*
G01*
X11023772Y630763D01*
X11031047Y623488D01*
X11034684Y616216D01*
X11034684Y601667D01*
X11031047Y594395D01*
X11023772Y587120D01*
X11016500Y583483D01*
X11005588Y579846D01*
X10987404Y579846D01*
X10976495Y583483D01*
X10969221Y587120D01*
X10961946Y594395D01*
X10958311Y601667D01*
X10958311Y616216D01*
X10961946Y623488D01*
X10969221Y630763D01*
X10976495Y634400D01*
X11288684Y444558D02*
G01*
X11212311Y444558D01*
X11288684Y419100D02*
G01*
X11288684Y470014D01*
X11288684Y494017D02*
G01*
X11212311Y494017D01*
X11288684Y494017D02*
G01*
X11288684Y526750D01*
X11285047Y537659D01*
X11281409Y541296D01*
X11274135Y544934D01*
X11266863Y544934D01*
X11259588Y541296D01*
X11255951Y537659D01*
X11252316Y526750D01*
X11252316Y494017D01*
X11252316Y519475D02*
G01*
X11212311Y544934D01*
X11288684Y568937D02*
G01*
X11212311Y568937D01*
X11270500Y647491D02*
G01*
X11277772Y643854D01*
X11285047Y636582D01*
X11288684Y629307D01*
X11288684Y614761D01*
X11285047Y607486D01*
X11277772Y600214D01*
X11270500Y596577D01*
X11259588Y592940D01*
X11241404Y592940D01*
X11230495Y596577D01*
X11223221Y600214D01*
X11215946Y607486D01*
X11212311Y614761D01*
X11212311Y629307D01*
X11215946Y636582D01*
X11223221Y643854D01*
X11230495Y647491D01*
X11241404Y647491D01*
X11241404Y629307D02*
G01*
X11241404Y647491D01*
X11557172Y415554D02*
G01*
X11480800Y415554D01*
X11557172Y415554D02*
G01*
X11557172Y462833D01*
X11520804Y415554D02*
G01*
X11520804Y444649D01*
X11480800Y415554D02*
G01*
X11480800Y462833D01*
X11538988Y541388D02*
G01*
X11546263Y537753D01*
X11553535Y530479D01*
X11557172Y523204D01*
X11557172Y508657D01*
X11553535Y501383D01*
X11546263Y494111D01*
X11538988Y490473D01*
X11528079Y486836D01*
X11509893Y486836D01*
X11498983Y490473D01*
X11491709Y494111D01*
X11484437Y501383D01*
X11480800Y508657D01*
X11480800Y523204D01*
X11484437Y530479D01*
X11491709Y537753D01*
X11498983Y541388D01*
X11557172Y565391D02*
G01*
X11480800Y565391D01*
X11557172Y616308D02*
G01*
X11480800Y616308D01*
X11520804Y565391D02*
G01*
X11520804Y616308D01*
X11557172Y662132D02*
G01*
X11553535Y654857D01*
X11546263Y647583D01*
X11538988Y643948D01*
X11528079Y640311D01*
X11509893Y640311D01*
X11498983Y643948D01*
X11491709Y647583D01*
X11484437Y654857D01*
X11480800Y662132D01*
X11480800Y676678D01*
X11484437Y683953D01*
X11491709Y691225D01*
X11498983Y694862D01*
X11509893Y698500D01*
X11528079Y698500D01*
X11538988Y694862D01*
X11546263Y691225D01*
X11553535Y683953D01*
X11557172Y676678D01*
X11557172Y662132D01*
X11792988Y472462D02*
G01*
X11800263Y468825D01*
X11807535Y461553D01*
X11811172Y454279D01*
X11811172Y439732D01*
X11807535Y432457D01*
X11800263Y425183D01*
X11792988Y421548D01*
X11782079Y417911D01*
X11763895Y417911D01*
X11752983Y421548D01*
X11745709Y425183D01*
X11738437Y432457D01*
X11734800Y439732D01*
X11734800Y454279D01*
X11738437Y461553D01*
X11745709Y468825D01*
X11752983Y472462D01*
X11763895Y472462D01*
X11763895Y454279D02*
G01*
X11763895Y472462D01*
X11811172Y496465D02*
G01*
X11734800Y496465D01*
X11811172Y496465D02*
G01*
X11734800Y547382D01*
X11811172Y547382D02*
G01*
X11734800Y547382D01*
X11811172Y571385D02*
G01*
X11734800Y571385D01*
X11811172Y571385D02*
G01*
X11811172Y596841D01*
X11807535Y607753D01*
X11800263Y615025D01*
X11792988Y618662D01*
X11782079Y622300D01*
X11763895Y622300D01*
X11752983Y618662D01*
X11745709Y615025D01*
X11738437Y607753D01*
X11734800Y596841D01*
X11734800Y571385D01*
X12304684Y419100D02*
G01*
X12228311Y448195D01*
X12304684Y477288D02*
G01*
X12228311Y448195D01*
X12286500Y555843D02*
G01*
X12293772Y552208D01*
X12301047Y544934D01*
X12304684Y537659D01*
X12304684Y523112D01*
X12301047Y515838D01*
X12293772Y508566D01*
X12286500Y504929D01*
X12275588Y501291D01*
X12257404Y501291D01*
X12246495Y504929D01*
X12239221Y508566D01*
X12231946Y515838D01*
X12228311Y523112D01*
X12228311Y537659D01*
X12231946Y544934D01*
X12239221Y552208D01*
X12246495Y555843D01*
X12286500Y634400D02*
G01*
X12293772Y630763D01*
X12301047Y623488D01*
X12304684Y616216D01*
X12304684Y601667D01*
X12301047Y594395D01*
X12293772Y587120D01*
X12286500Y583483D01*
X12275588Y579846D01*
X12257404Y579846D01*
X12246495Y583483D01*
X12239221Y587120D01*
X12231946Y594395D01*
X12228311Y601667D01*
X12228311Y616216D01*
X12231946Y623488D01*
X12239221Y630763D01*
X12246495Y634400D01*
X12558684Y444558D02*
G01*
X12482311Y444558D01*
X12558684Y419100D02*
G01*
X12558684Y470014D01*
X12558684Y494017D02*
G01*
X12482311Y494017D01*
X12558684Y494017D02*
G01*
X12558684Y526750D01*
X12555047Y537659D01*
X12551409Y541296D01*
X12544135Y544934D01*
X12536863Y544934D01*
X12529588Y541296D01*
X12525951Y537659D01*
X12522316Y526750D01*
X12522316Y494017D01*
X12522316Y519475D02*
G01*
X12482311Y544934D01*
X12558684Y568937D02*
G01*
X12482311Y568937D01*
X12540500Y647491D02*
G01*
X12547772Y643854D01*
X12555047Y636582D01*
X12558684Y629307D01*
X12558684Y614761D01*
X12555047Y607486D01*
X12547772Y600214D01*
X12540500Y596577D01*
X12529588Y592940D01*
X12511404Y592940D01*
X12500495Y596577D01*
X12493221Y600214D01*
X12485946Y607486D01*
X12482311Y614761D01*
X12482311Y629307D01*
X12485946Y636582D01*
X12493221Y643854D01*
X12500495Y647491D01*
X12511404Y647491D01*
X12511404Y629307D02*
G01*
X12511404Y647491D01*
X12827172Y415554D02*
G01*
X12750800Y415554D01*
X12827172Y415554D02*
G01*
X12827172Y462833D01*
X12790804Y415554D02*
G01*
X12790804Y444649D01*
X12750800Y415554D02*
G01*
X12750800Y462833D01*
X12808988Y541388D02*
G01*
X12816263Y537753D01*
X12823535Y530479D01*
X12827172Y523204D01*
X12827172Y508657D01*
X12823535Y501383D01*
X12816263Y494111D01*
X12808988Y490473D01*
X12798079Y486836D01*
X12779893Y486836D01*
X12768983Y490473D01*
X12761709Y494111D01*
X12754437Y501383D01*
X12750800Y508657D01*
X12750800Y523204D01*
X12754437Y530479D01*
X12761709Y537753D01*
X12768983Y541388D01*
X12827172Y565391D02*
G01*
X12750800Y565391D01*
X12827172Y616308D02*
G01*
X12750800Y616308D01*
X12790804Y565391D02*
G01*
X12790804Y616308D01*
X12827172Y662132D02*
G01*
X12823535Y654857D01*
X12816263Y647583D01*
X12808988Y643948D01*
X12798079Y640311D01*
X12779893Y640311D01*
X12768983Y643948D01*
X12761709Y647583D01*
X12754437Y654857D01*
X12750800Y662132D01*
X12750800Y676678D01*
X12754437Y683953D01*
X12761709Y691225D01*
X12768983Y694862D01*
X12779893Y698500D01*
X12798079Y698500D01*
X12808988Y694862D01*
X12816263Y691225D01*
X12823535Y683953D01*
X12827172Y676678D01*
X12827172Y662132D01*
X13062988Y472462D02*
G01*
X13070263Y468825D01*
X13077535Y461553D01*
X13081172Y454279D01*
X13081172Y439732D01*
X13077535Y432457D01*
X13070263Y425183D01*
X13062988Y421548D01*
X13052079Y417911D01*
X13033895Y417911D01*
X13022983Y421548D01*
X13015709Y425183D01*
X13008437Y432457D01*
X13004800Y439732D01*
X13004800Y454279D01*
X13008437Y461553D01*
X13015709Y468825D01*
X13022983Y472462D01*
X13033895Y472462D01*
X13033895Y454279D02*
G01*
X13033895Y472462D01*
X13081172Y496465D02*
G01*
X13004800Y496465D01*
X13081172Y496465D02*
G01*
X13004800Y547382D01*
X13081172Y547382D02*
G01*
X13004800Y547382D01*
X13081172Y571385D02*
G01*
X13004800Y571385D01*
X13081172Y571385D02*
G01*
X13081172Y596841D01*
X13077535Y607753D01*
X13070263Y615025D01*
X13062988Y618662D01*
X13052079Y622300D01*
X13033895Y622300D01*
X13022983Y618662D01*
X13015709Y615025D01*
X13008437Y607753D01*
X13004800Y596841D01*
X13004800Y571385D01*
X8020050Y6629400D02*
G01*
X8027415Y6622287D01*
X8030972Y6611365D01*
X8030972Y6596887D01*
X8027415Y6585965D01*
X8020050Y6578600D01*
X8012684Y6578600D01*
X8005572Y6582155D01*
X8001761Y6585965D01*
X7998206Y6593078D01*
X7990840Y6614921D01*
X7987284Y6622287D01*
X7983727Y6625844D01*
X7976361Y6629400D01*
X7965440Y6629400D01*
X7958074Y6622287D01*
X7954518Y6611365D01*
X7954518Y6596887D01*
X7958074Y6585965D01*
X7965440Y6578600D01*
X8030972Y6653529D02*
G01*
X7954518Y6653529D01*
X8030972Y6653529D02*
G01*
X8030972Y6678929D01*
X8027415Y6689852D01*
X8020050Y6697218D01*
X8012684Y6700773D01*
X8001761Y6704329D01*
X7983727Y6704329D01*
X7972806Y6700773D01*
X7965440Y6697218D01*
X7958074Y6689852D01*
X7954518Y6678929D01*
X7954518Y6653529D01*
X8030972Y6728460D02*
G01*
X7954518Y6728460D01*
X7517384Y6582410D02*
G01*
X7524750Y6578600D01*
X7532115Y6571487D01*
X7535672Y6564121D01*
X7535672Y6549644D01*
X7532115Y6542278D01*
X7524750Y6535165D01*
X7517384Y6531355D01*
X7506461Y6527800D01*
X7488427Y6527800D01*
X7477506Y6531355D01*
X7470140Y6535165D01*
X7462774Y6542278D01*
X7459218Y6549644D01*
X7459218Y6564121D01*
X7462774Y6571487D01*
X7470140Y6578600D01*
X7477506Y6582410D01*
X7488427Y6582410D01*
X7488427Y6564121D02*
G01*
X7488427Y6582410D01*
X7535672Y6606286D02*
G01*
X7459218Y6606286D01*
X7535672Y6606286D02*
G01*
X7459218Y6657339D01*
X7535672Y6657339D02*
G01*
X7459218Y6657339D01*
X7535672Y6681215D02*
G01*
X7459218Y6681215D01*
X7535672Y6681215D02*
G01*
X7535672Y6706615D01*
X7532115Y6717537D01*
X7524750Y6724904D01*
X7517384Y6728460D01*
X7506461Y6732270D01*
X7488427Y6732270D01*
X7477506Y6728460D01*
X7470140Y6724904D01*
X7462774Y6717537D01*
X7459218Y6706615D01*
X7459218Y6681215D01*
X7776972Y6502400D02*
G01*
X7700518Y6502400D01*
X7776972Y6502400D02*
G01*
X7776972Y6535165D01*
X7773415Y6546087D01*
X7769606Y6549644D01*
X7762493Y6553200D01*
X7751572Y6553200D01*
X7744206Y6549644D01*
X7740650Y6546087D01*
X7736840Y6535165D01*
X7736840Y6502400D01*
X7776972Y6577329D02*
G01*
X7700518Y6595363D01*
X7776972Y6613652D02*
G01*
X7700518Y6595363D01*
X7776972Y6613652D02*
G01*
X7700518Y6631939D01*
X7776972Y6649973D02*
G01*
X7700518Y6631939D01*
X7776972Y6674104D02*
G01*
X7700518Y6674104D01*
X7776972Y6674104D02*
G01*
X7700518Y6703060D01*
X7776972Y6732270D02*
G01*
X7700518Y6703060D01*
X7776972Y6732270D02*
G01*
X7700518Y6732270D01*
X8528050Y6578600D02*
G01*
X8535415Y6571487D01*
X8538972Y6560565D01*
X8538972Y6546087D01*
X8535415Y6535165D01*
X8528050Y6527800D01*
X8520684Y6527800D01*
X8513572Y6531355D01*
X8509761Y6535165D01*
X8506206Y6542278D01*
X8498840Y6564121D01*
X8495284Y6571487D01*
X8491727Y6575044D01*
X8484361Y6578600D01*
X8473440Y6578600D01*
X8466074Y6571487D01*
X8462518Y6560565D01*
X8462518Y6546087D01*
X8466074Y6535165D01*
X8473440Y6527800D01*
X8520684Y6657339D02*
G01*
X8528050Y6653529D01*
X8535415Y6646418D01*
X8538972Y6639052D01*
X8538972Y6624573D01*
X8535415Y6617208D01*
X8528050Y6610095D01*
X8520684Y6606286D01*
X8509761Y6602729D01*
X8491727Y6602729D01*
X8480806Y6606286D01*
X8473440Y6610095D01*
X8466074Y6617208D01*
X8462518Y6624573D01*
X8462518Y6639052D01*
X8466074Y6646418D01*
X8473440Y6653529D01*
X8480806Y6657339D01*
X8538972Y6681215D02*
G01*
X8462518Y6681215D01*
X8538972Y6732270D02*
G01*
X8487918Y6681215D01*
X8506206Y6699504D02*
G01*
X8462518Y6732270D01*
X8286750Y6578600D02*
G01*
X8294115Y6571487D01*
X8297672Y6560565D01*
X8297672Y6546087D01*
X8294115Y6535165D01*
X8286750Y6527800D01*
X8279384Y6527800D01*
X8272272Y6531355D01*
X8268461Y6535165D01*
X8264906Y6542278D01*
X8257540Y6564121D01*
X8253984Y6571487D01*
X8250427Y6575044D01*
X8243061Y6578600D01*
X8232140Y6578600D01*
X8224774Y6571487D01*
X8221218Y6560565D01*
X8221218Y6546087D01*
X8224774Y6535165D01*
X8232140Y6527800D01*
X8297672Y6602729D02*
G01*
X8221218Y6602729D01*
X8297672Y6602729D02*
G01*
X8297672Y6628129D01*
X8294115Y6639052D01*
X8286750Y6646418D01*
X8279384Y6649973D01*
X8268461Y6653529D01*
X8250427Y6653529D01*
X8239506Y6649973D01*
X8232140Y6646418D01*
X8224774Y6639052D01*
X8221218Y6628129D01*
X8221218Y6602729D01*
X8297672Y6699504D02*
G01*
X8294115Y6692137D01*
X8286750Y6684771D01*
X8279384Y6681215D01*
X8268461Y6677660D01*
X8250427Y6677660D01*
X8239506Y6681215D01*
X8232140Y6684771D01*
X8224774Y6692137D01*
X8221218Y6699504D01*
X8221218Y6713981D01*
X8224774Y6721347D01*
X8232140Y6728460D01*
X8239506Y6732270D01*
X8250427Y6735826D01*
X8268461Y6735826D01*
X8279384Y6732270D01*
X8286750Y6728460D01*
X8294115Y6721347D01*
X8297672Y6713981D01*
X8297672Y6699504D01*
X8774684Y6658610D02*
G01*
X8782050Y6654800D01*
X8789415Y6647687D01*
X8792972Y6640321D01*
X8792972Y6625844D01*
X8789415Y6618478D01*
X8782050Y6611365D01*
X8774684Y6607555D01*
X8763761Y6604000D01*
X8745727Y6604000D01*
X8734806Y6607555D01*
X8727440Y6611365D01*
X8720074Y6618478D01*
X8716518Y6625844D01*
X8716518Y6640321D01*
X8720074Y6647687D01*
X8727440Y6654800D01*
X8734806Y6658610D01*
X8782050Y6733539D02*
G01*
X8789415Y6726173D01*
X8792972Y6715252D01*
X8792972Y6700773D01*
X8789415Y6689852D01*
X8782050Y6682486D01*
X8774684Y6682486D01*
X8767572Y6686295D01*
X8763761Y6689852D01*
X8760206Y6696963D01*
X8752840Y6718808D01*
X8749284Y6726173D01*
X8745727Y6729729D01*
X8738361Y6733539D01*
X8727440Y6733539D01*
X8720074Y6726173D01*
X8716518Y6715252D01*
X8716518Y6700773D01*
X8720074Y6689852D01*
X8727440Y6682486D01*
X9034272Y6515100D02*
G01*
X8957818Y6544310D01*
X9034272Y6573265D02*
G01*
X8957818Y6544310D01*
X9015984Y6651752D02*
G01*
X9023350Y6648195D01*
X9030715Y6640829D01*
X9034272Y6633718D01*
X9034272Y6618986D01*
X9030715Y6611873D01*
X9023350Y6604508D01*
X9015984Y6600952D01*
X9005061Y6597395D01*
X8987027Y6597395D01*
X8976106Y6600952D01*
X8968740Y6604508D01*
X8961374Y6611873D01*
X8957818Y6618986D01*
X8957818Y6633718D01*
X8961374Y6640829D01*
X8968740Y6648195D01*
X8976106Y6651752D01*
X9015984Y6730492D02*
G01*
X9023350Y6726681D01*
X9030715Y6719570D01*
X9034272Y6712204D01*
X9034272Y6697726D01*
X9030715Y6690360D01*
X9023350Y6682994D01*
X9015984Y6679437D01*
X9005061Y6675881D01*
X8987027Y6675881D01*
X8976106Y6679437D01*
X8968740Y6682994D01*
X8961374Y6690360D01*
X8957818Y6697726D01*
X8957818Y6712204D01*
X8961374Y6719570D01*
X8968740Y6726681D01*
X8976106Y6730492D01*
X12084050Y6629400D02*
G01*
X12091415Y6622287D01*
X12094972Y6611365D01*
X12094972Y6596887D01*
X12091415Y6585965D01*
X12084050Y6578600D01*
X12076684Y6578600D01*
X12069572Y6582155D01*
X12065761Y6585965D01*
X12062206Y6593078D01*
X12054840Y6614921D01*
X12051284Y6622287D01*
X12047727Y6625844D01*
X12040361Y6629400D01*
X12029440Y6629400D01*
X12022074Y6622287D01*
X12018518Y6611365D01*
X12018518Y6596887D01*
X12022074Y6585965D01*
X12029440Y6578600D01*
X12094972Y6653529D02*
G01*
X12018518Y6653529D01*
X12094972Y6653529D02*
G01*
X12094972Y6678929D01*
X12091415Y6689852D01*
X12084050Y6697218D01*
X12076684Y6700773D01*
X12065761Y6704329D01*
X12047727Y6704329D01*
X12036806Y6700773D01*
X12029440Y6697218D01*
X12022074Y6689852D01*
X12018518Y6678929D01*
X12018518Y6653529D01*
X12094972Y6728460D02*
G01*
X12018518Y6728460D01*
X11581384Y6582410D02*
G01*
X11588750Y6578600D01*
X11596115Y6571487D01*
X11599672Y6564121D01*
X11599672Y6549644D01*
X11596115Y6542278D01*
X11588750Y6535165D01*
X11581384Y6531355D01*
X11570461Y6527800D01*
X11552427Y6527800D01*
X11541506Y6531355D01*
X11534140Y6535165D01*
X11526774Y6542278D01*
X11523218Y6549644D01*
X11523218Y6564121D01*
X11526774Y6571487D01*
X11534140Y6578600D01*
X11541506Y6582410D01*
X11552427Y6582410D01*
X11552427Y6564121D02*
G01*
X11552427Y6582410D01*
X11599672Y6606286D02*
G01*
X11523218Y6606286D01*
X11599672Y6606286D02*
G01*
X11523218Y6657339D01*
X11599672Y6657339D02*
G01*
X11523218Y6657339D01*
X11599672Y6681215D02*
G01*
X11523218Y6681215D01*
X11599672Y6681215D02*
G01*
X11599672Y6706615D01*
X11596115Y6717537D01*
X11588750Y6724904D01*
X11581384Y6728460D01*
X11570461Y6732270D01*
X11552427Y6732270D01*
X11541506Y6728460D01*
X11534140Y6724904D01*
X11526774Y6717537D01*
X11523218Y6706615D01*
X11523218Y6681215D01*
X11840972Y6502400D02*
G01*
X11764518Y6502400D01*
X11840972Y6502400D02*
G01*
X11840972Y6535165D01*
X11837415Y6546087D01*
X11833606Y6549644D01*
X11826493Y6553200D01*
X11815572Y6553200D01*
X11808206Y6549644D01*
X11804650Y6546087D01*
X11800840Y6535165D01*
X11800840Y6502400D01*
X11840972Y6577329D02*
G01*
X11764518Y6595363D01*
X11840972Y6613652D02*
G01*
X11764518Y6595363D01*
X11840972Y6613652D02*
G01*
X11764518Y6631939D01*
X11840972Y6649973D02*
G01*
X11764518Y6631939D01*
X11840972Y6674104D02*
G01*
X11764518Y6674104D01*
X11840972Y6674104D02*
G01*
X11764518Y6703060D01*
X11840972Y6732270D02*
G01*
X11764518Y6703060D01*
X11840972Y6732270D02*
G01*
X11764518Y6732270D01*
X12592050Y6578600D02*
G01*
X12599415Y6571487D01*
X12602972Y6560565D01*
X12602972Y6546087D01*
X12599415Y6535165D01*
X12592050Y6527800D01*
X12584684Y6527800D01*
X12577572Y6531355D01*
X12573761Y6535165D01*
X12570206Y6542278D01*
X12562840Y6564121D01*
X12559284Y6571487D01*
X12555727Y6575044D01*
X12548361Y6578600D01*
X12537440Y6578600D01*
X12530074Y6571487D01*
X12526518Y6560565D01*
X12526518Y6546087D01*
X12530074Y6535165D01*
X12537440Y6527800D01*
X12584684Y6657339D02*
G01*
X12592050Y6653529D01*
X12599415Y6646418D01*
X12602972Y6639052D01*
X12602972Y6624573D01*
X12599415Y6617208D01*
X12592050Y6610095D01*
X12584684Y6606286D01*
X12573761Y6602729D01*
X12555727Y6602729D01*
X12544806Y6606286D01*
X12537440Y6610095D01*
X12530074Y6617208D01*
X12526518Y6624573D01*
X12526518Y6639052D01*
X12530074Y6646418D01*
X12537440Y6653529D01*
X12544806Y6657339D01*
X12602972Y6681215D02*
G01*
X12526518Y6681215D01*
X12602972Y6732270D02*
G01*
X12551918Y6681215D01*
X12570206Y6699504D02*
G01*
X12526518Y6732270D01*
X12350750Y6578600D02*
G01*
X12358115Y6571487D01*
X12361672Y6560565D01*
X12361672Y6546087D01*
X12358115Y6535165D01*
X12350750Y6527800D01*
X12343384Y6527800D01*
X12336272Y6531355D01*
X12332461Y6535165D01*
X12328906Y6542278D01*
X12321540Y6564121D01*
X12317984Y6571487D01*
X12314427Y6575044D01*
X12307061Y6578600D01*
X12296140Y6578600D01*
X12288774Y6571487D01*
X12285218Y6560565D01*
X12285218Y6546087D01*
X12288774Y6535165D01*
X12296140Y6527800D01*
X12361672Y6602729D02*
G01*
X12285218Y6602729D01*
X12361672Y6602729D02*
G01*
X12361672Y6628129D01*
X12358115Y6639052D01*
X12350750Y6646418D01*
X12343384Y6649973D01*
X12332461Y6653529D01*
X12314427Y6653529D01*
X12303506Y6649973D01*
X12296140Y6646418D01*
X12288774Y6639052D01*
X12285218Y6628129D01*
X12285218Y6602729D01*
X12361672Y6699504D02*
G01*
X12358115Y6692137D01*
X12350750Y6684771D01*
X12343384Y6681215D01*
X12332461Y6677660D01*
X12314427Y6677660D01*
X12303506Y6681215D01*
X12296140Y6684771D01*
X12288774Y6692137D01*
X12285218Y6699504D01*
X12285218Y6713981D01*
X12288774Y6721347D01*
X12296140Y6728460D01*
X12303506Y6732270D01*
X12314427Y6735826D01*
X12332461Y6735826D01*
X12343384Y6732270D01*
X12350750Y6728460D01*
X12358115Y6721347D01*
X12361672Y6713981D01*
X12361672Y6699504D01*
X12838684Y6658610D02*
G01*
X12846050Y6654800D01*
X12853415Y6647687D01*
X12856972Y6640321D01*
X12856972Y6625844D01*
X12853415Y6618478D01*
X12846050Y6611365D01*
X12838684Y6607555D01*
X12827761Y6604000D01*
X12809727Y6604000D01*
X12798806Y6607555D01*
X12791440Y6611365D01*
X12784074Y6618478D01*
X12780518Y6625844D01*
X12780518Y6640321D01*
X12784074Y6647687D01*
X12791440Y6654800D01*
X12798806Y6658610D01*
X12846050Y6733539D02*
G01*
X12853415Y6726173D01*
X12856972Y6715252D01*
X12856972Y6700773D01*
X12853415Y6689852D01*
X12846050Y6682486D01*
X12838684Y6682486D01*
X12831572Y6686295D01*
X12827761Y6689852D01*
X12824206Y6696963D01*
X12816840Y6718808D01*
X12813284Y6726173D01*
X12809727Y6729729D01*
X12802361Y6733539D01*
X12791440Y6733539D01*
X12784074Y6726173D01*
X12780518Y6715252D01*
X12780518Y6700773D01*
X12784074Y6689852D01*
X12791440Y6682486D01*
X13098272Y6515100D02*
G01*
X13021818Y6544310D01*
X13098272Y6573265D02*
G01*
X13021818Y6544310D01*
X13079984Y6651752D02*
G01*
X13087350Y6648195D01*
X13094715Y6640829D01*
X13098272Y6633718D01*
X13098272Y6618986D01*
X13094715Y6611873D01*
X13087350Y6604508D01*
X13079984Y6600952D01*
X13069061Y6597395D01*
X13051027Y6597395D01*
X13040106Y6600952D01*
X13032740Y6604508D01*
X13025374Y6611873D01*
X13021818Y6618986D01*
X13021818Y6633718D01*
X13025374Y6640829D01*
X13032740Y6648195D01*
X13040106Y6651752D01*
X13079984Y6730492D02*
G01*
X13087350Y6726681D01*
X13094715Y6719570D01*
X13098272Y6712204D01*
X13098272Y6697726D01*
X13094715Y6690360D01*
X13087350Y6682994D01*
X13079984Y6679437D01*
X13069061Y6675881D01*
X13051027Y6675881D01*
X13040106Y6679437D01*
X13032740Y6682994D01*
X13025374Y6690360D01*
X13021818Y6697726D01*
X13021818Y6712204D01*
X13025374Y6719570D01*
X13032740Y6726681D01*
X13040106Y6730492D01*
X5168910Y3420877D02*
G01*
X5139700Y3344423D01*
X5110744Y3420877D02*
G01*
X5139700Y3344423D01*
X5032258Y3402589D02*
G01*
X5035814Y3409955D01*
X5043180Y3417321D01*
X5050292Y3420877D01*
X5065024Y3420877D01*
X5072136Y3417321D01*
X5079502Y3409955D01*
X5083058Y3402589D01*
X5086614Y3391667D01*
X5086614Y3373633D01*
X5083058Y3362711D01*
X5079502Y3355345D01*
X5072136Y3347979D01*
X5065024Y3344423D01*
X5050292Y3344423D01*
X5043180Y3347979D01*
X5035814Y3355345D01*
X5032258Y3362711D01*
X4953518Y3402589D02*
G01*
X4957328Y3409955D01*
X4964440Y3417321D01*
X4971806Y3420877D01*
X4986284Y3420877D01*
X4993650Y3417321D01*
X5001016Y3409955D01*
X5004572Y3402589D01*
X5008128Y3391667D01*
X5008128Y3373633D01*
X5004572Y3362711D01*
X5001016Y3355345D01*
X4993650Y3347979D01*
X4986284Y3344423D01*
X4971806Y3344423D01*
X4964440Y3347979D01*
X4957328Y3355345D01*
X4953518Y3362711D01*
X5127063Y3643950D02*
G01*
X5130700Y3651222D01*
X5137972Y3658496D01*
X5145247Y3662131D01*
X5159791Y3662131D01*
X5167063Y3658496D01*
X5174338Y3651222D01*
X5177972Y3643950D01*
X5181610Y3633040D01*
X5181610Y3614859D01*
X5177972Y3603950D01*
X5174338Y3596678D01*
X5167063Y3589406D01*
X5159791Y3585768D01*
X5145247Y3585768D01*
X5137972Y3589406D01*
X5130700Y3596678D01*
X5127063Y3603950D01*
X5127063Y3614859D01*
X5145247Y3614859D02*
G01*
X5127063Y3614859D01*
X5103065Y3662131D02*
G01*
X5103065Y3585768D01*
X5103065Y3662131D02*
G01*
X5052156Y3585768D01*
X5052156Y3662131D02*
G01*
X5052156Y3585768D01*
X5028156Y3662131D02*
G01*
X5028156Y3585768D01*
X5028156Y3662131D02*
G01*
X5002700Y3662131D01*
X4991790Y3658496D01*
X4984518Y3651222D01*
X4980884Y3643950D01*
X4977246Y3633040D01*
X4977246Y3614859D01*
X4980884Y3603950D01*
X4984518Y3596678D01*
X4991790Y3589406D01*
X5002700Y3585768D01*
X5028156Y3585768D01*
X5168910Y3941531D02*
G01*
X5168910Y3865168D01*
X5168910Y3941531D02*
G01*
X5121638Y3941531D01*
X5168910Y3905168D02*
G01*
X5139819Y3905168D01*
X5168910Y3865168D02*
G01*
X5121638Y3865168D01*
X5097637Y3941531D02*
G01*
X5097637Y3865168D01*
X5097637Y3941531D02*
G01*
X5046728Y3865168D01*
X5046728Y3941531D02*
G01*
X5046728Y3865168D01*
X5022728Y3926987D02*
G01*
X5015456Y3930622D01*
X5004546Y3941531D01*
X5004546Y3865168D01*
X5168910Y4195531D02*
G01*
X5168910Y4119168D01*
X5168910Y4195531D02*
G01*
X5121638Y4195531D01*
X5168910Y4159168D02*
G01*
X5139819Y4159168D01*
X5168910Y4119168D02*
G01*
X5121638Y4119168D01*
X5097637Y4195531D02*
G01*
X5097637Y4119168D01*
X5097637Y4195531D02*
G01*
X5046728Y4119168D01*
X5046728Y4195531D02*
G01*
X5046728Y4119168D01*
X5019090Y4177350D02*
G01*
X5019090Y4180987D01*
X5015456Y4188259D01*
X5011818Y4191896D01*
X5004546Y4195531D01*
X4990000Y4195531D01*
X4982728Y4191896D01*
X4979090Y4188259D01*
X4975456Y4180987D01*
X4975456Y4173715D01*
X4979090Y4166440D01*
X4986365Y4155531D01*
X5022728Y4119168D01*
X4971818Y4119168D01*
X5127063Y4431350D02*
G01*
X5130700Y4438622D01*
X5137972Y4445896D01*
X5145247Y4449531D01*
X5159791Y4449531D01*
X5167063Y4445896D01*
X5174338Y4438622D01*
X5177972Y4431350D01*
X5181610Y4420440D01*
X5181610Y4402259D01*
X5177972Y4391350D01*
X5174338Y4384078D01*
X5167063Y4376806D01*
X5159791Y4373168D01*
X5145247Y4373168D01*
X5137972Y4376806D01*
X5130700Y4384078D01*
X5127063Y4391350D01*
X5048519Y4431350D02*
G01*
X5052156Y4438622D01*
X5059428Y4445896D01*
X5066700Y4449531D01*
X5081247Y4449531D01*
X5088519Y4445896D01*
X5095791Y4438622D01*
X5099428Y4431350D01*
X5103065Y4420440D01*
X5103065Y4402259D01*
X5099428Y4391350D01*
X5095791Y4384078D01*
X5088519Y4376806D01*
X5081247Y4373168D01*
X5066700Y4373168D01*
X5059428Y4376806D01*
X5052156Y4384078D01*
X5048519Y4391350D01*
X5024518Y4449531D02*
G01*
X5006337Y4373168D01*
X4988156Y4449531D02*
G01*
X5006337Y4373168D01*
X4988156Y4449531D02*
G01*
X4969974Y4373168D01*
X4951790Y4449531D02*
G01*
X4969974Y4373168D01*
X4924155Y4431350D02*
G01*
X4924155Y4434987D01*
X4920518Y4442259D01*
X4916883Y4445896D01*
X4909609Y4449531D01*
X4895065Y4449531D01*
X4887793Y4445896D01*
X4884155Y4442259D01*
X4880518Y4434987D01*
X4880518Y4427715D01*
X4884155Y4420440D01*
X4891427Y4409531D01*
X4927793Y4373168D01*
X4876883Y4373168D01*
X5127063Y4672650D02*
G01*
X5130700Y4679922D01*
X5137972Y4687196D01*
X5145247Y4690831D01*
X5159791Y4690831D01*
X5167063Y4687196D01*
X5174338Y4679922D01*
X5177972Y4672650D01*
X5181610Y4661740D01*
X5181610Y4643559D01*
X5177972Y4632650D01*
X5174338Y4625378D01*
X5167063Y4618106D01*
X5159791Y4614468D01*
X5145247Y4614468D01*
X5137972Y4618106D01*
X5130700Y4625378D01*
X5127063Y4632650D01*
X5048519Y4672650D02*
G01*
X5052156Y4679922D01*
X5059428Y4687196D01*
X5066700Y4690831D01*
X5081247Y4690831D01*
X5088519Y4687196D01*
X5095791Y4679922D01*
X5099428Y4672650D01*
X5103065Y4661740D01*
X5103065Y4643559D01*
X5099428Y4632650D01*
X5095791Y4625378D01*
X5088519Y4618106D01*
X5081247Y4614468D01*
X5066700Y4614468D01*
X5059428Y4618106D01*
X5052156Y4625378D01*
X5048519Y4632650D01*
X5024518Y4690831D02*
G01*
X5006337Y4614468D01*
X4988156Y4690831D02*
G01*
X5006337Y4614468D01*
X4988156Y4690831D02*
G01*
X4969974Y4614468D01*
X4951790Y4690831D02*
G01*
X4969974Y4614468D01*
X4927793Y4676287D02*
G01*
X4920518Y4679922D01*
X4909609Y4690831D01*
X4909609Y4614468D01*
X5101663Y4939350D02*
G01*
X5105300Y4946622D01*
X5112572Y4953896D01*
X5119847Y4957531D01*
X5134391Y4957531D01*
X5141663Y4953896D01*
X5148938Y4946622D01*
X5152572Y4939350D01*
X5156210Y4928440D01*
X5156210Y4910259D01*
X5152572Y4899350D01*
X5148938Y4892078D01*
X5141663Y4884806D01*
X5134391Y4881168D01*
X5119847Y4881168D01*
X5112572Y4884806D01*
X5105300Y4892078D01*
X5101663Y4899350D01*
X5077665Y4957531D02*
G01*
X5059481Y4881168D01*
X5041300Y4957531D02*
G01*
X5059481Y4881168D01*
X5041300Y4957531D02*
G01*
X5023119Y4881168D01*
X5004937Y4957531D02*
G01*
X5023119Y4881168D01*
X4980937Y4942987D02*
G01*
X4973665Y4946622D01*
X4962756Y4957531D01*
X4962756Y4881168D01*
X5168910Y5211531D02*
G01*
X5168910Y5135168D01*
X5168910Y5211531D02*
G01*
X5136182Y5211531D01*
X5125272Y5207896D01*
X5121638Y5204259D01*
X5118000Y5196987D01*
X5118000Y5186078D01*
X5121638Y5178805D01*
X5125272Y5175168D01*
X5136182Y5171531D01*
X5168910Y5171531D01*
X5094000Y5211531D02*
G01*
X5075819Y5135168D01*
X5057637Y5211531D02*
G01*
X5075819Y5135168D01*
X5057637Y5211531D02*
G01*
X5039456Y5135168D01*
X5021272Y5211531D02*
G01*
X5039456Y5135168D01*
X4997274Y5211531D02*
G01*
X4997274Y5135168D01*
X4997274Y5211531D02*
G01*
X4968184Y5135168D01*
X4939090Y5211531D02*
G01*
X4968184Y5135168D01*
X4939090Y5211531D02*
G01*
X4939090Y5135168D01*
X4911455Y5193350D02*
G01*
X4911455Y5196987D01*
X4907818Y5204259D01*
X4904183Y5207896D01*
X4896909Y5211531D01*
X4882365Y5211531D01*
X4875093Y5207896D01*
X4871455Y5204259D01*
X4867818Y5196987D01*
X4867818Y5189715D01*
X4871455Y5182440D01*
X4878727Y5171531D01*
X4915093Y5135168D01*
X4864183Y5135168D01*
X5168910Y5452831D02*
G01*
X5168910Y5376468D01*
X5168910Y5452831D02*
G01*
X5136182Y5452831D01*
X5125272Y5449196D01*
X5121638Y5445559D01*
X5118000Y5438287D01*
X5118000Y5427378D01*
X5121638Y5420105D01*
X5125272Y5416468D01*
X5136182Y5412831D01*
X5168910Y5412831D01*
X5094000Y5452831D02*
G01*
X5075819Y5376468D01*
X5057637Y5452831D02*
G01*
X5075819Y5376468D01*
X5057637Y5452831D02*
G01*
X5039456Y5376468D01*
X5021272Y5452831D02*
G01*
X5039456Y5376468D01*
X4997274Y5452831D02*
G01*
X4997274Y5376468D01*
X4997274Y5452831D02*
G01*
X4968184Y5376468D01*
X4939090Y5452831D02*
G01*
X4968184Y5376468D01*
X4939090Y5452831D02*
G01*
X4939090Y5376468D01*
X4915093Y5438287D02*
G01*
X4907818Y5441922D01*
X4896909Y5452831D01*
X4896909Y5376468D01*
X5114363Y5701350D02*
G01*
X5118000Y5708622D01*
X5125272Y5715896D01*
X5132547Y5719531D01*
X5147091Y5719531D01*
X5154363Y5715896D01*
X5161638Y5708622D01*
X5165272Y5701350D01*
X5168910Y5690440D01*
X5168910Y5672259D01*
X5165272Y5661350D01*
X5161638Y5654078D01*
X5154363Y5646806D01*
X5147091Y5643168D01*
X5132547Y5643168D01*
X5125272Y5646806D01*
X5118000Y5654078D01*
X5114363Y5661350D01*
X5090365Y5719531D02*
G01*
X5072181Y5643168D01*
X5054000Y5719531D02*
G01*
X5072181Y5643168D01*
X5054000Y5719531D02*
G01*
X5035819Y5643168D01*
X5017637Y5719531D02*
G01*
X5035819Y5643168D01*
X4990000Y5701350D02*
G01*
X4990000Y5704987D01*
X4986365Y5712259D01*
X4982728Y5715896D01*
X4975456Y5719531D01*
X4960909Y5719531D01*
X4953637Y5715896D01*
X4950000Y5712259D01*
X4946365Y5704987D01*
X4946365Y5697715D01*
X4950000Y5690440D01*
X4957274Y5679531D01*
X4993637Y5643168D01*
X4942728Y5643168D01*
M02*
