G04 Layer: TopLayer*
G04 EasyEDA v6.4.25, 2021-11-04T19:40:49--3:00*
G04 bceacf3c99fb4bb2a8aa43b2ed6fd2bc,9d8cb5f435b04c98b99c45f15073e7be,10*
G04 Gerber Generator version 0.2*
G04 Scale: 100 percent, Rotated: No, Reflected: No *
G04 Dimensions in millimeters *
G04 leading zeros omitted , absolute positions ,4 integer and 5 decimal *
%FSLAX45Y45*%
%MOMM*%

%ADD10C,0.5000*%
%ADD11C,0.6096*%
%ADD12R,0.8640X0.8065*%
%ADD14C,1.7780*%
%ADD15R,1.7780X1.7780*%
%ADD16C,1.5240*%
%ADD17C,2.0000*%
%ADD18C,1.3995*%

%LPD*%
G36*
X4811268Y-266192D02*
G01*
X4807356Y-265430D01*
X4804105Y-263194D01*
X4801870Y-259943D01*
X4801108Y-256032D01*
X4801108Y7787131D01*
X4801870Y7791043D01*
X4804105Y7794294D01*
X4807356Y7796530D01*
X4811268Y7797292D01*
X13679932Y7797292D01*
X13683843Y7796530D01*
X13687094Y7794294D01*
X13689330Y7791043D01*
X13690092Y7787131D01*
X13690092Y-256032D01*
X13689330Y-259943D01*
X13687094Y-263194D01*
X13683843Y-265430D01*
X13679932Y-266192D01*
G37*

%LPC*%
G36*
X13474700Y7454392D02*
G01*
X13490092Y7455357D01*
X13505230Y7458100D01*
X13519912Y7462672D01*
X13533932Y7469022D01*
X13547140Y7476998D01*
X13559231Y7486497D01*
X13570102Y7497368D01*
X13579601Y7509459D01*
X13587577Y7522667D01*
X13593927Y7536688D01*
X13598499Y7551369D01*
X13601242Y7566507D01*
X13602207Y7581900D01*
X13601242Y7597292D01*
X13598499Y7612430D01*
X13593927Y7627112D01*
X13587577Y7641132D01*
X13579601Y7654340D01*
X13570102Y7666431D01*
X13559231Y7677302D01*
X13547140Y7686802D01*
X13533932Y7694777D01*
X13519912Y7701127D01*
X13505230Y7705699D01*
X13490092Y7708442D01*
X13474700Y7709408D01*
X13459307Y7708442D01*
X13444169Y7705699D01*
X13429488Y7701127D01*
X13415467Y7694777D01*
X13402259Y7686802D01*
X13390168Y7677302D01*
X13379297Y7666431D01*
X13369798Y7654340D01*
X13361822Y7641132D01*
X13355472Y7627112D01*
X13350900Y7612430D01*
X13348157Y7597292D01*
X13347192Y7581900D01*
X13348157Y7566507D01*
X13350900Y7551369D01*
X13355472Y7536688D01*
X13361822Y7522667D01*
X13369798Y7509459D01*
X13379297Y7497368D01*
X13390168Y7486497D01*
X13402259Y7476998D01*
X13415467Y7469022D01*
X13429488Y7462672D01*
X13444169Y7458100D01*
X13459307Y7455357D01*
G37*
G36*
X9721646Y13462D02*
G01*
X9734753Y13462D01*
X9747707Y15240D01*
X9760305Y18745D01*
X9772294Y23977D01*
X9783470Y30784D01*
X9793630Y39014D01*
X9802571Y48615D01*
X9810089Y59283D01*
X9816134Y70916D01*
X9820503Y83210D01*
X9823145Y96062D01*
X9824110Y109423D01*
X9824110Y220776D01*
X9823145Y234137D01*
X9820503Y246989D01*
X9816134Y259283D01*
X9810089Y270916D01*
X9802571Y281584D01*
X9793630Y291185D01*
X9783470Y299415D01*
X9772294Y306222D01*
X9760305Y311454D01*
X9747707Y314960D01*
X9734753Y316738D01*
X9721646Y316738D01*
X9708692Y314960D01*
X9696094Y311454D01*
X9684105Y306222D01*
X9672929Y299415D01*
X9662769Y291185D01*
X9653828Y281584D01*
X9646310Y270916D01*
X9640265Y259283D01*
X9635896Y246989D01*
X9633254Y234137D01*
X9632340Y220776D01*
X9632340Y109423D01*
X9633254Y96062D01*
X9635896Y83210D01*
X9640265Y70916D01*
X9646310Y59283D01*
X9653828Y48615D01*
X9662769Y39014D01*
X9672929Y30784D01*
X9684105Y23977D01*
X9696094Y18745D01*
X9708692Y15240D01*
G37*
G36*
X11245646Y13462D02*
G01*
X11258753Y13462D01*
X11271707Y15240D01*
X11284305Y18745D01*
X11296294Y23977D01*
X11307470Y30784D01*
X11317630Y39014D01*
X11326571Y48615D01*
X11334089Y59283D01*
X11340134Y70916D01*
X11344503Y83210D01*
X11347145Y96062D01*
X11348110Y109423D01*
X11348110Y220776D01*
X11347145Y234137D01*
X11344503Y246989D01*
X11340134Y259283D01*
X11334089Y270916D01*
X11326571Y281584D01*
X11317630Y291185D01*
X11307470Y299415D01*
X11296294Y306222D01*
X11284305Y311454D01*
X11271707Y314960D01*
X11258753Y316738D01*
X11245646Y316738D01*
X11232692Y314960D01*
X11220094Y311454D01*
X11208105Y306222D01*
X11196929Y299415D01*
X11186769Y291185D01*
X11177828Y281584D01*
X11170310Y270916D01*
X11164265Y259283D01*
X11159896Y246989D01*
X11157254Y234137D01*
X11156340Y220776D01*
X11156340Y109423D01*
X11157254Y96062D01*
X11159896Y83210D01*
X11164265Y70916D01*
X11170310Y59283D01*
X11177828Y48615D01*
X11186769Y39014D01*
X11196929Y30784D01*
X11208105Y23977D01*
X11220094Y18745D01*
X11232692Y15240D01*
G37*
G36*
X11499646Y13462D02*
G01*
X11512753Y13462D01*
X11525707Y15240D01*
X11538305Y18745D01*
X11550294Y23977D01*
X11561470Y30784D01*
X11571630Y39014D01*
X11580571Y48615D01*
X11588089Y59283D01*
X11594134Y70916D01*
X11598503Y83210D01*
X11601145Y96062D01*
X11602110Y109423D01*
X11602110Y220776D01*
X11601145Y234137D01*
X11598503Y246989D01*
X11594134Y259283D01*
X11588089Y270916D01*
X11580571Y281584D01*
X11571630Y291185D01*
X11561470Y299415D01*
X11550294Y306222D01*
X11538305Y311454D01*
X11525707Y314960D01*
X11512753Y316738D01*
X11499646Y316738D01*
X11486692Y314960D01*
X11474094Y311454D01*
X11462105Y306222D01*
X11450929Y299415D01*
X11440769Y291185D01*
X11431828Y281584D01*
X11424310Y270916D01*
X11418265Y259283D01*
X11413896Y246989D01*
X11411254Y234137D01*
X11410340Y220776D01*
X11410340Y109423D01*
X11411254Y96062D01*
X11413896Y83210D01*
X11418265Y70916D01*
X11424310Y59283D01*
X11431828Y48615D01*
X11440769Y39014D01*
X11450929Y30784D01*
X11462105Y23977D01*
X11474094Y18745D01*
X11486692Y15240D01*
G37*
G36*
X9975646Y13462D02*
G01*
X9988753Y13462D01*
X10001707Y15240D01*
X10014305Y18745D01*
X10026294Y23977D01*
X10037470Y30784D01*
X10047630Y39014D01*
X10056571Y48615D01*
X10064089Y59283D01*
X10070134Y70916D01*
X10074503Y83210D01*
X10077145Y96062D01*
X10078110Y109423D01*
X10078110Y220776D01*
X10077145Y234137D01*
X10074503Y246989D01*
X10070134Y259283D01*
X10064089Y270916D01*
X10056571Y281584D01*
X10047630Y291185D01*
X10037470Y299415D01*
X10026294Y306222D01*
X10014305Y311454D01*
X10001707Y314960D01*
X9988753Y316738D01*
X9975646Y316738D01*
X9962692Y314960D01*
X9950094Y311454D01*
X9938105Y306222D01*
X9926929Y299415D01*
X9916769Y291185D01*
X9907828Y281584D01*
X9900310Y270916D01*
X9894265Y259283D01*
X9889896Y246989D01*
X9887254Y234137D01*
X9886340Y220776D01*
X9886340Y109423D01*
X9887254Y96062D01*
X9889896Y83210D01*
X9894265Y70916D01*
X9900310Y59283D01*
X9907828Y48615D01*
X9916769Y39014D01*
X9926929Y30784D01*
X9938105Y23977D01*
X9950094Y18745D01*
X9962692Y15240D01*
G37*
G36*
X10229646Y13462D02*
G01*
X10242753Y13462D01*
X10255707Y15240D01*
X10268305Y18745D01*
X10280294Y23977D01*
X10291470Y30784D01*
X10301630Y39014D01*
X10310571Y48615D01*
X10318089Y59283D01*
X10324134Y70916D01*
X10328503Y83210D01*
X10331145Y96062D01*
X10332110Y109423D01*
X10332110Y220776D01*
X10331145Y234137D01*
X10328503Y246989D01*
X10324134Y259283D01*
X10318089Y270916D01*
X10310571Y281584D01*
X10301630Y291185D01*
X10291470Y299415D01*
X10280294Y306222D01*
X10268305Y311454D01*
X10255707Y314960D01*
X10242753Y316738D01*
X10229646Y316738D01*
X10216692Y314960D01*
X10204094Y311454D01*
X10192105Y306222D01*
X10180929Y299415D01*
X10170769Y291185D01*
X10161828Y281584D01*
X10154310Y270916D01*
X10148265Y259283D01*
X10143896Y246989D01*
X10141254Y234137D01*
X10140340Y220776D01*
X10140340Y109423D01*
X10141254Y96062D01*
X10143896Y83210D01*
X10148265Y70916D01*
X10154310Y59283D01*
X10161828Y48615D01*
X10170769Y39014D01*
X10180929Y30784D01*
X10192105Y23977D01*
X10204094Y18745D01*
X10216692Y15240D01*
G37*
G36*
X12261646Y13462D02*
G01*
X12274753Y13462D01*
X12287707Y15240D01*
X12300305Y18745D01*
X12312294Y23977D01*
X12323470Y30784D01*
X12333630Y39014D01*
X12342571Y48615D01*
X12350089Y59283D01*
X12356134Y70916D01*
X12360503Y83210D01*
X12363145Y96062D01*
X12364110Y109423D01*
X12364110Y220776D01*
X12363145Y234137D01*
X12360503Y246989D01*
X12356134Y259283D01*
X12350089Y270916D01*
X12342571Y281584D01*
X12333630Y291185D01*
X12323470Y299415D01*
X12312294Y306222D01*
X12300305Y311454D01*
X12287707Y314960D01*
X12274753Y316738D01*
X12261646Y316738D01*
X12248692Y314960D01*
X12236094Y311454D01*
X12224105Y306222D01*
X12212929Y299415D01*
X12202769Y291185D01*
X12193828Y281584D01*
X12186310Y270916D01*
X12180265Y259283D01*
X12175896Y246989D01*
X12173254Y234137D01*
X12172340Y220776D01*
X12172340Y109423D01*
X12173254Y96062D01*
X12175896Y83210D01*
X12180265Y70916D01*
X12186310Y59283D01*
X12193828Y48615D01*
X12202769Y39014D01*
X12212929Y30784D01*
X12224105Y23977D01*
X12236094Y18745D01*
X12248692Y15240D01*
G37*
G36*
X10991646Y13462D02*
G01*
X11004753Y13462D01*
X11017707Y15240D01*
X11030305Y18745D01*
X11042294Y23977D01*
X11053470Y30784D01*
X11063630Y39014D01*
X11072571Y48615D01*
X11080089Y59283D01*
X11086134Y70916D01*
X11090503Y83210D01*
X11093145Y96062D01*
X11094110Y109423D01*
X11094110Y220776D01*
X11093145Y234137D01*
X11090503Y246989D01*
X11086134Y259283D01*
X11080089Y270916D01*
X11072571Y281584D01*
X11063630Y291185D01*
X11053470Y299415D01*
X11042294Y306222D01*
X11030305Y311454D01*
X11017707Y314960D01*
X11004753Y316738D01*
X10991646Y316738D01*
X10978692Y314960D01*
X10966094Y311454D01*
X10954105Y306222D01*
X10942929Y299415D01*
X10932769Y291185D01*
X10923828Y281584D01*
X10916310Y270916D01*
X10910265Y259283D01*
X10905896Y246989D01*
X10903254Y234137D01*
X10902340Y220776D01*
X10902340Y109423D01*
X10903254Y96062D01*
X10905896Y83210D01*
X10910265Y70916D01*
X10916310Y59283D01*
X10923828Y48615D01*
X10932769Y39014D01*
X10942929Y30784D01*
X10954105Y23977D01*
X10966094Y18745D01*
X10978692Y15240D01*
G37*
G36*
X8959646Y13462D02*
G01*
X8972753Y13462D01*
X8985707Y15240D01*
X8998305Y18745D01*
X9010294Y23977D01*
X9021470Y30784D01*
X9031630Y39014D01*
X9040571Y48615D01*
X9048089Y59283D01*
X9054134Y70916D01*
X9058503Y83210D01*
X9061145Y96062D01*
X9062110Y109423D01*
X9062110Y220776D01*
X9061145Y234137D01*
X9058503Y246989D01*
X9054134Y259283D01*
X9048089Y270916D01*
X9040571Y281584D01*
X9031630Y291185D01*
X9021470Y299415D01*
X9010294Y306222D01*
X8998305Y311454D01*
X8985707Y314960D01*
X8972753Y316738D01*
X8959646Y316738D01*
X8946692Y314960D01*
X8934094Y311454D01*
X8922105Y306222D01*
X8910929Y299415D01*
X8900769Y291185D01*
X8891828Y281584D01*
X8884310Y270916D01*
X8878265Y259283D01*
X8873896Y246989D01*
X8871254Y234137D01*
X8870340Y220776D01*
X8870340Y109423D01*
X8871254Y96062D01*
X8873896Y83210D01*
X8878265Y70916D01*
X8884310Y59283D01*
X8891828Y48615D01*
X8900769Y39014D01*
X8910929Y30784D01*
X8922105Y23977D01*
X8934094Y18745D01*
X8946692Y15240D01*
G37*
G36*
X12515646Y13462D02*
G01*
X12528753Y13462D01*
X12541707Y15240D01*
X12554305Y18745D01*
X12566294Y23977D01*
X12577470Y30784D01*
X12587630Y39014D01*
X12596571Y48615D01*
X12604089Y59283D01*
X12610134Y70916D01*
X12614503Y83210D01*
X12617145Y96062D01*
X12618110Y109423D01*
X12618110Y220776D01*
X12617145Y234137D01*
X12614503Y246989D01*
X12610134Y259283D01*
X12604089Y270916D01*
X12596571Y281584D01*
X12587630Y291185D01*
X12577470Y299415D01*
X12566294Y306222D01*
X12554305Y311454D01*
X12541707Y314960D01*
X12528753Y316738D01*
X12515646Y316738D01*
X12502692Y314960D01*
X12490094Y311454D01*
X12478105Y306222D01*
X12466929Y299415D01*
X12456769Y291185D01*
X12447828Y281584D01*
X12440310Y270916D01*
X12434265Y259283D01*
X12429896Y246989D01*
X12427254Y234137D01*
X12426340Y220776D01*
X12426340Y109423D01*
X12427254Y96062D01*
X12429896Y83210D01*
X12434265Y70916D01*
X12440310Y59283D01*
X12447828Y48615D01*
X12456769Y39014D01*
X12466929Y30784D01*
X12478105Y23977D01*
X12490094Y18745D01*
X12502692Y15240D01*
G37*
G36*
X8705646Y13462D02*
G01*
X8718753Y13462D01*
X8731707Y15240D01*
X8744305Y18745D01*
X8756294Y23977D01*
X8767470Y30784D01*
X8777630Y39014D01*
X8786571Y48615D01*
X8794089Y59283D01*
X8800134Y70916D01*
X8804503Y83210D01*
X8807145Y96062D01*
X8808110Y109423D01*
X8808110Y220776D01*
X8807145Y234137D01*
X8804503Y246989D01*
X8800134Y259283D01*
X8794089Y270916D01*
X8786571Y281584D01*
X8777630Y291185D01*
X8766860Y299923D01*
X8764117Y303428D01*
X8763101Y307797D01*
X8763101Y573938D01*
X8763863Y577799D01*
X8766098Y581101D01*
X8769400Y583336D01*
X8773261Y584098D01*
X9956292Y584098D01*
X9960610Y583133D01*
X9962946Y582066D01*
X9972395Y579526D01*
X9982200Y578662D01*
X9992004Y579526D01*
X10001453Y582066D01*
X10003790Y583133D01*
X10008108Y584098D01*
X11226292Y584098D01*
X11230610Y583133D01*
X11232946Y582066D01*
X11242395Y579526D01*
X11252200Y578662D01*
X11262004Y579526D01*
X11271453Y582066D01*
X11273790Y583133D01*
X11278108Y584098D01*
X12496292Y584098D01*
X12500610Y583133D01*
X12502946Y582066D01*
X12512395Y579526D01*
X12522200Y578662D01*
X12532004Y579526D01*
X12541453Y582066D01*
X12550394Y586181D01*
X12558420Y591820D01*
X12565380Y598779D01*
X12571018Y606806D01*
X12575133Y615746D01*
X12577673Y625195D01*
X12578537Y635000D01*
X12577673Y644804D01*
X12575133Y654253D01*
X12571018Y663194D01*
X12565380Y671220D01*
X12558420Y678180D01*
X12550394Y683818D01*
X12541453Y687933D01*
X12532004Y690473D01*
X12522200Y691337D01*
X12512395Y690473D01*
X12502946Y687933D01*
X12500610Y686866D01*
X12496292Y685901D01*
X11278108Y685901D01*
X11273790Y686866D01*
X11271453Y687933D01*
X11262004Y690473D01*
X11252200Y691337D01*
X11242395Y690473D01*
X11232946Y687933D01*
X11230610Y686866D01*
X11226292Y685901D01*
X10008108Y685901D01*
X10003790Y686866D01*
X10001453Y687933D01*
X9992004Y690473D01*
X9982200Y691337D01*
X9972395Y690473D01*
X9962946Y687933D01*
X9960610Y686866D01*
X9956292Y685901D01*
X8712657Y685901D01*
X8703360Y685088D01*
X8694826Y682802D01*
X8686749Y679043D01*
X8679484Y673963D01*
X8673236Y667715D01*
X8668156Y660450D01*
X8664397Y652373D01*
X8662111Y643839D01*
X8661298Y634542D01*
X8661298Y307797D01*
X8660282Y303428D01*
X8657539Y299923D01*
X8646769Y291185D01*
X8637828Y281584D01*
X8630310Y270916D01*
X8624265Y259283D01*
X8619896Y246989D01*
X8617254Y234137D01*
X8616340Y220776D01*
X8616340Y109423D01*
X8617254Y96062D01*
X8619896Y83210D01*
X8624265Y70916D01*
X8630310Y59283D01*
X8637828Y48615D01*
X8646769Y39014D01*
X8656929Y30784D01*
X8668105Y23977D01*
X8680094Y18745D01*
X8692692Y15240D01*
G37*
G36*
X8451646Y13462D02*
G01*
X8464753Y13462D01*
X8477707Y15240D01*
X8490305Y18745D01*
X8502294Y23977D01*
X8513470Y30784D01*
X8523630Y39014D01*
X8532571Y48615D01*
X8540089Y59283D01*
X8546134Y70916D01*
X8550503Y83210D01*
X8553145Y96062D01*
X8554110Y109423D01*
X8554110Y220776D01*
X8553145Y234137D01*
X8550503Y246989D01*
X8546134Y259283D01*
X8540089Y270916D01*
X8532571Y281584D01*
X8523630Y291185D01*
X8513470Y299415D01*
X8502294Y306222D01*
X8490305Y311454D01*
X8477707Y314960D01*
X8464753Y316738D01*
X8451646Y316738D01*
X8438692Y314960D01*
X8426094Y311454D01*
X8414105Y306222D01*
X8402929Y299415D01*
X8392769Y291185D01*
X8383828Y281584D01*
X8376310Y270916D01*
X8370265Y259283D01*
X8365896Y246989D01*
X8363254Y234137D01*
X8362645Y225450D01*
X8361680Y221792D01*
X8359444Y218744D01*
X8356244Y216712D01*
X8352485Y216001D01*
X6703161Y216001D01*
X6699300Y216763D01*
X6695998Y218998D01*
X6693763Y222300D01*
X6693001Y226161D01*
X6693001Y259537D01*
X6693662Y263093D01*
X6695490Y266192D01*
X6698284Y268427D01*
X6703618Y271373D01*
X6715252Y279857D01*
X6725767Y289712D01*
X6734962Y300837D01*
X6742684Y312978D01*
X6748830Y326034D01*
X6753301Y339750D01*
X6755993Y353923D01*
X6756908Y368300D01*
X6755993Y382676D01*
X6753301Y396849D01*
X6748830Y410565D01*
X6742684Y423621D01*
X6734962Y435762D01*
X6725767Y446887D01*
X6715252Y456742D01*
X6703618Y465226D01*
X6690969Y472185D01*
X6677558Y477469D01*
X6663588Y481076D01*
X6649313Y482854D01*
X6634886Y482854D01*
X6620611Y481076D01*
X6606641Y477469D01*
X6593230Y472185D01*
X6580581Y465226D01*
X6568948Y456742D01*
X6558432Y446887D01*
X6549237Y435762D01*
X6541719Y423926D01*
X6539433Y421385D01*
X6536486Y419760D01*
X6533134Y419201D01*
X5431028Y419201D01*
X5426760Y420166D01*
X5423255Y422808D01*
X5420106Y426567D01*
X5409946Y435711D01*
X5398719Y443433D01*
X5386578Y449580D01*
X5373674Y454050D01*
X5360314Y456793D01*
X5346700Y457708D01*
X5333085Y456793D01*
X5319725Y454050D01*
X5306822Y449580D01*
X5294680Y443433D01*
X5283454Y435711D01*
X5273294Y426567D01*
X5270144Y422808D01*
X5266639Y420166D01*
X5262372Y419201D01*
X5014061Y419201D01*
X5010200Y419963D01*
X5006898Y422198D01*
X5004663Y425500D01*
X5003901Y429361D01*
X5003901Y815238D01*
X5004663Y819099D01*
X5006898Y822401D01*
X5010200Y824636D01*
X5014061Y825398D01*
X5245455Y825398D01*
X5249011Y824737D01*
X5252110Y822909D01*
X5254396Y820115D01*
X5260644Y808685D01*
X5268722Y797712D01*
X5278221Y787908D01*
X5288940Y779424D01*
X5300675Y772464D01*
X5313222Y767181D01*
X5326380Y763574D01*
X5339892Y761746D01*
X5353507Y761746D01*
X5367020Y763574D01*
X5380177Y767181D01*
X5392724Y772464D01*
X5404459Y779424D01*
X5415178Y787908D01*
X5424678Y797712D01*
X5432755Y808685D01*
X5439308Y820623D01*
X5444185Y833374D01*
X5447385Y846632D01*
X5448706Y860196D01*
X5448249Y873810D01*
X5446014Y887272D01*
X5441950Y900277D01*
X5436209Y912672D01*
X5428894Y924153D01*
X5420106Y934567D01*
X5409946Y943711D01*
X5402021Y949198D01*
X5399633Y951433D01*
X5398109Y954328D01*
X5397601Y957529D01*
X5397601Y1023569D01*
X5398211Y1027023D01*
X5399938Y1030071D01*
X5402580Y1032306D01*
X5404459Y1033424D01*
X5415178Y1041908D01*
X5424678Y1051712D01*
X5432755Y1062685D01*
X5439308Y1074623D01*
X5444185Y1087374D01*
X5447385Y1100632D01*
X5448706Y1114196D01*
X5448249Y1127810D01*
X5446014Y1141272D01*
X5441950Y1154277D01*
X5436209Y1166672D01*
X5428894Y1178153D01*
X5420106Y1188567D01*
X5409946Y1197711D01*
X5398719Y1205433D01*
X5386578Y1211580D01*
X5373674Y1216050D01*
X5360314Y1218793D01*
X5346700Y1219708D01*
X5333085Y1218793D01*
X5319725Y1216050D01*
X5306822Y1211580D01*
X5294680Y1205433D01*
X5283454Y1197711D01*
X5273294Y1188567D01*
X5264505Y1178153D01*
X5257190Y1166672D01*
X5251450Y1154277D01*
X5247386Y1141272D01*
X5245150Y1127810D01*
X5244693Y1114196D01*
X5246014Y1100632D01*
X5249214Y1087374D01*
X5254091Y1074623D01*
X5260644Y1062685D01*
X5268722Y1051712D01*
X5278221Y1041908D01*
X5288940Y1033424D01*
X5290820Y1032306D01*
X5293461Y1030071D01*
X5295188Y1027023D01*
X5295798Y1023569D01*
X5295798Y957529D01*
X5295290Y954328D01*
X5293766Y951433D01*
X5291378Y949198D01*
X5283454Y943711D01*
X5273294Y934567D01*
X5270144Y930808D01*
X5266639Y928166D01*
X5262372Y927201D01*
X4978908Y927201D01*
X4974590Y928166D01*
X4972253Y929233D01*
X4962804Y931773D01*
X4953000Y932637D01*
X4943195Y931773D01*
X4933746Y929233D01*
X4924806Y925118D01*
X4916779Y919480D01*
X4909820Y912520D01*
X4904181Y904494D01*
X4900066Y895553D01*
X4897526Y886104D01*
X4896662Y876300D01*
X4897526Y866495D01*
X4900066Y857046D01*
X4901133Y854710D01*
X4902098Y850392D01*
X4902098Y368757D01*
X4902911Y359460D01*
X4905197Y350926D01*
X4908956Y342849D01*
X4914036Y335584D01*
X4920284Y329336D01*
X4927549Y324256D01*
X4935626Y320497D01*
X4944160Y318211D01*
X4953457Y317398D01*
X5245455Y317398D01*
X5249011Y316738D01*
X5252110Y314909D01*
X5254396Y312115D01*
X5260644Y300685D01*
X5268722Y289712D01*
X5278221Y279908D01*
X5288940Y271424D01*
X5300675Y264464D01*
X5313222Y259181D01*
X5326380Y255574D01*
X5339892Y253746D01*
X5353507Y253746D01*
X5367020Y255574D01*
X5380177Y259181D01*
X5392724Y264464D01*
X5404459Y271424D01*
X5415178Y279908D01*
X5424678Y289712D01*
X5432755Y300685D01*
X5439003Y312115D01*
X5441289Y314909D01*
X5444388Y316738D01*
X5447944Y317398D01*
X6533134Y317398D01*
X6536486Y316839D01*
X6539433Y315214D01*
X6541719Y312674D01*
X6549237Y300837D01*
X6558432Y289712D01*
X6568948Y279857D01*
X6580581Y271373D01*
X6585915Y268427D01*
X6588709Y266192D01*
X6590538Y263093D01*
X6591198Y259537D01*
X6591198Y165557D01*
X6592011Y156260D01*
X6594297Y147726D01*
X6598056Y139649D01*
X6603136Y132384D01*
X6609384Y126136D01*
X6616649Y121056D01*
X6624726Y117297D01*
X6633260Y115011D01*
X6642557Y114198D01*
X8352485Y114198D01*
X8356244Y113487D01*
X8359444Y111455D01*
X8361680Y108407D01*
X8362645Y104749D01*
X8363254Y96062D01*
X8365896Y83210D01*
X8370265Y70916D01*
X8376310Y59283D01*
X8383828Y48615D01*
X8392769Y39014D01*
X8402929Y30784D01*
X8414105Y23977D01*
X8426094Y18745D01*
X8438692Y15240D01*
G37*
G36*
X12769646Y13462D02*
G01*
X12782753Y13462D01*
X12795707Y15240D01*
X12808305Y18745D01*
X12820294Y23977D01*
X12831470Y30784D01*
X12841630Y39014D01*
X12850571Y48615D01*
X12858089Y59283D01*
X12864134Y70916D01*
X12868503Y83210D01*
X12871145Y96062D01*
X12872110Y109423D01*
X12872110Y220776D01*
X12871145Y234137D01*
X12868503Y246989D01*
X12864134Y259283D01*
X12858089Y270916D01*
X12850571Y281584D01*
X12841630Y291185D01*
X12830860Y299923D01*
X12828117Y303428D01*
X12827101Y307797D01*
X12827101Y1208938D01*
X12827863Y1212799D01*
X12830098Y1216101D01*
X12833400Y1218336D01*
X12837261Y1219098D01*
X12978333Y1219098D01*
X12982956Y1219301D01*
X12987375Y1219860D01*
X12991693Y1220825D01*
X12995960Y1222146D01*
X13000024Y1223873D01*
X13003987Y1225905D01*
X13007746Y1228293D01*
X13011251Y1230985D01*
X13014706Y1234135D01*
X13413994Y1633474D01*
X13417296Y1635658D01*
X13421207Y1636420D01*
X13453821Y1636420D01*
X13460171Y1637131D01*
X13465606Y1639062D01*
X13470534Y1642160D01*
X13474598Y1646224D01*
X13477697Y1651152D01*
X13479576Y1656588D01*
X13480288Y1662938D01*
X13480288Y1742439D01*
X13479576Y1748739D01*
X13477697Y1754225D01*
X13474598Y1759102D01*
X13470534Y1763217D01*
X13465606Y1766265D01*
X13459561Y1768398D01*
X13456005Y1770532D01*
X13453567Y1773936D01*
X13452754Y1778000D01*
X13453567Y1782064D01*
X13456005Y1785467D01*
X13459561Y1787601D01*
X13465606Y1789734D01*
X13470534Y1792782D01*
X13474598Y1796897D01*
X13477697Y1801774D01*
X13479576Y1807260D01*
X13480288Y1813560D01*
X13480288Y1893062D01*
X13479576Y1899412D01*
X13477697Y1904847D01*
X13474598Y1909775D01*
X13470534Y1913839D01*
X13466927Y1916074D01*
X13464387Y1918360D01*
X13462762Y1921357D01*
X13462203Y1924710D01*
X13462812Y2467406D01*
X13463371Y2470759D01*
X13464997Y2473706D01*
X13468502Y2476601D01*
X13472617Y2480665D01*
X13475665Y2485593D01*
X13477798Y2491638D01*
X13479932Y2495194D01*
X13483336Y2497632D01*
X13487400Y2498445D01*
X13491463Y2497632D01*
X13494867Y2495194D01*
X13497001Y2491638D01*
X13499134Y2485593D01*
X13502182Y2480665D01*
X13506297Y2476601D01*
X13511174Y2473502D01*
X13516660Y2471623D01*
X13522960Y2470912D01*
X13536218Y2470912D01*
X13536218Y2512060D01*
X13488466Y2512060D01*
X13484555Y2512822D01*
X13481304Y2515006D01*
X13479068Y2518308D01*
X13478306Y2522220D01*
X13478306Y2557780D01*
X13479068Y2561691D01*
X13481304Y2564993D01*
X13484555Y2567178D01*
X13488466Y2567940D01*
X13536218Y2567940D01*
X13536218Y2609088D01*
X13522960Y2609088D01*
X13516660Y2608376D01*
X13511174Y2606497D01*
X13506297Y2603398D01*
X13502182Y2599334D01*
X13499134Y2594406D01*
X13497001Y2588361D01*
X13494867Y2584805D01*
X13491463Y2582367D01*
X13487400Y2581554D01*
X13483336Y2582367D01*
X13479932Y2584805D01*
X13477798Y2588361D01*
X13475665Y2594406D01*
X13472617Y2599334D01*
X13468502Y2603398D01*
X13463117Y2606802D01*
X13460730Y2608884D01*
X13459053Y2611628D01*
X13458393Y2614777D01*
X13449350Y2758643D01*
X13447928Y2767838D01*
X13445134Y2776270D01*
X13440867Y2784043D01*
X13435076Y2791307D01*
X13060934Y3184499D01*
X13056463Y3188665D01*
X13054177Y3190494D01*
X13049199Y3193745D01*
X13046608Y3195116D01*
X13041121Y3197453D01*
X13038378Y3198368D01*
X13032587Y3199739D01*
X13029692Y3200146D01*
X13023545Y3200501D01*
X10243058Y3200501D01*
X10238740Y3201466D01*
X10236403Y3202533D01*
X10226954Y3205073D01*
X10217150Y3205937D01*
X10207345Y3205073D01*
X10197896Y3202533D01*
X10188956Y3198418D01*
X10180929Y3192780D01*
X10173970Y3185820D01*
X10168331Y3177794D01*
X10164216Y3168853D01*
X10161676Y3159404D01*
X10160812Y3149600D01*
X10161676Y3139795D01*
X10164216Y3130346D01*
X10168331Y3121406D01*
X10173970Y3113379D01*
X10180929Y3106420D01*
X10188956Y3100781D01*
X10197896Y3096666D01*
X10207345Y3094126D01*
X10211003Y3093770D01*
X10215168Y3092450D01*
X10217150Y3090672D01*
X10219131Y3092450D01*
X10223296Y3093770D01*
X10226954Y3094126D01*
X10236403Y3096666D01*
X10238740Y3097733D01*
X10243058Y3098698D01*
X11930938Y3098698D01*
X11935256Y3097733D01*
X11938000Y3095650D01*
X11940743Y3097733D01*
X11945061Y3098698D01*
X12997688Y3098698D01*
X13001650Y3097885D01*
X13005003Y3095548D01*
X13346328Y2736900D01*
X13348258Y2733954D01*
X13349071Y2730550D01*
X13356691Y2609342D01*
X13356082Y2605125D01*
X13353745Y2601518D01*
X13351560Y2599334D01*
X13348462Y2594406D01*
X13346531Y2588971D01*
X13345820Y2582621D01*
X13345820Y2497378D01*
X13346531Y2491028D01*
X13348462Y2485593D01*
X13351560Y2480665D01*
X13358774Y2473960D01*
X13360400Y2470962D01*
X13360958Y2467610D01*
X13360349Y1924812D01*
X13359790Y1921459D01*
X13358164Y1918462D01*
X13355624Y1916175D01*
X13351865Y1913839D01*
X13347801Y1909775D01*
X13344702Y1904847D01*
X13342823Y1899412D01*
X13342112Y1893062D01*
X13342112Y1813560D01*
X13342823Y1807260D01*
X13344702Y1801774D01*
X13347801Y1796897D01*
X13351865Y1792782D01*
X13356793Y1789734D01*
X13362838Y1787601D01*
X13366394Y1785467D01*
X13368832Y1782064D01*
X13369645Y1778000D01*
X13368832Y1773936D01*
X13366394Y1770532D01*
X13362838Y1768398D01*
X13356793Y1766265D01*
X13351865Y1763217D01*
X13347801Y1759102D01*
X13344702Y1754225D01*
X13342823Y1748739D01*
X13342112Y1742439D01*
X13342112Y1709775D01*
X13341299Y1705864D01*
X13339114Y1702562D01*
X12960400Y1323898D01*
X12957149Y1321663D01*
X12953238Y1320901D01*
X12776657Y1320901D01*
X12767360Y1320088D01*
X12758826Y1317802D01*
X12750749Y1314043D01*
X12743484Y1308963D01*
X12737236Y1302715D01*
X12732156Y1295450D01*
X12728397Y1287373D01*
X12726111Y1278839D01*
X12725298Y1269542D01*
X12725298Y307797D01*
X12724282Y303428D01*
X12721539Y299923D01*
X12710769Y291185D01*
X12701828Y281584D01*
X12694310Y270916D01*
X12688265Y259283D01*
X12683896Y246989D01*
X12681254Y234137D01*
X12680340Y220776D01*
X12680340Y109423D01*
X12681254Y96062D01*
X12683896Y83210D01*
X12688265Y70916D01*
X12694310Y59283D01*
X12701828Y48615D01*
X12710769Y39014D01*
X12720929Y30784D01*
X12732105Y23977D01*
X12744094Y18745D01*
X12756692Y15240D01*
G37*
G36*
X11718848Y22758D02*
G01*
X11718848Y95758D01*
X11665305Y95758D01*
X11667896Y83210D01*
X11672265Y70916D01*
X11678310Y59283D01*
X11685828Y48615D01*
X11694769Y39014D01*
X11704929Y30784D01*
X11716105Y23977D01*
G37*
G36*
X9261551Y22758D02*
G01*
X9264294Y23977D01*
X9275470Y30784D01*
X9285630Y39014D01*
X9294571Y48615D01*
X9302089Y59283D01*
X9308134Y70916D01*
X9312503Y83210D01*
X9315094Y95758D01*
X9261551Y95758D01*
G37*
G36*
X10531551Y22758D02*
G01*
X10534294Y23977D01*
X10545470Y30784D01*
X10555630Y39014D01*
X10564571Y48615D01*
X10572089Y59283D01*
X10578134Y70916D01*
X10582503Y83210D01*
X10585094Y95758D01*
X10531551Y95758D01*
G37*
G36*
X10448848Y22758D02*
G01*
X10448848Y95758D01*
X10395305Y95758D01*
X10397896Y83210D01*
X10402265Y70916D01*
X10408310Y59283D01*
X10415828Y48615D01*
X10424769Y39014D01*
X10434929Y30784D01*
X10446105Y23977D01*
G37*
G36*
X9178848Y22758D02*
G01*
X9178848Y95758D01*
X9125305Y95758D01*
X9127896Y83210D01*
X9132265Y70916D01*
X9138310Y59283D01*
X9145828Y48615D01*
X9154769Y39014D01*
X9164929Y30784D01*
X9176105Y23977D01*
G37*
G36*
X13071551Y22758D02*
G01*
X13074294Y23977D01*
X13085470Y30784D01*
X13095630Y39014D01*
X13104571Y48615D01*
X13112089Y59283D01*
X13118134Y70916D01*
X13122503Y83210D01*
X13125094Y95758D01*
X13071551Y95758D01*
G37*
G36*
X12988848Y22758D02*
G01*
X12988848Y95758D01*
X12935305Y95758D01*
X12937896Y83210D01*
X12942265Y70916D01*
X12948310Y59283D01*
X12955828Y48615D01*
X12964769Y39014D01*
X12974929Y30784D01*
X12986105Y23977D01*
G37*
G36*
X11801551Y22758D02*
G01*
X11804294Y23977D01*
X11815470Y30784D01*
X11825630Y39014D01*
X11834571Y48615D01*
X11842089Y59283D01*
X11848134Y70916D01*
X11852503Y83210D01*
X11855094Y95758D01*
X11801551Y95758D01*
G37*
G36*
X11665305Y234442D02*
G01*
X11718848Y234442D01*
X11718848Y307441D01*
X11716105Y306222D01*
X11704929Y299415D01*
X11694769Y291185D01*
X11685828Y281584D01*
X11678310Y270916D01*
X11672265Y259283D01*
X11667896Y246989D01*
G37*
G36*
X10531551Y234442D02*
G01*
X10585094Y234442D01*
X10582503Y246989D01*
X10578134Y259283D01*
X10572089Y270916D01*
X10564571Y281584D01*
X10555630Y291185D01*
X10545470Y299415D01*
X10534294Y306222D01*
X10531551Y307441D01*
G37*
G36*
X9261551Y234442D02*
G01*
X9315094Y234442D01*
X9312503Y246989D01*
X9308134Y259283D01*
X9302089Y270916D01*
X9294571Y281584D01*
X9285630Y291185D01*
X9275470Y299415D01*
X9264294Y306222D01*
X9261551Y307441D01*
G37*
G36*
X9125305Y234442D02*
G01*
X9178848Y234442D01*
X9178848Y307441D01*
X9176105Y306222D01*
X9164929Y299415D01*
X9154769Y291185D01*
X9145828Y281584D01*
X9138310Y270916D01*
X9132265Y259283D01*
X9127896Y246989D01*
G37*
G36*
X11801551Y234442D02*
G01*
X11855094Y234442D01*
X11852503Y246989D01*
X11848134Y259283D01*
X11842089Y270916D01*
X11834571Y281584D01*
X11825630Y291185D01*
X11815470Y299415D01*
X11804294Y306222D01*
X11801551Y307441D01*
G37*
G36*
X12935305Y234442D02*
G01*
X12988848Y234442D01*
X12988848Y307441D01*
X12986105Y306222D01*
X12974929Y299415D01*
X12964769Y291185D01*
X12955828Y281584D01*
X12948310Y270916D01*
X12942265Y259283D01*
X12937896Y246989D01*
G37*
G36*
X10395305Y234442D02*
G01*
X10448848Y234442D01*
X10448848Y307441D01*
X10446105Y306222D01*
X10434929Y299415D01*
X10424769Y291185D01*
X10415828Y281584D01*
X10408310Y270916D01*
X10402265Y259283D01*
X10397896Y246989D01*
G37*
G36*
X13071551Y234442D02*
G01*
X13125094Y234442D01*
X13122503Y246989D01*
X13118134Y259283D01*
X13112089Y270916D01*
X13104571Y281584D01*
X13095630Y291185D01*
X13085470Y299415D01*
X13074294Y306222D01*
X13071551Y307441D01*
G37*
G36*
X7904886Y253746D02*
G01*
X7919313Y253746D01*
X7933588Y255524D01*
X7947558Y259130D01*
X7960969Y264414D01*
X7973618Y271373D01*
X7985252Y279857D01*
X7995767Y289712D01*
X8004962Y300837D01*
X8012480Y312674D01*
X8014766Y315214D01*
X8017713Y316839D01*
X8021066Y317398D01*
X8178342Y317398D01*
X8187639Y318211D01*
X8196173Y320497D01*
X8204250Y324256D01*
X8211515Y329336D01*
X8217763Y335584D01*
X8222843Y342849D01*
X8226602Y350926D01*
X8228888Y359460D01*
X8229701Y368757D01*
X8229701Y2641396D01*
X8229498Y2646019D01*
X8228939Y2650439D01*
X8227974Y2654757D01*
X8226653Y2659024D01*
X8224926Y2663088D01*
X8222894Y2667050D01*
X8220506Y2670810D01*
X8217814Y2674315D01*
X8214664Y2677769D01*
X8202269Y2690164D01*
X8198815Y2693314D01*
X8195309Y2696006D01*
X8191550Y2698394D01*
X8187588Y2700426D01*
X8183524Y2702153D01*
X8179257Y2703474D01*
X8174939Y2704439D01*
X8170519Y2704998D01*
X8165896Y2705201D01*
X8021066Y2705201D01*
X8017713Y2705760D01*
X8014766Y2707386D01*
X8012480Y2709926D01*
X8004962Y2721762D01*
X7995767Y2732887D01*
X7985252Y2742742D01*
X7973618Y2751226D01*
X7960969Y2758186D01*
X7947558Y2763469D01*
X7933588Y2767076D01*
X7919313Y2768854D01*
X7904886Y2768854D01*
X7890611Y2767076D01*
X7876641Y2763469D01*
X7863230Y2758186D01*
X7850581Y2751226D01*
X7838948Y2742742D01*
X7828432Y2732887D01*
X7819237Y2721762D01*
X7811516Y2709621D01*
X7805369Y2696565D01*
X7800898Y2682849D01*
X7798206Y2668676D01*
X7797292Y2654300D01*
X7798206Y2639923D01*
X7800898Y2625750D01*
X7805369Y2612034D01*
X7811516Y2598978D01*
X7819237Y2586837D01*
X7828432Y2575712D01*
X7838948Y2565857D01*
X7850581Y2557373D01*
X7863230Y2550414D01*
X7876641Y2545130D01*
X7890611Y2541524D01*
X7904886Y2539746D01*
X7919313Y2539746D01*
X7933588Y2541524D01*
X7947558Y2545130D01*
X7960969Y2550414D01*
X7973618Y2557373D01*
X7985252Y2565857D01*
X7995767Y2575712D01*
X8004962Y2586837D01*
X8012480Y2598674D01*
X8014766Y2601214D01*
X8017713Y2602839D01*
X8021066Y2603398D01*
X8117738Y2603398D01*
X8121599Y2602636D01*
X8124901Y2600401D01*
X8127136Y2597099D01*
X8127898Y2593238D01*
X8127898Y429361D01*
X8127136Y425500D01*
X8124901Y422198D01*
X8121599Y419963D01*
X8117738Y419201D01*
X8021066Y419201D01*
X8017713Y419760D01*
X8014766Y421385D01*
X8012480Y423926D01*
X8004962Y435762D01*
X7995767Y446887D01*
X7985252Y456742D01*
X7973618Y465226D01*
X7960969Y472185D01*
X7947558Y477469D01*
X7933588Y481076D01*
X7919313Y482854D01*
X7904886Y482854D01*
X7890611Y481076D01*
X7876641Y477469D01*
X7863230Y472185D01*
X7850581Y465226D01*
X7838948Y456742D01*
X7828432Y446887D01*
X7819237Y435762D01*
X7811516Y423621D01*
X7805369Y410565D01*
X7800898Y396849D01*
X7798206Y382676D01*
X7797292Y368300D01*
X7798206Y353923D01*
X7800898Y339750D01*
X7805369Y326034D01*
X7811516Y312978D01*
X7819237Y300837D01*
X7828432Y289712D01*
X7838948Y279857D01*
X7850581Y271373D01*
X7863230Y264414D01*
X7876641Y259130D01*
X7890611Y255524D01*
G37*
G36*
X7904886Y507746D02*
G01*
X7919313Y507746D01*
X7933588Y509524D01*
X7947558Y513130D01*
X7960969Y518414D01*
X7973618Y525373D01*
X7985252Y533857D01*
X7995767Y543712D01*
X8004962Y554837D01*
X8012684Y566978D01*
X8018830Y580034D01*
X8023301Y593750D01*
X8025993Y607923D01*
X8026908Y622300D01*
X8025993Y636676D01*
X8023301Y650849D01*
X8018830Y664565D01*
X8012684Y677621D01*
X8004962Y689762D01*
X7995767Y700887D01*
X7985252Y710742D01*
X7973618Y719226D01*
X7960969Y726186D01*
X7947558Y731469D01*
X7933588Y735076D01*
X7919313Y736854D01*
X7904886Y736854D01*
X7890611Y735076D01*
X7876641Y731469D01*
X7863230Y726186D01*
X7850581Y719226D01*
X7838948Y710742D01*
X7828432Y700887D01*
X7819237Y689762D01*
X7811516Y677621D01*
X7805369Y664565D01*
X7800898Y650849D01*
X7798206Y636676D01*
X7797292Y622300D01*
X7798206Y607923D01*
X7800898Y593750D01*
X7805369Y580034D01*
X7811516Y566978D01*
X7819237Y554837D01*
X7828432Y543712D01*
X7838948Y533857D01*
X7850581Y525373D01*
X7863230Y518414D01*
X7876641Y513130D01*
X7890611Y509524D01*
G37*
G36*
X6634886Y507746D02*
G01*
X6649313Y507746D01*
X6663588Y509524D01*
X6677558Y513130D01*
X6690969Y518414D01*
X6703618Y525373D01*
X6715252Y533857D01*
X6725767Y543712D01*
X6734962Y554837D01*
X6742684Y566978D01*
X6748830Y580034D01*
X6753301Y593750D01*
X6755993Y607923D01*
X6756908Y622300D01*
X6755993Y636676D01*
X6753301Y650849D01*
X6748830Y664565D01*
X6742684Y677621D01*
X6734962Y689762D01*
X6725767Y700887D01*
X6715252Y710742D01*
X6703618Y719226D01*
X6690969Y726186D01*
X6677558Y731469D01*
X6663588Y735076D01*
X6649313Y736854D01*
X6634886Y736854D01*
X6620611Y735076D01*
X6606641Y731469D01*
X6593230Y726186D01*
X6580581Y719226D01*
X6568948Y710742D01*
X6558432Y700887D01*
X6549237Y689762D01*
X6541719Y677926D01*
X6539433Y675386D01*
X6536486Y673760D01*
X6533134Y673201D01*
X6133998Y673201D01*
X6130086Y673963D01*
X6126835Y676198D01*
X5450840Y1352143D01*
X5448452Y1355902D01*
X5447944Y1360322D01*
X5448706Y1368196D01*
X5448249Y1381810D01*
X5446014Y1395272D01*
X5441950Y1408277D01*
X5436209Y1420672D01*
X5428894Y1432153D01*
X5420106Y1442567D01*
X5409946Y1451711D01*
X5402021Y1457198D01*
X5399633Y1459433D01*
X5398109Y1462328D01*
X5397601Y1465529D01*
X5397601Y1531569D01*
X5398211Y1535023D01*
X5399938Y1538071D01*
X5402580Y1540306D01*
X5404459Y1541424D01*
X5415178Y1549908D01*
X5424678Y1559712D01*
X5432755Y1570685D01*
X5439308Y1582623D01*
X5444185Y1595374D01*
X5447385Y1608632D01*
X5448706Y1622196D01*
X5448249Y1635810D01*
X5446014Y1649272D01*
X5441950Y1662277D01*
X5436209Y1674672D01*
X5428894Y1686153D01*
X5420106Y1696567D01*
X5409946Y1705711D01*
X5398719Y1713433D01*
X5386578Y1719580D01*
X5373674Y1724050D01*
X5360314Y1726793D01*
X5346700Y1727707D01*
X5333085Y1726793D01*
X5319725Y1724050D01*
X5306822Y1719580D01*
X5294680Y1713433D01*
X5283454Y1705711D01*
X5273294Y1696567D01*
X5264505Y1686153D01*
X5257190Y1674672D01*
X5251450Y1662277D01*
X5247386Y1649272D01*
X5245150Y1635810D01*
X5244693Y1622196D01*
X5246014Y1608632D01*
X5249214Y1595374D01*
X5254091Y1582623D01*
X5260644Y1570685D01*
X5268722Y1559712D01*
X5278221Y1549908D01*
X5288940Y1541424D01*
X5290820Y1540306D01*
X5293461Y1538071D01*
X5295188Y1535023D01*
X5295798Y1531569D01*
X5295798Y1465529D01*
X5295290Y1462328D01*
X5293766Y1459433D01*
X5291378Y1457198D01*
X5283454Y1451711D01*
X5273294Y1442567D01*
X5264505Y1432153D01*
X5257190Y1420672D01*
X5251450Y1408277D01*
X5247386Y1395272D01*
X5245150Y1381810D01*
X5244693Y1368196D01*
X5246014Y1354632D01*
X5249214Y1341374D01*
X5254091Y1328623D01*
X5260644Y1316685D01*
X5268722Y1305712D01*
X5278221Y1295908D01*
X5288940Y1287424D01*
X5300675Y1280464D01*
X5313222Y1275181D01*
X5326380Y1271574D01*
X5339892Y1269746D01*
X5353507Y1269746D01*
X5367020Y1271574D01*
X5377383Y1274368D01*
X5380888Y1274724D01*
X5384342Y1273810D01*
X5387238Y1271778D01*
X6072530Y586435D01*
X6075984Y583285D01*
X6079490Y580593D01*
X6083249Y578205D01*
X6087211Y576173D01*
X6091275Y574446D01*
X6095542Y573125D01*
X6099860Y572160D01*
X6104280Y571601D01*
X6108903Y571398D01*
X6533134Y571398D01*
X6536486Y570839D01*
X6539433Y569214D01*
X6541719Y566674D01*
X6549237Y554837D01*
X6558432Y543712D01*
X6568948Y533857D01*
X6580581Y525373D01*
X6593230Y518414D01*
X6606641Y513130D01*
X6620611Y509524D01*
G37*
G36*
X5391150Y517804D02*
G01*
X5392724Y518464D01*
X5404459Y525424D01*
X5415178Y533908D01*
X5424678Y543712D01*
X5432755Y554685D01*
X5438495Y565150D01*
X5391150Y565150D01*
G37*
G36*
X5302250Y517804D02*
G01*
X5302250Y565150D01*
X5254904Y565150D01*
X5260644Y554685D01*
X5268722Y543712D01*
X5278221Y533908D01*
X5288940Y525424D01*
X5300675Y518464D01*
G37*
G36*
X5255056Y654050D02*
G01*
X5302250Y654050D01*
X5302250Y701243D01*
X5294680Y697433D01*
X5283454Y689711D01*
X5273294Y680567D01*
X5264505Y670153D01*
X5257190Y658672D01*
G37*
G36*
X5391150Y654050D02*
G01*
X5438343Y654050D01*
X5436209Y658672D01*
X5428894Y670153D01*
X5420106Y680567D01*
X5409946Y689711D01*
X5398719Y697433D01*
X5391150Y701243D01*
G37*
G36*
X7904886Y761746D02*
G01*
X7919313Y761746D01*
X7933588Y763524D01*
X7947558Y767130D01*
X7960969Y772414D01*
X7973618Y779373D01*
X7985252Y787857D01*
X7995767Y797712D01*
X8004962Y808837D01*
X8012684Y820978D01*
X8018830Y834034D01*
X8023301Y847750D01*
X8025993Y861923D01*
X8026908Y876300D01*
X8025993Y890676D01*
X8023301Y904849D01*
X8018830Y918565D01*
X8012684Y931621D01*
X8004962Y943762D01*
X7995767Y954887D01*
X7985252Y964742D01*
X7973618Y973226D01*
X7960969Y980186D01*
X7947558Y985469D01*
X7933588Y989076D01*
X7919313Y990853D01*
X7904886Y990853D01*
X7890611Y989076D01*
X7876641Y985469D01*
X7863230Y980186D01*
X7850581Y973226D01*
X7838948Y964742D01*
X7828432Y954887D01*
X7819237Y943762D01*
X7811516Y931621D01*
X7805369Y918565D01*
X7800898Y904849D01*
X7798206Y890676D01*
X7797292Y876300D01*
X7798206Y861923D01*
X7800898Y847750D01*
X7805369Y834034D01*
X7811516Y820978D01*
X7819237Y808837D01*
X7828432Y797712D01*
X7838948Y787857D01*
X7850581Y779373D01*
X7863230Y772414D01*
X7876641Y767130D01*
X7890611Y763524D01*
G37*
G36*
X6634886Y761746D02*
G01*
X6649313Y761746D01*
X6663588Y763524D01*
X6677558Y767130D01*
X6690969Y772414D01*
X6703618Y779373D01*
X6715252Y787857D01*
X6725767Y797712D01*
X6734962Y808837D01*
X6742684Y820978D01*
X6748830Y834034D01*
X6753301Y847750D01*
X6755993Y861923D01*
X6756908Y876300D01*
X6755993Y890676D01*
X6753301Y904849D01*
X6748830Y918565D01*
X6742684Y931621D01*
X6734962Y943762D01*
X6725767Y954887D01*
X6715252Y964742D01*
X6703618Y973226D01*
X6690969Y980186D01*
X6677558Y985469D01*
X6663588Y989076D01*
X6649313Y990853D01*
X6634886Y990853D01*
X6620611Y989076D01*
X6606641Y985469D01*
X6593230Y980186D01*
X6580581Y973226D01*
X6568948Y964742D01*
X6558432Y954887D01*
X6549237Y943762D01*
X6541719Y931926D01*
X6539433Y929386D01*
X6536486Y927760D01*
X6533134Y927201D01*
X6387998Y927201D01*
X6384086Y927963D01*
X6380835Y930198D01*
X5450840Y1860143D01*
X5448452Y1863902D01*
X5447944Y1868322D01*
X5448706Y1876196D01*
X5448249Y1889810D01*
X5446014Y1903272D01*
X5441950Y1916277D01*
X5436209Y1928672D01*
X5428894Y1940153D01*
X5420106Y1950567D01*
X5409946Y1959711D01*
X5398719Y1967433D01*
X5386578Y1973580D01*
X5373674Y1978050D01*
X5360314Y1980793D01*
X5346700Y1981707D01*
X5333085Y1980793D01*
X5319725Y1978050D01*
X5306822Y1973580D01*
X5294680Y1967433D01*
X5283454Y1959711D01*
X5273294Y1950567D01*
X5270144Y1946808D01*
X5266639Y1944166D01*
X5262372Y1943201D01*
X5014061Y1943201D01*
X5010200Y1943963D01*
X5006898Y1946198D01*
X5004663Y1949500D01*
X5003901Y1953361D01*
X5003901Y2580538D01*
X5004663Y2584399D01*
X5006898Y2587701D01*
X5010200Y2589936D01*
X5014061Y2590698D01*
X5252567Y2590698D01*
X5255666Y2590190D01*
X5258511Y2588768D01*
X5260746Y2586583D01*
X5268722Y2575712D01*
X5278221Y2565908D01*
X5288940Y2557424D01*
X5300675Y2550464D01*
X5313222Y2545181D01*
X5326380Y2541574D01*
X5339892Y2539746D01*
X5353507Y2539746D01*
X5367020Y2541574D01*
X5380177Y2545181D01*
X5392724Y2550464D01*
X5404459Y2557424D01*
X5415178Y2565908D01*
X5424678Y2575712D01*
X5432755Y2586685D01*
X5439308Y2598623D01*
X5444185Y2611374D01*
X5447385Y2624632D01*
X5448706Y2638196D01*
X5448249Y2651810D01*
X5446014Y2665272D01*
X5441950Y2678277D01*
X5436209Y2690672D01*
X5428894Y2702153D01*
X5420106Y2712567D01*
X5409946Y2721711D01*
X5398719Y2729433D01*
X5386578Y2735580D01*
X5373674Y2740050D01*
X5360314Y2742793D01*
X5346700Y2743708D01*
X5333085Y2742793D01*
X5319725Y2740050D01*
X5306822Y2735580D01*
X5294680Y2729433D01*
X5283454Y2721711D01*
X5273294Y2712567D01*
X5264505Y2702153D01*
X5261356Y2697226D01*
X5259070Y2694686D01*
X5256123Y2693060D01*
X5252770Y2692501D01*
X4953457Y2692501D01*
X4944160Y2691688D01*
X4935626Y2689402D01*
X4927549Y2685643D01*
X4920284Y2680563D01*
X4914036Y2674315D01*
X4908956Y2667050D01*
X4905197Y2658973D01*
X4902911Y2650439D01*
X4902098Y2641142D01*
X4902098Y1892757D01*
X4902911Y1883460D01*
X4905197Y1874926D01*
X4908956Y1866849D01*
X4914036Y1859584D01*
X4920284Y1853336D01*
X4927549Y1848256D01*
X4935626Y1844497D01*
X4944160Y1842211D01*
X4953457Y1841398D01*
X5245455Y1841398D01*
X5249011Y1840738D01*
X5252110Y1838909D01*
X5254396Y1836115D01*
X5260644Y1824685D01*
X5268722Y1813712D01*
X5278221Y1803907D01*
X5288940Y1795424D01*
X5300675Y1788464D01*
X5313222Y1783181D01*
X5326380Y1779574D01*
X5339892Y1777746D01*
X5353507Y1777746D01*
X5367020Y1779574D01*
X5377383Y1782368D01*
X5380888Y1782724D01*
X5384342Y1781810D01*
X5387238Y1779778D01*
X6326530Y840435D01*
X6329984Y837285D01*
X6333490Y834593D01*
X6337249Y832205D01*
X6341211Y830173D01*
X6345275Y828446D01*
X6349542Y827125D01*
X6353860Y826160D01*
X6358280Y825601D01*
X6362903Y825398D01*
X6533134Y825398D01*
X6536486Y824839D01*
X6539433Y823214D01*
X6541719Y820674D01*
X6549237Y808837D01*
X6558432Y797712D01*
X6568948Y787857D01*
X6580581Y779373D01*
X6593230Y772414D01*
X6606641Y767130D01*
X6620611Y763524D01*
G37*
G36*
X6921500Y819962D02*
G01*
X6931304Y820826D01*
X6940753Y823366D01*
X6949694Y827481D01*
X6957720Y833119D01*
X6964680Y840079D01*
X6970318Y848106D01*
X6974433Y857046D01*
X6976973Y866495D01*
X6977837Y876300D01*
X6976973Y886104D01*
X6974433Y895553D01*
X6973265Y898093D01*
X6972300Y902360D01*
X6959904Y4739487D01*
X6960666Y4743399D01*
X6962851Y4746701D01*
X6966153Y4748936D01*
X6970064Y4749698D01*
X7416342Y4749698D01*
X7425639Y4750511D01*
X7434173Y4752797D01*
X7442250Y4756556D01*
X7449515Y4761636D01*
X7455763Y4767884D01*
X7460843Y4775149D01*
X7464602Y4783226D01*
X7466888Y4791760D01*
X7467701Y4801057D01*
X7467701Y5720537D01*
X7468463Y5724347D01*
X7470546Y5727598D01*
X7473696Y5729782D01*
X7475321Y5730544D01*
X7488326Y5738418D01*
X7500264Y5747766D01*
X7511034Y5758535D01*
X7520381Y5770473D01*
X7528255Y5783478D01*
X7534554Y5797397D01*
X7536738Y5800598D01*
X7539990Y5802680D01*
X7543800Y5803392D01*
X7547609Y5802680D01*
X7550861Y5800598D01*
X7553045Y5797397D01*
X7559344Y5783478D01*
X7567218Y5770473D01*
X7576566Y5758535D01*
X7587335Y5747766D01*
X7599273Y5738418D01*
X7612278Y5730544D01*
X7626146Y5724296D01*
X7640675Y5719775D01*
X7655610Y5717032D01*
X7670800Y5716117D01*
X7685989Y5717032D01*
X7700924Y5719775D01*
X7715453Y5724296D01*
X7729321Y5730544D01*
X7742326Y5738418D01*
X7754264Y5747766D01*
X7765034Y5758535D01*
X7774381Y5770473D01*
X7782255Y5783478D01*
X7788554Y5797397D01*
X7790738Y5800598D01*
X7793990Y5802680D01*
X7797800Y5803392D01*
X7801609Y5802680D01*
X7804861Y5800598D01*
X7807045Y5797397D01*
X7813344Y5783478D01*
X7821218Y5770473D01*
X7830566Y5758535D01*
X7841335Y5747766D01*
X7853273Y5738418D01*
X7866278Y5730544D01*
X7880146Y5724296D01*
X7894675Y5719775D01*
X7909610Y5717032D01*
X7924800Y5716117D01*
X7939989Y5717032D01*
X7954924Y5719775D01*
X7969453Y5724296D01*
X7983321Y5730544D01*
X7996326Y5738418D01*
X8008264Y5747766D01*
X8019034Y5758535D01*
X8028381Y5770473D01*
X8036255Y5783478D01*
X8042554Y5797397D01*
X8044738Y5800598D01*
X8047990Y5802680D01*
X8051800Y5803392D01*
X8055609Y5802680D01*
X8058861Y5800598D01*
X8061045Y5797397D01*
X8067344Y5783478D01*
X8075218Y5770473D01*
X8084566Y5758535D01*
X8095335Y5747766D01*
X8107273Y5738418D01*
X8120278Y5730544D01*
X8134146Y5724296D01*
X8148675Y5719775D01*
X8163610Y5717032D01*
X8178800Y5716117D01*
X8193989Y5717032D01*
X8208924Y5719775D01*
X8223453Y5724296D01*
X8237321Y5730544D01*
X8250326Y5738418D01*
X8262264Y5747766D01*
X8273034Y5758535D01*
X8282381Y5770473D01*
X8290255Y5783478D01*
X8296554Y5797397D01*
X8298738Y5800598D01*
X8301990Y5802680D01*
X8305800Y5803392D01*
X8309609Y5802680D01*
X8312861Y5800598D01*
X8315045Y5797397D01*
X8321344Y5783478D01*
X8329218Y5770473D01*
X8338566Y5758535D01*
X8349335Y5747766D01*
X8361273Y5738418D01*
X8374278Y5730544D01*
X8388146Y5724296D01*
X8402675Y5719775D01*
X8417610Y5717032D01*
X8432800Y5716117D01*
X8447989Y5717032D01*
X8462924Y5719775D01*
X8477453Y5724296D01*
X8491321Y5730544D01*
X8504326Y5738418D01*
X8516264Y5747766D01*
X8527034Y5758535D01*
X8536381Y5770473D01*
X8544255Y5783478D01*
X8550554Y5797397D01*
X8552738Y5800598D01*
X8555990Y5802680D01*
X8559800Y5803392D01*
X8563610Y5802680D01*
X8566861Y5800598D01*
X8569045Y5797397D01*
X8575344Y5783478D01*
X8583218Y5770473D01*
X8592566Y5758535D01*
X8603335Y5747766D01*
X8615273Y5738418D01*
X8628278Y5730544D01*
X8642146Y5724296D01*
X8656675Y5719775D01*
X8671610Y5717032D01*
X8686800Y5716117D01*
X8701989Y5717032D01*
X8716924Y5719775D01*
X8731453Y5724296D01*
X8745321Y5730544D01*
X8758326Y5738418D01*
X8770264Y5747766D01*
X8781034Y5758535D01*
X8790381Y5770473D01*
X8798255Y5783478D01*
X8804554Y5797397D01*
X8806738Y5800598D01*
X8809990Y5802680D01*
X8813800Y5803392D01*
X8817610Y5802680D01*
X8820861Y5800598D01*
X8823045Y5797397D01*
X8829344Y5783478D01*
X8837218Y5770473D01*
X8846566Y5758535D01*
X8857335Y5747766D01*
X8869273Y5738418D01*
X8882278Y5730544D01*
X8883904Y5729782D01*
X8887053Y5727598D01*
X8889136Y5724347D01*
X8889898Y5720537D01*
X8889898Y5242661D01*
X8889136Y5238800D01*
X8886901Y5235498D01*
X8883599Y5233263D01*
X8879738Y5232501D01*
X7620203Y5232501D01*
X7615580Y5232298D01*
X7611160Y5231739D01*
X7606842Y5230774D01*
X7602575Y5229453D01*
X7598511Y5227726D01*
X7594549Y5225694D01*
X7590790Y5223306D01*
X7587284Y5220614D01*
X7583830Y5217464D01*
X7571435Y5205069D01*
X7568285Y5201615D01*
X7565593Y5198110D01*
X7563205Y5194350D01*
X7561173Y5190388D01*
X7559446Y5186324D01*
X7558125Y5182057D01*
X7557160Y5177739D01*
X7556601Y5173319D01*
X7556398Y5168696D01*
X7556398Y4623308D01*
X7555433Y4618990D01*
X7554366Y4616653D01*
X7551826Y4607204D01*
X7550962Y4597400D01*
X7551826Y4587595D01*
X7554366Y4578146D01*
X7558481Y4569206D01*
X7564120Y4561179D01*
X7571079Y4554220D01*
X7579106Y4548581D01*
X7588046Y4544466D01*
X7597495Y4541926D01*
X7607300Y4541062D01*
X7617104Y4541926D01*
X7626553Y4544466D01*
X7635494Y4548581D01*
X7643520Y4554220D01*
X7650480Y4561179D01*
X7656118Y4569206D01*
X7660233Y4578146D01*
X7662773Y4587595D01*
X7663637Y4597400D01*
X7662773Y4607204D01*
X7660233Y4616653D01*
X7659166Y4618990D01*
X7658201Y4623308D01*
X7658201Y5120538D01*
X7658963Y5124399D01*
X7661198Y5127701D01*
X7664500Y5129936D01*
X7668361Y5130698D01*
X8940342Y5130698D01*
X8949639Y5131511D01*
X8958173Y5133797D01*
X8966250Y5137556D01*
X8973515Y5142636D01*
X8979763Y5148884D01*
X8984843Y5156149D01*
X8988602Y5164226D01*
X8990888Y5172760D01*
X8991701Y5182057D01*
X8991701Y5720537D01*
X8992463Y5724347D01*
X8994546Y5727598D01*
X8997696Y5729782D01*
X8999321Y5730544D01*
X9012326Y5738418D01*
X9024264Y5747766D01*
X9035034Y5758535D01*
X9044381Y5770473D01*
X9052255Y5783478D01*
X9058554Y5797397D01*
X9060738Y5800598D01*
X9063990Y5802680D01*
X9067800Y5803392D01*
X9071610Y5802680D01*
X9074861Y5800598D01*
X9077045Y5797397D01*
X9083344Y5783478D01*
X9091218Y5770473D01*
X9100566Y5758535D01*
X9111335Y5747766D01*
X9123273Y5738418D01*
X9136278Y5730544D01*
X9150146Y5724296D01*
X9164675Y5719775D01*
X9179610Y5717032D01*
X9194800Y5716117D01*
X9209989Y5717032D01*
X9224924Y5719775D01*
X9239453Y5724296D01*
X9253321Y5730544D01*
X9266326Y5738418D01*
X9278264Y5747766D01*
X9289034Y5758535D01*
X9298381Y5770473D01*
X9306255Y5783478D01*
X9312554Y5797397D01*
X9314738Y5800598D01*
X9317990Y5802680D01*
X9321800Y5803392D01*
X9325610Y5802680D01*
X9328861Y5800598D01*
X9331045Y5797397D01*
X9337344Y5783478D01*
X9345218Y5770473D01*
X9354566Y5758535D01*
X9365335Y5747766D01*
X9377273Y5738418D01*
X9390278Y5730544D01*
X9391904Y5729782D01*
X9395053Y5727598D01*
X9397136Y5724347D01*
X9397898Y5720537D01*
X9397898Y5169357D01*
X9398711Y5160060D01*
X9400997Y5151526D01*
X9404756Y5143449D01*
X9409836Y5136184D01*
X9416084Y5129936D01*
X9423349Y5124856D01*
X9431426Y5121097D01*
X9439960Y5118811D01*
X9449257Y5117998D01*
X13469467Y5117998D01*
X13472566Y5117490D01*
X13475411Y5116068D01*
X13477646Y5113883D01*
X13485622Y5103012D01*
X13495121Y5093208D01*
X13505840Y5084724D01*
X13517575Y5077764D01*
X13530122Y5072481D01*
X13543280Y5068874D01*
X13556792Y5067046D01*
X13570407Y5067046D01*
X13583919Y5068874D01*
X13597077Y5072481D01*
X13609624Y5077764D01*
X13621359Y5084724D01*
X13632078Y5093208D01*
X13641578Y5103012D01*
X13649655Y5113985D01*
X13656208Y5125923D01*
X13661085Y5138674D01*
X13664285Y5151932D01*
X13665606Y5165496D01*
X13665149Y5179110D01*
X13662913Y5192572D01*
X13658850Y5205577D01*
X13653109Y5217972D01*
X13645794Y5229453D01*
X13637006Y5239867D01*
X13626846Y5249011D01*
X13615619Y5256733D01*
X13603478Y5262880D01*
X13590574Y5267350D01*
X13577214Y5270093D01*
X13563600Y5271008D01*
X13549985Y5270093D01*
X13536625Y5267350D01*
X13523722Y5262880D01*
X13511580Y5256733D01*
X13500354Y5249011D01*
X13490194Y5239867D01*
X13481405Y5229453D01*
X13478256Y5224526D01*
X13475969Y5221986D01*
X13473023Y5220360D01*
X13469670Y5219801D01*
X9509861Y5219801D01*
X9506000Y5220563D01*
X9502698Y5222798D01*
X9500463Y5226100D01*
X9499701Y5229961D01*
X9499701Y5720537D01*
X9500463Y5724347D01*
X9502546Y5727598D01*
X9505696Y5729782D01*
X9507321Y5730544D01*
X9520326Y5738418D01*
X9532264Y5747766D01*
X9543034Y5758535D01*
X9552381Y5770473D01*
X9560255Y5783478D01*
X9566554Y5797397D01*
X9568738Y5800598D01*
X9571990Y5802680D01*
X9575800Y5803392D01*
X9579610Y5802680D01*
X9582861Y5800598D01*
X9585045Y5797397D01*
X9591344Y5783478D01*
X9599218Y5770473D01*
X9608566Y5758535D01*
X9619335Y5747766D01*
X9631273Y5738418D01*
X9644278Y5730544D01*
X9658146Y5724296D01*
X9672675Y5719775D01*
X9687610Y5717032D01*
X9702800Y5716117D01*
X9717989Y5717032D01*
X9732924Y5719775D01*
X9747453Y5724296D01*
X9761321Y5730544D01*
X9774326Y5738418D01*
X9786264Y5747766D01*
X9797034Y5758535D01*
X9806381Y5770473D01*
X9814255Y5783478D01*
X9820554Y5797397D01*
X9822738Y5800598D01*
X9825990Y5802680D01*
X9829800Y5803392D01*
X9833610Y5802680D01*
X9836861Y5800598D01*
X9839045Y5797397D01*
X9845344Y5783478D01*
X9853218Y5770473D01*
X9862566Y5758535D01*
X9873335Y5747766D01*
X9885273Y5738418D01*
X9898278Y5730544D01*
X9912146Y5724296D01*
X9926675Y5719775D01*
X9941610Y5717032D01*
X9956800Y5716117D01*
X9971989Y5717032D01*
X9986924Y5719775D01*
X10001453Y5724296D01*
X10015321Y5730544D01*
X10028326Y5738418D01*
X10040264Y5747766D01*
X10051034Y5758535D01*
X10060381Y5770473D01*
X10068255Y5783478D01*
X10074554Y5797397D01*
X10076738Y5800598D01*
X10079990Y5802680D01*
X10083800Y5803392D01*
X10087610Y5802680D01*
X10090861Y5800598D01*
X10093045Y5797397D01*
X10099344Y5783478D01*
X10107218Y5770473D01*
X10116566Y5758535D01*
X10127335Y5747766D01*
X10139273Y5738418D01*
X10152278Y5730544D01*
X10166146Y5724296D01*
X10180675Y5719775D01*
X10195610Y5717032D01*
X10210800Y5716117D01*
X10225989Y5717032D01*
X10240924Y5719775D01*
X10255453Y5724296D01*
X10269321Y5730544D01*
X10282326Y5738418D01*
X10294264Y5747766D01*
X10305034Y5758535D01*
X10314381Y5770473D01*
X10322255Y5783478D01*
X10328554Y5797397D01*
X10330738Y5800598D01*
X10333990Y5802680D01*
X10337800Y5803392D01*
X10341610Y5802680D01*
X10344861Y5800598D01*
X10347045Y5797397D01*
X10353344Y5783478D01*
X10361218Y5770473D01*
X10370566Y5758535D01*
X10381335Y5747766D01*
X10393273Y5738418D01*
X10406278Y5730544D01*
X10420146Y5724296D01*
X10434675Y5719775D01*
X10449610Y5717032D01*
X10464800Y5716117D01*
X10479989Y5717032D01*
X10494924Y5719775D01*
X10509453Y5724296D01*
X10523321Y5730544D01*
X10536326Y5738418D01*
X10548264Y5747766D01*
X10559034Y5758535D01*
X10568381Y5770473D01*
X10576255Y5783478D01*
X10582554Y5797397D01*
X10587024Y5811875D01*
X10589768Y5826810D01*
X10590682Y5842000D01*
X10589768Y5857189D01*
X10587024Y5872124D01*
X10582554Y5886602D01*
X10576255Y5900521D01*
X10568381Y5913526D01*
X10559034Y5925464D01*
X10548264Y5936234D01*
X10536326Y5945581D01*
X10523321Y5953455D01*
X10509453Y5959703D01*
X10494924Y5964224D01*
X10479989Y5966968D01*
X10464800Y5967882D01*
X10449610Y5966968D01*
X10434675Y5964224D01*
X10420146Y5959703D01*
X10406278Y5953455D01*
X10393273Y5945581D01*
X10381335Y5936234D01*
X10370566Y5925464D01*
X10361218Y5913526D01*
X10353344Y5900521D01*
X10347045Y5886602D01*
X10344861Y5883402D01*
X10341610Y5881319D01*
X10337800Y5880608D01*
X10333990Y5881319D01*
X10330738Y5883402D01*
X10328554Y5886602D01*
X10322255Y5900521D01*
X10314381Y5913526D01*
X10305034Y5925464D01*
X10294264Y5936234D01*
X10282326Y5945581D01*
X10269321Y5953455D01*
X10267696Y5954217D01*
X10264546Y5956401D01*
X10262463Y5959652D01*
X10261701Y5963462D01*
X10261701Y6210096D01*
X10261498Y6214719D01*
X10260939Y6219139D01*
X10259974Y6223457D01*
X10258653Y6227724D01*
X10256926Y6231788D01*
X10254894Y6235750D01*
X10252506Y6239510D01*
X10249814Y6243015D01*
X10246664Y6246469D01*
X10074198Y6418935D01*
X10071963Y6422186D01*
X10071201Y6426098D01*
X10071201Y6789267D01*
X10071709Y6792366D01*
X10073132Y6795211D01*
X10075316Y6797446D01*
X10086187Y6805422D01*
X10095992Y6814921D01*
X10104475Y6825640D01*
X10111435Y6837375D01*
X10116718Y6849922D01*
X10120325Y6863080D01*
X10122154Y6876592D01*
X10122154Y6890207D01*
X10120325Y6903720D01*
X10116718Y6916877D01*
X10111435Y6929424D01*
X10104475Y6941159D01*
X10095992Y6951878D01*
X10086187Y6961378D01*
X10075214Y6969455D01*
X10063276Y6976008D01*
X10050526Y6980885D01*
X10037267Y6984085D01*
X10023703Y6985406D01*
X10010089Y6984949D01*
X9996627Y6982714D01*
X9983622Y6978650D01*
X9971227Y6972909D01*
X9959746Y6965594D01*
X9949332Y6956806D01*
X9940188Y6946646D01*
X9932466Y6935419D01*
X9926320Y6923278D01*
X9921849Y6910374D01*
X9919106Y6897014D01*
X9918192Y6883400D01*
X9919106Y6869785D01*
X9921849Y6856425D01*
X9926320Y6843522D01*
X9932466Y6831380D01*
X9940188Y6820153D01*
X9949332Y6809994D01*
X9959746Y6801205D01*
X9964674Y6798056D01*
X9967214Y6795770D01*
X9968839Y6792823D01*
X9969398Y6789470D01*
X9969398Y6401003D01*
X9969601Y6396380D01*
X9970160Y6391960D01*
X9971125Y6387642D01*
X9972446Y6383375D01*
X9974173Y6379311D01*
X9976205Y6375349D01*
X9978593Y6371590D01*
X9981285Y6368084D01*
X9984435Y6364630D01*
X10156901Y6192164D01*
X10159136Y6188913D01*
X10159898Y6185001D01*
X10159898Y5963462D01*
X10159136Y5959652D01*
X10157053Y5956401D01*
X10153904Y5954217D01*
X10152278Y5953455D01*
X10139273Y5945581D01*
X10127335Y5936234D01*
X10116566Y5925464D01*
X10107218Y5913526D01*
X10099344Y5900521D01*
X10093045Y5886602D01*
X10090861Y5883402D01*
X10087610Y5881319D01*
X10083800Y5880608D01*
X10079990Y5881319D01*
X10076738Y5883402D01*
X10074554Y5886602D01*
X10068255Y5900521D01*
X10060381Y5913526D01*
X10051034Y5925464D01*
X10040264Y5936234D01*
X10028326Y5945581D01*
X10015321Y5953455D01*
X10001453Y5959703D01*
X9986924Y5964224D01*
X9971989Y5966968D01*
X9956800Y5967882D01*
X9941610Y5966968D01*
X9926675Y5964224D01*
X9912146Y5959703D01*
X9898278Y5953455D01*
X9885273Y5945581D01*
X9873335Y5936234D01*
X9862566Y5925464D01*
X9853218Y5913526D01*
X9845344Y5900521D01*
X9839045Y5886602D01*
X9836861Y5883402D01*
X9833610Y5881319D01*
X9829800Y5880608D01*
X9825990Y5881319D01*
X9822738Y5883402D01*
X9820554Y5886602D01*
X9814255Y5900521D01*
X9806381Y5913526D01*
X9797034Y5925464D01*
X9786264Y5936234D01*
X9774326Y5945581D01*
X9761321Y5953455D01*
X9747453Y5959703D01*
X9732924Y5964224D01*
X9717989Y5966968D01*
X9702800Y5967882D01*
X9687610Y5966968D01*
X9672675Y5964224D01*
X9658146Y5959703D01*
X9644278Y5953455D01*
X9631273Y5945581D01*
X9619335Y5936234D01*
X9608566Y5925464D01*
X9599218Y5913526D01*
X9591344Y5900521D01*
X9585045Y5886602D01*
X9582861Y5883402D01*
X9579610Y5881319D01*
X9575800Y5880608D01*
X9571990Y5881319D01*
X9568738Y5883402D01*
X9566554Y5886602D01*
X9560255Y5900521D01*
X9552381Y5913526D01*
X9543034Y5925464D01*
X9532264Y5936234D01*
X9520326Y5945581D01*
X9507321Y5953455D01*
X9493453Y5959703D01*
X9478924Y5964224D01*
X9463989Y5966968D01*
X9448800Y5967882D01*
X9433610Y5966968D01*
X9418675Y5964224D01*
X9404146Y5959703D01*
X9390278Y5953455D01*
X9377273Y5945581D01*
X9365335Y5936234D01*
X9354566Y5925464D01*
X9345218Y5913526D01*
X9337344Y5900521D01*
X9331045Y5886602D01*
X9328861Y5883402D01*
X9325610Y5881319D01*
X9321800Y5880608D01*
X9317990Y5881319D01*
X9314738Y5883402D01*
X9312554Y5886602D01*
X9306255Y5900521D01*
X9298381Y5913526D01*
X9289034Y5925464D01*
X9278264Y5936234D01*
X9266326Y5945581D01*
X9253321Y5953455D01*
X9239453Y5959703D01*
X9224924Y5964224D01*
X9209989Y5966968D01*
X9194800Y5967882D01*
X9179610Y5966968D01*
X9164675Y5964224D01*
X9150146Y5959703D01*
X9136278Y5953455D01*
X9123273Y5945581D01*
X9111335Y5936234D01*
X9100566Y5925464D01*
X9091218Y5913526D01*
X9083344Y5900521D01*
X9077045Y5886602D01*
X9074861Y5883402D01*
X9071610Y5881319D01*
X9067800Y5880608D01*
X9063990Y5881319D01*
X9060738Y5883402D01*
X9058554Y5886602D01*
X9052255Y5900521D01*
X9044381Y5913526D01*
X9035034Y5925464D01*
X9024264Y5936234D01*
X9012326Y5945581D01*
X8999321Y5953455D01*
X8985453Y5959703D01*
X8970924Y5964224D01*
X8955989Y5966968D01*
X8940800Y5967882D01*
X8925610Y5966968D01*
X8910675Y5964224D01*
X8896146Y5959703D01*
X8882278Y5953455D01*
X8869273Y5945581D01*
X8857335Y5936234D01*
X8846566Y5925464D01*
X8837218Y5913526D01*
X8829344Y5900521D01*
X8823045Y5886602D01*
X8820861Y5883402D01*
X8817610Y5881319D01*
X8813800Y5880608D01*
X8809990Y5881319D01*
X8806738Y5883402D01*
X8804554Y5886602D01*
X8798255Y5900521D01*
X8790381Y5913526D01*
X8781034Y5925464D01*
X8770264Y5936234D01*
X8758326Y5945581D01*
X8745321Y5953455D01*
X8731453Y5959703D01*
X8716924Y5964224D01*
X8701989Y5966968D01*
X8686800Y5967882D01*
X8671610Y5966968D01*
X8656675Y5964224D01*
X8642146Y5959703D01*
X8628278Y5953455D01*
X8615273Y5945581D01*
X8603335Y5936234D01*
X8592566Y5925464D01*
X8583218Y5913526D01*
X8575344Y5900521D01*
X8569045Y5886602D01*
X8566861Y5883402D01*
X8563610Y5881319D01*
X8559800Y5880608D01*
X8555990Y5881319D01*
X8552738Y5883402D01*
X8550554Y5886602D01*
X8544255Y5900521D01*
X8536381Y5913526D01*
X8527034Y5925464D01*
X8516264Y5936234D01*
X8504326Y5945581D01*
X8491321Y5953455D01*
X8477453Y5959703D01*
X8462924Y5964224D01*
X8447989Y5966968D01*
X8432800Y5967882D01*
X8417610Y5966968D01*
X8402675Y5964224D01*
X8388146Y5959703D01*
X8374278Y5953455D01*
X8361273Y5945581D01*
X8349335Y5936234D01*
X8338566Y5925464D01*
X8329218Y5913526D01*
X8321344Y5900521D01*
X8315045Y5886602D01*
X8312861Y5883402D01*
X8309609Y5881319D01*
X8305800Y5880608D01*
X8301990Y5881319D01*
X8298738Y5883402D01*
X8296554Y5886602D01*
X8290255Y5900521D01*
X8282381Y5913526D01*
X8273034Y5925464D01*
X8262264Y5936234D01*
X8250326Y5945581D01*
X8237321Y5953455D01*
X8235696Y5954217D01*
X8232546Y5956401D01*
X8230463Y5959652D01*
X8229701Y5963462D01*
X8229701Y6336842D01*
X8228888Y6346139D01*
X8226602Y6354673D01*
X8222843Y6362750D01*
X8217763Y6370015D01*
X8211515Y6376263D01*
X8204250Y6381343D01*
X8196173Y6385102D01*
X8187639Y6387388D01*
X8178342Y6388201D01*
X6779361Y6388201D01*
X6775500Y6388963D01*
X6772198Y6391198D01*
X6769963Y6394500D01*
X6769201Y6398361D01*
X6769201Y6789267D01*
X6769709Y6792366D01*
X6771131Y6795211D01*
X6773316Y6797446D01*
X6784187Y6805422D01*
X6793992Y6814921D01*
X6802475Y6825640D01*
X6809435Y6837375D01*
X6814718Y6849922D01*
X6818325Y6863080D01*
X6820153Y6876592D01*
X6820153Y6890207D01*
X6818325Y6903720D01*
X6814718Y6916877D01*
X6809435Y6929424D01*
X6802475Y6941159D01*
X6793992Y6951878D01*
X6784187Y6961378D01*
X6773316Y6969353D01*
X6771131Y6971588D01*
X6769709Y6974433D01*
X6769201Y6977532D01*
X6769201Y7076338D01*
X6769963Y7080199D01*
X6772198Y7083501D01*
X6775500Y7085736D01*
X6779361Y7086498D01*
X8723579Y7086498D01*
X8727897Y7085533D01*
X8730234Y7084466D01*
X8739682Y7081926D01*
X8749487Y7081062D01*
X8759291Y7081926D01*
X8768740Y7084466D01*
X8771077Y7085533D01*
X8775395Y7086498D01*
X10758982Y7086498D01*
X10763250Y7085533D01*
X10765586Y7084466D01*
X10775086Y7081926D01*
X10784890Y7081062D01*
X10794644Y7081926D01*
X10804144Y7084466D01*
X10806480Y7085533D01*
X10810748Y7086498D01*
X12788392Y7086498D01*
X12792710Y7085533D01*
X12795046Y7084466D01*
X12804495Y7081926D01*
X12814300Y7081062D01*
X12824104Y7081926D01*
X12833553Y7084466D01*
X12842494Y7088581D01*
X12850520Y7094220D01*
X12857480Y7101179D01*
X12863118Y7109206D01*
X12867233Y7118146D01*
X12869773Y7127595D01*
X12870637Y7137400D01*
X12869773Y7147204D01*
X12867233Y7156653D01*
X12863118Y7165594D01*
X12857480Y7173620D01*
X12850520Y7180580D01*
X12842494Y7186218D01*
X12833553Y7190333D01*
X12824104Y7192873D01*
X12814300Y7193737D01*
X12804495Y7192873D01*
X12795046Y7190333D01*
X12792710Y7189266D01*
X12788392Y7188301D01*
X10810748Y7188301D01*
X10806480Y7189266D01*
X10804144Y7190333D01*
X10794644Y7192873D01*
X10784890Y7193737D01*
X10775086Y7192873D01*
X10765586Y7190333D01*
X10763250Y7189266D01*
X10758982Y7188301D01*
X8775395Y7188301D01*
X8771077Y7189266D01*
X8768740Y7190333D01*
X8759291Y7192873D01*
X8749487Y7193737D01*
X8739682Y7192873D01*
X8730234Y7190333D01*
X8727897Y7189266D01*
X8723579Y7188301D01*
X6718757Y7188301D01*
X6709460Y7187488D01*
X6700926Y7185202D01*
X6692849Y7181443D01*
X6685584Y7176363D01*
X6679336Y7170115D01*
X6674256Y7162850D01*
X6670497Y7154773D01*
X6668211Y7146239D01*
X6667398Y7136942D01*
X6667398Y6977329D01*
X6666839Y6973976D01*
X6665214Y6971030D01*
X6662674Y6968744D01*
X6657746Y6965594D01*
X6647332Y6956806D01*
X6638188Y6946646D01*
X6630466Y6935419D01*
X6624320Y6923278D01*
X6619849Y6910374D01*
X6617106Y6897014D01*
X6616192Y6883400D01*
X6617106Y6869785D01*
X6619849Y6856425D01*
X6624320Y6843522D01*
X6630466Y6831380D01*
X6638188Y6820153D01*
X6647332Y6809994D01*
X6657746Y6801205D01*
X6662674Y6798056D01*
X6665214Y6795770D01*
X6666839Y6792823D01*
X6667398Y6789470D01*
X6667398Y6337757D01*
X6668211Y6328460D01*
X6670497Y6319926D01*
X6674256Y6311849D01*
X6679336Y6304584D01*
X6685584Y6298336D01*
X6692849Y6293256D01*
X6700926Y6289497D01*
X6709460Y6287211D01*
X6718757Y6286398D01*
X8117738Y6286398D01*
X8121599Y6285636D01*
X8124901Y6283401D01*
X8127136Y6280099D01*
X8127898Y6276238D01*
X8127898Y5963462D01*
X8127136Y5959652D01*
X8125053Y5956401D01*
X8121903Y5954217D01*
X8120278Y5953455D01*
X8107273Y5945581D01*
X8095335Y5936234D01*
X8084566Y5925464D01*
X8075218Y5913526D01*
X8067344Y5900521D01*
X8061045Y5886602D01*
X8058861Y5883402D01*
X8055609Y5881319D01*
X8051800Y5880608D01*
X8047990Y5881319D01*
X8044738Y5883402D01*
X8042554Y5886602D01*
X8036255Y5900521D01*
X8028381Y5913526D01*
X8019034Y5925464D01*
X8008264Y5936234D01*
X7996326Y5945581D01*
X7983321Y5953455D01*
X7969453Y5959703D01*
X7954924Y5964224D01*
X7939989Y5966968D01*
X7924800Y5967882D01*
X7909610Y5966968D01*
X7894675Y5964224D01*
X7880146Y5959703D01*
X7866278Y5953455D01*
X7853273Y5945581D01*
X7841335Y5936234D01*
X7830566Y5925464D01*
X7821218Y5913526D01*
X7813344Y5900521D01*
X7807045Y5886602D01*
X7804861Y5883402D01*
X7801609Y5881319D01*
X7797800Y5880608D01*
X7793990Y5881319D01*
X7790738Y5883402D01*
X7788554Y5886602D01*
X7782255Y5900521D01*
X7774381Y5913526D01*
X7765034Y5925464D01*
X7754264Y5936234D01*
X7742326Y5945581D01*
X7729321Y5953455D01*
X7715453Y5959703D01*
X7700924Y5964224D01*
X7685989Y5966968D01*
X7670800Y5967882D01*
X7655610Y5966968D01*
X7640675Y5964224D01*
X7631226Y5961278D01*
X7627569Y5960821D01*
X7624013Y5961735D01*
X7621016Y5963818D01*
X7402169Y6182664D01*
X7398715Y6185814D01*
X7395209Y6188506D01*
X7391450Y6190894D01*
X7387488Y6192926D01*
X7383424Y6194653D01*
X7379157Y6195974D01*
X7374839Y6196939D01*
X7370419Y6197498D01*
X7365796Y6197701D01*
X6525361Y6197701D01*
X6521500Y6198463D01*
X6518198Y6200698D01*
X6515963Y6204000D01*
X6515201Y6207861D01*
X6515201Y6789267D01*
X6515709Y6792366D01*
X6517131Y6795211D01*
X6519316Y6797446D01*
X6530187Y6805422D01*
X6539992Y6814921D01*
X6548475Y6825640D01*
X6555435Y6837375D01*
X6560718Y6849922D01*
X6564325Y6863080D01*
X6566153Y6876592D01*
X6566153Y6890207D01*
X6564325Y6903720D01*
X6560718Y6916877D01*
X6555435Y6929424D01*
X6548475Y6941159D01*
X6539992Y6951878D01*
X6530187Y6961378D01*
X6519316Y6969353D01*
X6517131Y6971588D01*
X6515709Y6974433D01*
X6515201Y6977532D01*
X6515201Y7241540D01*
X6515963Y7245400D01*
X6518198Y7248702D01*
X6521450Y7250938D01*
X6525361Y7251700D01*
X8483904Y7255764D01*
X8488222Y7254798D01*
X8490508Y7253782D01*
X8499957Y7251242D01*
X8509762Y7250379D01*
X8519566Y7251242D01*
X8529015Y7253782D01*
X8531504Y7254900D01*
X8535771Y7255865D01*
X10511231Y7259980D01*
X10515549Y7259015D01*
X10517784Y7257999D01*
X10527233Y7255459D01*
X10537037Y7254595D01*
X10546842Y7255459D01*
X10556290Y7257999D01*
X10568432Y7263841D01*
X10571480Y7264298D01*
X12534392Y7264298D01*
X12538710Y7263333D01*
X12541046Y7262266D01*
X12550495Y7259726D01*
X12560300Y7258862D01*
X12570104Y7259726D01*
X12579553Y7262266D01*
X12588494Y7266381D01*
X12596520Y7272020D01*
X12603480Y7278979D01*
X12609118Y7287006D01*
X12613233Y7295946D01*
X12615773Y7305395D01*
X12616637Y7315200D01*
X12615773Y7325004D01*
X12613233Y7334453D01*
X12609118Y7343394D01*
X12603480Y7351420D01*
X12596520Y7358380D01*
X12588494Y7364018D01*
X12579553Y7368133D01*
X12570104Y7370673D01*
X12560300Y7371537D01*
X12550495Y7370673D01*
X12541046Y7368133D01*
X12538710Y7367066D01*
X12534392Y7366101D01*
X10549331Y7366101D01*
X10537037Y7367270D01*
X10527233Y7366406D01*
X10523880Y7365695D01*
X10519460Y7365288D01*
X10510316Y7362748D01*
X10506049Y7361783D01*
X8535568Y7357668D01*
X8531250Y7358634D01*
X8529015Y7359650D01*
X8519566Y7362190D01*
X8509762Y7363053D01*
X8499957Y7362190D01*
X8490508Y7359650D01*
X8488070Y7358532D01*
X8483803Y7357567D01*
X6477355Y7353401D01*
X6469786Y7352893D01*
X6464300Y7353350D01*
X6455460Y7352588D01*
X6446926Y7350302D01*
X6438849Y7346543D01*
X6431584Y7341463D01*
X6425336Y7335215D01*
X6420256Y7327950D01*
X6416497Y7319873D01*
X6414211Y7311339D01*
X6413398Y7302042D01*
X6413398Y6977329D01*
X6412839Y6973976D01*
X6411214Y6971030D01*
X6408674Y6968744D01*
X6403746Y6965594D01*
X6393332Y6956806D01*
X6384188Y6946646D01*
X6376466Y6935419D01*
X6370320Y6923278D01*
X6365849Y6910374D01*
X6363106Y6897014D01*
X6362192Y6883400D01*
X6363106Y6869785D01*
X6365849Y6856425D01*
X6370320Y6843522D01*
X6376466Y6831380D01*
X6384188Y6820153D01*
X6393332Y6809994D01*
X6403746Y6801205D01*
X6408674Y6798056D01*
X6411214Y6795770D01*
X6412839Y6792823D01*
X6413398Y6789470D01*
X6413398Y6147257D01*
X6414211Y6137960D01*
X6416497Y6129426D01*
X6420256Y6121349D01*
X6425336Y6114084D01*
X6431584Y6107836D01*
X6438849Y6102756D01*
X6446926Y6098997D01*
X6455460Y6096711D01*
X6464757Y6095898D01*
X7340701Y6095898D01*
X7344613Y6095136D01*
X7347864Y6092901D01*
X7460843Y5979972D01*
X7463231Y5976162D01*
X7463790Y5971743D01*
X7462367Y5967526D01*
X7459268Y5964275D01*
X7455103Y5962700D01*
X7450632Y5963056D01*
X7446924Y5964224D01*
X7431989Y5966968D01*
X7416800Y5967882D01*
X7401610Y5966968D01*
X7386675Y5964224D01*
X7372146Y5959703D01*
X7358278Y5953455D01*
X7345273Y5945581D01*
X7333335Y5936234D01*
X7322566Y5925464D01*
X7313218Y5913526D01*
X7305344Y5900521D01*
X7299045Y5886602D01*
X7296861Y5883402D01*
X7293609Y5881319D01*
X7289800Y5880608D01*
X7285990Y5881319D01*
X7282738Y5883402D01*
X7280554Y5886602D01*
X7274255Y5900521D01*
X7266381Y5913526D01*
X7257034Y5925464D01*
X7246264Y5936234D01*
X7234326Y5945581D01*
X7221321Y5953455D01*
X7207453Y5959703D01*
X7192924Y5964224D01*
X7177989Y5966968D01*
X7162800Y5967882D01*
X7147610Y5966968D01*
X7132675Y5964224D01*
X7118146Y5959703D01*
X7104278Y5953455D01*
X7091273Y5945581D01*
X7079335Y5936234D01*
X7068566Y5925464D01*
X7059218Y5913526D01*
X7051344Y5900521D01*
X7050582Y5898896D01*
X7048398Y5895746D01*
X7045147Y5893663D01*
X7041337Y5892901D01*
X5763361Y5892901D01*
X5759500Y5893663D01*
X5756198Y5895898D01*
X5753963Y5899200D01*
X5753201Y5903061D01*
X5753201Y6789267D01*
X5753709Y6792366D01*
X5755132Y6795211D01*
X5757316Y6797446D01*
X5768187Y6805422D01*
X5777992Y6814921D01*
X5786475Y6825640D01*
X5793435Y6837375D01*
X5798718Y6849922D01*
X5802325Y6863080D01*
X5804154Y6876592D01*
X5804154Y6890207D01*
X5802325Y6903720D01*
X5798718Y6916877D01*
X5793435Y6929424D01*
X5786475Y6941159D01*
X5777992Y6951878D01*
X5768187Y6961378D01*
X5757316Y6969353D01*
X5755132Y6971588D01*
X5753709Y6974433D01*
X5753201Y6977532D01*
X5753201Y7584338D01*
X5753963Y7588199D01*
X5756198Y7591501D01*
X5759500Y7593736D01*
X5763361Y7594498D01*
X7707071Y7594498D01*
X7711338Y7593533D01*
X7713675Y7592466D01*
X7723174Y7589926D01*
X7732979Y7589062D01*
X7742732Y7589926D01*
X7752232Y7592466D01*
X7754569Y7593533D01*
X7758836Y7594498D01*
X9739071Y7594498D01*
X9743338Y7593533D01*
X9745675Y7592466D01*
X9755174Y7589926D01*
X9764979Y7589062D01*
X9774732Y7589926D01*
X9784232Y7592466D01*
X9786569Y7593533D01*
X9790836Y7594498D01*
X11772392Y7594498D01*
X11776710Y7593533D01*
X11779046Y7592466D01*
X11788495Y7589926D01*
X11798300Y7589062D01*
X11808104Y7589926D01*
X11817553Y7592466D01*
X11826494Y7596581D01*
X11834520Y7602220D01*
X11841480Y7609179D01*
X11847118Y7617206D01*
X11851233Y7626146D01*
X11853773Y7635595D01*
X11854637Y7645400D01*
X11853773Y7655204D01*
X11851233Y7664653D01*
X11847118Y7673594D01*
X11841480Y7681620D01*
X11834520Y7688580D01*
X11826494Y7694218D01*
X11817553Y7698333D01*
X11808104Y7700873D01*
X11798300Y7701737D01*
X11788495Y7700873D01*
X11779046Y7698333D01*
X11776710Y7697266D01*
X11772392Y7696301D01*
X9790836Y7696301D01*
X9786569Y7697266D01*
X9784232Y7698333D01*
X9774732Y7700873D01*
X9764979Y7701737D01*
X9755174Y7700873D01*
X9745675Y7698333D01*
X9743338Y7697266D01*
X9739071Y7696301D01*
X7758836Y7696301D01*
X7754569Y7697266D01*
X7752232Y7698333D01*
X7742732Y7700873D01*
X7732979Y7701737D01*
X7723174Y7700873D01*
X7713675Y7698333D01*
X7711338Y7697266D01*
X7707071Y7696301D01*
X5702757Y7696301D01*
X5693460Y7695488D01*
X5684926Y7693202D01*
X5676849Y7689443D01*
X5669584Y7684363D01*
X5663336Y7678115D01*
X5658256Y7670850D01*
X5654497Y7662773D01*
X5652211Y7654239D01*
X5651398Y7644942D01*
X5651398Y6977329D01*
X5650839Y6973976D01*
X5649214Y6971030D01*
X5646674Y6968744D01*
X5641746Y6965594D01*
X5631332Y6956806D01*
X5622188Y6946646D01*
X5614466Y6935419D01*
X5608320Y6923278D01*
X5603849Y6910374D01*
X5601106Y6897014D01*
X5600192Y6883400D01*
X5601106Y6869785D01*
X5603849Y6856425D01*
X5608320Y6843522D01*
X5614466Y6831380D01*
X5622188Y6820153D01*
X5631332Y6809994D01*
X5641746Y6801205D01*
X5646674Y6798056D01*
X5649214Y6795770D01*
X5650839Y6792823D01*
X5651398Y6789470D01*
X5651398Y5842457D01*
X5652211Y5833160D01*
X5654497Y5824626D01*
X5658256Y5816549D01*
X5663336Y5809284D01*
X5669584Y5803036D01*
X5676849Y5797956D01*
X5684926Y5794197D01*
X5693460Y5791911D01*
X5702757Y5791098D01*
X7041337Y5791098D01*
X7045147Y5790336D01*
X7048398Y5788253D01*
X7050582Y5785104D01*
X7051344Y5783478D01*
X7059218Y5770473D01*
X7068566Y5758535D01*
X7079335Y5747766D01*
X7091273Y5738418D01*
X7104278Y5730544D01*
X7118146Y5724296D01*
X7132675Y5719775D01*
X7147610Y5717032D01*
X7162800Y5716117D01*
X7177989Y5717032D01*
X7192924Y5719775D01*
X7207453Y5724296D01*
X7221321Y5730544D01*
X7234326Y5738418D01*
X7246264Y5747766D01*
X7257034Y5758535D01*
X7266381Y5770473D01*
X7274255Y5783478D01*
X7280554Y5797397D01*
X7282738Y5800598D01*
X7285990Y5802680D01*
X7289800Y5803392D01*
X7293609Y5802680D01*
X7296861Y5800598D01*
X7299045Y5797397D01*
X7305344Y5783478D01*
X7313218Y5770473D01*
X7322566Y5758535D01*
X7333335Y5747766D01*
X7345273Y5738418D01*
X7358278Y5730544D01*
X7359903Y5729782D01*
X7363053Y5727598D01*
X7365136Y5724347D01*
X7365898Y5720537D01*
X7365898Y4861661D01*
X7365136Y4857800D01*
X7362901Y4854498D01*
X7359599Y4852263D01*
X7355738Y4851501D01*
X6909257Y4851501D01*
X6899960Y4850688D01*
X6891426Y4848402D01*
X6883349Y4844643D01*
X6876084Y4839563D01*
X6869836Y4833315D01*
X6864756Y4826050D01*
X6860997Y4817973D01*
X6858711Y4809439D01*
X6857898Y4799990D01*
X6870496Y902055D01*
X6869531Y897737D01*
X6868566Y895553D01*
X6866026Y886104D01*
X6865162Y876300D01*
X6866026Y866495D01*
X6868566Y857046D01*
X6872681Y848106D01*
X6878320Y840079D01*
X6885279Y833119D01*
X6893306Y827481D01*
X6902246Y823366D01*
X6911695Y820826D01*
G37*
G36*
X8458200Y896162D02*
G01*
X8468004Y897026D01*
X8477453Y899566D01*
X8479790Y900633D01*
X8484108Y901598D01*
X9705543Y901598D01*
X9709810Y900633D01*
X9712147Y899566D01*
X9721646Y897026D01*
X9731451Y896162D01*
X9741204Y897026D01*
X9750704Y899566D01*
X9753041Y900633D01*
X9757308Y901598D01*
X10972292Y901598D01*
X10976610Y900633D01*
X10978946Y899566D01*
X10988395Y897026D01*
X10998200Y896162D01*
X11008004Y897026D01*
X11017453Y899566D01*
X11019790Y900633D01*
X11024108Y901598D01*
X12242292Y901598D01*
X12246610Y900633D01*
X12248946Y899566D01*
X12258395Y897026D01*
X12268200Y896162D01*
X12278004Y897026D01*
X12287453Y899566D01*
X12296394Y903681D01*
X12304420Y909319D01*
X12311380Y916279D01*
X12317018Y924306D01*
X12321133Y933246D01*
X12323673Y942695D01*
X12324537Y952500D01*
X12323673Y962304D01*
X12321133Y971753D01*
X12317018Y980694D01*
X12311380Y988720D01*
X12304420Y995680D01*
X12296394Y1001318D01*
X12287453Y1005433D01*
X12278004Y1007973D01*
X12268200Y1008837D01*
X12258395Y1007973D01*
X12248946Y1005433D01*
X12246610Y1004366D01*
X12242292Y1003401D01*
X11287861Y1003401D01*
X11284000Y1004163D01*
X11280698Y1006398D01*
X11278463Y1009700D01*
X11277701Y1013561D01*
X11277701Y1967992D01*
X11278666Y1972310D01*
X11279733Y1974646D01*
X11282273Y1984095D01*
X11283137Y1993900D01*
X11282273Y2003704D01*
X11279733Y2013153D01*
X11275618Y2022093D01*
X11269980Y2030120D01*
X11263020Y2037080D01*
X11254994Y2042718D01*
X11246053Y2046833D01*
X11236604Y2049373D01*
X11226800Y2050237D01*
X11216995Y2049373D01*
X11207546Y2046833D01*
X11198606Y2042718D01*
X11190579Y2037080D01*
X11183620Y2030120D01*
X11177981Y2022093D01*
X11173866Y2013153D01*
X11171326Y2003704D01*
X11170462Y1993900D01*
X11171326Y1984095D01*
X11173866Y1974646D01*
X11174933Y1972310D01*
X11175898Y1967992D01*
X11175898Y1013561D01*
X11175136Y1009700D01*
X11172901Y1006398D01*
X11169599Y1004163D01*
X11165738Y1003401D01*
X11024108Y1003401D01*
X11019790Y1004366D01*
X11017453Y1005433D01*
X11008004Y1007973D01*
X10998200Y1008837D01*
X10988395Y1007973D01*
X10978946Y1005433D01*
X10976610Y1004366D01*
X10972292Y1003401D01*
X9757308Y1003401D01*
X9753041Y1004366D01*
X9750704Y1005433D01*
X9741204Y1007973D01*
X9731451Y1008837D01*
X9721646Y1007973D01*
X9712147Y1005433D01*
X9709810Y1004366D01*
X9705543Y1003401D01*
X8484108Y1003401D01*
X8479790Y1004366D01*
X8477453Y1005433D01*
X8468004Y1007973D01*
X8458200Y1008837D01*
X8448395Y1007973D01*
X8438946Y1005433D01*
X8430006Y1001318D01*
X8421979Y995680D01*
X8415020Y988720D01*
X8409381Y980694D01*
X8405266Y971753D01*
X8402726Y962304D01*
X8401862Y952500D01*
X8402726Y942695D01*
X8405266Y933246D01*
X8409381Y924306D01*
X8415020Y916279D01*
X8421979Y909319D01*
X8430006Y903681D01*
X8438946Y899566D01*
X8448395Y897026D01*
G37*
G36*
X6634886Y1015746D02*
G01*
X6649313Y1015746D01*
X6663588Y1017524D01*
X6677558Y1021130D01*
X6690969Y1026414D01*
X6703618Y1033373D01*
X6715252Y1041857D01*
X6725767Y1051712D01*
X6734962Y1062837D01*
X6742684Y1074978D01*
X6748830Y1088034D01*
X6753301Y1101750D01*
X6755993Y1115923D01*
X6756908Y1130300D01*
X6755993Y1144676D01*
X6753301Y1158849D01*
X6748830Y1172565D01*
X6742684Y1185621D01*
X6734962Y1197762D01*
X6725767Y1208887D01*
X6715252Y1218742D01*
X6703618Y1227226D01*
X6690969Y1234186D01*
X6677558Y1239469D01*
X6663588Y1243076D01*
X6649313Y1244854D01*
X6634886Y1244854D01*
X6620611Y1243076D01*
X6606641Y1239469D01*
X6593230Y1234186D01*
X6580581Y1227226D01*
X6568948Y1218742D01*
X6558432Y1208887D01*
X6549237Y1197762D01*
X6541719Y1185926D01*
X6539433Y1183386D01*
X6536486Y1181760D01*
X6533134Y1181201D01*
X6387998Y1181201D01*
X6384086Y1181963D01*
X6380835Y1184198D01*
X5450840Y2114143D01*
X5448452Y2117902D01*
X5447944Y2122322D01*
X5448706Y2130196D01*
X5448249Y2143810D01*
X5446014Y2157272D01*
X5441950Y2170277D01*
X5436209Y2182672D01*
X5428894Y2194153D01*
X5420106Y2204567D01*
X5409946Y2213711D01*
X5402021Y2219198D01*
X5399633Y2221433D01*
X5398109Y2224328D01*
X5397601Y2227529D01*
X5397601Y2293569D01*
X5398211Y2297023D01*
X5399938Y2300071D01*
X5402580Y2302306D01*
X5404459Y2303424D01*
X5415178Y2311908D01*
X5424678Y2321712D01*
X5432755Y2332685D01*
X5439308Y2344623D01*
X5444185Y2357374D01*
X5447385Y2370632D01*
X5448706Y2384196D01*
X5448249Y2397810D01*
X5446014Y2411272D01*
X5441950Y2424277D01*
X5436209Y2436672D01*
X5428894Y2448153D01*
X5420106Y2458567D01*
X5409946Y2467711D01*
X5398719Y2475433D01*
X5386578Y2481580D01*
X5373674Y2486050D01*
X5360314Y2488793D01*
X5346700Y2489708D01*
X5333085Y2488793D01*
X5319725Y2486050D01*
X5306822Y2481580D01*
X5294680Y2475433D01*
X5283454Y2467711D01*
X5273294Y2458567D01*
X5264505Y2448153D01*
X5257190Y2436672D01*
X5251450Y2424277D01*
X5247386Y2411272D01*
X5245150Y2397810D01*
X5244693Y2384196D01*
X5246014Y2370632D01*
X5249214Y2357374D01*
X5254091Y2344623D01*
X5260644Y2332685D01*
X5268722Y2321712D01*
X5278221Y2311908D01*
X5288940Y2303424D01*
X5290820Y2302306D01*
X5293461Y2300071D01*
X5295188Y2297023D01*
X5295798Y2293569D01*
X5295798Y2227529D01*
X5295290Y2224328D01*
X5293766Y2221433D01*
X5291378Y2219198D01*
X5283454Y2213711D01*
X5273294Y2204567D01*
X5264505Y2194153D01*
X5257190Y2182672D01*
X5251450Y2170277D01*
X5247386Y2157272D01*
X5245150Y2143810D01*
X5244693Y2130196D01*
X5246014Y2116632D01*
X5249214Y2103374D01*
X5254091Y2090623D01*
X5260644Y2078685D01*
X5268722Y2067712D01*
X5278221Y2057907D01*
X5288940Y2049424D01*
X5300675Y2042464D01*
X5313222Y2037181D01*
X5326380Y2033574D01*
X5339892Y2031746D01*
X5353507Y2031746D01*
X5367020Y2033574D01*
X5377383Y2036368D01*
X5380888Y2036724D01*
X5384342Y2035810D01*
X5387238Y2033778D01*
X6326530Y1094435D01*
X6329984Y1091285D01*
X6333490Y1088593D01*
X6337249Y1086205D01*
X6341211Y1084173D01*
X6345275Y1082446D01*
X6349542Y1081125D01*
X6353860Y1080160D01*
X6358280Y1079601D01*
X6362903Y1079398D01*
X6533134Y1079398D01*
X6536486Y1078839D01*
X6539433Y1077214D01*
X6541719Y1074674D01*
X6549237Y1062837D01*
X6558432Y1051712D01*
X6568948Y1041857D01*
X6580581Y1033373D01*
X6593230Y1026414D01*
X6606641Y1021130D01*
X6620611Y1017524D01*
G37*
G36*
X7904886Y1015746D02*
G01*
X7919313Y1015746D01*
X7933588Y1017524D01*
X7947558Y1021130D01*
X7960969Y1026414D01*
X7973618Y1033373D01*
X7985252Y1041857D01*
X7995767Y1051712D01*
X8004962Y1062837D01*
X8012684Y1074978D01*
X8018830Y1088034D01*
X8023301Y1101750D01*
X8025993Y1115923D01*
X8026908Y1130300D01*
X8025993Y1144676D01*
X8023301Y1158849D01*
X8018830Y1172565D01*
X8012684Y1185621D01*
X8004962Y1197762D01*
X7995767Y1208887D01*
X7985252Y1218742D01*
X7973618Y1227226D01*
X7960969Y1234186D01*
X7947558Y1239469D01*
X7933588Y1243076D01*
X7919313Y1244854D01*
X7904886Y1244854D01*
X7890611Y1243076D01*
X7876641Y1239469D01*
X7863230Y1234186D01*
X7850581Y1227226D01*
X7838948Y1218742D01*
X7828432Y1208887D01*
X7819237Y1197762D01*
X7811719Y1185926D01*
X7809433Y1183386D01*
X7806486Y1181760D01*
X7803134Y1181201D01*
X7477861Y1181201D01*
X7474000Y1181963D01*
X7470698Y1184198D01*
X7468463Y1187500D01*
X7467701Y1191361D01*
X7467701Y3434537D01*
X7468463Y3438347D01*
X7470546Y3441598D01*
X7473696Y3443782D01*
X7475321Y3444544D01*
X7488326Y3452418D01*
X7500264Y3461765D01*
X7511034Y3472535D01*
X7520381Y3484473D01*
X7528255Y3497478D01*
X7534554Y3511397D01*
X7536738Y3514598D01*
X7539990Y3516680D01*
X7543800Y3517392D01*
X7547609Y3516680D01*
X7550861Y3514598D01*
X7553045Y3511397D01*
X7559344Y3497478D01*
X7567218Y3484473D01*
X7576566Y3472535D01*
X7587335Y3461765D01*
X7599273Y3452418D01*
X7612278Y3444544D01*
X7614818Y3443376D01*
X7617968Y3441192D01*
X7620050Y3437991D01*
X7620812Y3434181D01*
X7632395Y1917852D01*
X7631430Y1913483D01*
X7630566Y1911553D01*
X7628026Y1902104D01*
X7627162Y1892300D01*
X7628026Y1882495D01*
X7630566Y1873046D01*
X7634681Y1864106D01*
X7640320Y1856079D01*
X7647279Y1849120D01*
X7655306Y1843481D01*
X7664246Y1839366D01*
X7673695Y1836826D01*
X7683500Y1835962D01*
X7693304Y1836826D01*
X7702753Y1839366D01*
X7711694Y1843481D01*
X7719720Y1849120D01*
X7726680Y1856079D01*
X7732318Y1864106D01*
X7736433Y1873046D01*
X7738973Y1882495D01*
X7739837Y1892300D01*
X7738973Y1902104D01*
X7736433Y1911553D01*
X7735163Y1914347D01*
X7734198Y1918563D01*
X7722616Y3434892D01*
X7723327Y3438702D01*
X7725460Y3441954D01*
X7729321Y3444544D01*
X7742326Y3452418D01*
X7754264Y3461765D01*
X7765034Y3472535D01*
X7774381Y3484473D01*
X7782255Y3497478D01*
X7788554Y3511397D01*
X7790738Y3514598D01*
X7793990Y3516680D01*
X7797800Y3517392D01*
X7801609Y3516680D01*
X7804861Y3514598D01*
X7807045Y3511397D01*
X7813344Y3497478D01*
X7821218Y3484473D01*
X7830566Y3472535D01*
X7841335Y3461765D01*
X7853273Y3452418D01*
X7866278Y3444544D01*
X7880146Y3438296D01*
X7894675Y3433775D01*
X7909610Y3431032D01*
X7924800Y3430117D01*
X7939989Y3431032D01*
X7954924Y3433775D01*
X7969453Y3438296D01*
X7983321Y3444544D01*
X7996326Y3452418D01*
X8008264Y3461765D01*
X8019034Y3472535D01*
X8028381Y3484473D01*
X8036255Y3497478D01*
X8042554Y3511397D01*
X8044738Y3514598D01*
X8047990Y3516680D01*
X8051800Y3517392D01*
X8055609Y3516680D01*
X8058861Y3514598D01*
X8061045Y3511397D01*
X8067344Y3497478D01*
X8075218Y3484473D01*
X8084566Y3472535D01*
X8095335Y3461765D01*
X8107273Y3452418D01*
X8120278Y3444544D01*
X8134146Y3438296D01*
X8148675Y3433775D01*
X8163610Y3431032D01*
X8178800Y3430117D01*
X8193989Y3431032D01*
X8208924Y3433775D01*
X8223453Y3438296D01*
X8237321Y3444544D01*
X8250326Y3452418D01*
X8262264Y3461765D01*
X8273034Y3472535D01*
X8282381Y3484473D01*
X8290255Y3497478D01*
X8296554Y3511397D01*
X8298738Y3514598D01*
X8301990Y3516680D01*
X8305800Y3517392D01*
X8309609Y3516680D01*
X8312861Y3514598D01*
X8315045Y3511397D01*
X8321344Y3497478D01*
X8329218Y3484473D01*
X8338566Y3472535D01*
X8349335Y3461765D01*
X8361273Y3452418D01*
X8374278Y3444544D01*
X8388146Y3438296D01*
X8402675Y3433775D01*
X8417610Y3431032D01*
X8432800Y3430117D01*
X8447989Y3431032D01*
X8462924Y3433775D01*
X8477453Y3438296D01*
X8491321Y3444544D01*
X8504326Y3452418D01*
X8516264Y3461765D01*
X8527034Y3472535D01*
X8536381Y3484473D01*
X8544255Y3497478D01*
X8550554Y3511397D01*
X8552738Y3514598D01*
X8555990Y3516680D01*
X8559800Y3517392D01*
X8563610Y3516680D01*
X8566861Y3514598D01*
X8569045Y3511397D01*
X8575344Y3497478D01*
X8583218Y3484473D01*
X8592566Y3472535D01*
X8603335Y3461765D01*
X8615273Y3452418D01*
X8628278Y3444544D01*
X8629904Y3443782D01*
X8633053Y3441598D01*
X8635136Y3438347D01*
X8635898Y3434537D01*
X8635898Y1422908D01*
X8634933Y1418590D01*
X8633866Y1416253D01*
X8631326Y1406804D01*
X8630462Y1397000D01*
X8631326Y1387195D01*
X8633866Y1377746D01*
X8637981Y1368806D01*
X8643620Y1360779D01*
X8650579Y1353820D01*
X8658606Y1348181D01*
X8667546Y1344066D01*
X8676995Y1341526D01*
X8686800Y1340662D01*
X8696604Y1341526D01*
X8706053Y1344066D01*
X8714994Y1348181D01*
X8723020Y1353820D01*
X8729980Y1360779D01*
X8735618Y1368806D01*
X8739733Y1377746D01*
X8742273Y1387195D01*
X8743137Y1397000D01*
X8742273Y1406804D01*
X8739733Y1416253D01*
X8738666Y1418590D01*
X8737701Y1422908D01*
X8737701Y3434537D01*
X8738463Y3438347D01*
X8740546Y3441598D01*
X8743696Y3443782D01*
X8745321Y3444544D01*
X8758326Y3452418D01*
X8770264Y3461765D01*
X8781034Y3472535D01*
X8790381Y3484473D01*
X8798255Y3497478D01*
X8804554Y3511397D01*
X8806738Y3514598D01*
X8809990Y3516680D01*
X8813800Y3517392D01*
X8817610Y3516680D01*
X8820861Y3514598D01*
X8823045Y3511397D01*
X8829344Y3497478D01*
X8837218Y3484473D01*
X8846566Y3472535D01*
X8857335Y3461765D01*
X8869273Y3452418D01*
X8882278Y3444544D01*
X8896146Y3438296D01*
X8910675Y3433775D01*
X8925610Y3431032D01*
X8940800Y3430117D01*
X8955989Y3431032D01*
X8970924Y3433775D01*
X8985453Y3438296D01*
X8999321Y3444544D01*
X9012326Y3452418D01*
X9024264Y3461765D01*
X9035034Y3472535D01*
X9044381Y3484473D01*
X9052255Y3497478D01*
X9058554Y3511397D01*
X9060738Y3514598D01*
X9063990Y3516680D01*
X9067800Y3517392D01*
X9071610Y3516680D01*
X9074861Y3514598D01*
X9077045Y3511397D01*
X9083344Y3497478D01*
X9091218Y3484473D01*
X9100566Y3472535D01*
X9111335Y3461765D01*
X9123273Y3452418D01*
X9136278Y3444544D01*
X9150146Y3438296D01*
X9164675Y3433775D01*
X9179610Y3431032D01*
X9194800Y3430117D01*
X9209989Y3431032D01*
X9224924Y3433775D01*
X9239453Y3438296D01*
X9253321Y3444544D01*
X9266326Y3452418D01*
X9278264Y3461765D01*
X9289034Y3472535D01*
X9298381Y3484473D01*
X9306255Y3497478D01*
X9312554Y3511397D01*
X9314738Y3514598D01*
X9317990Y3516680D01*
X9321800Y3517392D01*
X9325610Y3516680D01*
X9328861Y3514598D01*
X9331045Y3511397D01*
X9337344Y3497478D01*
X9345218Y3484473D01*
X9354566Y3472535D01*
X9365335Y3461765D01*
X9377273Y3452418D01*
X9390278Y3444544D01*
X9404146Y3438296D01*
X9418675Y3433775D01*
X9433610Y3431032D01*
X9448800Y3430117D01*
X9463989Y3431032D01*
X9478924Y3433775D01*
X9493453Y3438296D01*
X9507321Y3444544D01*
X9520326Y3452418D01*
X9532264Y3461765D01*
X9543034Y3472535D01*
X9552381Y3484473D01*
X9560255Y3497478D01*
X9566554Y3511397D01*
X9568738Y3514598D01*
X9571990Y3516680D01*
X9575800Y3517392D01*
X9579610Y3516680D01*
X9582861Y3514598D01*
X9585045Y3511397D01*
X9591344Y3497478D01*
X9599218Y3484473D01*
X9608566Y3472535D01*
X9619335Y3461765D01*
X9631273Y3452418D01*
X9644278Y3444544D01*
X9658146Y3438296D01*
X9672675Y3433775D01*
X9687610Y3431032D01*
X9702800Y3430117D01*
X9717989Y3431032D01*
X9732924Y3433775D01*
X9747453Y3438296D01*
X9761321Y3444544D01*
X9774326Y3452418D01*
X9786264Y3461765D01*
X9797034Y3472535D01*
X9806381Y3484473D01*
X9814255Y3497478D01*
X9820554Y3511397D01*
X9822738Y3514598D01*
X9825990Y3516680D01*
X9829800Y3517392D01*
X9833610Y3516680D01*
X9836861Y3514598D01*
X9839045Y3511397D01*
X9845344Y3497478D01*
X9853218Y3484473D01*
X9862566Y3472535D01*
X9873335Y3461765D01*
X9885273Y3452418D01*
X9898278Y3444544D01*
X9912146Y3438296D01*
X9926675Y3433775D01*
X9941610Y3431032D01*
X9956800Y3430117D01*
X9971989Y3431032D01*
X9986924Y3433775D01*
X10001453Y3438296D01*
X10015321Y3444544D01*
X10028326Y3452418D01*
X10040264Y3461765D01*
X10051034Y3472535D01*
X10060381Y3484473D01*
X10068255Y3497478D01*
X10074554Y3511397D01*
X10076738Y3514598D01*
X10079990Y3516680D01*
X10083800Y3517392D01*
X10087610Y3516680D01*
X10090861Y3514598D01*
X10093045Y3511397D01*
X10099344Y3497478D01*
X10107218Y3484473D01*
X10116566Y3472535D01*
X10127335Y3461765D01*
X10139273Y3452418D01*
X10152278Y3444544D01*
X10166146Y3438296D01*
X10180675Y3433775D01*
X10195610Y3431032D01*
X10210800Y3430117D01*
X10225989Y3431032D01*
X10240924Y3433775D01*
X10255453Y3438296D01*
X10269321Y3444544D01*
X10282326Y3452418D01*
X10294264Y3461765D01*
X10305034Y3472535D01*
X10314381Y3484473D01*
X10322255Y3497478D01*
X10328554Y3511397D01*
X10330738Y3514598D01*
X10333990Y3516680D01*
X10337800Y3517392D01*
X10341610Y3516680D01*
X10344861Y3514598D01*
X10347045Y3511397D01*
X10353344Y3497478D01*
X10361218Y3484473D01*
X10370566Y3472535D01*
X10381335Y3461765D01*
X10393273Y3452418D01*
X10406278Y3444544D01*
X10420146Y3438296D01*
X10434675Y3433775D01*
X10449610Y3431032D01*
X10464800Y3430117D01*
X10479989Y3431032D01*
X10494924Y3433775D01*
X10509453Y3438296D01*
X10523321Y3444544D01*
X10536326Y3452418D01*
X10548264Y3461765D01*
X10559034Y3472535D01*
X10568381Y3484473D01*
X10576255Y3497478D01*
X10582554Y3511397D01*
X10584738Y3514598D01*
X10587990Y3516680D01*
X10591800Y3517392D01*
X10595610Y3516680D01*
X10598861Y3514598D01*
X10601045Y3511397D01*
X10607344Y3497478D01*
X10615218Y3484473D01*
X10624566Y3472535D01*
X10635335Y3461765D01*
X10647273Y3452418D01*
X10660278Y3444544D01*
X10674146Y3438296D01*
X10688675Y3433775D01*
X10703610Y3431032D01*
X10718800Y3430117D01*
X10733989Y3431032D01*
X10748924Y3433775D01*
X10763453Y3438296D01*
X10777321Y3444544D01*
X10790326Y3452418D01*
X10802264Y3461765D01*
X10813034Y3472535D01*
X10822381Y3484473D01*
X10830255Y3497478D01*
X10836554Y3511397D01*
X10838738Y3514598D01*
X10841990Y3516680D01*
X10845800Y3517392D01*
X10849610Y3516680D01*
X10852861Y3514598D01*
X10855045Y3511397D01*
X10861344Y3497478D01*
X10869218Y3484473D01*
X10878566Y3472535D01*
X10889335Y3461765D01*
X10901273Y3452418D01*
X10914278Y3444544D01*
X10915904Y3443782D01*
X10919053Y3441598D01*
X10921136Y3438347D01*
X10921898Y3434537D01*
X10921898Y3350361D01*
X10921136Y3346500D01*
X10918901Y3343198D01*
X10915599Y3340963D01*
X10911738Y3340201D01*
X9284157Y3340201D01*
X9274860Y3339388D01*
X9266326Y3337102D01*
X9258249Y3333343D01*
X9250984Y3328263D01*
X9244736Y3322015D01*
X9239656Y3314750D01*
X9235897Y3306673D01*
X9233611Y3298139D01*
X9232798Y3288842D01*
X9232798Y2680208D01*
X9231833Y2675890D01*
X9230766Y2673553D01*
X9228226Y2664104D01*
X9227362Y2654300D01*
X9228226Y2644495D01*
X9230766Y2635046D01*
X9234881Y2626106D01*
X9240520Y2618079D01*
X9247479Y2611120D01*
X9255506Y2605481D01*
X9264446Y2601366D01*
X9273895Y2598826D01*
X9283700Y2597962D01*
X9293504Y2598826D01*
X9302953Y2601366D01*
X9311894Y2605481D01*
X9319920Y2611120D01*
X9326880Y2618079D01*
X9332518Y2626106D01*
X9336633Y2635046D01*
X9339173Y2644495D01*
X9340037Y2654300D01*
X9339173Y2664104D01*
X9336633Y2673553D01*
X9335566Y2675890D01*
X9334601Y2680208D01*
X9334601Y3228238D01*
X9335363Y3232099D01*
X9337598Y3235401D01*
X9340900Y3237636D01*
X9344761Y3238398D01*
X10972342Y3238398D01*
X10981639Y3239211D01*
X10990173Y3241497D01*
X10998250Y3245256D01*
X11005515Y3250336D01*
X11011763Y3256584D01*
X11016843Y3263849D01*
X11020602Y3271926D01*
X11022888Y3280460D01*
X11023701Y3289757D01*
X11023701Y3434537D01*
X11024463Y3438347D01*
X11026546Y3441598D01*
X11029696Y3443782D01*
X11031321Y3444544D01*
X11044326Y3452418D01*
X11056264Y3461765D01*
X11067034Y3472535D01*
X11076381Y3484473D01*
X11084255Y3497478D01*
X11090554Y3511397D01*
X11092738Y3514598D01*
X11095990Y3516680D01*
X11099800Y3517392D01*
X11103610Y3516680D01*
X11106861Y3514598D01*
X11109045Y3511397D01*
X11115344Y3497478D01*
X11123218Y3484473D01*
X11132566Y3472535D01*
X11143335Y3461765D01*
X11155273Y3452418D01*
X11168278Y3444544D01*
X11182146Y3438296D01*
X11196675Y3433775D01*
X11211610Y3431032D01*
X11226800Y3430117D01*
X11241989Y3431032D01*
X11256924Y3433775D01*
X11271453Y3438296D01*
X11285321Y3444544D01*
X11298326Y3452418D01*
X11310264Y3461765D01*
X11321034Y3472535D01*
X11330381Y3484473D01*
X11338255Y3497478D01*
X11344554Y3511397D01*
X11349024Y3525875D01*
X11351768Y3540810D01*
X11352682Y3556000D01*
X11351768Y3571189D01*
X11349024Y3586124D01*
X11344554Y3600602D01*
X11338255Y3614521D01*
X11330381Y3627526D01*
X11321034Y3639464D01*
X11310264Y3650234D01*
X11298326Y3659581D01*
X11285321Y3667455D01*
X11271453Y3673703D01*
X11256924Y3678224D01*
X11241989Y3680968D01*
X11226800Y3681882D01*
X11211610Y3680968D01*
X11196675Y3678224D01*
X11182146Y3673703D01*
X11168278Y3667455D01*
X11155273Y3659581D01*
X11143335Y3650234D01*
X11132566Y3639464D01*
X11123218Y3627526D01*
X11115344Y3614521D01*
X11109045Y3600602D01*
X11106861Y3597401D01*
X11103610Y3595319D01*
X11099800Y3594608D01*
X11095990Y3595319D01*
X11092738Y3597401D01*
X11090554Y3600602D01*
X11084255Y3614521D01*
X11076381Y3627526D01*
X11067034Y3639464D01*
X11056264Y3650234D01*
X11044326Y3659581D01*
X11031321Y3667455D01*
X11029696Y3668217D01*
X11026546Y3670401D01*
X11024463Y3673652D01*
X11023701Y3677462D01*
X11023701Y4599838D01*
X11024463Y4603699D01*
X11026698Y4607001D01*
X11030000Y4609236D01*
X11033861Y4609998D01*
X13469467Y4609998D01*
X13472566Y4609490D01*
X13475411Y4608068D01*
X13477646Y4605883D01*
X13485622Y4595012D01*
X13495121Y4585208D01*
X13505840Y4576724D01*
X13517575Y4569764D01*
X13530122Y4564481D01*
X13543280Y4560874D01*
X13556792Y4559046D01*
X13570407Y4559046D01*
X13583919Y4560874D01*
X13597077Y4564481D01*
X13609624Y4569764D01*
X13621359Y4576724D01*
X13632078Y4585208D01*
X13641578Y4595012D01*
X13649655Y4605985D01*
X13656208Y4617923D01*
X13661085Y4630674D01*
X13664285Y4643932D01*
X13665606Y4657496D01*
X13665149Y4671110D01*
X13662913Y4684572D01*
X13658850Y4697577D01*
X13653109Y4709972D01*
X13645794Y4721453D01*
X13637006Y4731867D01*
X13626846Y4741011D01*
X13615619Y4748733D01*
X13603478Y4754880D01*
X13590574Y4759350D01*
X13577214Y4762093D01*
X13563600Y4763008D01*
X13549985Y4762093D01*
X13536625Y4759350D01*
X13523722Y4754880D01*
X13511580Y4748733D01*
X13500354Y4741011D01*
X13490194Y4731867D01*
X13481405Y4721453D01*
X13478256Y4716526D01*
X13475969Y4713986D01*
X13473023Y4712360D01*
X13469670Y4711801D01*
X10973257Y4711801D01*
X10963960Y4710988D01*
X10955426Y4708702D01*
X10947349Y4704943D01*
X10940084Y4699863D01*
X10933836Y4693615D01*
X10928756Y4686350D01*
X10924997Y4678273D01*
X10922711Y4669739D01*
X10921898Y4660442D01*
X10921898Y3677462D01*
X10921136Y3673652D01*
X10919053Y3670401D01*
X10915904Y3668217D01*
X10914278Y3667455D01*
X10901273Y3659581D01*
X10889335Y3650234D01*
X10878566Y3639464D01*
X10869218Y3627526D01*
X10861344Y3614521D01*
X10855045Y3600602D01*
X10852861Y3597401D01*
X10849610Y3595319D01*
X10845800Y3594608D01*
X10841990Y3595319D01*
X10838738Y3597401D01*
X10836554Y3600602D01*
X10830255Y3614521D01*
X10822381Y3627526D01*
X10813034Y3639464D01*
X10802264Y3650234D01*
X10790326Y3659581D01*
X10777321Y3667455D01*
X10763453Y3673703D01*
X10748924Y3678224D01*
X10733989Y3680968D01*
X10718800Y3681882D01*
X10703610Y3680968D01*
X10688675Y3678224D01*
X10674146Y3673703D01*
X10660278Y3667455D01*
X10647273Y3659581D01*
X10635335Y3650234D01*
X10624566Y3639464D01*
X10615218Y3627526D01*
X10607344Y3614521D01*
X10601045Y3600602D01*
X10598861Y3597401D01*
X10595610Y3595319D01*
X10591800Y3594608D01*
X10587990Y3595319D01*
X10584738Y3597401D01*
X10582554Y3600602D01*
X10576255Y3614521D01*
X10568381Y3627526D01*
X10559034Y3639464D01*
X10548264Y3650234D01*
X10536326Y3659581D01*
X10523321Y3667455D01*
X10509453Y3673703D01*
X10494924Y3678224D01*
X10479989Y3680968D01*
X10464800Y3681882D01*
X10449610Y3680968D01*
X10434675Y3678224D01*
X10420146Y3673703D01*
X10406278Y3667455D01*
X10393273Y3659581D01*
X10381335Y3650234D01*
X10370566Y3639464D01*
X10361218Y3627526D01*
X10353344Y3614521D01*
X10347045Y3600602D01*
X10344861Y3597401D01*
X10341610Y3595319D01*
X10337800Y3594608D01*
X10333990Y3595319D01*
X10330738Y3597401D01*
X10328554Y3600602D01*
X10322255Y3614521D01*
X10314381Y3627526D01*
X10305034Y3639464D01*
X10294264Y3650234D01*
X10282326Y3659581D01*
X10269321Y3667455D01*
X10255453Y3673703D01*
X10240924Y3678224D01*
X10225989Y3680968D01*
X10210800Y3681882D01*
X10195610Y3680968D01*
X10180675Y3678224D01*
X10166146Y3673703D01*
X10152278Y3667455D01*
X10139273Y3659581D01*
X10127335Y3650234D01*
X10116566Y3639464D01*
X10107218Y3627526D01*
X10099344Y3614521D01*
X10093045Y3600602D01*
X10090861Y3597401D01*
X10087610Y3595319D01*
X10083800Y3594608D01*
X10079990Y3595319D01*
X10076738Y3597401D01*
X10074554Y3600602D01*
X10068255Y3614521D01*
X10060381Y3627526D01*
X10051034Y3639464D01*
X10040264Y3650234D01*
X10028326Y3659581D01*
X10015321Y3667455D01*
X10001453Y3673703D01*
X9986924Y3678224D01*
X9971989Y3680968D01*
X9956800Y3681882D01*
X9941610Y3680968D01*
X9926675Y3678224D01*
X9912146Y3673703D01*
X9898278Y3667455D01*
X9885273Y3659581D01*
X9873335Y3650234D01*
X9862566Y3639464D01*
X9853218Y3627526D01*
X9845344Y3614521D01*
X9839045Y3600602D01*
X9836861Y3597401D01*
X9833610Y3595319D01*
X9829800Y3594608D01*
X9825990Y3595319D01*
X9822738Y3597401D01*
X9820554Y3600602D01*
X9814255Y3614521D01*
X9806381Y3627526D01*
X9797034Y3639464D01*
X9786264Y3650234D01*
X9774326Y3659581D01*
X9761321Y3667455D01*
X9759696Y3668217D01*
X9756546Y3670401D01*
X9754463Y3673652D01*
X9753701Y3677462D01*
X9753701Y4533392D01*
X9754666Y4537710D01*
X9755733Y4540046D01*
X9758273Y4549495D01*
X9759137Y4559300D01*
X9758273Y4569104D01*
X9755733Y4578553D01*
X9751618Y4587494D01*
X9745980Y4595520D01*
X9739020Y4602480D01*
X9730994Y4608118D01*
X9722053Y4612233D01*
X9712604Y4614773D01*
X9702800Y4615637D01*
X9692995Y4614773D01*
X9683546Y4612233D01*
X9674606Y4608118D01*
X9666579Y4602480D01*
X9659620Y4595520D01*
X9653981Y4587494D01*
X9649866Y4578553D01*
X9647326Y4569104D01*
X9646462Y4559300D01*
X9647326Y4549495D01*
X9649866Y4540046D01*
X9650933Y4537710D01*
X9651898Y4533392D01*
X9651898Y3677462D01*
X9651136Y3673652D01*
X9649053Y3670401D01*
X9645904Y3668217D01*
X9644278Y3667455D01*
X9631273Y3659581D01*
X9619335Y3650234D01*
X9608566Y3639464D01*
X9599218Y3627526D01*
X9591344Y3614521D01*
X9585045Y3600602D01*
X9582861Y3597401D01*
X9579610Y3595319D01*
X9575800Y3594608D01*
X9571990Y3595319D01*
X9568738Y3597401D01*
X9566554Y3600602D01*
X9560255Y3614521D01*
X9552381Y3627526D01*
X9543034Y3639464D01*
X9532264Y3650234D01*
X9520326Y3659581D01*
X9507321Y3667455D01*
X9505696Y3668217D01*
X9502546Y3670401D01*
X9500463Y3673652D01*
X9499701Y3677462D01*
X9499701Y4330192D01*
X9500666Y4334510D01*
X9501733Y4336846D01*
X9504273Y4346295D01*
X9505137Y4356100D01*
X9504273Y4365904D01*
X9501733Y4375353D01*
X9497618Y4384294D01*
X9491980Y4392320D01*
X9485020Y4399280D01*
X9476994Y4404918D01*
X9468053Y4409033D01*
X9458604Y4411573D01*
X9448800Y4412437D01*
X9438995Y4411573D01*
X9429546Y4409033D01*
X9420606Y4404918D01*
X9412579Y4399280D01*
X9405620Y4392320D01*
X9399981Y4384294D01*
X9395866Y4375353D01*
X9393326Y4365904D01*
X9392462Y4356100D01*
X9393326Y4346295D01*
X9395866Y4336846D01*
X9396933Y4334510D01*
X9397898Y4330192D01*
X9397898Y3677462D01*
X9397136Y3673652D01*
X9395053Y3670401D01*
X9391904Y3668217D01*
X9390278Y3667455D01*
X9377273Y3659581D01*
X9365335Y3650234D01*
X9354566Y3639464D01*
X9345218Y3627526D01*
X9337344Y3614521D01*
X9331045Y3600602D01*
X9328861Y3597401D01*
X9325610Y3595319D01*
X9321800Y3594608D01*
X9317990Y3595319D01*
X9314738Y3597401D01*
X9312554Y3600602D01*
X9306255Y3614521D01*
X9298381Y3627526D01*
X9289034Y3639464D01*
X9278264Y3650234D01*
X9266326Y3659581D01*
X9253321Y3667455D01*
X9251696Y3668217D01*
X9248546Y3670401D01*
X9246463Y3673652D01*
X9245701Y3677462D01*
X9245701Y4152392D01*
X9246666Y4156710D01*
X9247733Y4159046D01*
X9250273Y4168495D01*
X9251137Y4178300D01*
X9250273Y4188104D01*
X9247733Y4197553D01*
X9243618Y4206494D01*
X9237980Y4214520D01*
X9231020Y4221480D01*
X9222994Y4227118D01*
X9214053Y4231233D01*
X9204604Y4233773D01*
X9194800Y4234637D01*
X9184995Y4233773D01*
X9175546Y4231233D01*
X9166606Y4227118D01*
X9158579Y4221480D01*
X9151620Y4214520D01*
X9145981Y4206494D01*
X9141866Y4197553D01*
X9139326Y4188104D01*
X9138462Y4178300D01*
X9139326Y4168495D01*
X9141866Y4159046D01*
X9142933Y4156710D01*
X9143898Y4152392D01*
X9143898Y3677462D01*
X9143136Y3673652D01*
X9141053Y3670401D01*
X9137904Y3668217D01*
X9136278Y3667455D01*
X9123273Y3659581D01*
X9111335Y3650234D01*
X9100566Y3639464D01*
X9091218Y3627526D01*
X9083344Y3614521D01*
X9077045Y3600602D01*
X9074861Y3597401D01*
X9071610Y3595319D01*
X9067800Y3594608D01*
X9063990Y3595319D01*
X9060738Y3597401D01*
X9058554Y3600602D01*
X9052255Y3614521D01*
X9044381Y3627526D01*
X9035034Y3639464D01*
X9024264Y3650234D01*
X9012326Y3659581D01*
X8999321Y3667455D01*
X8985453Y3673703D01*
X8970924Y3678224D01*
X8955989Y3680968D01*
X8940800Y3681882D01*
X8925610Y3680968D01*
X8910675Y3678224D01*
X8896146Y3673703D01*
X8882278Y3667455D01*
X8869273Y3659581D01*
X8857335Y3650234D01*
X8846566Y3639464D01*
X8837218Y3627526D01*
X8829344Y3614521D01*
X8823045Y3600602D01*
X8820861Y3597401D01*
X8817610Y3595319D01*
X8813800Y3594608D01*
X8809990Y3595319D01*
X8806738Y3597401D01*
X8804554Y3600602D01*
X8798255Y3614521D01*
X8790381Y3627526D01*
X8781034Y3639464D01*
X8770264Y3650234D01*
X8758326Y3659581D01*
X8745321Y3667455D01*
X8731453Y3673703D01*
X8716924Y3678224D01*
X8701989Y3680968D01*
X8686800Y3681882D01*
X8671610Y3680968D01*
X8656675Y3678224D01*
X8642146Y3673703D01*
X8628278Y3667455D01*
X8615273Y3659581D01*
X8603335Y3650234D01*
X8592566Y3639464D01*
X8583218Y3627526D01*
X8575344Y3614521D01*
X8569045Y3600602D01*
X8566861Y3597401D01*
X8563610Y3595319D01*
X8559800Y3594608D01*
X8555990Y3595319D01*
X8552738Y3597401D01*
X8550554Y3600602D01*
X8544255Y3614521D01*
X8536381Y3627526D01*
X8527034Y3639464D01*
X8516264Y3650234D01*
X8504326Y3659581D01*
X8491321Y3667455D01*
X8477453Y3673703D01*
X8462924Y3678224D01*
X8447989Y3680968D01*
X8432800Y3681882D01*
X8417610Y3680968D01*
X8402675Y3678224D01*
X8388146Y3673703D01*
X8374278Y3667455D01*
X8361273Y3659581D01*
X8349335Y3650234D01*
X8338566Y3639464D01*
X8329218Y3627526D01*
X8321344Y3614521D01*
X8315045Y3600602D01*
X8312861Y3597401D01*
X8309609Y3595319D01*
X8305800Y3594608D01*
X8301990Y3595319D01*
X8298738Y3597401D01*
X8296554Y3600602D01*
X8290255Y3614521D01*
X8282381Y3627526D01*
X8273034Y3639464D01*
X8262264Y3650234D01*
X8250326Y3659581D01*
X8237321Y3667455D01*
X8223453Y3673703D01*
X8208924Y3678224D01*
X8193989Y3680968D01*
X8178800Y3681882D01*
X8163610Y3680968D01*
X8148675Y3678224D01*
X8134146Y3673703D01*
X8120278Y3667455D01*
X8107273Y3659581D01*
X8095335Y3650234D01*
X8084566Y3639464D01*
X8075218Y3627526D01*
X8067344Y3614521D01*
X8061045Y3600602D01*
X8058861Y3597401D01*
X8055609Y3595319D01*
X8051800Y3594608D01*
X8047990Y3595319D01*
X8044738Y3597401D01*
X8042554Y3600602D01*
X8036255Y3614521D01*
X8028381Y3627526D01*
X8019034Y3639464D01*
X8008264Y3650234D01*
X7996326Y3659581D01*
X7983321Y3667455D01*
X7969453Y3673703D01*
X7954924Y3678224D01*
X7939989Y3680968D01*
X7924800Y3681882D01*
X7909610Y3680968D01*
X7894675Y3678224D01*
X7880146Y3673703D01*
X7866278Y3667455D01*
X7853273Y3659581D01*
X7841335Y3650234D01*
X7830566Y3639464D01*
X7821218Y3627526D01*
X7813344Y3614521D01*
X7807045Y3600602D01*
X7804861Y3597401D01*
X7801609Y3595319D01*
X7797800Y3594608D01*
X7793990Y3595319D01*
X7790738Y3597401D01*
X7788554Y3600602D01*
X7782255Y3614521D01*
X7774381Y3627526D01*
X7765034Y3639464D01*
X7754264Y3650234D01*
X7742326Y3659581D01*
X7729321Y3667455D01*
X7715453Y3673703D01*
X7700924Y3678224D01*
X7685989Y3680968D01*
X7670800Y3681882D01*
X7655610Y3680968D01*
X7640675Y3678224D01*
X7626146Y3673703D01*
X7612278Y3667455D01*
X7599273Y3659581D01*
X7587335Y3650234D01*
X7576566Y3639464D01*
X7567218Y3627526D01*
X7559344Y3614521D01*
X7553045Y3600602D01*
X7550861Y3597401D01*
X7547609Y3595319D01*
X7543800Y3594608D01*
X7539990Y3595319D01*
X7536738Y3597401D01*
X7534554Y3600602D01*
X7528255Y3614521D01*
X7520381Y3627526D01*
X7511034Y3639464D01*
X7500264Y3650234D01*
X7488326Y3659581D01*
X7475321Y3667455D01*
X7461453Y3673703D01*
X7446924Y3678224D01*
X7431989Y3680968D01*
X7416800Y3681882D01*
X7401610Y3680968D01*
X7386675Y3678224D01*
X7372146Y3673703D01*
X7358278Y3667455D01*
X7345273Y3659581D01*
X7333335Y3650234D01*
X7322566Y3639464D01*
X7313218Y3627526D01*
X7305344Y3614521D01*
X7299045Y3600602D01*
X7296861Y3597401D01*
X7293609Y3595319D01*
X7289800Y3594608D01*
X7285990Y3595319D01*
X7282738Y3597401D01*
X7280554Y3600602D01*
X7274255Y3614521D01*
X7266381Y3627526D01*
X7257034Y3639464D01*
X7246264Y3650234D01*
X7234326Y3659581D01*
X7221321Y3667455D01*
X7219696Y3668217D01*
X7216546Y3670401D01*
X7214463Y3673652D01*
X7213701Y3677462D01*
X7213701Y3873601D01*
X7214463Y3877513D01*
X7216698Y3880764D01*
X8196935Y4861001D01*
X8200186Y4863236D01*
X8204098Y4863998D01*
X13469467Y4863998D01*
X13472566Y4863490D01*
X13475411Y4862068D01*
X13477646Y4859883D01*
X13485622Y4849012D01*
X13495121Y4839208D01*
X13505840Y4830724D01*
X13517575Y4823764D01*
X13530122Y4818481D01*
X13543280Y4814874D01*
X13556792Y4813046D01*
X13570407Y4813046D01*
X13583919Y4814874D01*
X13597077Y4818481D01*
X13609624Y4823764D01*
X13621359Y4830724D01*
X13632078Y4839208D01*
X13641578Y4849012D01*
X13649655Y4859985D01*
X13656208Y4871923D01*
X13661085Y4884674D01*
X13664285Y4897932D01*
X13665606Y4911496D01*
X13665149Y4925110D01*
X13662913Y4938572D01*
X13658850Y4951577D01*
X13653109Y4963972D01*
X13645794Y4975453D01*
X13637006Y4985867D01*
X13626846Y4995011D01*
X13615619Y5002733D01*
X13603478Y5008880D01*
X13590574Y5013350D01*
X13577214Y5016093D01*
X13563600Y5017008D01*
X13549985Y5016093D01*
X13536625Y5013350D01*
X13523722Y5008880D01*
X13511580Y5002733D01*
X13500354Y4995011D01*
X13490194Y4985867D01*
X13481405Y4975453D01*
X13478256Y4970526D01*
X13475969Y4967986D01*
X13473023Y4966360D01*
X13469670Y4965801D01*
X8179003Y4965801D01*
X8174380Y4965598D01*
X8169960Y4965039D01*
X8165642Y4964074D01*
X8161375Y4962753D01*
X8157311Y4961026D01*
X8153349Y4958994D01*
X8149590Y4956606D01*
X8146084Y4953914D01*
X8142630Y4950764D01*
X7126935Y3935069D01*
X7123785Y3931615D01*
X7121093Y3928110D01*
X7118705Y3924350D01*
X7116673Y3920388D01*
X7114946Y3916324D01*
X7113625Y3912057D01*
X7112660Y3907739D01*
X7112101Y3903319D01*
X7111898Y3898696D01*
X7111898Y3677462D01*
X7111136Y3673652D01*
X7109053Y3670401D01*
X7105903Y3668217D01*
X7104278Y3667455D01*
X7091273Y3659581D01*
X7079335Y3650234D01*
X7068566Y3639464D01*
X7059218Y3627526D01*
X7051344Y3614521D01*
X7045096Y3600653D01*
X7040575Y3586124D01*
X7037831Y3571189D01*
X7036917Y3556000D01*
X7037831Y3540810D01*
X7040575Y3525875D01*
X7045096Y3511346D01*
X7051344Y3497478D01*
X7059218Y3484473D01*
X7068566Y3472535D01*
X7079335Y3461765D01*
X7091273Y3452418D01*
X7104278Y3444544D01*
X7118146Y3438296D01*
X7132675Y3433775D01*
X7147610Y3431032D01*
X7162800Y3430117D01*
X7177989Y3431032D01*
X7192924Y3433775D01*
X7207453Y3438296D01*
X7221321Y3444544D01*
X7234326Y3452418D01*
X7246264Y3461765D01*
X7257034Y3472535D01*
X7266381Y3484473D01*
X7274255Y3497478D01*
X7280554Y3511397D01*
X7282738Y3514598D01*
X7285990Y3516680D01*
X7289800Y3517392D01*
X7293609Y3516680D01*
X7296861Y3514598D01*
X7299045Y3511397D01*
X7305344Y3497478D01*
X7313218Y3484473D01*
X7322566Y3472535D01*
X7333335Y3461765D01*
X7345273Y3452418D01*
X7358278Y3444544D01*
X7359903Y3443782D01*
X7363053Y3441598D01*
X7365136Y3438347D01*
X7365898Y3434537D01*
X7365898Y1130757D01*
X7366711Y1121460D01*
X7368997Y1112926D01*
X7372756Y1104849D01*
X7377836Y1097584D01*
X7384084Y1091336D01*
X7391349Y1086256D01*
X7399426Y1082497D01*
X7407960Y1080211D01*
X7417257Y1079398D01*
X7803134Y1079398D01*
X7806486Y1078839D01*
X7809433Y1077214D01*
X7811719Y1074674D01*
X7819237Y1062837D01*
X7828432Y1051712D01*
X7838948Y1041857D01*
X7850581Y1033373D01*
X7863230Y1026414D01*
X7876641Y1021130D01*
X7890611Y1017524D01*
G37*
G36*
X10236200Y1226362D02*
G01*
X10246004Y1227226D01*
X10255453Y1229766D01*
X10257790Y1230833D01*
X10262108Y1231798D01*
X10451033Y1231798D01*
X10455656Y1232001D01*
X10460075Y1232560D01*
X10464393Y1233525D01*
X10468660Y1234846D01*
X10472724Y1236573D01*
X10476687Y1238605D01*
X10480446Y1240993D01*
X10483951Y1243685D01*
X10487406Y1246835D01*
X10886694Y1646174D01*
X10889996Y1648358D01*
X10893907Y1649120D01*
X10926521Y1649120D01*
X10932871Y1649831D01*
X10938306Y1651762D01*
X10943234Y1654860D01*
X10947298Y1658924D01*
X10950397Y1663852D01*
X10952276Y1669288D01*
X10952988Y1675638D01*
X10952988Y1755139D01*
X10952276Y1761439D01*
X10950397Y1766925D01*
X10947298Y1771802D01*
X10943234Y1775917D01*
X10938306Y1778965D01*
X10932261Y1781098D01*
X10928705Y1783232D01*
X10926267Y1786636D01*
X10925454Y1790700D01*
X10926267Y1794764D01*
X10928705Y1798167D01*
X10932261Y1800301D01*
X10938306Y1802434D01*
X10943234Y1805482D01*
X10947298Y1809597D01*
X10950397Y1814474D01*
X10952276Y1819960D01*
X10952988Y1826260D01*
X10952988Y1905762D01*
X10952276Y1912112D01*
X10950397Y1917547D01*
X10947298Y1922475D01*
X10943234Y1926539D01*
X10939627Y1928774D01*
X10937087Y1931060D01*
X10935462Y1934057D01*
X10934903Y1937410D01*
X10935512Y2480106D01*
X10936071Y2483459D01*
X10937697Y2486406D01*
X10941202Y2489301D01*
X10945317Y2493365D01*
X10948365Y2498293D01*
X10950498Y2504338D01*
X10952632Y2507894D01*
X10956036Y2510332D01*
X10960100Y2511145D01*
X10964164Y2510332D01*
X10967567Y2507894D01*
X10969701Y2504338D01*
X10971834Y2498293D01*
X10974882Y2493365D01*
X10978997Y2489301D01*
X10983874Y2486202D01*
X10989360Y2484323D01*
X10995660Y2483612D01*
X11008918Y2483612D01*
X11008918Y2524760D01*
X10961166Y2524760D01*
X10957255Y2525522D01*
X10954004Y2527706D01*
X10951768Y2531008D01*
X10951006Y2534920D01*
X10951006Y2570480D01*
X10951768Y2574391D01*
X10954004Y2577693D01*
X10957255Y2579878D01*
X10961166Y2580640D01*
X11008918Y2580640D01*
X11008918Y2621788D01*
X10995660Y2621788D01*
X10989360Y2621076D01*
X10983874Y2619197D01*
X10978997Y2616098D01*
X10974882Y2612034D01*
X10971834Y2607106D01*
X10969701Y2601061D01*
X10967567Y2597505D01*
X10964164Y2595067D01*
X10960100Y2594254D01*
X10956036Y2595067D01*
X10952632Y2597505D01*
X10950498Y2601061D01*
X10948365Y2607106D01*
X10945317Y2612034D01*
X10941202Y2616098D01*
X10936325Y2619197D01*
X10930839Y2621076D01*
X10924540Y2621788D01*
X10845038Y2621788D01*
X10838688Y2621076D01*
X10833252Y2619197D01*
X10828324Y2616098D01*
X10824260Y2612034D01*
X10821974Y2608376D01*
X10819688Y2605836D01*
X10816691Y2604160D01*
X10813338Y2603601D01*
X10490708Y2603601D01*
X10486390Y2604566D01*
X10484053Y2605633D01*
X10474604Y2608173D01*
X10464800Y2609037D01*
X10454995Y2608173D01*
X10445546Y2605633D01*
X10436606Y2601518D01*
X10428579Y2595880D01*
X10421620Y2588920D01*
X10415981Y2580894D01*
X10411866Y2571953D01*
X10409326Y2562504D01*
X10408462Y2552700D01*
X10409326Y2542895D01*
X10411866Y2533446D01*
X10415981Y2524506D01*
X10421620Y2516479D01*
X10428579Y2509520D01*
X10436606Y2503881D01*
X10445546Y2499766D01*
X10454995Y2497226D01*
X10464800Y2496362D01*
X10474604Y2497226D01*
X10484053Y2499766D01*
X10486390Y2500833D01*
X10490708Y2501798D01*
X10813338Y2501798D01*
X10816691Y2501239D01*
X10819688Y2499563D01*
X10821974Y2497023D01*
X10824260Y2493365D01*
X10831474Y2486660D01*
X10833100Y2483662D01*
X10833658Y2480310D01*
X10833049Y1937512D01*
X10832490Y1934159D01*
X10830864Y1931162D01*
X10828324Y1928875D01*
X10824565Y1926539D01*
X10820501Y1922475D01*
X10817402Y1917547D01*
X10815523Y1912112D01*
X10814812Y1905762D01*
X10814812Y1826260D01*
X10815523Y1819960D01*
X10817402Y1814474D01*
X10820501Y1809597D01*
X10824565Y1805482D01*
X10829493Y1802434D01*
X10835538Y1800301D01*
X10839094Y1798167D01*
X10841532Y1794764D01*
X10842345Y1790700D01*
X10841532Y1786636D01*
X10839094Y1783232D01*
X10835538Y1781098D01*
X10829493Y1778965D01*
X10824565Y1775917D01*
X10820501Y1771802D01*
X10817402Y1766925D01*
X10815523Y1761439D01*
X10814812Y1755139D01*
X10814812Y1722475D01*
X10813999Y1718564D01*
X10811814Y1715262D01*
X10433100Y1336598D01*
X10429849Y1334363D01*
X10425938Y1333601D01*
X10262108Y1333601D01*
X10257790Y1334566D01*
X10255453Y1335633D01*
X10246004Y1338173D01*
X10236200Y1339037D01*
X10226395Y1338173D01*
X10216946Y1335633D01*
X10208006Y1331518D01*
X10199979Y1325880D01*
X10193020Y1318920D01*
X10187381Y1310894D01*
X10183266Y1301953D01*
X10180726Y1292504D01*
X10179862Y1282700D01*
X10180726Y1272895D01*
X10183266Y1263446D01*
X10187381Y1254506D01*
X10193020Y1246479D01*
X10199979Y1239520D01*
X10208006Y1233881D01*
X10216946Y1229766D01*
X10226395Y1227226D01*
G37*
G36*
X8966200Y1226362D02*
G01*
X8976004Y1227226D01*
X8985453Y1229766D01*
X8987790Y1230833D01*
X8992108Y1231798D01*
X9181033Y1231798D01*
X9185656Y1232001D01*
X9190075Y1232560D01*
X9194393Y1233525D01*
X9198660Y1234846D01*
X9202724Y1236573D01*
X9206687Y1238605D01*
X9210446Y1240993D01*
X9213951Y1243685D01*
X9217406Y1246835D01*
X9616694Y1646174D01*
X9619996Y1648358D01*
X9623907Y1649120D01*
X9656521Y1649120D01*
X9662871Y1649831D01*
X9668306Y1651762D01*
X9673234Y1654860D01*
X9677298Y1658924D01*
X9680397Y1663852D01*
X9682276Y1669288D01*
X9682988Y1675638D01*
X9682988Y1755139D01*
X9682276Y1761439D01*
X9680397Y1766925D01*
X9677298Y1771802D01*
X9673234Y1775917D01*
X9668306Y1778965D01*
X9662261Y1781098D01*
X9658705Y1783232D01*
X9656267Y1786636D01*
X9655454Y1790700D01*
X9656267Y1794764D01*
X9658705Y1798167D01*
X9662261Y1800301D01*
X9668306Y1802434D01*
X9673234Y1805482D01*
X9677298Y1809597D01*
X9680397Y1814474D01*
X9682276Y1819960D01*
X9682988Y1826260D01*
X9682988Y1905762D01*
X9682276Y1912112D01*
X9680397Y1917547D01*
X9677298Y1922475D01*
X9673234Y1926539D01*
X9669627Y1928774D01*
X9667087Y1931060D01*
X9665462Y1934057D01*
X9664903Y1937410D01*
X9665512Y2480106D01*
X9666071Y2483459D01*
X9667697Y2486406D01*
X9671202Y2489301D01*
X9675317Y2493365D01*
X9678365Y2498293D01*
X9680498Y2504338D01*
X9682632Y2507894D01*
X9686036Y2510332D01*
X9690100Y2511145D01*
X9694164Y2510332D01*
X9697567Y2507894D01*
X9699701Y2504338D01*
X9701834Y2498293D01*
X9704882Y2493365D01*
X9708997Y2489301D01*
X9713874Y2486202D01*
X9719360Y2484323D01*
X9725660Y2483612D01*
X9738918Y2483612D01*
X9738918Y2524760D01*
X9691166Y2524760D01*
X9687255Y2525522D01*
X9684004Y2527706D01*
X9681768Y2531008D01*
X9681006Y2534920D01*
X9681006Y2570480D01*
X9681768Y2574391D01*
X9684004Y2577693D01*
X9687255Y2579878D01*
X9691166Y2580640D01*
X9738918Y2580640D01*
X9738918Y2621788D01*
X9725660Y2621788D01*
X9719360Y2621076D01*
X9713874Y2619197D01*
X9708997Y2616098D01*
X9704882Y2612034D01*
X9701834Y2607106D01*
X9699701Y2601061D01*
X9697567Y2597505D01*
X9694164Y2595067D01*
X9690100Y2594254D01*
X9686036Y2595067D01*
X9682632Y2597505D01*
X9680498Y2601061D01*
X9678365Y2607106D01*
X9675317Y2612034D01*
X9667900Y2618892D01*
X9666224Y2621838D01*
X9665665Y2625191D01*
X9665665Y2783738D01*
X9666427Y2787599D01*
X9668662Y2790901D01*
X9671964Y2793136D01*
X9675825Y2793898D01*
X10692892Y2793898D01*
X10697210Y2792933D01*
X10699546Y2791866D01*
X10708995Y2789326D01*
X10718800Y2788462D01*
X10728604Y2789326D01*
X10738053Y2791866D01*
X10746994Y2795981D01*
X10755020Y2801620D01*
X10761980Y2808579D01*
X10767618Y2816606D01*
X10771733Y2825546D01*
X10774273Y2834995D01*
X10775137Y2844800D01*
X10774273Y2854604D01*
X10771733Y2864053D01*
X10767618Y2872994D01*
X10761980Y2881020D01*
X10755020Y2887980D01*
X10746994Y2893618D01*
X10738053Y2897733D01*
X10728604Y2900273D01*
X10718800Y2901137D01*
X10708995Y2900273D01*
X10699546Y2897733D01*
X10697210Y2896666D01*
X10692892Y2895701D01*
X9615170Y2895701D01*
X9605010Y2894888D01*
X9596526Y2892602D01*
X9588449Y2888843D01*
X9581184Y2883763D01*
X9574936Y2877515D01*
X9569856Y2870250D01*
X9566097Y2862173D01*
X9563811Y2853639D01*
X9563049Y2844800D01*
X9563862Y2834944D01*
X9563862Y2625191D01*
X9563303Y2621838D01*
X9561626Y2618841D01*
X9558324Y2616098D01*
X9554260Y2612034D01*
X9551162Y2607106D01*
X9549231Y2601671D01*
X9548520Y2595321D01*
X9548520Y2510078D01*
X9549231Y2503728D01*
X9551162Y2498293D01*
X9554260Y2493365D01*
X9561474Y2486660D01*
X9563100Y2483662D01*
X9563658Y2480310D01*
X9563049Y1937512D01*
X9562490Y1934159D01*
X9560864Y1931162D01*
X9558324Y1928875D01*
X9554565Y1926539D01*
X9550501Y1922475D01*
X9547402Y1917547D01*
X9545523Y1912112D01*
X9544812Y1905762D01*
X9544812Y1826260D01*
X9545523Y1819960D01*
X9547402Y1814474D01*
X9550501Y1809597D01*
X9554565Y1805482D01*
X9559493Y1802434D01*
X9565538Y1800301D01*
X9569094Y1798167D01*
X9571532Y1794764D01*
X9572345Y1790700D01*
X9571532Y1786636D01*
X9569094Y1783232D01*
X9565538Y1781098D01*
X9559493Y1778965D01*
X9554565Y1775917D01*
X9550501Y1771802D01*
X9547402Y1766925D01*
X9545523Y1761439D01*
X9544812Y1755139D01*
X9544812Y1722475D01*
X9543999Y1718564D01*
X9541814Y1715262D01*
X9163100Y1336598D01*
X9159849Y1334363D01*
X9155938Y1333601D01*
X8992108Y1333601D01*
X8987790Y1334566D01*
X8985453Y1335633D01*
X8976004Y1338173D01*
X8966200Y1339037D01*
X8956395Y1338173D01*
X8946946Y1335633D01*
X8938006Y1331518D01*
X8929979Y1325880D01*
X8923020Y1318920D01*
X8917381Y1310894D01*
X8913266Y1301953D01*
X8910726Y1292504D01*
X8909862Y1282700D01*
X8910726Y1272895D01*
X8913266Y1263446D01*
X8917381Y1254506D01*
X8923020Y1246479D01*
X8929979Y1239520D01*
X8938006Y1233881D01*
X8946946Y1229766D01*
X8956395Y1227226D01*
G37*
G36*
X11506200Y1226362D02*
G01*
X11516004Y1227226D01*
X11525453Y1229766D01*
X11527790Y1230833D01*
X11532108Y1231798D01*
X11721033Y1231798D01*
X11725656Y1232001D01*
X11730075Y1232560D01*
X11734393Y1233525D01*
X11738660Y1234846D01*
X11742724Y1236573D01*
X11746687Y1238605D01*
X11750446Y1240993D01*
X11753951Y1243685D01*
X11757406Y1246835D01*
X12156694Y1646174D01*
X12159996Y1648358D01*
X12163907Y1649120D01*
X12196521Y1649120D01*
X12202871Y1649831D01*
X12208306Y1651762D01*
X12213234Y1654860D01*
X12217298Y1658924D01*
X12220397Y1663852D01*
X12222276Y1669288D01*
X12222988Y1675638D01*
X12222988Y1755139D01*
X12222276Y1761439D01*
X12220397Y1766925D01*
X12217298Y1771802D01*
X12213234Y1775917D01*
X12208306Y1778965D01*
X12202261Y1781098D01*
X12198705Y1783232D01*
X12196267Y1786636D01*
X12195454Y1790700D01*
X12196267Y1794764D01*
X12198705Y1798167D01*
X12202261Y1800301D01*
X12208306Y1802434D01*
X12213234Y1805482D01*
X12217298Y1809597D01*
X12220397Y1814474D01*
X12222276Y1819960D01*
X12222988Y1826260D01*
X12222988Y1905762D01*
X12222276Y1912112D01*
X12220397Y1917547D01*
X12217298Y1922475D01*
X12213234Y1926539D01*
X12209627Y1928774D01*
X12207087Y1931060D01*
X12205462Y1934057D01*
X12204903Y1937410D01*
X12205512Y2467406D01*
X12206071Y2470759D01*
X12207697Y2473706D01*
X12211202Y2476601D01*
X12215317Y2480665D01*
X12218365Y2485593D01*
X12220498Y2491638D01*
X12222632Y2495194D01*
X12226036Y2497632D01*
X12230100Y2498445D01*
X12234164Y2497632D01*
X12237567Y2495194D01*
X12239701Y2491638D01*
X12241834Y2485593D01*
X12244882Y2480665D01*
X12248997Y2476601D01*
X12253874Y2473502D01*
X12259360Y2471623D01*
X12265660Y2470912D01*
X12278918Y2470912D01*
X12278918Y2512060D01*
X12231166Y2512060D01*
X12227255Y2512822D01*
X12224004Y2515006D01*
X12221768Y2518308D01*
X12221006Y2522220D01*
X12221006Y2557780D01*
X12221768Y2561691D01*
X12224004Y2564993D01*
X12227255Y2567178D01*
X12231166Y2567940D01*
X12278918Y2567940D01*
X12278918Y2609088D01*
X12265660Y2609088D01*
X12259360Y2608376D01*
X12253874Y2606497D01*
X12248997Y2603398D01*
X12244882Y2599334D01*
X12241834Y2594406D01*
X12239701Y2588361D01*
X12237567Y2584805D01*
X12234164Y2582367D01*
X12230100Y2581554D01*
X12226036Y2582367D01*
X12222632Y2584805D01*
X12220498Y2588361D01*
X12218365Y2594406D01*
X12215317Y2599334D01*
X12207900Y2606192D01*
X12206224Y2609138D01*
X12205665Y2612491D01*
X12205665Y2805633D01*
X12205462Y2810256D01*
X12204903Y2814675D01*
X12203938Y2818993D01*
X12202617Y2823260D01*
X12200890Y2827324D01*
X12198858Y2831287D01*
X12196470Y2835046D01*
X12193778Y2838551D01*
X12190628Y2842006D01*
X11992406Y3040176D01*
X11990374Y3043072D01*
X11986818Y3050794D01*
X11981180Y3058820D01*
X11974220Y3065780D01*
X11966194Y3071418D01*
X11957253Y3075533D01*
X11947804Y3078073D01*
X11944146Y3078429D01*
X11939981Y3079750D01*
X11938000Y3081528D01*
X11936018Y3079750D01*
X11931853Y3078429D01*
X11928195Y3078073D01*
X11918746Y3075533D01*
X11916410Y3074466D01*
X11912092Y3073501D01*
X10224211Y3073501D01*
X10219893Y3074466D01*
X10217150Y3076549D01*
X10214406Y3074466D01*
X10210088Y3073501D01*
X9982708Y3073501D01*
X9978390Y3074466D01*
X9976053Y3075533D01*
X9966604Y3078073D01*
X9956800Y3078937D01*
X9946995Y3078073D01*
X9937546Y3075533D01*
X9928606Y3071418D01*
X9920579Y3065780D01*
X9913620Y3058820D01*
X9907981Y3050794D01*
X9903866Y3041853D01*
X9901326Y3032404D01*
X9900462Y3022600D01*
X9901326Y3012795D01*
X9903866Y3003346D01*
X9907981Y2994406D01*
X9913620Y2986379D01*
X9920579Y2979420D01*
X9928606Y2973781D01*
X9937546Y2969666D01*
X9946995Y2967126D01*
X9956800Y2966262D01*
X9966604Y2967126D01*
X9976053Y2969666D01*
X9978390Y2970733D01*
X9982708Y2971698D01*
X11912092Y2971698D01*
X11917527Y2970225D01*
X11920423Y2968193D01*
X12100864Y2787700D01*
X12103100Y2784449D01*
X12103862Y2780538D01*
X12103862Y2612491D01*
X12103303Y2609138D01*
X12101626Y2606141D01*
X12098324Y2603398D01*
X12094260Y2599334D01*
X12091162Y2594406D01*
X12089231Y2588971D01*
X12088520Y2582621D01*
X12088520Y2497378D01*
X12089231Y2491028D01*
X12091162Y2485593D01*
X12094260Y2480665D01*
X12101474Y2473960D01*
X12103100Y2470962D01*
X12103658Y2467610D01*
X12103049Y1937512D01*
X12102490Y1934159D01*
X12100864Y1931162D01*
X12098324Y1928875D01*
X12094565Y1926539D01*
X12090501Y1922475D01*
X12087402Y1917547D01*
X12085523Y1912112D01*
X12084812Y1905762D01*
X12084812Y1826260D01*
X12085523Y1819960D01*
X12087402Y1814474D01*
X12090501Y1809597D01*
X12094565Y1805482D01*
X12099493Y1802434D01*
X12105538Y1800301D01*
X12109094Y1798167D01*
X12111532Y1794764D01*
X12112345Y1790700D01*
X12111532Y1786636D01*
X12109094Y1783232D01*
X12105538Y1781098D01*
X12099493Y1778965D01*
X12094565Y1775917D01*
X12090501Y1771802D01*
X12087402Y1766925D01*
X12085523Y1761439D01*
X12084812Y1755139D01*
X12084812Y1722475D01*
X12083999Y1718564D01*
X12081814Y1715262D01*
X11703100Y1336598D01*
X11699849Y1334363D01*
X11695938Y1333601D01*
X11532108Y1333601D01*
X11527790Y1334566D01*
X11525453Y1335633D01*
X11516004Y1338173D01*
X11506200Y1339037D01*
X11496395Y1338173D01*
X11486946Y1335633D01*
X11478006Y1331518D01*
X11469979Y1325880D01*
X11463020Y1318920D01*
X11457381Y1310894D01*
X11453266Y1301953D01*
X11450726Y1292504D01*
X11449862Y1282700D01*
X11450726Y1272895D01*
X11453266Y1263446D01*
X11457381Y1254506D01*
X11463020Y1246479D01*
X11469979Y1239520D01*
X11478006Y1233881D01*
X11486946Y1229766D01*
X11496395Y1227226D01*
G37*
G36*
X7904886Y1269746D02*
G01*
X7919313Y1269746D01*
X7933588Y1271524D01*
X7947558Y1275130D01*
X7960969Y1280414D01*
X7973618Y1287373D01*
X7985252Y1295857D01*
X7995767Y1305712D01*
X8004962Y1316837D01*
X8012684Y1328978D01*
X8018830Y1342034D01*
X8023301Y1355750D01*
X8025993Y1369923D01*
X8026908Y1384300D01*
X8025993Y1398676D01*
X8023301Y1412849D01*
X8018830Y1426565D01*
X8012684Y1439621D01*
X8004962Y1451762D01*
X7995767Y1462887D01*
X7985252Y1472742D01*
X7973618Y1481226D01*
X7960969Y1488186D01*
X7947558Y1493469D01*
X7933588Y1497076D01*
X7919313Y1498854D01*
X7904886Y1498854D01*
X7890611Y1497076D01*
X7876641Y1493469D01*
X7863230Y1488186D01*
X7850581Y1481226D01*
X7838948Y1472742D01*
X7828432Y1462887D01*
X7819237Y1451762D01*
X7811516Y1439621D01*
X7805369Y1426565D01*
X7800898Y1412849D01*
X7798206Y1398676D01*
X7797292Y1384300D01*
X7798206Y1369923D01*
X7800898Y1355750D01*
X7805369Y1342034D01*
X7811516Y1328978D01*
X7819237Y1316837D01*
X7828432Y1305712D01*
X7838948Y1295857D01*
X7850581Y1287373D01*
X7863230Y1280414D01*
X7876641Y1275130D01*
X7890611Y1271524D01*
G37*
G36*
X6634886Y1269746D02*
G01*
X6649313Y1269746D01*
X6663588Y1271524D01*
X6677558Y1275130D01*
X6690969Y1280414D01*
X6703618Y1287373D01*
X6715252Y1295857D01*
X6725767Y1305712D01*
X6734962Y1316837D01*
X6742684Y1328978D01*
X6748830Y1342034D01*
X6753301Y1355750D01*
X6755993Y1369923D01*
X6756908Y1384300D01*
X6755993Y1398676D01*
X6753301Y1412849D01*
X6748830Y1426565D01*
X6742684Y1439621D01*
X6734962Y1451762D01*
X6725767Y1462887D01*
X6715252Y1472742D01*
X6703618Y1481226D01*
X6690969Y1488186D01*
X6677558Y1493469D01*
X6663588Y1497076D01*
X6649313Y1498854D01*
X6634886Y1498854D01*
X6620611Y1497076D01*
X6606641Y1493469D01*
X6593230Y1488186D01*
X6580581Y1481226D01*
X6568948Y1472742D01*
X6558432Y1462887D01*
X6549237Y1451762D01*
X6541719Y1439926D01*
X6539433Y1437386D01*
X6536486Y1435760D01*
X6533134Y1435201D01*
X6426098Y1435201D01*
X6422186Y1435963D01*
X6418935Y1438198D01*
X5743498Y2113635D01*
X5741263Y2116886D01*
X5740501Y2120798D01*
X5740501Y4419142D01*
X5739688Y4428439D01*
X5737402Y4436973D01*
X5733643Y4445050D01*
X5728563Y4452315D01*
X5722315Y4458563D01*
X5715050Y4463643D01*
X5706973Y4467402D01*
X5698439Y4469688D01*
X5689142Y4470501D01*
X5440629Y4470501D01*
X5437276Y4471060D01*
X5434330Y4472686D01*
X5432044Y4475226D01*
X5428894Y4480153D01*
X5420106Y4490567D01*
X5409946Y4499711D01*
X5402021Y4505198D01*
X5399633Y4507433D01*
X5398109Y4510328D01*
X5397601Y4513529D01*
X5397601Y4579569D01*
X5398211Y4583023D01*
X5399938Y4586071D01*
X5402580Y4588306D01*
X5404459Y4589424D01*
X5415178Y4597908D01*
X5424678Y4607712D01*
X5432755Y4618685D01*
X5439308Y4630623D01*
X5444185Y4643374D01*
X5447385Y4656632D01*
X5448706Y4670196D01*
X5448249Y4683810D01*
X5446014Y4697272D01*
X5441950Y4710277D01*
X5436209Y4722672D01*
X5428894Y4734153D01*
X5420106Y4744567D01*
X5409946Y4753711D01*
X5398719Y4761433D01*
X5386578Y4767580D01*
X5373674Y4772050D01*
X5360314Y4774793D01*
X5346700Y4775708D01*
X5333085Y4774793D01*
X5319725Y4772050D01*
X5306822Y4767580D01*
X5294680Y4761433D01*
X5283454Y4753711D01*
X5273294Y4744567D01*
X5264505Y4734153D01*
X5257190Y4722672D01*
X5251450Y4710277D01*
X5247386Y4697272D01*
X5245150Y4683810D01*
X5244693Y4670196D01*
X5246014Y4656632D01*
X5249214Y4643374D01*
X5254091Y4630623D01*
X5260644Y4618685D01*
X5268722Y4607712D01*
X5278221Y4597908D01*
X5288940Y4589424D01*
X5290820Y4588306D01*
X5293461Y4586071D01*
X5295188Y4583023D01*
X5295798Y4579569D01*
X5295798Y4513529D01*
X5295290Y4510328D01*
X5293766Y4507433D01*
X5291378Y4505198D01*
X5283454Y4499711D01*
X5273294Y4490567D01*
X5264505Y4480153D01*
X5257190Y4468672D01*
X5251450Y4456277D01*
X5247386Y4443272D01*
X5245150Y4429810D01*
X5244693Y4416196D01*
X5246014Y4402632D01*
X5249214Y4389374D01*
X5254091Y4376623D01*
X5260644Y4364685D01*
X5268722Y4353712D01*
X5278221Y4343908D01*
X5288940Y4335424D01*
X5300675Y4328464D01*
X5313222Y4323181D01*
X5326380Y4319574D01*
X5339892Y4317746D01*
X5353507Y4317746D01*
X5367020Y4319574D01*
X5380177Y4323181D01*
X5392724Y4328464D01*
X5404459Y4335424D01*
X5415178Y4343908D01*
X5424678Y4353712D01*
X5432653Y4364583D01*
X5434888Y4366768D01*
X5437733Y4368190D01*
X5440832Y4368698D01*
X5628538Y4368698D01*
X5632399Y4367936D01*
X5635701Y4365701D01*
X5637936Y4362399D01*
X5638698Y4358538D01*
X5638698Y2095703D01*
X5638901Y2091080D01*
X5639460Y2086660D01*
X5640425Y2082342D01*
X5641746Y2078075D01*
X5643473Y2074011D01*
X5645505Y2070049D01*
X5647893Y2066289D01*
X5650585Y2062784D01*
X5653735Y2059330D01*
X6364630Y1348435D01*
X6368084Y1345285D01*
X6371590Y1342593D01*
X6375349Y1340205D01*
X6379311Y1338173D01*
X6383375Y1336446D01*
X6387642Y1335125D01*
X6391960Y1334160D01*
X6396380Y1333601D01*
X6401003Y1333398D01*
X6533134Y1333398D01*
X6536486Y1332839D01*
X6539433Y1331214D01*
X6541719Y1328674D01*
X6549237Y1316837D01*
X6558432Y1305712D01*
X6568948Y1295857D01*
X6580581Y1287373D01*
X6593230Y1280414D01*
X6606641Y1275130D01*
X6620611Y1271524D01*
G37*
G36*
X8343900Y1327962D02*
G01*
X8353704Y1328826D01*
X8363153Y1331366D01*
X8372094Y1335481D01*
X8380120Y1341120D01*
X8387080Y1348079D01*
X8392718Y1356106D01*
X8396833Y1365046D01*
X8399373Y1374495D01*
X8400237Y1384300D01*
X8399373Y1394104D01*
X8396833Y1403553D01*
X8395766Y1405890D01*
X8394801Y1410208D01*
X8394801Y3022092D01*
X8395766Y3026410D01*
X8396833Y3028746D01*
X8399373Y3038195D01*
X8400237Y3048000D01*
X8399373Y3057804D01*
X8396833Y3067253D01*
X8392718Y3076194D01*
X8387080Y3084220D01*
X8380120Y3091180D01*
X8372094Y3096818D01*
X8363153Y3100933D01*
X8353704Y3103473D01*
X8343900Y3104337D01*
X8334095Y3103473D01*
X8324646Y3100933D01*
X8315706Y3096818D01*
X8307679Y3091180D01*
X8300720Y3084220D01*
X8295081Y3076194D01*
X8290966Y3067253D01*
X8288426Y3057804D01*
X8287562Y3048000D01*
X8288426Y3038195D01*
X8290966Y3028746D01*
X8292033Y3026410D01*
X8292998Y3022092D01*
X8292998Y1410208D01*
X8292033Y1405890D01*
X8290966Y1403553D01*
X8288426Y1394104D01*
X8287562Y1384300D01*
X8288426Y1374495D01*
X8290966Y1365046D01*
X8295081Y1356106D01*
X8300720Y1348079D01*
X8307679Y1341120D01*
X8315706Y1335481D01*
X8324646Y1331366D01*
X8334095Y1328826D01*
G37*
G36*
X7904886Y1523746D02*
G01*
X7919313Y1523746D01*
X7933588Y1525524D01*
X7947558Y1529130D01*
X7960969Y1534414D01*
X7973618Y1541373D01*
X7985252Y1549857D01*
X7995767Y1559712D01*
X8004962Y1570837D01*
X8012684Y1582978D01*
X8018830Y1596034D01*
X8023301Y1609750D01*
X8025993Y1623923D01*
X8026908Y1638300D01*
X8025993Y1652676D01*
X8023301Y1666849D01*
X8018830Y1680565D01*
X8012684Y1693621D01*
X8004962Y1705762D01*
X7995767Y1716887D01*
X7985252Y1726742D01*
X7973618Y1735226D01*
X7960969Y1742186D01*
X7947558Y1747469D01*
X7933588Y1751075D01*
X7919313Y1752854D01*
X7904886Y1752854D01*
X7890611Y1751075D01*
X7876641Y1747469D01*
X7863230Y1742186D01*
X7850581Y1735226D01*
X7838948Y1726742D01*
X7828432Y1716887D01*
X7819237Y1705762D01*
X7811516Y1693621D01*
X7805369Y1680565D01*
X7800898Y1666849D01*
X7798206Y1652676D01*
X7797292Y1638300D01*
X7798206Y1623923D01*
X7800898Y1609750D01*
X7805369Y1596034D01*
X7811516Y1582978D01*
X7819237Y1570837D01*
X7828432Y1559712D01*
X7838948Y1549857D01*
X7850581Y1541373D01*
X7863230Y1534414D01*
X7876641Y1529130D01*
X7890611Y1525524D01*
G37*
G36*
X6634886Y1523746D02*
G01*
X6649313Y1523746D01*
X6663588Y1525524D01*
X6677558Y1529130D01*
X6690969Y1534414D01*
X6703618Y1541373D01*
X6715252Y1549857D01*
X6725767Y1559712D01*
X6734962Y1570837D01*
X6742684Y1582978D01*
X6748830Y1596034D01*
X6753301Y1609750D01*
X6755993Y1623923D01*
X6756908Y1638300D01*
X6755993Y1652676D01*
X6753301Y1666849D01*
X6748830Y1680565D01*
X6742684Y1693621D01*
X6734962Y1705762D01*
X6725767Y1716887D01*
X6715252Y1726742D01*
X6703618Y1735226D01*
X6690969Y1742186D01*
X6677558Y1747469D01*
X6663588Y1751075D01*
X6649313Y1752854D01*
X6634886Y1752854D01*
X6620611Y1751075D01*
X6606641Y1747469D01*
X6593230Y1742186D01*
X6580581Y1735226D01*
X6568948Y1726742D01*
X6558432Y1716887D01*
X6549237Y1705762D01*
X6541719Y1693925D01*
X6539433Y1691386D01*
X6536486Y1689760D01*
X6533134Y1689201D01*
X6438798Y1689201D01*
X6434886Y1689963D01*
X6431635Y1692198D01*
X6022898Y2100935D01*
X6020663Y2104186D01*
X6019901Y2108098D01*
X6019901Y4927142D01*
X6019088Y4936439D01*
X6016802Y4944973D01*
X6013043Y4953050D01*
X6007963Y4960315D01*
X6001715Y4966563D01*
X5994450Y4971643D01*
X5986373Y4975402D01*
X5977839Y4977688D01*
X5968542Y4978501D01*
X5440629Y4978501D01*
X5437276Y4979060D01*
X5434330Y4980686D01*
X5432044Y4983226D01*
X5428894Y4988153D01*
X5420106Y4998567D01*
X5409946Y5007711D01*
X5398719Y5015433D01*
X5386578Y5021580D01*
X5373674Y5026050D01*
X5360314Y5028793D01*
X5346700Y5029708D01*
X5333085Y5028793D01*
X5319725Y5026050D01*
X5306822Y5021580D01*
X5294680Y5015433D01*
X5283454Y5007711D01*
X5273294Y4998567D01*
X5264505Y4988153D01*
X5261356Y4983226D01*
X5259070Y4980686D01*
X5256123Y4979060D01*
X5252770Y4978501D01*
X5014061Y4978501D01*
X5010200Y4979263D01*
X5006898Y4981498D01*
X5004663Y4984800D01*
X5003901Y4988661D01*
X5003901Y5628538D01*
X5004663Y5632399D01*
X5006898Y5635701D01*
X5010200Y5637936D01*
X5014061Y5638698D01*
X5252567Y5638698D01*
X5255666Y5638190D01*
X5258511Y5636768D01*
X5260746Y5634583D01*
X5268722Y5623712D01*
X5278221Y5613908D01*
X5288940Y5605424D01*
X5300675Y5598464D01*
X5313222Y5593181D01*
X5326380Y5589574D01*
X5339892Y5587746D01*
X5353507Y5587746D01*
X5367020Y5589574D01*
X5380177Y5593181D01*
X5392724Y5598464D01*
X5404459Y5605424D01*
X5415178Y5613908D01*
X5424678Y5623712D01*
X5432755Y5634685D01*
X5439308Y5646623D01*
X5444185Y5659374D01*
X5447385Y5672632D01*
X5448706Y5686196D01*
X5448249Y5699810D01*
X5446014Y5713272D01*
X5441950Y5726277D01*
X5436209Y5738672D01*
X5428894Y5750153D01*
X5420106Y5760567D01*
X5409946Y5769711D01*
X5398719Y5777433D01*
X5386578Y5783580D01*
X5373674Y5788050D01*
X5360314Y5790793D01*
X5346700Y5791708D01*
X5333085Y5790793D01*
X5319725Y5788050D01*
X5306822Y5783580D01*
X5294680Y5777433D01*
X5283454Y5769711D01*
X5273294Y5760567D01*
X5264505Y5750153D01*
X5261356Y5745226D01*
X5259070Y5742686D01*
X5256123Y5741060D01*
X5252770Y5740501D01*
X4953457Y5740501D01*
X4944160Y5739688D01*
X4935626Y5737402D01*
X4927549Y5733643D01*
X4920284Y5728563D01*
X4914036Y5722315D01*
X4908956Y5715050D01*
X4905197Y5706973D01*
X4902911Y5698439D01*
X4902098Y5689142D01*
X4902098Y4928057D01*
X4902911Y4918760D01*
X4905197Y4910226D01*
X4908956Y4902149D01*
X4914036Y4894884D01*
X4920284Y4888636D01*
X4927549Y4883556D01*
X4935626Y4879797D01*
X4944160Y4877511D01*
X4953457Y4876698D01*
X5252567Y4876698D01*
X5255666Y4876190D01*
X5258511Y4874768D01*
X5260746Y4872583D01*
X5268722Y4861712D01*
X5278221Y4851908D01*
X5288940Y4843424D01*
X5300675Y4836464D01*
X5313222Y4831181D01*
X5326380Y4827574D01*
X5339892Y4825746D01*
X5353507Y4825746D01*
X5367020Y4827574D01*
X5380177Y4831181D01*
X5392724Y4836464D01*
X5404459Y4843424D01*
X5415178Y4851908D01*
X5424678Y4861712D01*
X5432653Y4872583D01*
X5434888Y4874768D01*
X5437733Y4876190D01*
X5440832Y4876698D01*
X5907938Y4876698D01*
X5911799Y4875936D01*
X5915101Y4873701D01*
X5917336Y4870399D01*
X5918098Y4866538D01*
X5918098Y2083003D01*
X5918301Y2078380D01*
X5918860Y2073960D01*
X5919825Y2069642D01*
X5921146Y2065375D01*
X5922873Y2061311D01*
X5924905Y2057349D01*
X5927293Y2053589D01*
X5929985Y2050084D01*
X5933135Y2046630D01*
X6377330Y1602435D01*
X6380784Y1599285D01*
X6384290Y1596593D01*
X6388049Y1594205D01*
X6392011Y1592173D01*
X6396075Y1590446D01*
X6400342Y1589125D01*
X6404660Y1588160D01*
X6409080Y1587601D01*
X6413703Y1587398D01*
X6533134Y1587398D01*
X6536486Y1586839D01*
X6539433Y1585214D01*
X6541719Y1582674D01*
X6549237Y1570837D01*
X6558432Y1559712D01*
X6568948Y1549857D01*
X6580581Y1541373D01*
X6593230Y1534414D01*
X6606641Y1529130D01*
X6620611Y1525524D01*
G37*
G36*
X7904886Y1777746D02*
G01*
X7919313Y1777746D01*
X7933588Y1779524D01*
X7947558Y1783130D01*
X7960969Y1788414D01*
X7973618Y1795373D01*
X7985252Y1803857D01*
X7995767Y1813712D01*
X8004962Y1824837D01*
X8012684Y1836978D01*
X8018830Y1850034D01*
X8023301Y1863750D01*
X8025993Y1877923D01*
X8026908Y1892300D01*
X8025993Y1906676D01*
X8023301Y1920849D01*
X8018830Y1934565D01*
X8012684Y1947621D01*
X8004962Y1959762D01*
X7995767Y1970887D01*
X7985252Y1980742D01*
X7973618Y1989226D01*
X7960969Y1996186D01*
X7947558Y2001469D01*
X7933588Y2005075D01*
X7919313Y2006854D01*
X7904886Y2006854D01*
X7890611Y2005075D01*
X7876641Y2001469D01*
X7863230Y1996186D01*
X7850581Y1989226D01*
X7838948Y1980742D01*
X7828432Y1970887D01*
X7819237Y1959762D01*
X7811516Y1947621D01*
X7805369Y1934565D01*
X7800898Y1920849D01*
X7798206Y1906676D01*
X7797292Y1892300D01*
X7798206Y1877923D01*
X7800898Y1863750D01*
X7805369Y1850034D01*
X7811516Y1836978D01*
X7819237Y1824837D01*
X7828432Y1813712D01*
X7838948Y1803857D01*
X7850581Y1795373D01*
X7863230Y1788414D01*
X7876641Y1783130D01*
X7890611Y1779524D01*
G37*
G36*
X6634886Y1777746D02*
G01*
X6649313Y1777746D01*
X6663588Y1779524D01*
X6677558Y1783130D01*
X6690969Y1788414D01*
X6703618Y1795373D01*
X6715252Y1803857D01*
X6725767Y1813712D01*
X6734962Y1824837D01*
X6742684Y1836978D01*
X6748830Y1850034D01*
X6753301Y1863750D01*
X6755993Y1877923D01*
X6756908Y1892300D01*
X6755993Y1906676D01*
X6753301Y1920849D01*
X6748830Y1934565D01*
X6742684Y1947621D01*
X6734962Y1959762D01*
X6725767Y1970887D01*
X6715252Y1980742D01*
X6703618Y1989226D01*
X6690969Y1996186D01*
X6677558Y2001469D01*
X6663588Y2005075D01*
X6649313Y2006854D01*
X6634886Y2006854D01*
X6620611Y2005075D01*
X6606641Y2001469D01*
X6593230Y1996186D01*
X6580581Y1989226D01*
X6568948Y1980742D01*
X6558432Y1970887D01*
X6549237Y1959762D01*
X6541719Y1947925D01*
X6539433Y1945386D01*
X6536486Y1943760D01*
X6533134Y1943201D01*
X6464198Y1943201D01*
X6460286Y1943963D01*
X6457035Y1946198D01*
X6226098Y2177135D01*
X6223863Y2180386D01*
X6223101Y2184298D01*
X6223101Y5181142D01*
X6222288Y5190439D01*
X6220002Y5198973D01*
X6216243Y5207050D01*
X6211163Y5214315D01*
X6204915Y5220563D01*
X6197650Y5225643D01*
X6189573Y5229402D01*
X6181039Y5231688D01*
X6171742Y5232501D01*
X5440629Y5232501D01*
X5437276Y5233060D01*
X5434330Y5234686D01*
X5432044Y5237226D01*
X5428894Y5242153D01*
X5420106Y5252567D01*
X5409946Y5261711D01*
X5402021Y5267198D01*
X5399633Y5269433D01*
X5398109Y5272328D01*
X5397601Y5275529D01*
X5397601Y5341569D01*
X5398211Y5345023D01*
X5399938Y5348071D01*
X5402580Y5350306D01*
X5404459Y5351424D01*
X5415178Y5359908D01*
X5424678Y5369712D01*
X5432755Y5380685D01*
X5439308Y5392623D01*
X5444185Y5405374D01*
X5447385Y5418632D01*
X5448706Y5432196D01*
X5448249Y5445810D01*
X5446014Y5459272D01*
X5441950Y5472277D01*
X5436209Y5484672D01*
X5428894Y5496153D01*
X5420106Y5506567D01*
X5409946Y5515711D01*
X5398719Y5523433D01*
X5386578Y5529580D01*
X5373674Y5534050D01*
X5360314Y5536793D01*
X5346700Y5537708D01*
X5333085Y5536793D01*
X5319725Y5534050D01*
X5306822Y5529580D01*
X5294680Y5523433D01*
X5283454Y5515711D01*
X5273294Y5506567D01*
X5264505Y5496153D01*
X5257190Y5484672D01*
X5251450Y5472277D01*
X5247386Y5459272D01*
X5245150Y5445810D01*
X5244693Y5432196D01*
X5246014Y5418632D01*
X5249214Y5405374D01*
X5254091Y5392623D01*
X5260644Y5380685D01*
X5268722Y5369712D01*
X5278221Y5359908D01*
X5288940Y5351424D01*
X5290820Y5350306D01*
X5293461Y5348071D01*
X5295188Y5345023D01*
X5295798Y5341569D01*
X5295798Y5275529D01*
X5295290Y5272328D01*
X5293766Y5269433D01*
X5291378Y5267198D01*
X5283454Y5261711D01*
X5273294Y5252567D01*
X5264505Y5242153D01*
X5257190Y5230672D01*
X5251450Y5218277D01*
X5247386Y5205272D01*
X5245150Y5191810D01*
X5244693Y5178196D01*
X5246014Y5164632D01*
X5249214Y5151374D01*
X5254091Y5138623D01*
X5260644Y5126685D01*
X5268722Y5115712D01*
X5278221Y5105908D01*
X5288940Y5097424D01*
X5300675Y5090464D01*
X5313222Y5085181D01*
X5326380Y5081574D01*
X5339892Y5079746D01*
X5353507Y5079746D01*
X5367020Y5081574D01*
X5380177Y5085181D01*
X5392724Y5090464D01*
X5404459Y5097424D01*
X5415178Y5105908D01*
X5424678Y5115712D01*
X5432653Y5126583D01*
X5434888Y5128768D01*
X5437733Y5130190D01*
X5440832Y5130698D01*
X6111138Y5130698D01*
X6114999Y5129936D01*
X6118301Y5127701D01*
X6120536Y5124399D01*
X6121298Y5120538D01*
X6121298Y2159203D01*
X6121501Y2154580D01*
X6122060Y2150160D01*
X6123025Y2145842D01*
X6124346Y2141575D01*
X6126073Y2137511D01*
X6128105Y2133549D01*
X6130493Y2129790D01*
X6133185Y2126284D01*
X6136335Y2122830D01*
X6402730Y1856435D01*
X6406184Y1853285D01*
X6409690Y1850593D01*
X6413449Y1848205D01*
X6417411Y1846173D01*
X6421475Y1844446D01*
X6425742Y1843125D01*
X6430060Y1842160D01*
X6434480Y1841601D01*
X6439103Y1841398D01*
X6533134Y1841398D01*
X6536486Y1840839D01*
X6539433Y1839214D01*
X6541719Y1836674D01*
X6549237Y1824837D01*
X6558432Y1813712D01*
X6568948Y1803857D01*
X6580581Y1795373D01*
X6593230Y1788414D01*
X6606641Y1783130D01*
X6620611Y1779524D01*
G37*
G36*
X6634886Y2031746D02*
G01*
X6649313Y2031746D01*
X6663588Y2033524D01*
X6677558Y2037130D01*
X6690969Y2042414D01*
X6703618Y2049373D01*
X6715252Y2057857D01*
X6725767Y2067712D01*
X6734962Y2078837D01*
X6742684Y2090978D01*
X6748830Y2104034D01*
X6753301Y2117750D01*
X6755993Y2131923D01*
X6756908Y2146300D01*
X6755993Y2160676D01*
X6753301Y2174849D01*
X6748830Y2188565D01*
X6742684Y2201621D01*
X6734962Y2213762D01*
X6725767Y2224887D01*
X6715252Y2234742D01*
X6703618Y2243226D01*
X6690969Y2250186D01*
X6677558Y2255469D01*
X6663588Y2259076D01*
X6649313Y2260854D01*
X6634886Y2260854D01*
X6620611Y2259076D01*
X6606641Y2255469D01*
X6593230Y2250186D01*
X6580581Y2243226D01*
X6568948Y2234742D01*
X6558432Y2224887D01*
X6549237Y2213762D01*
X6541516Y2201621D01*
X6535369Y2188565D01*
X6530898Y2174849D01*
X6528206Y2160676D01*
X6527292Y2146300D01*
X6528206Y2131923D01*
X6530898Y2117750D01*
X6535369Y2104034D01*
X6541516Y2090978D01*
X6549237Y2078837D01*
X6558432Y2067712D01*
X6568948Y2057857D01*
X6580581Y2049373D01*
X6593230Y2042414D01*
X6606641Y2037130D01*
X6620611Y2033524D01*
G37*
G36*
X7904886Y2031746D02*
G01*
X7919313Y2031746D01*
X7933588Y2033524D01*
X7947558Y2037130D01*
X7960969Y2042414D01*
X7973618Y2049373D01*
X7985252Y2057857D01*
X7995767Y2067712D01*
X8004962Y2078837D01*
X8012684Y2090978D01*
X8018830Y2104034D01*
X8023301Y2117750D01*
X8025993Y2131923D01*
X8026908Y2146300D01*
X8025993Y2160676D01*
X8023301Y2174849D01*
X8018830Y2188565D01*
X8012684Y2201621D01*
X8004962Y2213762D01*
X7995767Y2224887D01*
X7985252Y2234742D01*
X7973618Y2243226D01*
X7960969Y2250186D01*
X7947558Y2255469D01*
X7933588Y2259076D01*
X7919313Y2260854D01*
X7904886Y2260854D01*
X7890611Y2259076D01*
X7876641Y2255469D01*
X7863230Y2250186D01*
X7850581Y2243226D01*
X7838948Y2234742D01*
X7828432Y2224887D01*
X7819237Y2213762D01*
X7811516Y2201621D01*
X7805369Y2188565D01*
X7800898Y2174849D01*
X7798206Y2160676D01*
X7797292Y2146300D01*
X7798206Y2131923D01*
X7800898Y2117750D01*
X7805369Y2104034D01*
X7811516Y2090978D01*
X7819237Y2078837D01*
X7828432Y2067712D01*
X7838948Y2057857D01*
X7850581Y2049373D01*
X7863230Y2042414D01*
X7876641Y2037130D01*
X7890611Y2033524D01*
G37*
G36*
X6634886Y2285746D02*
G01*
X6649313Y2285746D01*
X6663588Y2287524D01*
X6677558Y2291130D01*
X6690969Y2296414D01*
X6703618Y2303373D01*
X6715252Y2311857D01*
X6725767Y2321712D01*
X6734962Y2332837D01*
X6742684Y2344978D01*
X6748830Y2358034D01*
X6753301Y2371750D01*
X6755993Y2385923D01*
X6756908Y2400300D01*
X6755993Y2414676D01*
X6753301Y2428849D01*
X6748830Y2442565D01*
X6742684Y2455621D01*
X6734962Y2467762D01*
X6725767Y2478887D01*
X6715252Y2488742D01*
X6703618Y2497226D01*
X6690969Y2504186D01*
X6677558Y2509469D01*
X6663588Y2513076D01*
X6649313Y2514854D01*
X6634886Y2514854D01*
X6620611Y2513076D01*
X6606641Y2509469D01*
X6593230Y2504186D01*
X6580581Y2497226D01*
X6568948Y2488742D01*
X6558432Y2478887D01*
X6549237Y2467762D01*
X6541516Y2455621D01*
X6535369Y2442565D01*
X6530898Y2428849D01*
X6528206Y2414676D01*
X6527292Y2400300D01*
X6528206Y2385923D01*
X6530898Y2371750D01*
X6535369Y2358034D01*
X6541516Y2344978D01*
X6549237Y2332837D01*
X6558432Y2321712D01*
X6568948Y2311857D01*
X6580581Y2303373D01*
X6593230Y2296414D01*
X6606641Y2291130D01*
X6620611Y2287524D01*
G37*
G36*
X7904886Y2285746D02*
G01*
X7919313Y2285746D01*
X7933588Y2287524D01*
X7947558Y2291130D01*
X7960969Y2296414D01*
X7973618Y2303373D01*
X7985252Y2311857D01*
X7995767Y2321712D01*
X8004962Y2332837D01*
X8012684Y2344978D01*
X8018830Y2358034D01*
X8023301Y2371750D01*
X8025993Y2385923D01*
X8026908Y2400300D01*
X8025993Y2414676D01*
X8023301Y2428849D01*
X8018830Y2442565D01*
X8012684Y2455621D01*
X8004962Y2467762D01*
X7995767Y2478887D01*
X7985252Y2488742D01*
X7973618Y2497226D01*
X7960969Y2504186D01*
X7947558Y2509469D01*
X7933588Y2513076D01*
X7919313Y2514854D01*
X7904886Y2514854D01*
X7890611Y2513076D01*
X7876641Y2509469D01*
X7863230Y2504186D01*
X7850581Y2497226D01*
X7838948Y2488742D01*
X7828432Y2478887D01*
X7819237Y2467762D01*
X7811516Y2455621D01*
X7805369Y2442565D01*
X7800898Y2428849D01*
X7798206Y2414676D01*
X7797292Y2400300D01*
X7798206Y2385923D01*
X7800898Y2371750D01*
X7805369Y2358034D01*
X7811516Y2344978D01*
X7819237Y2332837D01*
X7828432Y2321712D01*
X7838948Y2311857D01*
X7850581Y2303373D01*
X7863230Y2296414D01*
X7876641Y2291130D01*
X7890611Y2287524D01*
G37*
G36*
X12331954Y2470912D02*
G01*
X12345162Y2470912D01*
X12351512Y2471623D01*
X12356947Y2473502D01*
X12361875Y2476601D01*
X12365939Y2480665D01*
X12369038Y2485593D01*
X12370968Y2491028D01*
X12371679Y2497378D01*
X12371679Y2512060D01*
X12331954Y2512060D01*
G37*
G36*
X13589254Y2470912D02*
G01*
X13602462Y2470912D01*
X13608812Y2471623D01*
X13614247Y2473502D01*
X13619175Y2476601D01*
X13623239Y2480665D01*
X13626338Y2485593D01*
X13628268Y2491028D01*
X13628979Y2497378D01*
X13628979Y2512060D01*
X13589254Y2512060D01*
G37*
G36*
X9791954Y2483612D02*
G01*
X9805162Y2483612D01*
X9811512Y2484323D01*
X9816947Y2486202D01*
X9821875Y2489301D01*
X9825939Y2493365D01*
X9829038Y2498293D01*
X9830968Y2503728D01*
X9831679Y2510078D01*
X9831679Y2524760D01*
X9791954Y2524760D01*
G37*
G36*
X11061954Y2483612D02*
G01*
X11075162Y2483612D01*
X11081512Y2484323D01*
X11086947Y2486202D01*
X11091875Y2489301D01*
X11095939Y2493365D01*
X11099038Y2498293D01*
X11100968Y2503728D01*
X11101679Y2510078D01*
X11101679Y2524760D01*
X11061954Y2524760D01*
G37*
G36*
X6692900Y2539492D02*
G01*
X6730441Y2539492D01*
X6736740Y2540203D01*
X6742226Y2542133D01*
X6747103Y2545181D01*
X6751218Y2549296D01*
X6754266Y2554173D01*
X6756196Y2559659D01*
X6756908Y2565958D01*
X6756908Y2603500D01*
X6692900Y2603500D01*
G37*
G36*
X6553758Y2539492D02*
G01*
X6591300Y2539492D01*
X6591300Y2603500D01*
X6527292Y2603500D01*
X6527292Y2565958D01*
X6528003Y2559659D01*
X6529933Y2554173D01*
X6532981Y2549296D01*
X6537096Y2545181D01*
X6541973Y2542133D01*
X6547459Y2540203D01*
G37*
G36*
X13589254Y2567940D02*
G01*
X13628979Y2567940D01*
X13628979Y2582621D01*
X13628268Y2588971D01*
X13626338Y2594406D01*
X13623239Y2599334D01*
X13619175Y2603398D01*
X13614247Y2606497D01*
X13608812Y2608376D01*
X13602462Y2609088D01*
X13589254Y2609088D01*
G37*
G36*
X5041900Y-140208D02*
G01*
X5057292Y-139242D01*
X5072430Y-136499D01*
X5087112Y-131927D01*
X5101132Y-125577D01*
X5114340Y-117602D01*
X5126431Y-108102D01*
X5137302Y-97231D01*
X5146802Y-85140D01*
X5154777Y-71932D01*
X5161127Y-57912D01*
X5165699Y-43230D01*
X5168442Y-28092D01*
X5169408Y-12700D01*
X5168442Y2692D01*
X5165699Y17830D01*
X5161127Y32512D01*
X5154777Y46532D01*
X5146802Y59740D01*
X5137302Y71831D01*
X5126431Y82702D01*
X5114340Y92202D01*
X5101132Y100177D01*
X5087112Y106527D01*
X5072430Y111099D01*
X5057292Y113842D01*
X5041900Y114808D01*
X5026507Y113842D01*
X5011369Y111099D01*
X4996688Y106527D01*
X4982667Y100177D01*
X4969459Y92202D01*
X4957368Y82702D01*
X4946497Y71831D01*
X4936998Y59740D01*
X4929022Y46532D01*
X4922672Y32512D01*
X4918100Y17830D01*
X4915357Y2692D01*
X4914392Y-12700D01*
X4915357Y-28092D01*
X4918100Y-43230D01*
X4922672Y-57912D01*
X4929022Y-71932D01*
X4936998Y-85140D01*
X4946497Y-97231D01*
X4957368Y-108102D01*
X4969459Y-117602D01*
X4982667Y-125577D01*
X4996688Y-131927D01*
X5011369Y-136499D01*
X5026507Y-139242D01*
G37*
G36*
X9791954Y2580640D02*
G01*
X9831679Y2580640D01*
X9831679Y2595321D01*
X9830968Y2601671D01*
X9829038Y2607106D01*
X9825939Y2612034D01*
X9821875Y2616098D01*
X9816947Y2619197D01*
X9811512Y2621076D01*
X9805162Y2621788D01*
X9791954Y2621788D01*
G37*
G36*
X11061954Y2580640D02*
G01*
X11101679Y2580640D01*
X11101679Y2595321D01*
X11100968Y2601671D01*
X11099038Y2607106D01*
X11095939Y2612034D01*
X11091875Y2616098D01*
X11086947Y2619197D01*
X11081512Y2621076D01*
X11075162Y2621788D01*
X11061954Y2621788D01*
G37*
G36*
X6527292Y2705100D02*
G01*
X6591300Y2705100D01*
X6591300Y2769108D01*
X6553758Y2769108D01*
X6547459Y2768396D01*
X6541973Y2766466D01*
X6537096Y2763418D01*
X6532981Y2759303D01*
X6529933Y2754426D01*
X6528003Y2748940D01*
X6527292Y2742641D01*
G37*
G36*
X6692900Y2705100D02*
G01*
X6756908Y2705100D01*
X6756908Y2742641D01*
X6756196Y2748940D01*
X6754266Y2754426D01*
X6751218Y2759303D01*
X6747103Y2763418D01*
X6742226Y2766466D01*
X6736740Y2768396D01*
X6730441Y2769108D01*
X6692900Y2769108D01*
G37*
G36*
X5339892Y3301746D02*
G01*
X5353507Y3301746D01*
X5367020Y3303574D01*
X5380177Y3307181D01*
X5392724Y3312464D01*
X5404459Y3319424D01*
X5415178Y3327908D01*
X5424678Y3337712D01*
X5432755Y3348685D01*
X5439308Y3360623D01*
X5444185Y3373374D01*
X5447385Y3386632D01*
X5448706Y3400196D01*
X5448249Y3413810D01*
X5446014Y3427272D01*
X5441950Y3440277D01*
X5436209Y3452672D01*
X5428894Y3464153D01*
X5420106Y3474567D01*
X5409946Y3483711D01*
X5398719Y3491433D01*
X5386578Y3497579D01*
X5373674Y3502050D01*
X5360314Y3504793D01*
X5346700Y3505708D01*
X5333085Y3504793D01*
X5319725Y3502050D01*
X5306822Y3497579D01*
X5294680Y3491433D01*
X5283454Y3483711D01*
X5273294Y3474567D01*
X5264505Y3464153D01*
X5257190Y3452672D01*
X5251450Y3440277D01*
X5247386Y3427272D01*
X5245150Y3413810D01*
X5244693Y3400196D01*
X5246014Y3386632D01*
X5249214Y3373374D01*
X5254091Y3360623D01*
X5260644Y3348685D01*
X5268722Y3337712D01*
X5278221Y3327908D01*
X5288940Y3319424D01*
X5300675Y3312464D01*
X5313222Y3307181D01*
X5326380Y3303574D01*
G37*
G36*
X13474700Y-140208D02*
G01*
X13490092Y-139242D01*
X13505230Y-136499D01*
X13519912Y-131927D01*
X13533932Y-125577D01*
X13547140Y-117602D01*
X13559231Y-108102D01*
X13570102Y-97231D01*
X13579601Y-85140D01*
X13587577Y-71932D01*
X13593927Y-57912D01*
X13598499Y-43230D01*
X13601242Y-28092D01*
X13602207Y-12700D01*
X13601242Y2692D01*
X13598499Y17830D01*
X13593927Y32512D01*
X13587577Y46532D01*
X13579601Y59740D01*
X13570102Y71831D01*
X13559231Y82702D01*
X13547140Y92202D01*
X13533932Y100177D01*
X13519912Y106527D01*
X13505230Y111099D01*
X13490092Y113842D01*
X13474700Y114808D01*
X13459307Y113842D01*
X13444169Y111099D01*
X13429488Y106527D01*
X13415467Y100177D01*
X13402259Y92202D01*
X13390168Y82702D01*
X13379297Y71831D01*
X13369798Y59740D01*
X13361822Y46532D01*
X13355472Y32512D01*
X13350900Y17830D01*
X13348157Y2692D01*
X13347192Y-12700D01*
X13348157Y-28092D01*
X13350900Y-43230D01*
X13355472Y-57912D01*
X13361822Y-71932D01*
X13369798Y-85140D01*
X13379297Y-97231D01*
X13390168Y-108102D01*
X13402259Y-117602D01*
X13415467Y-125577D01*
X13429488Y-131927D01*
X13444169Y-136499D01*
X13459307Y-139242D01*
G37*
G36*
X11537137Y3443579D02*
G01*
X11539321Y3444544D01*
X11552326Y3452418D01*
X11564264Y3461765D01*
X11575034Y3472535D01*
X11584381Y3484473D01*
X11592255Y3497478D01*
X11593220Y3499662D01*
X11537137Y3499662D01*
G37*
G36*
X11424462Y3443579D02*
G01*
X11424462Y3499662D01*
X11368379Y3499662D01*
X11369344Y3497478D01*
X11377218Y3484473D01*
X11386566Y3472535D01*
X11397335Y3461765D01*
X11409273Y3452418D01*
X11422278Y3444544D01*
G37*
G36*
X5302250Y3565804D02*
G01*
X5302250Y3613150D01*
X5254904Y3613150D01*
X5260644Y3602685D01*
X5268722Y3591712D01*
X5278221Y3581908D01*
X5288940Y3573424D01*
X5300675Y3566464D01*
G37*
G36*
X5391150Y3565804D02*
G01*
X5392724Y3566464D01*
X5404459Y3573424D01*
X5415178Y3581908D01*
X5424678Y3591712D01*
X5432755Y3602685D01*
X5438495Y3613150D01*
X5391150Y3613150D01*
G37*
G36*
X11368379Y3612337D02*
G01*
X11424462Y3612337D01*
X11424462Y3668420D01*
X11422278Y3667455D01*
X11409273Y3659581D01*
X11397335Y3650234D01*
X11386566Y3639464D01*
X11377218Y3627526D01*
X11369344Y3614521D01*
G37*
G36*
X11537137Y3612337D02*
G01*
X11593220Y3612337D01*
X11592255Y3614521D01*
X11584381Y3627526D01*
X11575034Y3639464D01*
X11564264Y3650234D01*
X11552326Y3659581D01*
X11539321Y3667455D01*
X11537137Y3668420D01*
G37*
G36*
X5391150Y3702050D02*
G01*
X5438343Y3702050D01*
X5436209Y3706672D01*
X5428894Y3718153D01*
X5420106Y3728567D01*
X5409946Y3737711D01*
X5398719Y3745433D01*
X5391150Y3749243D01*
G37*
G36*
X5255056Y3702050D02*
G01*
X5302250Y3702050D01*
X5302250Y3749243D01*
X5294680Y3745433D01*
X5283454Y3737711D01*
X5273294Y3728567D01*
X5264505Y3718153D01*
X5257190Y3706672D01*
G37*
G36*
X5339892Y3809746D02*
G01*
X5353507Y3809746D01*
X5367020Y3811574D01*
X5380177Y3815181D01*
X5392724Y3820464D01*
X5404459Y3827424D01*
X5415178Y3835908D01*
X5424678Y3845712D01*
X5432755Y3856685D01*
X5439308Y3868623D01*
X5444185Y3881374D01*
X5447385Y3894632D01*
X5448706Y3908196D01*
X5448249Y3921810D01*
X5446014Y3935272D01*
X5441950Y3948277D01*
X5436209Y3960672D01*
X5428894Y3972153D01*
X5420106Y3982567D01*
X5409946Y3991711D01*
X5402021Y3997198D01*
X5399633Y3999433D01*
X5398109Y4002328D01*
X5397601Y4005529D01*
X5397601Y4071569D01*
X5398211Y4075023D01*
X5399938Y4078071D01*
X5402580Y4080306D01*
X5404459Y4081424D01*
X5415178Y4089908D01*
X5424678Y4099712D01*
X5432755Y4110685D01*
X5439308Y4122623D01*
X5444185Y4135374D01*
X5447385Y4148632D01*
X5448706Y4162196D01*
X5448249Y4175810D01*
X5446014Y4189272D01*
X5441950Y4202277D01*
X5436209Y4214672D01*
X5428894Y4226153D01*
X5420106Y4236567D01*
X5409946Y4245711D01*
X5398719Y4253433D01*
X5386578Y4259580D01*
X5373674Y4264050D01*
X5360314Y4266793D01*
X5346700Y4267708D01*
X5333085Y4266793D01*
X5319725Y4264050D01*
X5306822Y4259580D01*
X5294680Y4253433D01*
X5283454Y4245711D01*
X5273294Y4236567D01*
X5264505Y4226153D01*
X5257190Y4214672D01*
X5251450Y4202277D01*
X5247386Y4189272D01*
X5245150Y4175810D01*
X5244693Y4162196D01*
X5246014Y4148632D01*
X5249214Y4135374D01*
X5254091Y4122623D01*
X5260644Y4110685D01*
X5268722Y4099712D01*
X5278221Y4089908D01*
X5288940Y4081424D01*
X5290820Y4080306D01*
X5293461Y4078071D01*
X5295188Y4075023D01*
X5295798Y4071569D01*
X5295798Y4005529D01*
X5295290Y4002328D01*
X5293766Y3999433D01*
X5291378Y3997198D01*
X5283454Y3991711D01*
X5273294Y3982567D01*
X5264505Y3972153D01*
X5257190Y3960672D01*
X5251450Y3948277D01*
X5247386Y3935272D01*
X5245150Y3921810D01*
X5244693Y3908196D01*
X5246014Y3894632D01*
X5249214Y3881374D01*
X5254091Y3868623D01*
X5260644Y3856685D01*
X5268722Y3845712D01*
X5278221Y3835908D01*
X5288940Y3827424D01*
X5300675Y3820464D01*
X5313222Y3815181D01*
X5326380Y3811574D01*
G37*
G36*
X13519150Y4315104D02*
G01*
X13519150Y4362450D01*
X13471804Y4362450D01*
X13477544Y4351985D01*
X13485622Y4341012D01*
X13495121Y4331208D01*
X13505840Y4322724D01*
X13517575Y4315764D01*
G37*
G36*
X13608050Y4315104D02*
G01*
X13609624Y4315764D01*
X13621359Y4322724D01*
X13632078Y4331208D01*
X13641578Y4341012D01*
X13649655Y4351985D01*
X13655395Y4362450D01*
X13608050Y4362450D01*
G37*
G36*
X13471956Y4451350D02*
G01*
X13519150Y4451350D01*
X13519150Y4498543D01*
X13511580Y4494733D01*
X13500354Y4487011D01*
X13490194Y4477867D01*
X13481405Y4467453D01*
X13474090Y4455972D01*
G37*
G36*
X13608050Y4451350D02*
G01*
X13655243Y4451350D01*
X13653109Y4455972D01*
X13645794Y4467453D01*
X13637006Y4477867D01*
X13626846Y4487011D01*
X13615619Y4494733D01*
X13608050Y4498543D01*
G37*
G36*
X10972800Y5716117D02*
G01*
X10987989Y5717032D01*
X11002924Y5719775D01*
X11017453Y5724296D01*
X11031321Y5730544D01*
X11044326Y5738418D01*
X11056264Y5747766D01*
X11067034Y5758535D01*
X11076381Y5770473D01*
X11084255Y5783478D01*
X11090554Y5797397D01*
X11092738Y5800598D01*
X11095990Y5802680D01*
X11099800Y5803392D01*
X11103610Y5802680D01*
X11106861Y5800598D01*
X11109045Y5797397D01*
X11115344Y5783478D01*
X11123218Y5770473D01*
X11132566Y5758535D01*
X11143335Y5747766D01*
X11155273Y5738418D01*
X11168278Y5730544D01*
X11182146Y5724296D01*
X11196675Y5719775D01*
X11211610Y5717032D01*
X11226800Y5716117D01*
X11241989Y5717032D01*
X11256924Y5719775D01*
X11271453Y5724296D01*
X11285321Y5730544D01*
X11298326Y5738418D01*
X11310264Y5747766D01*
X11321034Y5758535D01*
X11330381Y5770473D01*
X11338255Y5783478D01*
X11344554Y5797397D01*
X11349024Y5811875D01*
X11351768Y5826810D01*
X11352682Y5842000D01*
X11351768Y5857189D01*
X11349024Y5872124D01*
X11344554Y5886602D01*
X11338255Y5900521D01*
X11330381Y5913526D01*
X11321034Y5925464D01*
X11310264Y5936234D01*
X11298326Y5945581D01*
X11285321Y5953455D01*
X11271453Y5959703D01*
X11256924Y5964224D01*
X11241989Y5966968D01*
X11226800Y5967882D01*
X11211610Y5966968D01*
X11196675Y5964224D01*
X11182146Y5959703D01*
X11168278Y5953455D01*
X11155273Y5945581D01*
X11143335Y5936234D01*
X11132566Y5925464D01*
X11123218Y5913526D01*
X11115344Y5900521D01*
X11109045Y5886602D01*
X11106861Y5883402D01*
X11103610Y5881319D01*
X11099800Y5880608D01*
X11095990Y5881319D01*
X11092738Y5883402D01*
X11090554Y5886602D01*
X11084255Y5900521D01*
X11076381Y5913526D01*
X11067034Y5925464D01*
X11056264Y5936234D01*
X11044326Y5945581D01*
X11031321Y5953455D01*
X11029696Y5954217D01*
X11026546Y5956401D01*
X11024463Y5959652D01*
X11023701Y5963462D01*
X11023701Y6185001D01*
X11024463Y6188913D01*
X11026698Y6192164D01*
X11072164Y6237630D01*
X11075314Y6241084D01*
X11078006Y6244590D01*
X11080394Y6248349D01*
X11082426Y6252311D01*
X11084153Y6256375D01*
X11085474Y6260642D01*
X11086439Y6264960D01*
X11086998Y6269380D01*
X11087201Y6274003D01*
X11087201Y6428638D01*
X11087963Y6432499D01*
X11090198Y6435801D01*
X11093500Y6438036D01*
X11097361Y6438798D01*
X13067842Y6438798D01*
X13077139Y6439611D01*
X13085673Y6441897D01*
X13093750Y6445656D01*
X13101015Y6450736D01*
X13107263Y6456984D01*
X13112343Y6464249D01*
X13116102Y6472326D01*
X13118388Y6480860D01*
X13119201Y6490157D01*
X13119201Y6789267D01*
X13119709Y6792366D01*
X13121132Y6795211D01*
X13123316Y6797446D01*
X13134187Y6805422D01*
X13143992Y6814921D01*
X13152475Y6825640D01*
X13159435Y6837375D01*
X13164718Y6849922D01*
X13168325Y6863080D01*
X13170154Y6876592D01*
X13170154Y6890207D01*
X13168325Y6903720D01*
X13164718Y6916877D01*
X13159435Y6929424D01*
X13152475Y6941159D01*
X13143992Y6951878D01*
X13134187Y6961378D01*
X13123214Y6969455D01*
X13111276Y6976008D01*
X13098526Y6980885D01*
X13085267Y6984085D01*
X13071703Y6985406D01*
X13058089Y6984949D01*
X13044627Y6982714D01*
X13031622Y6978650D01*
X13019227Y6972909D01*
X13007746Y6965594D01*
X12997332Y6956806D01*
X12988188Y6946646D01*
X12980466Y6935419D01*
X12974320Y6923278D01*
X12969849Y6910374D01*
X12967106Y6897014D01*
X12966192Y6883400D01*
X12967106Y6869785D01*
X12969849Y6856425D01*
X12974320Y6843522D01*
X12980466Y6831380D01*
X12988188Y6820153D01*
X12997332Y6809994D01*
X13007746Y6801205D01*
X13012674Y6798056D01*
X13015213Y6795770D01*
X13016839Y6792823D01*
X13017398Y6789470D01*
X13017398Y6550761D01*
X13016636Y6546900D01*
X13014401Y6543598D01*
X13011099Y6541363D01*
X13007238Y6540601D01*
X11097361Y6540601D01*
X11093500Y6541363D01*
X11090198Y6543598D01*
X11087963Y6546900D01*
X11087201Y6550761D01*
X11087201Y6789267D01*
X11087709Y6792366D01*
X11089132Y6795211D01*
X11091316Y6797446D01*
X11102187Y6805422D01*
X11111992Y6814921D01*
X11120475Y6825640D01*
X11127435Y6837375D01*
X11132718Y6849922D01*
X11136325Y6863080D01*
X11138154Y6876592D01*
X11138154Y6890207D01*
X11136325Y6903720D01*
X11132718Y6916877D01*
X11127435Y6929424D01*
X11120475Y6941159D01*
X11111992Y6951878D01*
X11102187Y6961378D01*
X11091214Y6969455D01*
X11079276Y6976008D01*
X11066526Y6980885D01*
X11053267Y6984085D01*
X11039703Y6985406D01*
X11026089Y6984949D01*
X11012627Y6982714D01*
X10999622Y6978650D01*
X10987227Y6972909D01*
X10975746Y6965594D01*
X10965332Y6956806D01*
X10956188Y6946646D01*
X10948466Y6935419D01*
X10942320Y6923278D01*
X10937849Y6910374D01*
X10935106Y6897014D01*
X10934192Y6883400D01*
X10935106Y6869785D01*
X10937849Y6856425D01*
X10942320Y6843522D01*
X10948466Y6831380D01*
X10956188Y6820153D01*
X10965332Y6809994D01*
X10975746Y6801205D01*
X10980674Y6798056D01*
X10983214Y6795770D01*
X10984839Y6792823D01*
X10985398Y6789470D01*
X10985398Y6554012D01*
X10984636Y6550101D01*
X10982401Y6546850D01*
X10979099Y6544614D01*
X10975238Y6543852D01*
X10328503Y6543852D01*
X10325912Y6544208D01*
X10322204Y6545173D01*
X10312400Y6546037D01*
X10302595Y6545173D01*
X10293146Y6542633D01*
X10284206Y6538518D01*
X10276179Y6532880D01*
X10269220Y6525920D01*
X10263581Y6517894D01*
X10259466Y6508953D01*
X10256926Y6499504D01*
X10256062Y6489700D01*
X10256926Y6479895D01*
X10259466Y6470446D01*
X10263581Y6461506D01*
X10269220Y6453479D01*
X10276179Y6446520D01*
X10284206Y6440881D01*
X10293146Y6436766D01*
X10302595Y6434226D01*
X10312400Y6433362D01*
X10322204Y6434226D01*
X10331653Y6436766D01*
X10340949Y6441084D01*
X10345267Y6442049D01*
X10975238Y6442049D01*
X10979099Y6441287D01*
X10982401Y6439052D01*
X10984636Y6435750D01*
X10985398Y6431889D01*
X10985398Y6299098D01*
X10984636Y6295186D01*
X10982401Y6291935D01*
X10936935Y6246469D01*
X10933785Y6243015D01*
X10931093Y6239510D01*
X10928705Y6235750D01*
X10926673Y6231788D01*
X10924946Y6227724D01*
X10923625Y6223457D01*
X10922660Y6219139D01*
X10922101Y6214719D01*
X10921898Y6210096D01*
X10921898Y5963462D01*
X10921136Y5959652D01*
X10919053Y5956401D01*
X10915904Y5954217D01*
X10914278Y5953455D01*
X10901273Y5945581D01*
X10889335Y5936234D01*
X10878566Y5925464D01*
X10869218Y5913526D01*
X10861344Y5900521D01*
X10855045Y5886602D01*
X10850575Y5872124D01*
X10847832Y5857189D01*
X10846917Y5842000D01*
X10847832Y5826810D01*
X10850575Y5811875D01*
X10855045Y5797397D01*
X10861344Y5783478D01*
X10869218Y5770473D01*
X10878566Y5758535D01*
X10889335Y5747766D01*
X10901273Y5738418D01*
X10914278Y5730544D01*
X10928146Y5724296D01*
X10942675Y5719775D01*
X10957610Y5717032D01*
G37*
G36*
X11537137Y5729579D02*
G01*
X11539321Y5730544D01*
X11552326Y5738418D01*
X11564264Y5747766D01*
X11575034Y5758535D01*
X11584381Y5770473D01*
X11592255Y5783478D01*
X11593220Y5785662D01*
X11537137Y5785662D01*
G37*
G36*
X10775137Y5729579D02*
G01*
X10777321Y5730544D01*
X10790326Y5738418D01*
X10802264Y5747766D01*
X10813034Y5758535D01*
X10822381Y5770473D01*
X10830255Y5783478D01*
X10831220Y5785662D01*
X10775137Y5785662D01*
G37*
G36*
X11424462Y5729579D02*
G01*
X11424462Y5785662D01*
X11368379Y5785662D01*
X11369344Y5783478D01*
X11377218Y5770473D01*
X11386566Y5758535D01*
X11397335Y5747766D01*
X11409273Y5738418D01*
X11422278Y5730544D01*
G37*
G36*
X10662462Y5729579D02*
G01*
X10662462Y5785662D01*
X10606379Y5785662D01*
X10607344Y5783478D01*
X10615218Y5770473D01*
X10624566Y5758535D01*
X10635335Y5747766D01*
X10647273Y5738418D01*
X10660278Y5730544D01*
G37*
G36*
X11368379Y5898337D02*
G01*
X11424462Y5898337D01*
X11424462Y5954420D01*
X11422278Y5953455D01*
X11409273Y5945581D01*
X11397335Y5936234D01*
X11386566Y5925464D01*
X11377218Y5913526D01*
X11369344Y5900521D01*
G37*
G36*
X10606379Y5898337D02*
G01*
X10662462Y5898337D01*
X10662462Y5954420D01*
X10660278Y5953455D01*
X10647273Y5945581D01*
X10635335Y5936234D01*
X10624566Y5925464D01*
X10615218Y5913526D01*
X10607344Y5900521D01*
G37*
G36*
X11537137Y5898337D02*
G01*
X11593220Y5898337D01*
X11592255Y5900521D01*
X11584381Y5913526D01*
X11575034Y5925464D01*
X11564264Y5936234D01*
X11552326Y5945581D01*
X11539321Y5953455D01*
X11537137Y5954420D01*
G37*
G36*
X10775137Y5898337D02*
G01*
X10831220Y5898337D01*
X10830255Y5900521D01*
X10822381Y5913526D01*
X10813034Y5925464D01*
X10802264Y5936234D01*
X10790326Y5945581D01*
X10777321Y5953455D01*
X10775137Y5954420D01*
G37*
G36*
X9410700Y6433362D02*
G01*
X9420504Y6434226D01*
X9429953Y6436766D01*
X9438894Y6440881D01*
X9446920Y6446520D01*
X9453880Y6453479D01*
X9459518Y6461506D01*
X9463633Y6470446D01*
X9466173Y6479895D01*
X9467037Y6489700D01*
X9466173Y6499504D01*
X9463633Y6508953D01*
X9459518Y6517894D01*
X9453880Y6525920D01*
X9446920Y6532880D01*
X9438894Y6538518D01*
X9429953Y6542633D01*
X9420504Y6545173D01*
X9410700Y6546037D01*
X9400895Y6545173D01*
X9391446Y6542633D01*
X9389110Y6541566D01*
X9384792Y6540601D01*
X9066428Y6540601D01*
X9062567Y6541363D01*
X9059265Y6543548D01*
X9057081Y6546850D01*
X9056268Y6550710D01*
X9055506Y6789470D01*
X9056014Y6792569D01*
X9057436Y6795414D01*
X9059621Y6797649D01*
X9070187Y6805422D01*
X9079992Y6814921D01*
X9088475Y6825640D01*
X9095435Y6837375D01*
X9100718Y6849922D01*
X9104325Y6863080D01*
X9106154Y6876592D01*
X9106154Y6890207D01*
X9104325Y6903720D01*
X9100718Y6916877D01*
X9095435Y6929424D01*
X9088475Y6941159D01*
X9079992Y6951878D01*
X9070187Y6961378D01*
X9059214Y6969455D01*
X9047276Y6976008D01*
X9034526Y6980885D01*
X9021267Y6984085D01*
X9007703Y6985406D01*
X8994089Y6984949D01*
X8980627Y6982714D01*
X8967622Y6978650D01*
X8955227Y6972909D01*
X8943746Y6965594D01*
X8933332Y6956806D01*
X8924188Y6946646D01*
X8916466Y6935419D01*
X8910320Y6923278D01*
X8905849Y6910374D01*
X8903106Y6897014D01*
X8902192Y6883400D01*
X8903106Y6869785D01*
X8905849Y6856425D01*
X8910320Y6843522D01*
X8916466Y6831380D01*
X8924188Y6820153D01*
X8933332Y6809994D01*
X8943746Y6801205D01*
X8948978Y6797852D01*
X8951518Y6795617D01*
X8953144Y6792671D01*
X8953703Y6789318D01*
X8954465Y6550812D01*
X8953703Y6546900D01*
X8951518Y6543598D01*
X8948216Y6541363D01*
X8944305Y6540601D01*
X7020661Y6540601D01*
X7016800Y6541363D01*
X7013498Y6543598D01*
X7011263Y6546900D01*
X7010501Y6550761D01*
X7010501Y6782155D01*
X7011162Y6785711D01*
X7012990Y6788810D01*
X7015784Y6791096D01*
X7027214Y6797344D01*
X7038187Y6805422D01*
X7047992Y6814921D01*
X7056475Y6825640D01*
X7063435Y6837375D01*
X7068718Y6849922D01*
X7072325Y6863080D01*
X7074153Y6876592D01*
X7074153Y6890207D01*
X7072325Y6903720D01*
X7068718Y6916877D01*
X7063435Y6929424D01*
X7056475Y6941159D01*
X7047992Y6951878D01*
X7038187Y6961378D01*
X7027214Y6969455D01*
X7015276Y6976008D01*
X7002525Y6980885D01*
X6989267Y6984085D01*
X6975703Y6985406D01*
X6962089Y6984949D01*
X6948627Y6982714D01*
X6935622Y6978650D01*
X6923227Y6972909D01*
X6911746Y6965594D01*
X6901332Y6956806D01*
X6892188Y6946646D01*
X6884466Y6935419D01*
X6878320Y6923278D01*
X6873849Y6910374D01*
X6871106Y6897014D01*
X6870192Y6883400D01*
X6871106Y6869785D01*
X6873849Y6856425D01*
X6878320Y6843522D01*
X6884466Y6831380D01*
X6892188Y6820153D01*
X6901332Y6809994D01*
X6905091Y6806844D01*
X6907733Y6803339D01*
X6908698Y6799072D01*
X6908698Y6490157D01*
X6909511Y6480860D01*
X6911797Y6472326D01*
X6915556Y6464249D01*
X6920636Y6456984D01*
X6926884Y6450736D01*
X6934149Y6445656D01*
X6942226Y6441897D01*
X6950760Y6439611D01*
X6960057Y6438798D01*
X9384792Y6438798D01*
X9389110Y6437833D01*
X9391446Y6436766D01*
X9400895Y6434226D01*
G37*
G36*
X8499703Y6781393D02*
G01*
X8513267Y6782714D01*
X8526526Y6785914D01*
X8539276Y6790791D01*
X8551214Y6797344D01*
X8562187Y6805422D01*
X8571992Y6814921D01*
X8580475Y6825640D01*
X8587435Y6837375D01*
X8592718Y6849922D01*
X8596325Y6863080D01*
X8598154Y6876592D01*
X8598154Y6890207D01*
X8596325Y6903720D01*
X8592718Y6916877D01*
X8587435Y6929424D01*
X8580475Y6941159D01*
X8571992Y6951878D01*
X8562187Y6961378D01*
X8551214Y6969455D01*
X8539276Y6976008D01*
X8526526Y6980885D01*
X8513267Y6984085D01*
X8499703Y6985406D01*
X8486089Y6984949D01*
X8472627Y6982714D01*
X8459622Y6978650D01*
X8447227Y6972909D01*
X8435746Y6965594D01*
X8425332Y6956806D01*
X8416188Y6946646D01*
X8408466Y6935419D01*
X8402320Y6923278D01*
X8397849Y6910374D01*
X8395106Y6897014D01*
X8394192Y6883400D01*
X8395106Y6869785D01*
X8397849Y6856425D01*
X8402320Y6843522D01*
X8408466Y6831380D01*
X8416188Y6820153D01*
X8425332Y6809994D01*
X8435746Y6801205D01*
X8447227Y6793890D01*
X8459622Y6788150D01*
X8472627Y6784086D01*
X8486089Y6781850D01*
G37*
G36*
X7991703Y6781393D02*
G01*
X8005267Y6782714D01*
X8018525Y6785914D01*
X8031276Y6790791D01*
X8043214Y6797344D01*
X8054187Y6805422D01*
X8063992Y6814921D01*
X8072475Y6825640D01*
X8079435Y6837375D01*
X8084718Y6849922D01*
X8088325Y6863080D01*
X8090153Y6876592D01*
X8090153Y6890207D01*
X8088325Y6903720D01*
X8084718Y6916877D01*
X8079435Y6929424D01*
X8072475Y6941159D01*
X8063992Y6951878D01*
X8054187Y6961378D01*
X8043214Y6969455D01*
X8031276Y6976008D01*
X8018525Y6980885D01*
X8005267Y6984085D01*
X7991703Y6985406D01*
X7978089Y6984949D01*
X7964627Y6982714D01*
X7951622Y6978650D01*
X7939227Y6972909D01*
X7927746Y6965594D01*
X7917332Y6956806D01*
X7908188Y6946646D01*
X7900466Y6935419D01*
X7894320Y6923278D01*
X7889849Y6910374D01*
X7887106Y6897014D01*
X7886192Y6883400D01*
X7887106Y6869785D01*
X7889849Y6856425D01*
X7894320Y6843522D01*
X7900466Y6831380D01*
X7908188Y6820153D01*
X7917332Y6809994D01*
X7927746Y6801205D01*
X7939227Y6793890D01*
X7951622Y6788150D01*
X7964627Y6784086D01*
X7978089Y6781850D01*
G37*
G36*
X12309703Y6781393D02*
G01*
X12323267Y6782714D01*
X12336526Y6785914D01*
X12349276Y6790791D01*
X12361214Y6797344D01*
X12372187Y6805422D01*
X12381992Y6814921D01*
X12390475Y6825640D01*
X12397435Y6837375D01*
X12402718Y6849922D01*
X12406325Y6863080D01*
X12408154Y6876592D01*
X12408154Y6890207D01*
X12406325Y6903720D01*
X12402718Y6916877D01*
X12397435Y6929424D01*
X12390475Y6941159D01*
X12381992Y6951878D01*
X12372187Y6961378D01*
X12361214Y6969455D01*
X12349276Y6976008D01*
X12336526Y6980885D01*
X12323267Y6984085D01*
X12309703Y6985406D01*
X12296089Y6984949D01*
X12282627Y6982714D01*
X12269622Y6978650D01*
X12257227Y6972909D01*
X12245746Y6965594D01*
X12235332Y6956806D01*
X12226188Y6946646D01*
X12218466Y6935419D01*
X12212320Y6923278D01*
X12207849Y6910374D01*
X12205106Y6897014D01*
X12204192Y6883400D01*
X12205106Y6869785D01*
X12207849Y6856425D01*
X12212320Y6843522D01*
X12218466Y6831380D01*
X12226188Y6820153D01*
X12235332Y6809994D01*
X12245746Y6801205D01*
X12257227Y6793890D01*
X12269622Y6788150D01*
X12282627Y6784086D01*
X12296089Y6781850D01*
G37*
G36*
X10785703Y6781393D02*
G01*
X10799267Y6782714D01*
X10812526Y6785914D01*
X10825276Y6790791D01*
X10837214Y6797344D01*
X10848187Y6805422D01*
X10857992Y6814921D01*
X10866475Y6825640D01*
X10873435Y6837375D01*
X10878718Y6849922D01*
X10882325Y6863080D01*
X10884154Y6876592D01*
X10884154Y6890207D01*
X10882325Y6903720D01*
X10878718Y6916877D01*
X10873435Y6929424D01*
X10866475Y6941159D01*
X10857992Y6951878D01*
X10848187Y6961378D01*
X10837214Y6969455D01*
X10825276Y6976008D01*
X10812526Y6980885D01*
X10799267Y6984085D01*
X10785703Y6985406D01*
X10772089Y6984949D01*
X10758627Y6982714D01*
X10745622Y6978650D01*
X10733227Y6972909D01*
X10721746Y6965594D01*
X10711332Y6956806D01*
X10702188Y6946646D01*
X10694466Y6935419D01*
X10688320Y6923278D01*
X10683849Y6910374D01*
X10681106Y6897014D01*
X10680192Y6883400D01*
X10681106Y6869785D01*
X10683849Y6856425D01*
X10688320Y6843522D01*
X10694466Y6831380D01*
X10702188Y6820153D01*
X10711332Y6809994D01*
X10721746Y6801205D01*
X10733227Y6793890D01*
X10745622Y6788150D01*
X10758627Y6784086D01*
X10772089Y6781850D01*
G37*
G36*
X12055703Y6781393D02*
G01*
X12069267Y6782714D01*
X12082526Y6785914D01*
X12095276Y6790791D01*
X12107214Y6797344D01*
X12118187Y6805422D01*
X12127992Y6814921D01*
X12136475Y6825640D01*
X12143435Y6837375D01*
X12148718Y6849922D01*
X12152325Y6863080D01*
X12154154Y6876592D01*
X12154154Y6890207D01*
X12152325Y6903720D01*
X12148718Y6916877D01*
X12143435Y6929424D01*
X12136475Y6941159D01*
X12127992Y6951878D01*
X12118187Y6961378D01*
X12107214Y6969455D01*
X12095276Y6976008D01*
X12082526Y6980885D01*
X12069267Y6984085D01*
X12055703Y6985406D01*
X12042089Y6984949D01*
X12028627Y6982714D01*
X12015622Y6978650D01*
X12003227Y6972909D01*
X11991746Y6965594D01*
X11981332Y6956806D01*
X11972188Y6946646D01*
X11964466Y6935419D01*
X11958320Y6923278D01*
X11953849Y6910374D01*
X11951106Y6897014D01*
X11950192Y6883400D01*
X11951106Y6869785D01*
X11953849Y6856425D01*
X11958320Y6843522D01*
X11964466Y6831380D01*
X11972188Y6820153D01*
X11981332Y6809994D01*
X11991746Y6801205D01*
X12003227Y6793890D01*
X12015622Y6788150D01*
X12028627Y6784086D01*
X12042089Y6781850D01*
G37*
G36*
X11801703Y6781393D02*
G01*
X11815267Y6782714D01*
X11828526Y6785914D01*
X11841276Y6790791D01*
X11853214Y6797344D01*
X11864187Y6805422D01*
X11873992Y6814921D01*
X11882475Y6825640D01*
X11889435Y6837375D01*
X11894718Y6849922D01*
X11898325Y6863080D01*
X11900154Y6876592D01*
X11900154Y6890207D01*
X11898325Y6903720D01*
X11894718Y6916877D01*
X11889435Y6929424D01*
X11882475Y6941159D01*
X11873992Y6951878D01*
X11864187Y6961378D01*
X11853214Y6969455D01*
X11841276Y6976008D01*
X11828526Y6980885D01*
X11815267Y6984085D01*
X11801703Y6985406D01*
X11788089Y6984949D01*
X11774627Y6982714D01*
X11761622Y6978650D01*
X11749227Y6972909D01*
X11737746Y6965594D01*
X11727332Y6956806D01*
X11718188Y6946646D01*
X11710466Y6935419D01*
X11704320Y6923278D01*
X11699849Y6910374D01*
X11697106Y6897014D01*
X11696192Y6883400D01*
X11697106Y6869785D01*
X11699849Y6856425D01*
X11704320Y6843522D01*
X11710466Y6831380D01*
X11718188Y6820153D01*
X11727332Y6809994D01*
X11737746Y6801205D01*
X11749227Y6793890D01*
X11761622Y6788150D01*
X11774627Y6784086D01*
X11788089Y6781850D01*
G37*
G36*
X12563703Y6781393D02*
G01*
X12577267Y6782714D01*
X12590526Y6785914D01*
X12603276Y6790791D01*
X12615214Y6797344D01*
X12626187Y6805422D01*
X12635992Y6814921D01*
X12644475Y6825640D01*
X12651435Y6837375D01*
X12656718Y6849922D01*
X12660325Y6863080D01*
X12662154Y6876592D01*
X12662154Y6890207D01*
X12660325Y6903720D01*
X12656718Y6916877D01*
X12651435Y6929424D01*
X12644475Y6941159D01*
X12635992Y6951878D01*
X12626187Y6961378D01*
X12615214Y6969455D01*
X12603276Y6976008D01*
X12590526Y6980885D01*
X12577267Y6984085D01*
X12563703Y6985406D01*
X12550089Y6984949D01*
X12536627Y6982714D01*
X12523622Y6978650D01*
X12511227Y6972909D01*
X12499746Y6965594D01*
X12489332Y6956806D01*
X12480188Y6946646D01*
X12472466Y6935419D01*
X12466320Y6923278D01*
X12461849Y6910374D01*
X12459106Y6897014D01*
X12458192Y6883400D01*
X12459106Y6869785D01*
X12461849Y6856425D01*
X12466320Y6843522D01*
X12472466Y6831380D01*
X12480188Y6820153D01*
X12489332Y6809994D01*
X12499746Y6801205D01*
X12511227Y6793890D01*
X12523622Y6788150D01*
X12536627Y6784086D01*
X12550089Y6781850D01*
G37*
G36*
X8753703Y6781393D02*
G01*
X8767267Y6782714D01*
X8780526Y6785914D01*
X8793276Y6790791D01*
X8805214Y6797344D01*
X8816187Y6805422D01*
X8825992Y6814921D01*
X8834475Y6825640D01*
X8841435Y6837375D01*
X8846718Y6849922D01*
X8850325Y6863080D01*
X8852154Y6876592D01*
X8852154Y6890207D01*
X8850325Y6903720D01*
X8846718Y6916877D01*
X8841435Y6929424D01*
X8834475Y6941159D01*
X8825992Y6951878D01*
X8816187Y6961378D01*
X8805214Y6969455D01*
X8793276Y6976008D01*
X8780526Y6980885D01*
X8767267Y6984085D01*
X8753703Y6985406D01*
X8740089Y6984949D01*
X8726627Y6982714D01*
X8713622Y6978650D01*
X8701227Y6972909D01*
X8689746Y6965594D01*
X8679332Y6956806D01*
X8670188Y6946646D01*
X8662466Y6935419D01*
X8656320Y6923278D01*
X8651849Y6910374D01*
X8649106Y6897014D01*
X8648192Y6883400D01*
X8649106Y6869785D01*
X8651849Y6856425D01*
X8656320Y6843522D01*
X8662466Y6831380D01*
X8670188Y6820153D01*
X8679332Y6809994D01*
X8689746Y6801205D01*
X8701227Y6793890D01*
X8713622Y6788150D01*
X8726627Y6784086D01*
X8740089Y6781850D01*
G37*
G36*
X8245703Y6781393D02*
G01*
X8259267Y6782714D01*
X8272525Y6785914D01*
X8285276Y6790791D01*
X8297214Y6797344D01*
X8308187Y6805422D01*
X8317992Y6814921D01*
X8326475Y6825640D01*
X8333435Y6837375D01*
X8338718Y6849922D01*
X8342325Y6863080D01*
X8344153Y6876592D01*
X8344153Y6890207D01*
X8342325Y6903720D01*
X8338718Y6916877D01*
X8333435Y6929424D01*
X8326475Y6941159D01*
X8317992Y6951878D01*
X8308187Y6961378D01*
X8297214Y6969455D01*
X8285276Y6976008D01*
X8272525Y6980885D01*
X8259267Y6984085D01*
X8245703Y6985406D01*
X8232089Y6984949D01*
X8218627Y6982714D01*
X8205622Y6978650D01*
X8193227Y6972909D01*
X8181746Y6965594D01*
X8171332Y6956806D01*
X8162188Y6946646D01*
X8154466Y6935419D01*
X8148320Y6923278D01*
X8143849Y6910374D01*
X8141106Y6897014D01*
X8140192Y6883400D01*
X8141106Y6869785D01*
X8143849Y6856425D01*
X8148320Y6843522D01*
X8154466Y6831380D01*
X8162188Y6820153D01*
X8171332Y6809994D01*
X8181746Y6801205D01*
X8193227Y6793890D01*
X8205622Y6788150D01*
X8218627Y6784086D01*
X8232089Y6781850D01*
G37*
G36*
X12817703Y6781393D02*
G01*
X12831267Y6782714D01*
X12844526Y6785914D01*
X12857276Y6790791D01*
X12869214Y6797344D01*
X12880187Y6805422D01*
X12889992Y6814921D01*
X12898475Y6825640D01*
X12905435Y6837375D01*
X12910718Y6849922D01*
X12914325Y6863080D01*
X12916154Y6876592D01*
X12916154Y6890207D01*
X12914325Y6903720D01*
X12910718Y6916877D01*
X12905435Y6929424D01*
X12898475Y6941159D01*
X12889992Y6951878D01*
X12880187Y6961378D01*
X12869214Y6969455D01*
X12857276Y6976008D01*
X12844526Y6980885D01*
X12831267Y6984085D01*
X12817703Y6985406D01*
X12804089Y6984949D01*
X12790627Y6982714D01*
X12777622Y6978650D01*
X12765227Y6972909D01*
X12753746Y6965594D01*
X12743332Y6956806D01*
X12734188Y6946646D01*
X12726466Y6935419D01*
X12720320Y6923278D01*
X12715849Y6910374D01*
X12713106Y6897014D01*
X12712192Y6883400D01*
X12713106Y6869785D01*
X12715849Y6856425D01*
X12720320Y6843522D01*
X12726466Y6831380D01*
X12734188Y6820153D01*
X12743332Y6809994D01*
X12753746Y6801205D01*
X12765227Y6793890D01*
X12777622Y6788150D01*
X12790627Y6784086D01*
X12804089Y6781850D01*
G37*
G36*
X9769703Y6781393D02*
G01*
X9783267Y6782714D01*
X9796526Y6785914D01*
X9809276Y6790791D01*
X9821214Y6797344D01*
X9832187Y6805422D01*
X9841992Y6814921D01*
X9850475Y6825640D01*
X9857435Y6837375D01*
X9862718Y6849922D01*
X9866325Y6863080D01*
X9868154Y6876592D01*
X9868154Y6890207D01*
X9866325Y6903720D01*
X9862718Y6916877D01*
X9857435Y6929424D01*
X9850475Y6941159D01*
X9841992Y6951878D01*
X9832187Y6961378D01*
X9821214Y6969455D01*
X9809276Y6976008D01*
X9796526Y6980885D01*
X9783267Y6984085D01*
X9769703Y6985406D01*
X9756089Y6984949D01*
X9742627Y6982714D01*
X9729622Y6978650D01*
X9717227Y6972909D01*
X9705746Y6965594D01*
X9695332Y6956806D01*
X9686188Y6946646D01*
X9678466Y6935419D01*
X9672320Y6923278D01*
X9667849Y6910374D01*
X9665106Y6897014D01*
X9664192Y6883400D01*
X9665106Y6869785D01*
X9667849Y6856425D01*
X9672320Y6843522D01*
X9678466Y6831380D01*
X9686188Y6820153D01*
X9695332Y6809994D01*
X9705746Y6801205D01*
X9717227Y6793890D01*
X9729622Y6788150D01*
X9742627Y6784086D01*
X9756089Y6781850D01*
G37*
G36*
X10531703Y6781393D02*
G01*
X10545267Y6782714D01*
X10558526Y6785914D01*
X10571276Y6790791D01*
X10583214Y6797344D01*
X10594187Y6805422D01*
X10603992Y6814921D01*
X10612475Y6825640D01*
X10619435Y6837375D01*
X10624718Y6849922D01*
X10628325Y6863080D01*
X10630154Y6876592D01*
X10630154Y6890207D01*
X10628325Y6903720D01*
X10624718Y6916877D01*
X10619435Y6929424D01*
X10612475Y6941159D01*
X10603992Y6951878D01*
X10594187Y6961378D01*
X10583214Y6969455D01*
X10571276Y6976008D01*
X10558526Y6980885D01*
X10545267Y6984085D01*
X10531703Y6985406D01*
X10518089Y6984949D01*
X10504627Y6982714D01*
X10491622Y6978650D01*
X10479227Y6972909D01*
X10467746Y6965594D01*
X10457332Y6956806D01*
X10448188Y6946646D01*
X10440466Y6935419D01*
X10434320Y6923278D01*
X10429849Y6910374D01*
X10427106Y6897014D01*
X10426192Y6883400D01*
X10427106Y6869785D01*
X10429849Y6856425D01*
X10434320Y6843522D01*
X10440466Y6831380D01*
X10448188Y6820153D01*
X10457332Y6809994D01*
X10467746Y6801205D01*
X10479227Y6793890D01*
X10491622Y6788150D01*
X10504627Y6784086D01*
X10518089Y6781850D01*
G37*
G36*
X10277703Y6781393D02*
G01*
X10291267Y6782714D01*
X10304526Y6785914D01*
X10317276Y6790791D01*
X10329214Y6797344D01*
X10340187Y6805422D01*
X10349992Y6814921D01*
X10358475Y6825640D01*
X10365435Y6837375D01*
X10370718Y6849922D01*
X10374325Y6863080D01*
X10376154Y6876592D01*
X10376154Y6890207D01*
X10374325Y6903720D01*
X10370718Y6916877D01*
X10365435Y6929424D01*
X10358475Y6941159D01*
X10349992Y6951878D01*
X10340187Y6961378D01*
X10329214Y6969455D01*
X10317276Y6976008D01*
X10304526Y6980885D01*
X10291267Y6984085D01*
X10277703Y6985406D01*
X10264089Y6984949D01*
X10250627Y6982714D01*
X10237622Y6978650D01*
X10225227Y6972909D01*
X10213746Y6965594D01*
X10203332Y6956806D01*
X10194188Y6946646D01*
X10186466Y6935419D01*
X10180320Y6923278D01*
X10175849Y6910374D01*
X10173106Y6897014D01*
X10172192Y6883400D01*
X10173106Y6869785D01*
X10175849Y6856425D01*
X10180320Y6843522D01*
X10186466Y6831380D01*
X10194188Y6820153D01*
X10203332Y6809994D01*
X10213746Y6801205D01*
X10225227Y6793890D01*
X10237622Y6788150D01*
X10250627Y6784086D01*
X10264089Y6781850D01*
G37*
G36*
X7737703Y6781393D02*
G01*
X7751267Y6782714D01*
X7764525Y6785914D01*
X7777276Y6790791D01*
X7789214Y6797344D01*
X7800187Y6805422D01*
X7809992Y6814921D01*
X7818475Y6825640D01*
X7825435Y6837375D01*
X7830718Y6849922D01*
X7834325Y6863080D01*
X7836153Y6876592D01*
X7836153Y6890207D01*
X7834325Y6903720D01*
X7830718Y6916877D01*
X7825435Y6929424D01*
X7818475Y6941159D01*
X7809992Y6951878D01*
X7800187Y6961378D01*
X7789214Y6969455D01*
X7777276Y6976008D01*
X7764525Y6980885D01*
X7751267Y6984085D01*
X7737703Y6985406D01*
X7724089Y6984949D01*
X7710627Y6982714D01*
X7697622Y6978650D01*
X7685227Y6972909D01*
X7673746Y6965594D01*
X7663332Y6956806D01*
X7654188Y6946646D01*
X7646466Y6935419D01*
X7640320Y6923278D01*
X7635849Y6910374D01*
X7633106Y6897014D01*
X7632192Y6883400D01*
X7633106Y6869785D01*
X7635849Y6856425D01*
X7640320Y6843522D01*
X7646466Y6831380D01*
X7654188Y6820153D01*
X7663332Y6809994D01*
X7673746Y6801205D01*
X7685227Y6793890D01*
X7697622Y6788150D01*
X7710627Y6784086D01*
X7724089Y6781850D01*
G37*
G36*
X6213703Y6781393D02*
G01*
X6227267Y6782714D01*
X6240526Y6785914D01*
X6253276Y6790791D01*
X6265214Y6797344D01*
X6276187Y6805422D01*
X6285992Y6814921D01*
X6294475Y6825640D01*
X6301435Y6837375D01*
X6306718Y6849922D01*
X6310325Y6863080D01*
X6312154Y6876592D01*
X6312154Y6890207D01*
X6310325Y6903720D01*
X6306718Y6916877D01*
X6301435Y6929424D01*
X6294475Y6941159D01*
X6285992Y6951878D01*
X6276187Y6961378D01*
X6265214Y6969455D01*
X6253276Y6976008D01*
X6240526Y6980885D01*
X6227267Y6984085D01*
X6213703Y6985406D01*
X6200089Y6984949D01*
X6186627Y6982714D01*
X6173622Y6978650D01*
X6161227Y6972909D01*
X6149746Y6965594D01*
X6139332Y6956806D01*
X6130188Y6946646D01*
X6122466Y6935419D01*
X6116320Y6923278D01*
X6111849Y6910374D01*
X6109106Y6897014D01*
X6108192Y6883400D01*
X6109106Y6869785D01*
X6111849Y6856425D01*
X6116320Y6843522D01*
X6122466Y6831380D01*
X6130188Y6820153D01*
X6139332Y6809994D01*
X6149746Y6801205D01*
X6161227Y6793890D01*
X6173622Y6788150D01*
X6186627Y6784086D01*
X6200089Y6781850D01*
G37*
G36*
X5959703Y6781393D02*
G01*
X5973267Y6782714D01*
X5986526Y6785914D01*
X5999276Y6790791D01*
X6011214Y6797344D01*
X6022187Y6805422D01*
X6031992Y6814921D01*
X6040475Y6825640D01*
X6047435Y6837375D01*
X6052718Y6849922D01*
X6056325Y6863080D01*
X6058154Y6876592D01*
X6058154Y6890207D01*
X6056325Y6903720D01*
X6052718Y6916877D01*
X6047435Y6929424D01*
X6040475Y6941159D01*
X6031992Y6951878D01*
X6022187Y6961378D01*
X6011316Y6969353D01*
X6009132Y6971588D01*
X6007709Y6974433D01*
X6007201Y6977532D01*
X6007201Y7419238D01*
X6007963Y7423099D01*
X6010198Y7426401D01*
X6013500Y7428636D01*
X6017361Y7429398D01*
X7961274Y7429398D01*
X7965592Y7428433D01*
X7967929Y7427366D01*
X7977378Y7424826D01*
X7987182Y7423962D01*
X7996986Y7424826D01*
X8006435Y7427366D01*
X8008772Y7428433D01*
X8013090Y7429398D01*
X9993274Y7429398D01*
X9997592Y7428433D01*
X9999929Y7427366D01*
X10009378Y7424826D01*
X10019182Y7423962D01*
X10028986Y7424826D01*
X10038435Y7427366D01*
X10040772Y7428433D01*
X10045090Y7429398D01*
X12026392Y7429398D01*
X12030710Y7428433D01*
X12033046Y7427366D01*
X12042495Y7424826D01*
X12052300Y7423962D01*
X12062104Y7424826D01*
X12071553Y7427366D01*
X12080494Y7431481D01*
X12088520Y7437120D01*
X12095480Y7444079D01*
X12101118Y7452106D01*
X12105233Y7461046D01*
X12107773Y7470495D01*
X12108637Y7480300D01*
X12107773Y7490104D01*
X12105233Y7499553D01*
X12101118Y7508494D01*
X12095480Y7516520D01*
X12088520Y7523480D01*
X12080494Y7529118D01*
X12071553Y7533233D01*
X12062104Y7535773D01*
X12052300Y7536637D01*
X12042495Y7535773D01*
X12033046Y7533233D01*
X12030710Y7532166D01*
X12026392Y7531201D01*
X10045090Y7531201D01*
X10040772Y7532166D01*
X10038435Y7533233D01*
X10028986Y7535773D01*
X10019182Y7536637D01*
X10009378Y7535773D01*
X9999929Y7533233D01*
X9997592Y7532166D01*
X9993274Y7531201D01*
X8013090Y7531201D01*
X8008772Y7532166D01*
X8006435Y7533233D01*
X7996986Y7535773D01*
X7987182Y7536637D01*
X7977378Y7535773D01*
X7967929Y7533233D01*
X7965592Y7532166D01*
X7961274Y7531201D01*
X5956757Y7531201D01*
X5947460Y7530388D01*
X5938926Y7528102D01*
X5930849Y7524343D01*
X5923584Y7519263D01*
X5917336Y7513015D01*
X5912256Y7505750D01*
X5908497Y7497673D01*
X5906211Y7489139D01*
X5905398Y7479842D01*
X5905398Y6977329D01*
X5904839Y6973976D01*
X5903214Y6971030D01*
X5900674Y6968744D01*
X5895746Y6965594D01*
X5885332Y6956806D01*
X5876188Y6946646D01*
X5868466Y6935419D01*
X5862320Y6923278D01*
X5857849Y6910374D01*
X5855106Y6897014D01*
X5854192Y6883400D01*
X5855106Y6869785D01*
X5857849Y6856425D01*
X5862320Y6843522D01*
X5868466Y6831380D01*
X5876188Y6820153D01*
X5885332Y6809994D01*
X5895746Y6801205D01*
X5907227Y6793890D01*
X5919622Y6788150D01*
X5932627Y6784086D01*
X5946089Y6781850D01*
G37*
G36*
X9556750Y6791604D02*
G01*
X9567214Y6797344D01*
X9578187Y6805422D01*
X9587992Y6814921D01*
X9596475Y6825640D01*
X9603435Y6837375D01*
X9604095Y6838950D01*
X9556750Y6838950D01*
G37*
G36*
X11588750Y6791604D02*
G01*
X11599214Y6797344D01*
X11610187Y6805422D01*
X11619992Y6814921D01*
X11628475Y6825640D01*
X11635435Y6837375D01*
X11636095Y6838950D01*
X11588750Y6838950D01*
G37*
G36*
X5492750Y6791604D02*
G01*
X5503214Y6797344D01*
X5514187Y6805422D01*
X5523992Y6814921D01*
X5532475Y6825640D01*
X5539435Y6837375D01*
X5540095Y6838950D01*
X5492750Y6838950D01*
G37*
G36*
X7524750Y6791604D02*
G01*
X7535214Y6797344D01*
X7546187Y6805422D01*
X7555992Y6814921D01*
X7564475Y6825640D01*
X7571435Y6837375D01*
X7572095Y6838950D01*
X7524750Y6838950D01*
G37*
G36*
X9467850Y6791756D02*
G01*
X9467850Y6838950D01*
X9420656Y6838950D01*
X9424466Y6831380D01*
X9432188Y6820153D01*
X9441332Y6809994D01*
X9451746Y6801205D01*
X9463227Y6793890D01*
G37*
G36*
X7435850Y6791756D02*
G01*
X7435850Y6838950D01*
X7388656Y6838950D01*
X7392466Y6831380D01*
X7400188Y6820153D01*
X7409332Y6809994D01*
X7419746Y6801205D01*
X7431227Y6793890D01*
G37*
G36*
X11499850Y6791756D02*
G01*
X11499850Y6838950D01*
X11452656Y6838950D01*
X11456466Y6831380D01*
X11464188Y6820153D01*
X11473332Y6809994D01*
X11483746Y6801205D01*
X11495227Y6793890D01*
G37*
G36*
X5403850Y6791756D02*
G01*
X5403850Y6838950D01*
X5356656Y6838950D01*
X5360466Y6831380D01*
X5368188Y6820153D01*
X5377332Y6809994D01*
X5387746Y6801205D01*
X5399227Y6793890D01*
G37*
G36*
X9420656Y6927850D02*
G01*
X9467850Y6927850D01*
X9467850Y6975043D01*
X9463227Y6972909D01*
X9451746Y6965594D01*
X9441332Y6956806D01*
X9432188Y6946646D01*
X9424466Y6935419D01*
G37*
G36*
X11452656Y6927850D02*
G01*
X11499850Y6927850D01*
X11499850Y6975043D01*
X11495227Y6972909D01*
X11483746Y6965594D01*
X11473332Y6956806D01*
X11464188Y6946646D01*
X11456466Y6935419D01*
G37*
G36*
X5356656Y6927850D02*
G01*
X5403850Y6927850D01*
X5403850Y6975043D01*
X5399227Y6972909D01*
X5387746Y6965594D01*
X5377332Y6956806D01*
X5368188Y6946646D01*
X5360466Y6935419D01*
G37*
G36*
X7388656Y6927850D02*
G01*
X7435850Y6927850D01*
X7435850Y6975043D01*
X7431227Y6972909D01*
X7419746Y6965594D01*
X7409332Y6956806D01*
X7400188Y6946646D01*
X7392466Y6935419D01*
G37*
G36*
X11588750Y6927850D02*
G01*
X11636095Y6927850D01*
X11635435Y6929424D01*
X11628475Y6941159D01*
X11619992Y6951878D01*
X11610187Y6961378D01*
X11599214Y6969455D01*
X11588750Y6975195D01*
G37*
G36*
X7524750Y6927850D02*
G01*
X7572095Y6927850D01*
X7571435Y6929424D01*
X7564475Y6941159D01*
X7555992Y6951878D01*
X7546187Y6961378D01*
X7535214Y6969455D01*
X7524750Y6975195D01*
G37*
G36*
X9556750Y6927850D02*
G01*
X9604095Y6927850D01*
X9603435Y6929424D01*
X9596475Y6941159D01*
X9587992Y6951878D01*
X9578187Y6961378D01*
X9567214Y6969455D01*
X9556750Y6975195D01*
G37*
G36*
X5492750Y6927850D02*
G01*
X5540095Y6927850D01*
X5539435Y6929424D01*
X5532475Y6941159D01*
X5523992Y6951878D01*
X5514187Y6961378D01*
X5503214Y6969455D01*
X5492750Y6975195D01*
G37*
G36*
X5041900Y7454392D02*
G01*
X5057292Y7455357D01*
X5072430Y7458100D01*
X5087112Y7462672D01*
X5101132Y7469022D01*
X5114340Y7476998D01*
X5126431Y7486497D01*
X5137302Y7497368D01*
X5146802Y7509459D01*
X5154777Y7522667D01*
X5161127Y7536688D01*
X5165699Y7551369D01*
X5168442Y7566507D01*
X5169408Y7581900D01*
X5168442Y7597292D01*
X5165699Y7612430D01*
X5161127Y7627112D01*
X5154777Y7641132D01*
X5146802Y7654340D01*
X5137302Y7666431D01*
X5126431Y7677302D01*
X5114340Y7686802D01*
X5101132Y7694777D01*
X5087112Y7701127D01*
X5072430Y7705699D01*
X5057292Y7708442D01*
X5041900Y7709408D01*
X5026507Y7708442D01*
X5011369Y7705699D01*
X4996688Y7701127D01*
X4982667Y7694777D01*
X4969459Y7686802D01*
X4957368Y7677302D01*
X4946497Y7666431D01*
X4936998Y7654340D01*
X4929022Y7641132D01*
X4922672Y7627112D01*
X4918100Y7612430D01*
X4915357Y7597292D01*
X4914392Y7581900D01*
X4915357Y7566507D01*
X4918100Y7551369D01*
X4922672Y7536688D01*
X4929022Y7522667D01*
X4936998Y7509459D01*
X4946497Y7497368D01*
X4957368Y7486497D01*
X4969459Y7476998D01*
X4982667Y7469022D01*
X4996688Y7462672D01*
X5011369Y7458100D01*
X5026507Y7455357D01*
G37*
G36*
X12331954Y2567940D02*
G01*
X12371679Y2567940D01*
X12371679Y2582621D01*
X12370968Y2588971D01*
X12369038Y2594406D01*
X12365939Y2599334D01*
X12361875Y2603398D01*
X12356947Y2606497D01*
X12351512Y2608376D01*
X12345162Y2609088D01*
X12331954Y2609088D01*
G37*

%LPD*%
D10*
X6921500Y876300D02*
G01*
X6908800Y4800600D01*
X7416800Y4800600D01*
X7416800Y5842000D01*
X7683500Y1892300D02*
G01*
X7670800Y3556000D01*
X9613900Y1866137D02*
G01*
X9614661Y2552700D01*
X10883900Y1866137D02*
G01*
X10884661Y2552700D01*
X12153900Y1866137D02*
G01*
X12154661Y2540000D01*
X13411200Y1853437D02*
G01*
X13411961Y2540000D01*
X12154763Y2540000D02*
G01*
X12154763Y2805836D01*
X11938000Y3022600D01*
X10884763Y2552700D02*
G01*
X10464800Y2552700D01*
X9614763Y2552700D02*
G01*
X9614763Y2844800D01*
X5346700Y368300D02*
G01*
X6642100Y368300D01*
X4953000Y876300D02*
G01*
X4953000Y876300D01*
X5346700Y876300D01*
X5346700Y1130300D02*
G01*
X5346700Y876300D01*
X5346700Y2400300D02*
G01*
X5346700Y2146300D01*
X5346700Y1892300D02*
G01*
X4953000Y1892300D01*
X4953000Y2641600D01*
X5334000Y2641600D01*
X5346700Y2654300D01*
X5346700Y1638300D02*
G01*
X5346700Y1384300D01*
X5346700Y4673600D02*
G01*
X5346700Y4419600D01*
X5346700Y4165600D02*
G01*
X5346700Y3911600D01*
X5346700Y5435600D02*
G01*
X5346700Y5181600D01*
X5346700Y5689600D02*
G01*
X4953000Y5689600D01*
X4953000Y4927600D01*
X5346700Y4927600D01*
X7416800Y3556000D02*
G01*
X7416800Y1130300D01*
X7912100Y1130300D01*
X8686800Y1397000D02*
G01*
X8686800Y1397000D01*
X8686800Y3556000D01*
X8343900Y3048000D02*
G01*
X8343900Y1384300D01*
X7162800Y5842000D02*
G01*
X5702300Y5842000D01*
X5702300Y6883400D01*
X7670800Y5842000D02*
G01*
X7366000Y6146800D01*
X6464300Y6146800D01*
X6464300Y6883400D01*
X10020300Y6883400D02*
G01*
X10020300Y6400800D01*
X10210800Y6210300D01*
X10210800Y5842000D01*
X13563600Y5168900D02*
G01*
X9448800Y5168900D01*
X9448800Y5842000D01*
X13563600Y4914900D02*
G01*
X8178800Y4914900D01*
X7162800Y3898900D01*
X7162800Y3556000D01*
X13563600Y4660900D02*
G01*
X10972800Y4660900D01*
X10972800Y3556000D01*
X9448800Y3556000D02*
G01*
X9448800Y4356100D01*
X10972800Y5842000D02*
G01*
X10972800Y6210300D01*
X11036300Y6273800D01*
X11036300Y6883400D01*
X6718300Y6883400D02*
G01*
X6718300Y6337300D01*
X8178800Y6337300D01*
X8178800Y5842000D01*
X6972300Y6883400D02*
G01*
X6959600Y6870700D01*
X6959600Y6489700D01*
X9410700Y6489700D01*
X10312400Y6489700D02*
G01*
X10315646Y6492946D01*
X11036300Y6492946D01*
X9004300Y6883400D02*
G01*
X9005570Y6489700D01*
X11036300Y6494680D02*
G01*
X11041280Y6489700D01*
X13068300Y6489700D01*
X13068300Y6883400D01*
X8712200Y165100D02*
G01*
X8712200Y635000D01*
X9982200Y635000D01*
X9982200Y635000D02*
G01*
X11252200Y635000D01*
X11252200Y635000D02*
G01*
X12522200Y635000D01*
X9731433Y952500D02*
G01*
X8458200Y952500D01*
X10998200Y952500D02*
G01*
X9731435Y952500D01*
X11226800Y952500D02*
G01*
X12268200Y952500D01*
X9613900Y1715363D02*
G01*
X9181236Y1282700D01*
X8966200Y1282700D01*
X10883900Y1715363D02*
G01*
X10451236Y1282700D01*
X10236200Y1282700D01*
X12153900Y1715363D02*
G01*
X11721236Y1282700D01*
X11506200Y1282700D01*
X13411200Y1702663D02*
G01*
X12978536Y1270000D01*
X12776200Y1270000D01*
X12776200Y1270000D02*
G01*
X12776200Y165100D01*
X6642100Y368300D02*
G01*
X6642100Y165100D01*
X8458200Y165100D01*
X7912100Y368300D02*
G01*
X8178800Y368300D01*
X8178800Y2641600D01*
X8166100Y2654300D01*
X7912100Y2654300D01*
X9956800Y3022600D02*
G01*
X11938000Y3022600D01*
X11226800Y1993900D02*
G01*
X11226800Y952500D01*
X10998200Y952500D02*
G01*
X11226800Y952500D01*
X9613900Y2844800D02*
G01*
X10717936Y2844800D01*
X10217150Y3149600D02*
G01*
X13023850Y3149600D01*
X13412063Y2540000D02*
G01*
X13398500Y2755900D01*
X13023850Y3149600D01*
X10972800Y3556000D02*
G01*
X10972800Y3289300D01*
X9283700Y3289300D01*
X9283700Y3289300D02*
G01*
X9283700Y2654300D01*
X9194800Y4178300D02*
G01*
X9194800Y3556000D01*
X7607300Y4597400D02*
G01*
X7607300Y5168900D01*
X7620000Y5181600D01*
X8940800Y5181600D01*
X8940800Y5842000D01*
X6718300Y7137400D02*
G01*
X8749482Y7137400D01*
X8749482Y7137400D02*
G01*
X10784867Y7137400D01*
X10769600Y7137400D02*
G01*
X12814300Y7137400D01*
X6718300Y6883400D02*
G01*
X6718300Y7137400D01*
X8509756Y7306729D02*
G01*
X10537042Y7310940D01*
X10528300Y7315200D02*
G01*
X12560300Y7315200D01*
X6477000Y7302500D02*
G01*
X8509756Y7306729D01*
X6464300Y6883400D02*
G01*
X6464300Y7302500D01*
X10019195Y7480300D02*
G01*
X12052300Y7480300D01*
X7987195Y7480300D02*
G01*
X10019195Y7480300D01*
X5956300Y7480300D02*
G01*
X7987195Y7480300D01*
X5956300Y6883400D02*
G01*
X5956300Y7480300D01*
X9764948Y7645400D02*
G01*
X11798300Y7645400D01*
X7732948Y7645400D02*
G01*
X9764948Y7645400D01*
X5702300Y7645400D02*
G01*
X7732948Y7645400D01*
X5702300Y6883400D02*
G01*
X5702300Y7645400D01*
X6642100Y1384300D02*
G01*
X6400800Y1384300D01*
X5689600Y2095500D01*
X5689600Y4419600D01*
X5346700Y4419600D01*
X5346700Y1384300D02*
G01*
X6108700Y622300D01*
X6642100Y622300D01*
X5346700Y1892300D02*
G01*
X6362700Y876300D01*
X6642100Y876300D01*
X5346700Y2146300D02*
G01*
X6362700Y1130300D01*
X6642100Y1130300D01*
X6642100Y1638300D02*
G01*
X6413500Y1638300D01*
X5969000Y2082800D01*
X5969000Y4927600D01*
X5346700Y4927600D01*
X5346700Y5181600D02*
G01*
X6172200Y5181600D01*
X6172200Y2159000D01*
X6438900Y1892300D01*
X6642100Y1892300D01*
X9702800Y4559300D02*
G01*
X9702800Y3556000D01*
X5346700Y368300D02*
G01*
X4953000Y368300D01*
X4953000Y876300D01*
G36*
X9657100Y1825701D02*
G01*
X9570699Y1825701D01*
X9570699Y1906348D01*
X9657100Y1906348D01*
G37*
D12*
G01*
X9613900Y1715363D03*
G36*
X9725101Y2509499D02*
G01*
X9725101Y2595900D01*
X9805748Y2595900D01*
X9805748Y2509499D01*
G37*
G36*
X9655098Y2509499D02*
G01*
X9655098Y2595900D01*
X9574451Y2595900D01*
X9574451Y2509499D01*
G37*
G36*
X10995101Y2509499D02*
G01*
X10995101Y2595900D01*
X11075748Y2595900D01*
X11075748Y2509499D01*
G37*
G36*
X10925098Y2509499D02*
G01*
X10925098Y2595900D01*
X10844451Y2595900D01*
X10844451Y2509499D01*
G37*
G36*
X10927100Y1825701D02*
G01*
X10840699Y1825701D01*
X10840699Y1906348D01*
X10927100Y1906348D01*
G37*
G01*
X10883900Y1715363D03*
G36*
X13367999Y1742998D02*
G01*
X13454400Y1742998D01*
X13454400Y1662351D01*
X13367999Y1662351D01*
G37*
G01*
X13411200Y1853336D03*
G36*
X13522401Y2496799D02*
G01*
X13522401Y2583200D01*
X13603048Y2583200D01*
X13603048Y2496799D01*
G37*
G36*
X13452398Y2496799D02*
G01*
X13452398Y2583200D01*
X13371751Y2583200D01*
X13371751Y2496799D01*
G37*
G36*
X12265101Y2496799D02*
G01*
X12265101Y2583200D01*
X12345748Y2583200D01*
X12345748Y2496799D01*
G37*
G36*
X12195098Y2496799D02*
G01*
X12195098Y2583200D01*
X12114451Y2583200D01*
X12114451Y2496799D01*
G37*
G36*
X12110699Y1755698D02*
G01*
X12197100Y1755698D01*
X12197100Y1675051D01*
X12110699Y1675051D01*
G37*
G01*
X12153900Y1866036D03*
D14*
G01*
X6642100Y1130300D03*
G01*
X6642100Y876300D03*
G01*
X6642100Y622300D03*
G01*
X6642100Y368300D03*
G01*
X6642100Y1384300D03*
G01*
X6642100Y2146300D03*
G01*
X6642100Y2400300D03*
D15*
G01*
X6642100Y2654300D03*
D14*
G01*
X7912100Y368300D03*
G01*
X7912100Y622300D03*
G01*
X7912100Y876300D03*
G01*
X7912100Y1130300D03*
G01*
X7912100Y1384300D03*
G01*
X7912100Y1638300D03*
G01*
X7912100Y1892300D03*
G01*
X7912100Y2146300D03*
G01*
X7912100Y2400300D03*
G01*
X7912100Y2654300D03*
G01*
X6642100Y1638300D03*
G01*
X6642100Y1892300D03*
D16*
G01*
X6972300Y6883400D03*
G01*
X6718300Y6883400D03*
G01*
X6210300Y6883400D03*
G01*
X6464300Y6883400D03*
G01*
X5448300Y6883400D03*
G01*
X5702300Y6883400D03*
G01*
X5956300Y6883400D03*
G01*
X13563600Y4406900D03*
G01*
X13563600Y4660900D03*
G01*
X13563600Y4914900D03*
G01*
X13563600Y5168900D03*
G01*
X5346700Y355600D03*
G01*
X5346700Y609600D03*
G01*
X5346700Y863600D03*
G01*
X5346700Y1117600D03*
G01*
X5346700Y1371600D03*
G01*
X5346700Y1625600D03*
G01*
X5346700Y1879600D03*
G01*
X5346700Y2133600D03*
G01*
X5346700Y2387600D03*
G01*
X5346700Y2641600D03*
G01*
X11036300Y6883400D03*
G01*
X10782300Y6883400D03*
G01*
X10274300Y6883400D03*
G01*
X10528300Y6883400D03*
G01*
X9512300Y6883400D03*
G01*
X9766300Y6883400D03*
G01*
X10020300Y6883400D03*
D17*
G01*
X11480800Y5842000D03*
G01*
X11226800Y5842000D03*
G01*
X10972800Y5842000D03*
G01*
X10718800Y5842000D03*
G01*
X10464800Y5842000D03*
G01*
X10210800Y5842000D03*
G01*
X9956800Y5842000D03*
G01*
X9702800Y5842000D03*
G01*
X9448800Y5842000D03*
G01*
X9194800Y5842000D03*
G01*
X8940800Y5842000D03*
G01*
X8686800Y5842000D03*
G01*
X8432800Y5842000D03*
G01*
X8178800Y5842000D03*
G01*
X7924800Y5842000D03*
G01*
X7670800Y5842000D03*
G01*
X7416800Y5842000D03*
G01*
X7162800Y5842000D03*
G01*
X7162800Y3556000D03*
G01*
X7416800Y3556000D03*
G01*
X7670800Y3556000D03*
G01*
X7924800Y3556000D03*
G01*
X8178800Y3556000D03*
G01*
X8432800Y3556000D03*
G01*
X8686800Y3556000D03*
G01*
X8940800Y3556000D03*
G01*
X9194800Y3556000D03*
G01*
X9448800Y3556000D03*
G01*
X9702800Y3556000D03*
G01*
X9956800Y3556000D03*
G01*
X10210800Y3556000D03*
G01*
X10464800Y3556000D03*
G01*
X10718800Y3556000D03*
G01*
X10972800Y3556000D03*
G01*
X11226800Y3556000D03*
G01*
X11480800Y3556000D03*
D16*
G01*
X9004300Y6883400D03*
G01*
X8750300Y6883400D03*
G01*
X8242300Y6883400D03*
G01*
X8496300Y6883400D03*
G01*
X7480300Y6883400D03*
G01*
X7734300Y6883400D03*
G01*
X7988300Y6883400D03*
G01*
X13068300Y6883400D03*
G01*
X12814300Y6883400D03*
G01*
X12306300Y6883400D03*
G01*
X12560300Y6883400D03*
G01*
X11544300Y6883400D03*
G01*
X11798300Y6883400D03*
G01*
X12052300Y6883400D03*
G01*
X5346700Y3403600D03*
G01*
X5346700Y3657600D03*
G01*
X5346700Y3911600D03*
G01*
X5346700Y4165600D03*
G01*
X5346700Y4419600D03*
G01*
X5346700Y4673600D03*
G01*
X5346700Y4927600D03*
G01*
X5346700Y5181600D03*
G01*
X5346700Y5435600D03*
G01*
X5346700Y5689600D03*
D11*
G01*
X11938000Y3022600D03*
G01*
X10718800Y2844800D03*
G01*
X7683500Y1892300D03*
G01*
X8343900Y3048000D03*
G01*
X7732953Y7645400D03*
G01*
X9764953Y7645400D03*
G01*
X11798300Y7645400D03*
G01*
X7987182Y7480300D03*
G01*
X10019182Y7480300D03*
G01*
X12052300Y7480300D03*
G01*
X8509761Y7306716D03*
G01*
X10537037Y7310932D03*
G01*
X12560300Y7315200D03*
G01*
X8749487Y7137400D03*
G01*
X10784865Y7137400D03*
G01*
X12814300Y7137400D03*
G01*
X9448800Y4356100D03*
G01*
X9702800Y4559300D03*
G01*
X9410700Y6489700D03*
G01*
X10312400Y6489700D03*
G01*
X9982200Y635000D03*
G01*
X11252200Y635000D03*
G01*
X12522200Y635000D03*
G01*
X8458200Y952500D03*
G01*
X9731425Y952500D03*
G01*
X12268200Y952500D03*
G01*
X10998200Y952500D03*
G01*
X8966200Y1282700D03*
G01*
X10236200Y1282700D03*
G01*
X11506200Y1282700D03*
G01*
X8343900Y1384300D03*
G01*
X8686800Y1397000D03*
G01*
X10464800Y2552700D03*
G01*
X9956800Y3022600D03*
G01*
X10217150Y3149600D03*
G01*
X11226800Y1993900D03*
G01*
X9283700Y2654300D03*
G01*
X9194800Y4178300D03*
G01*
X7607300Y4597400D03*
G01*
X6921500Y876300D03*
G01*
X4953000Y876300D03*
D18*
X8458200Y109093D02*
G01*
X8458200Y221106D01*
X8712200Y109093D02*
G01*
X8712200Y221106D01*
X8966200Y109093D02*
G01*
X8966200Y221106D01*
X9220200Y109093D02*
G01*
X9220200Y221106D01*
X9728200Y109093D02*
G01*
X9728200Y221106D01*
X9982200Y109093D02*
G01*
X9982200Y221106D01*
X10236200Y109093D02*
G01*
X10236200Y221106D01*
X10490200Y109093D02*
G01*
X10490200Y221106D01*
X10998200Y109093D02*
G01*
X10998200Y221106D01*
X11252200Y109093D02*
G01*
X11252200Y221106D01*
X11506200Y109093D02*
G01*
X11506200Y221106D01*
X11760200Y109093D02*
G01*
X11760200Y221106D01*
X12268200Y109093D02*
G01*
X12268200Y221106D01*
X12522200Y109093D02*
G01*
X12522200Y221106D01*
X12776200Y109093D02*
G01*
X12776200Y221106D01*
X13030200Y109093D02*
G01*
X13030200Y221106D01*
M02*
