M48
METRIC,LZ,000.000
;FILE_FORMAT=3:3
;TYPE=PLATED
;Layer: Drill PTH
;EasyEDA v6.4.25, 2021-11-05T10:47:30--3:00
;159a448e8e33406d94cad16c6973356b,c2117e28123c44379a42240d4d7dbbcc,10
;Gerber Generator version 0.2
;Holesize 1 = 0.305 mm
T01C0.305
;Holesize 2 = 0.864 mm
T02C0.864
;Holesize 3 = 1.000 mm
T03C1.000
;Holesize 4 = 1.016 mm
T04C1.016
;Holesize 5 = 1.194 mm
T05C1.194
;Holesize 6 = 1.199 mm
T06C1.199
;Holesize 7 = 1.200 mm
T07C1.200
;Holesize 8 = 1.600 mm
T08C1.600
;Holesize 9 = 2.749 mm
T09C2.749
%
G05
G90
T01
X096520Y014224
X093345Y017399
X074803Y010541
X074803Y014224
X057150Y028829
X058420Y030099
X031877Y031242
X031877Y035687
T02
X087376Y030353
X086106Y031623
X087376Y032893
T03
X083820Y014129
X083820Y005429
X071882Y013081
X071882Y010541
X071882Y008001
T04
X026797Y044628
X029337Y044628
X031877Y044628
X034417Y044628
X036957Y044628
X039497Y044628
X026797Y047168
X029337Y047168
X031877Y047168
X034417Y047168
X036957Y047168
X039497Y047168
X042037Y044628
X042037Y047168
X044577Y044628
X047117Y044628
X049657Y044628
X052197Y044628
X054737Y044628
X057277Y044628
X044577Y047168
X047117Y047168
X049657Y047168
X052197Y047168
X054737Y047168
X057277Y047168
X059817Y044628
X059817Y047168
X062357Y044628
X064897Y044628
X067437Y044628
X069977Y044628
X072517Y044628
X075057Y044628
X062357Y047168
X064897Y047168
X067437Y047168
X069977Y047168
X072517Y047168
X075057Y047168
T05
X038608Y004572
X041148Y004572
X043688Y004572
X046228Y004572
X036068Y004572
X028448Y004572
X025908Y004572
X023368Y004572
X046228Y017272
X043688Y017272
X041148Y017272
X038608Y017272
X036068Y017272
X033528Y017272
X030988Y017272
X028448Y017272
X025908Y017272
X023368Y017272
X033528Y004572
X030988Y004572
T06
X068618Y-002540
X065113Y-002540
X061608Y-002540
X058128Y-002540
X099187Y045796
X099187Y042291
X099187Y038786
X099187Y033630
X099187Y030124
X099314Y024486
X099314Y020980
X019558Y034442
X019558Y037948
X019558Y026695
X019558Y030201
X045834Y-002540
X042329Y-002540
X038824Y-002540
X035344Y-002540
X031839Y-002540
X028334Y-002540
T07
X062357Y018034
X059817Y018034
X057277Y018034
X062357Y026162
X059817Y026162
X057277Y026162
X062357Y010541
X059817Y010541
X057277Y010541
X062357Y033782
X059817Y033782
X057277Y033782
T08
X100965Y004445
X100965Y014445
X090764Y014445
X090764Y004445
X088265Y009444
T09
X021920Y-003099
X079908Y-003099
X079908Y045898
X021920Y045898
M30
