G04 Layer: BottomLayer*
G04 EasyEDA v6.4.25, 2021-11-05T10:47:30--3:00*
G04 159a448e8e33406d94cad16c6973356b,c2117e28123c44379a42240d4d7dbbcc,10*
G04 Gerber Generator version 0.2*
G04 Scale: 100 percent, Rotated: No, Reflected: No *
G04 Dimensions in millimeters *
G04 leading zeros omitted , absolute positions ,4 integer and 5 decimal *
%FSLAX45Y45*%
%MOMM*%

%ADD11C,0.5000*%
%ADD12C,0.6096*%
%ADD15C,1.8000*%
%ADD17R,2.0320X2.0320*%
%ADD18C,2.0320*%
%ADD19R,2.4130X2.4130*%
%ADD20C,2.4130*%
%ADD21C,2.5000*%
%ADD22C,1.7780*%
%ADD23R,1.7780X1.7780*%
%ADD24C,6.2001*%
%ADD27C,1.4097*%

%LPD*%
G36*
X1560068Y-634492D02*
G01*
X1556156Y-633730D01*
X1552905Y-631494D01*
X1550670Y-628243D01*
X1549908Y-624332D01*
X1549908Y5297932D01*
X1550670Y5301843D01*
X1552905Y5305094D01*
X1556156Y5307330D01*
X1560068Y5308092D01*
X10301732Y5308092D01*
X10305643Y5307330D01*
X10308894Y5305094D01*
X10311130Y5301843D01*
X10311892Y5297932D01*
X10311892Y-624332D01*
X10311130Y-628243D01*
X10308894Y-631494D01*
X10305643Y-633730D01*
X10301732Y-634492D01*
X8135112Y-634492D01*
X8130743Y-633476D01*
X8127187Y-630682D01*
X8125206Y-626668D01*
X8125206Y-622147D01*
X8127136Y-618083D01*
X8130590Y-615238D01*
X8151317Y-604977D01*
X8173415Y-591820D01*
X8194497Y-577037D01*
X8214309Y-560628D01*
X8232851Y-542798D01*
X8249970Y-523595D01*
X8265566Y-503123D01*
X8279587Y-481533D01*
X8291880Y-458927D01*
X8302396Y-435457D01*
X8311083Y-411226D01*
X8317890Y-386435D01*
X8322818Y-361137D01*
X8325764Y-335584D01*
X8326729Y-309880D01*
X8325764Y-284175D01*
X8322818Y-258622D01*
X8317890Y-233324D01*
X8311083Y-208534D01*
X8302396Y-184302D01*
X8291880Y-160832D01*
X8279587Y-138226D01*
X8265566Y-116636D01*
X8249970Y-96164D01*
X8232851Y-76962D01*
X8214309Y-59131D01*
X8194497Y-42722D01*
X8173415Y-27940D01*
X8151317Y-14782D01*
X8128253Y-3352D01*
X8104378Y6248D01*
X8079841Y14020D01*
X8054797Y19862D01*
X8029346Y23825D01*
X8003692Y25755D01*
X7977987Y25755D01*
X7952333Y23825D01*
X7926882Y19862D01*
X7901838Y14020D01*
X7877302Y6248D01*
X7853425Y-3352D01*
X7830362Y-14782D01*
X7808264Y-27940D01*
X7787182Y-42722D01*
X7767370Y-59131D01*
X7748828Y-76962D01*
X7731709Y-96164D01*
X7716113Y-116636D01*
X7702092Y-138226D01*
X7689799Y-160832D01*
X7679283Y-184302D01*
X7670596Y-208534D01*
X7663789Y-233324D01*
X7658862Y-258622D01*
X7655915Y-284175D01*
X7654950Y-309880D01*
X7655915Y-335584D01*
X7658862Y-361137D01*
X7663789Y-386435D01*
X7670596Y-411226D01*
X7679283Y-435457D01*
X7689799Y-458927D01*
X7702092Y-481533D01*
X7716113Y-503123D01*
X7731709Y-523595D01*
X7748828Y-542798D01*
X7767370Y-560628D01*
X7787182Y-577037D01*
X7808264Y-591820D01*
X7830362Y-604977D01*
X7851089Y-615238D01*
X7854543Y-618083D01*
X7856474Y-622147D01*
X7856474Y-626668D01*
X7854492Y-630682D01*
X7850936Y-633476D01*
X7846568Y-634492D01*
X2336292Y-634492D01*
X2331923Y-633476D01*
X2328367Y-630682D01*
X2326386Y-626668D01*
X2326386Y-622147D01*
X2328316Y-618083D01*
X2331770Y-615238D01*
X2352497Y-604977D01*
X2374595Y-591820D01*
X2395677Y-577037D01*
X2415489Y-560628D01*
X2434031Y-542798D01*
X2451150Y-523595D01*
X2466746Y-503123D01*
X2480767Y-481533D01*
X2493060Y-458927D01*
X2503576Y-435457D01*
X2512263Y-411226D01*
X2519070Y-386435D01*
X2523998Y-361137D01*
X2526944Y-335584D01*
X2527909Y-309880D01*
X2526944Y-284175D01*
X2523998Y-258622D01*
X2519070Y-233324D01*
X2512263Y-208534D01*
X2503576Y-184302D01*
X2493060Y-160832D01*
X2480767Y-138226D01*
X2466746Y-116636D01*
X2451150Y-96164D01*
X2434031Y-76962D01*
X2415489Y-59131D01*
X2395677Y-42722D01*
X2374595Y-27940D01*
X2352497Y-14782D01*
X2329434Y-3352D01*
X2305558Y6248D01*
X2281021Y14020D01*
X2255977Y19862D01*
X2230526Y23825D01*
X2204872Y25755D01*
X2179167Y25755D01*
X2153513Y23825D01*
X2128062Y19862D01*
X2103018Y14020D01*
X2078482Y6248D01*
X2054606Y-3352D01*
X2031542Y-14782D01*
X2009444Y-27940D01*
X1988362Y-42722D01*
X1968550Y-59131D01*
X1950008Y-76962D01*
X1932889Y-96164D01*
X1917293Y-116636D01*
X1903272Y-138226D01*
X1890979Y-160832D01*
X1880463Y-184302D01*
X1871776Y-208534D01*
X1864969Y-233324D01*
X1860042Y-258622D01*
X1857095Y-284175D01*
X1856130Y-309880D01*
X1857095Y-335584D01*
X1860042Y-361137D01*
X1864969Y-386435D01*
X1871776Y-411226D01*
X1880463Y-435457D01*
X1890979Y-458927D01*
X1903272Y-481533D01*
X1917293Y-503123D01*
X1932889Y-523595D01*
X1950008Y-542798D01*
X1968550Y-560628D01*
X1988362Y-577037D01*
X2009444Y-591820D01*
X2031542Y-604977D01*
X2052269Y-615238D01*
X2055723Y-618083D01*
X2057654Y-622147D01*
X2057654Y-626668D01*
X2055672Y-630682D01*
X2052116Y-633476D01*
X2047748Y-634492D01*
G37*

%LPC*%
G36*
X9985400Y4646269D02*
G01*
X10065258Y4646269D01*
X10065258Y4699711D01*
X10064546Y4706010D01*
X10062616Y4711496D01*
X10059568Y4716373D01*
X10055453Y4720488D01*
X10050576Y4723536D01*
X10045090Y4725466D01*
X10038791Y4726178D01*
X9985400Y4726178D01*
G37*
G36*
X9772142Y4646269D02*
G01*
X9852050Y4646269D01*
X9852050Y4726178D01*
X9798608Y4726178D01*
X9792309Y4725466D01*
X9786823Y4723536D01*
X9781946Y4720488D01*
X9777831Y4716373D01*
X9774783Y4711496D01*
X9772853Y4706010D01*
X9772142Y4699711D01*
G37*
G36*
X3183890Y-381508D02*
G01*
X3199282Y-380542D01*
X3214420Y-377799D01*
X3229102Y-373227D01*
X3243122Y-366877D01*
X3256330Y-358902D01*
X3268421Y-349402D01*
X3279292Y-338531D01*
X3288792Y-326440D01*
X3296767Y-313232D01*
X3303117Y-299212D01*
X3307689Y-284530D01*
X3310432Y-269392D01*
X3311398Y-254000D01*
X3310432Y-238607D01*
X3307689Y-223469D01*
X3303117Y-208788D01*
X3296767Y-194767D01*
X3288792Y-181559D01*
X3279292Y-169468D01*
X3268421Y-158597D01*
X3256330Y-149098D01*
X3243122Y-141122D01*
X3229102Y-134772D01*
X3214420Y-130200D01*
X3199282Y-127457D01*
X3183890Y-126492D01*
X3168497Y-127457D01*
X3153359Y-130200D01*
X3138678Y-134772D01*
X3124657Y-141122D01*
X3111449Y-149098D01*
X3099358Y-158597D01*
X3088487Y-169468D01*
X3078988Y-181559D01*
X3071012Y-194767D01*
X3064662Y-208788D01*
X3060090Y-223469D01*
X3057347Y-238607D01*
X3056382Y-254000D01*
X3057347Y-269392D01*
X3060090Y-284530D01*
X3064662Y-299212D01*
X3071012Y-313232D01*
X3078988Y-326440D01*
X3088487Y-338531D01*
X3099358Y-349402D01*
X3111449Y-358902D01*
X3124657Y-366877D01*
X3138678Y-373227D01*
X3153359Y-377799D01*
X3168497Y-380542D01*
G37*
G36*
X5812790Y-381508D02*
G01*
X5828182Y-380542D01*
X5843320Y-377799D01*
X5858002Y-373227D01*
X5872022Y-366877D01*
X5885230Y-358902D01*
X5897321Y-349402D01*
X5908192Y-338531D01*
X5917692Y-326440D01*
X5925667Y-313232D01*
X5932017Y-299212D01*
X5936589Y-284530D01*
X5939332Y-269392D01*
X5940298Y-254000D01*
X5939332Y-238607D01*
X5936589Y-223469D01*
X5932017Y-208788D01*
X5925667Y-194767D01*
X5917692Y-181559D01*
X5908192Y-169468D01*
X5897321Y-158597D01*
X5885230Y-149098D01*
X5872022Y-141122D01*
X5858002Y-134772D01*
X5843320Y-130200D01*
X5828182Y-127457D01*
X5812790Y-126492D01*
X5797397Y-127457D01*
X5782259Y-130200D01*
X5767578Y-134772D01*
X5753557Y-141122D01*
X5740349Y-149098D01*
X5728258Y-158597D01*
X5717387Y-169468D01*
X5707888Y-181559D01*
X5699912Y-194767D01*
X5693562Y-208788D01*
X5688990Y-223469D01*
X5686247Y-238607D01*
X5685282Y-254000D01*
X5686247Y-269392D01*
X5688990Y-284530D01*
X5693562Y-299212D01*
X5699912Y-313232D01*
X5707888Y-326440D01*
X5717387Y-338531D01*
X5728258Y-349402D01*
X5740349Y-358902D01*
X5753557Y-366877D01*
X5767578Y-373227D01*
X5782259Y-377799D01*
X5797397Y-380542D01*
G37*
G36*
X3882390Y-381508D02*
G01*
X3897782Y-380542D01*
X3912920Y-377799D01*
X3927601Y-373227D01*
X3941622Y-366877D01*
X3954830Y-358902D01*
X3966921Y-349402D01*
X3977792Y-338531D01*
X3987292Y-326440D01*
X3995267Y-313232D01*
X4001617Y-299212D01*
X4006189Y-284530D01*
X4008932Y-269392D01*
X4009898Y-254000D01*
X4008932Y-238607D01*
X4006189Y-223469D01*
X4001617Y-208788D01*
X3995267Y-194767D01*
X3987292Y-181559D01*
X3977792Y-169468D01*
X3966921Y-158597D01*
X3954830Y-149098D01*
X3941622Y-141122D01*
X3927601Y-134772D01*
X3912920Y-130200D01*
X3897782Y-127457D01*
X3882390Y-126492D01*
X3866997Y-127457D01*
X3851859Y-130200D01*
X3837178Y-134772D01*
X3823157Y-141122D01*
X3809949Y-149098D01*
X3797858Y-158597D01*
X3786987Y-169468D01*
X3777487Y-181559D01*
X3769512Y-194767D01*
X3763162Y-208788D01*
X3758590Y-223469D01*
X3755847Y-238607D01*
X3754882Y-254000D01*
X3755847Y-269392D01*
X3758590Y-284530D01*
X3763162Y-299212D01*
X3769512Y-313232D01*
X3777487Y-326440D01*
X3786987Y-338531D01*
X3797858Y-349402D01*
X3809949Y-358902D01*
X3823157Y-366877D01*
X3837178Y-373227D01*
X3851859Y-377799D01*
X3866997Y-380542D01*
G37*
G36*
X4232910Y-381508D02*
G01*
X4248302Y-380542D01*
X4263440Y-377799D01*
X4278122Y-373227D01*
X4292142Y-366877D01*
X4305350Y-358902D01*
X4317441Y-349402D01*
X4328312Y-338531D01*
X4337812Y-326440D01*
X4345787Y-313232D01*
X4352137Y-299212D01*
X4356709Y-284530D01*
X4359452Y-269392D01*
X4360418Y-254000D01*
X4359452Y-238607D01*
X4356709Y-223469D01*
X4352137Y-208788D01*
X4345787Y-194767D01*
X4337812Y-181559D01*
X4328312Y-169468D01*
X4317441Y-158597D01*
X4305350Y-149098D01*
X4292142Y-141122D01*
X4278122Y-134772D01*
X4263440Y-130200D01*
X4248302Y-127457D01*
X4232910Y-126492D01*
X4217517Y-127457D01*
X4202379Y-130200D01*
X4187698Y-134772D01*
X4173677Y-141122D01*
X4160469Y-149098D01*
X4148378Y-158597D01*
X4137507Y-169468D01*
X4128008Y-181559D01*
X4120032Y-194767D01*
X4113682Y-208788D01*
X4109110Y-223469D01*
X4106367Y-238607D01*
X4105401Y-254000D01*
X4106367Y-269392D01*
X4109110Y-284530D01*
X4113682Y-299212D01*
X4120032Y-313232D01*
X4128008Y-326440D01*
X4137507Y-338531D01*
X4148378Y-349402D01*
X4160469Y-358902D01*
X4173677Y-366877D01*
X4187698Y-373227D01*
X4202379Y-377799D01*
X4217517Y-380542D01*
G37*
G36*
X2833370Y-381508D02*
G01*
X2848762Y-380542D01*
X2863900Y-377799D01*
X2878582Y-373227D01*
X2892602Y-366877D01*
X2905810Y-358902D01*
X2917901Y-349402D01*
X2928772Y-338531D01*
X2938272Y-326440D01*
X2946247Y-313232D01*
X2952597Y-299212D01*
X2957169Y-284530D01*
X2959912Y-269392D01*
X2960878Y-254000D01*
X2959912Y-238607D01*
X2957169Y-223469D01*
X2952597Y-208788D01*
X2946247Y-194767D01*
X2938272Y-181559D01*
X2928772Y-169468D01*
X2917901Y-158597D01*
X2905810Y-149098D01*
X2892602Y-141122D01*
X2878582Y-134772D01*
X2863900Y-130200D01*
X2848762Y-127457D01*
X2833370Y-126492D01*
X2817977Y-127457D01*
X2802839Y-130200D01*
X2788158Y-134772D01*
X2774137Y-141122D01*
X2760929Y-149098D01*
X2748838Y-158597D01*
X2737967Y-169468D01*
X2728468Y-181559D01*
X2720492Y-194767D01*
X2714142Y-208788D01*
X2709570Y-223469D01*
X2706827Y-238607D01*
X2705862Y-254000D01*
X2706827Y-269392D01*
X2709570Y-284530D01*
X2714142Y-299212D01*
X2720492Y-313232D01*
X2728468Y-326440D01*
X2737967Y-338531D01*
X2748838Y-349402D01*
X2760929Y-358902D01*
X2774137Y-366877D01*
X2788158Y-373227D01*
X2802839Y-377799D01*
X2817977Y-380542D01*
G37*
G36*
X3534410Y-381508D02*
G01*
X3549802Y-380542D01*
X3564940Y-377799D01*
X3579622Y-373227D01*
X3593642Y-366877D01*
X3606850Y-358902D01*
X3618941Y-349402D01*
X3629812Y-338531D01*
X3639312Y-326440D01*
X3647287Y-313232D01*
X3653637Y-299212D01*
X3658209Y-284530D01*
X3660952Y-269392D01*
X3661918Y-254000D01*
X3660952Y-238607D01*
X3658209Y-223469D01*
X3653637Y-208788D01*
X3647287Y-194767D01*
X3639312Y-181559D01*
X3629812Y-169468D01*
X3618941Y-158597D01*
X3606850Y-149098D01*
X3593642Y-141122D01*
X3579622Y-134772D01*
X3564940Y-130200D01*
X3549802Y-127457D01*
X3534410Y-126492D01*
X3519017Y-127457D01*
X3503879Y-130200D01*
X3489198Y-134772D01*
X3475177Y-141122D01*
X3461969Y-149098D01*
X3449878Y-158597D01*
X3439007Y-169468D01*
X3429508Y-181559D01*
X3421532Y-194767D01*
X3415182Y-208788D01*
X3410610Y-223469D01*
X3407867Y-238607D01*
X3406901Y-254000D01*
X3407867Y-269392D01*
X3410610Y-284530D01*
X3415182Y-299212D01*
X3421532Y-313232D01*
X3429508Y-326440D01*
X3439007Y-338531D01*
X3449878Y-349402D01*
X3461969Y-358902D01*
X3475177Y-366877D01*
X3489198Y-373227D01*
X3503879Y-377799D01*
X3519017Y-380542D01*
G37*
G36*
X6511290Y-381508D02*
G01*
X6526682Y-380542D01*
X6541820Y-377799D01*
X6556502Y-373227D01*
X6570522Y-366877D01*
X6583730Y-358902D01*
X6595821Y-349402D01*
X6606692Y-338531D01*
X6616192Y-326440D01*
X6624167Y-313232D01*
X6630517Y-299212D01*
X6635089Y-284530D01*
X6637832Y-269392D01*
X6638798Y-254000D01*
X6637832Y-238607D01*
X6635089Y-223469D01*
X6630517Y-208788D01*
X6624167Y-194767D01*
X6616192Y-181559D01*
X6606692Y-169468D01*
X6595821Y-158597D01*
X6583730Y-149098D01*
X6570522Y-141122D01*
X6556502Y-134772D01*
X6541820Y-130200D01*
X6526682Y-127457D01*
X6511290Y-126492D01*
X6495897Y-127457D01*
X6480759Y-130200D01*
X6466078Y-134772D01*
X6452057Y-141122D01*
X6438849Y-149098D01*
X6426758Y-158597D01*
X6415887Y-169468D01*
X6406388Y-181559D01*
X6398412Y-194767D01*
X6392062Y-208788D01*
X6387490Y-223469D01*
X6384747Y-238607D01*
X6383782Y-254000D01*
X6384747Y-269392D01*
X6387490Y-284530D01*
X6392062Y-299212D01*
X6398412Y-313232D01*
X6406388Y-326440D01*
X6415887Y-338531D01*
X6426758Y-349402D01*
X6438849Y-358902D01*
X6452057Y-366877D01*
X6466078Y-373227D01*
X6480759Y-377799D01*
X6495897Y-380542D01*
G37*
G36*
X4482388Y-381508D02*
G01*
X4684471Y-381508D01*
X4690770Y-380796D01*
X4696256Y-378866D01*
X4701133Y-375818D01*
X4705248Y-371703D01*
X4708296Y-366826D01*
X4710226Y-361340D01*
X4710938Y-355041D01*
X4710938Y-152958D01*
X4710226Y-146659D01*
X4708296Y-141173D01*
X4705248Y-136296D01*
X4701133Y-132181D01*
X4696256Y-129133D01*
X4690770Y-127203D01*
X4684471Y-126492D01*
X4482388Y-126492D01*
X4476089Y-127203D01*
X4470603Y-129133D01*
X4465726Y-132181D01*
X4461611Y-136296D01*
X4458563Y-141173D01*
X4456633Y-146659D01*
X4455922Y-152958D01*
X4455922Y-355041D01*
X4456633Y-361340D01*
X4458563Y-366826D01*
X4461611Y-371703D01*
X4465726Y-375818D01*
X4470603Y-378866D01*
X4476089Y-380796D01*
G37*
G36*
X6760768Y-381508D02*
G01*
X6962851Y-381508D01*
X6969150Y-380796D01*
X6974636Y-378866D01*
X6979513Y-375818D01*
X6983628Y-371703D01*
X6986676Y-366826D01*
X6988606Y-361340D01*
X6989318Y-355041D01*
X6989318Y-152958D01*
X6988606Y-146659D01*
X6986676Y-141173D01*
X6983628Y-136296D01*
X6979513Y-132181D01*
X6974636Y-129133D01*
X6969150Y-127203D01*
X6962851Y-126492D01*
X6760768Y-126492D01*
X6754469Y-127203D01*
X6748983Y-129133D01*
X6744106Y-132181D01*
X6739991Y-136296D01*
X6736943Y-141173D01*
X6735013Y-146659D01*
X6734302Y-152958D01*
X6734302Y-355041D01*
X6735013Y-361340D01*
X6736943Y-366826D01*
X6739991Y-371703D01*
X6744106Y-375818D01*
X6748983Y-378866D01*
X6754469Y-380796D01*
G37*
G36*
X6103620Y-367842D02*
G01*
X6103620Y-311150D01*
X6046927Y-311150D01*
X6047892Y-313232D01*
X6055868Y-326440D01*
X6065367Y-338531D01*
X6076238Y-349402D01*
X6088329Y-358902D01*
X6101537Y-366877D01*
G37*
G36*
X6217920Y-367842D02*
G01*
X6220002Y-366877D01*
X6233210Y-358902D01*
X6245301Y-349402D01*
X6256172Y-338531D01*
X6265672Y-326440D01*
X6273647Y-313232D01*
X6274612Y-311150D01*
X6217920Y-311150D01*
G37*
G36*
X6046927Y-196850D02*
G01*
X6103620Y-196850D01*
X6103620Y-140157D01*
X6101537Y-141122D01*
X6088329Y-149098D01*
X6076238Y-158597D01*
X6065367Y-169468D01*
X6055868Y-181559D01*
X6047892Y-194767D01*
G37*
G36*
X6217920Y-196850D02*
G01*
X6274612Y-196850D01*
X6273647Y-194767D01*
X6265672Y-181559D01*
X6256172Y-169468D01*
X6245301Y-158597D01*
X6233210Y-149098D01*
X6220002Y-141122D01*
X6217920Y-140157D01*
G37*
G36*
X10096500Y293624D02*
G01*
X10113416Y294538D01*
X10130078Y297383D01*
X10146334Y302056D01*
X10161981Y308559D01*
X10176764Y316738D01*
X10190581Y326542D01*
X10203180Y337820D01*
X10214457Y350418D01*
X10224262Y364236D01*
X10232440Y379018D01*
X10238943Y394665D01*
X10243616Y410921D01*
X10246461Y427583D01*
X10247376Y444500D01*
X10246461Y461416D01*
X10243616Y478078D01*
X10238943Y494334D01*
X10232440Y509981D01*
X10224262Y524764D01*
X10214457Y538581D01*
X10203180Y551180D01*
X10190581Y562457D01*
X10176764Y572262D01*
X10161981Y580440D01*
X10146334Y586943D01*
X10130078Y591616D01*
X10113416Y594461D01*
X10096500Y595376D01*
X10079583Y594461D01*
X10062921Y591616D01*
X10046665Y586943D01*
X10031018Y580440D01*
X10016236Y572262D01*
X10002418Y562457D01*
X9989820Y551180D01*
X9978542Y538581D01*
X9968738Y524764D01*
X9960559Y509981D01*
X9954056Y494334D01*
X9949383Y478078D01*
X9946538Y461416D01*
X9945624Y444500D01*
X9946538Y427583D01*
X9949383Y410921D01*
X9954056Y394665D01*
X9960559Y379018D01*
X9968738Y364236D01*
X9978542Y350418D01*
X9989820Y337820D01*
X10002418Y326542D01*
X10016236Y316738D01*
X10031018Y308559D01*
X10046665Y302056D01*
X10062921Y297383D01*
X10079583Y294538D01*
G37*
G36*
X9076436Y293624D02*
G01*
X9093352Y294538D01*
X9110014Y297383D01*
X9126270Y302056D01*
X9141917Y308559D01*
X9156700Y316738D01*
X9170517Y326542D01*
X9183116Y337820D01*
X9194393Y350418D01*
X9204198Y364236D01*
X9212376Y379018D01*
X9218879Y394665D01*
X9223552Y410921D01*
X9226397Y427583D01*
X9227312Y444500D01*
X9226397Y461416D01*
X9223552Y478078D01*
X9218879Y494334D01*
X9212376Y509981D01*
X9204198Y524764D01*
X9194393Y538581D01*
X9183116Y551180D01*
X9170517Y562457D01*
X9156700Y572262D01*
X9141917Y580440D01*
X9126270Y586943D01*
X9110014Y591616D01*
X9093352Y594461D01*
X9076436Y595376D01*
X9059519Y594461D01*
X9042857Y591616D01*
X9026601Y586943D01*
X9010954Y580440D01*
X8996172Y572262D01*
X8982354Y562457D01*
X8969756Y551180D01*
X8958478Y538581D01*
X8948674Y524764D01*
X8940495Y509981D01*
X8933992Y494334D01*
X8929319Y478078D01*
X8926474Y461416D01*
X8925560Y444500D01*
X8926474Y427583D01*
X8929319Y410921D01*
X8933992Y394665D01*
X8940495Y379018D01*
X8948674Y364236D01*
X8958478Y350418D01*
X8969756Y337820D01*
X8982354Y326542D01*
X8996172Y316738D01*
X9010954Y308559D01*
X9026601Y302056D01*
X9042857Y297383D01*
X9059519Y294538D01*
G37*
G36*
X4114800Y342392D02*
G01*
X4129176Y343306D01*
X4143349Y345998D01*
X4157065Y350469D01*
X4170121Y356616D01*
X4182262Y364337D01*
X4193387Y373532D01*
X4203242Y384048D01*
X4211726Y395681D01*
X4218686Y408330D01*
X4223969Y421741D01*
X4227576Y435711D01*
X4229354Y449986D01*
X4229354Y464413D01*
X4227576Y478688D01*
X4223969Y492658D01*
X4218686Y506069D01*
X4211726Y518718D01*
X4203242Y530352D01*
X4193387Y540867D01*
X4182262Y550062D01*
X4170121Y557784D01*
X4157065Y563930D01*
X4143349Y568401D01*
X4129176Y571093D01*
X4114800Y572008D01*
X4100423Y571093D01*
X4086250Y568401D01*
X4072534Y563930D01*
X4059478Y557784D01*
X4047337Y550062D01*
X4036212Y540867D01*
X4026357Y530352D01*
X4017873Y518718D01*
X4010914Y506069D01*
X4005630Y492658D01*
X4002024Y478688D01*
X4000246Y464413D01*
X4000246Y449986D01*
X4002024Y435711D01*
X4005630Y421741D01*
X4010914Y408330D01*
X4017873Y395681D01*
X4026357Y384048D01*
X4036212Y373532D01*
X4047337Y364337D01*
X4059478Y356616D01*
X4072534Y350469D01*
X4086250Y345998D01*
X4100423Y343306D01*
G37*
G36*
X3606800Y342392D02*
G01*
X3621176Y343306D01*
X3635349Y345998D01*
X3649065Y350469D01*
X3662121Y356616D01*
X3674262Y364337D01*
X3685387Y373532D01*
X3695242Y384048D01*
X3703726Y395681D01*
X3710686Y408330D01*
X3715969Y421741D01*
X3719576Y435711D01*
X3721354Y449986D01*
X3721354Y464413D01*
X3719576Y478688D01*
X3715969Y492658D01*
X3710686Y506069D01*
X3703726Y518718D01*
X3695242Y530352D01*
X3685387Y540867D01*
X3674262Y550062D01*
X3662121Y557784D01*
X3649065Y563930D01*
X3635349Y568401D01*
X3621176Y571093D01*
X3606800Y572008D01*
X3592423Y571093D01*
X3578250Y568401D01*
X3564534Y563930D01*
X3551478Y557784D01*
X3539337Y550062D01*
X3528212Y540867D01*
X3518357Y530352D01*
X3509873Y518718D01*
X3502914Y506069D01*
X3497630Y492658D01*
X3494024Y478688D01*
X3492246Y464413D01*
X3492246Y449986D01*
X3494024Y435711D01*
X3497630Y421741D01*
X3502914Y408330D01*
X3509873Y395681D01*
X3518357Y384048D01*
X3528212Y373532D01*
X3539337Y364337D01*
X3551478Y356616D01*
X3564534Y350469D01*
X3578250Y345998D01*
X3592423Y343306D01*
G37*
G36*
X2844800Y342392D02*
G01*
X2859176Y343306D01*
X2873349Y345998D01*
X2887065Y350469D01*
X2900121Y356616D01*
X2912262Y364337D01*
X2923387Y373532D01*
X2933242Y384048D01*
X2941726Y395681D01*
X2948686Y408330D01*
X2953969Y421741D01*
X2957576Y435711D01*
X2959354Y449986D01*
X2959354Y464413D01*
X2957576Y478688D01*
X2953969Y492658D01*
X2948686Y506069D01*
X2941726Y518718D01*
X2933242Y530352D01*
X2923387Y540867D01*
X2912262Y550062D01*
X2900121Y557784D01*
X2887065Y563930D01*
X2873349Y568401D01*
X2859176Y571093D01*
X2844800Y572008D01*
X2830423Y571093D01*
X2816250Y568401D01*
X2802534Y563930D01*
X2789478Y557784D01*
X2777337Y550062D01*
X2766212Y540867D01*
X2756357Y530352D01*
X2747873Y518718D01*
X2740914Y506069D01*
X2735630Y492658D01*
X2732024Y478688D01*
X2730246Y464413D01*
X2730246Y449986D01*
X2732024Y435711D01*
X2735630Y421741D01*
X2740914Y408330D01*
X2747873Y395681D01*
X2756357Y384048D01*
X2766212Y373532D01*
X2777337Y364337D01*
X2789478Y356616D01*
X2802534Y350469D01*
X2816250Y345998D01*
X2830423Y343306D01*
G37*
G36*
X3352800Y342392D02*
G01*
X3367176Y343306D01*
X3381349Y345998D01*
X3395065Y350469D01*
X3408121Y356616D01*
X3420262Y364337D01*
X3431387Y373532D01*
X3441242Y384048D01*
X3449726Y395681D01*
X3456686Y408330D01*
X3461969Y421741D01*
X3465576Y435711D01*
X3467354Y449986D01*
X3467354Y464413D01*
X3465576Y478688D01*
X3461969Y492658D01*
X3456686Y506069D01*
X3449726Y518718D01*
X3441242Y530352D01*
X3431387Y540867D01*
X3420262Y550062D01*
X3408121Y557784D01*
X3395065Y563930D01*
X3381349Y568401D01*
X3367176Y571093D01*
X3352800Y572008D01*
X3338423Y571093D01*
X3324250Y568401D01*
X3310534Y563930D01*
X3297478Y557784D01*
X3285337Y550062D01*
X3274212Y540867D01*
X3264357Y530352D01*
X3255873Y518718D01*
X3248914Y506069D01*
X3243630Y492658D01*
X3240024Y478688D01*
X3238246Y464413D01*
X3238246Y449986D01*
X3240024Y435711D01*
X3243630Y421741D01*
X3248914Y408330D01*
X3255873Y395681D01*
X3264357Y384048D01*
X3274212Y373532D01*
X3285337Y364337D01*
X3297478Y356616D01*
X3310534Y350469D01*
X3324250Y345998D01*
X3338423Y343306D01*
G37*
G36*
X3860800Y342392D02*
G01*
X3875176Y343306D01*
X3889349Y345998D01*
X3903065Y350469D01*
X3916121Y356616D01*
X3928262Y364337D01*
X3939387Y373532D01*
X3949242Y384048D01*
X3957726Y395681D01*
X3964686Y408330D01*
X3969969Y421741D01*
X3973576Y435711D01*
X3975354Y449986D01*
X3975354Y464413D01*
X3973576Y478688D01*
X3969969Y492658D01*
X3964686Y506069D01*
X3957726Y518718D01*
X3949242Y530352D01*
X3939387Y540867D01*
X3928262Y550062D01*
X3916121Y557784D01*
X3903065Y563930D01*
X3889349Y568401D01*
X3875176Y571093D01*
X3860800Y572008D01*
X3846423Y571093D01*
X3832250Y568401D01*
X3818534Y563930D01*
X3805478Y557784D01*
X3793337Y550062D01*
X3782212Y540867D01*
X3772357Y530352D01*
X3763873Y518718D01*
X3756914Y506069D01*
X3751630Y492658D01*
X3748024Y478688D01*
X3746246Y464413D01*
X3746246Y449986D01*
X3748024Y435711D01*
X3751630Y421741D01*
X3756914Y408330D01*
X3763873Y395681D01*
X3772357Y384048D01*
X3782212Y373532D01*
X3793337Y364337D01*
X3805478Y356616D01*
X3818534Y350469D01*
X3832250Y345998D01*
X3846423Y343306D01*
G37*
G36*
X3098800Y342392D02*
G01*
X3113176Y343306D01*
X3127349Y345998D01*
X3141065Y350469D01*
X3154121Y356616D01*
X3166262Y364337D01*
X3177387Y373532D01*
X3187242Y384048D01*
X3195726Y395681D01*
X3202686Y408330D01*
X3207969Y421741D01*
X3211576Y435711D01*
X3213354Y449986D01*
X3213354Y464413D01*
X3211576Y478688D01*
X3207969Y492658D01*
X3202686Y506069D01*
X3195726Y518718D01*
X3187242Y530352D01*
X3177387Y540867D01*
X3166262Y550062D01*
X3154121Y557784D01*
X3141065Y563930D01*
X3127349Y568401D01*
X3113176Y571093D01*
X3098800Y572008D01*
X3084423Y571093D01*
X3070250Y568401D01*
X3056534Y563930D01*
X3043478Y557784D01*
X3031337Y550062D01*
X3020212Y540867D01*
X3010357Y530352D01*
X3001873Y518718D01*
X2994914Y506069D01*
X2989630Y492658D01*
X2986024Y478688D01*
X2984246Y464413D01*
X2984246Y449986D01*
X2986024Y435711D01*
X2989630Y421741D01*
X2994914Y408330D01*
X3001873Y395681D01*
X3010357Y384048D01*
X3020212Y373532D01*
X3031337Y364337D01*
X3043478Y356616D01*
X3056534Y350469D01*
X3070250Y345998D01*
X3084423Y343306D01*
G37*
G36*
X4368800Y342392D02*
G01*
X4383176Y343306D01*
X4397349Y345998D01*
X4411065Y350469D01*
X4424121Y356616D01*
X4436262Y364337D01*
X4447387Y373532D01*
X4457242Y384048D01*
X4465726Y395681D01*
X4472686Y408330D01*
X4477969Y421741D01*
X4481576Y435711D01*
X4483354Y449986D01*
X4483354Y464413D01*
X4481576Y478688D01*
X4477969Y492658D01*
X4472686Y506069D01*
X4465726Y518718D01*
X4457242Y530352D01*
X4447387Y540867D01*
X4436262Y550062D01*
X4424121Y557784D01*
X4411065Y563930D01*
X4397349Y568401D01*
X4383176Y571093D01*
X4368800Y572008D01*
X4354423Y571093D01*
X4340250Y568401D01*
X4326534Y563930D01*
X4313478Y557784D01*
X4301337Y550062D01*
X4290212Y540867D01*
X4280357Y530352D01*
X4271873Y518718D01*
X4264914Y506069D01*
X4259630Y492658D01*
X4256024Y478688D01*
X4254246Y464413D01*
X4254246Y449986D01*
X4256024Y435711D01*
X4259630Y421741D01*
X4264914Y408330D01*
X4271873Y395681D01*
X4280357Y384048D01*
X4290212Y373532D01*
X4301337Y364337D01*
X4313478Y356616D01*
X4326534Y350469D01*
X4340250Y345998D01*
X4354423Y343306D01*
G37*
G36*
X2590800Y342392D02*
G01*
X2605176Y343306D01*
X2619349Y345998D01*
X2633065Y350469D01*
X2646121Y356616D01*
X2658262Y364337D01*
X2669387Y373532D01*
X2679242Y384048D01*
X2687726Y395681D01*
X2694686Y408330D01*
X2699969Y421741D01*
X2703576Y435711D01*
X2705354Y449986D01*
X2705354Y464413D01*
X2703576Y478688D01*
X2699969Y492658D01*
X2694686Y506069D01*
X2687726Y518718D01*
X2679242Y530352D01*
X2669387Y540867D01*
X2658262Y550062D01*
X2646121Y557784D01*
X2633065Y563930D01*
X2619349Y568401D01*
X2605176Y571093D01*
X2590800Y572008D01*
X2576423Y571093D01*
X2562250Y568401D01*
X2548534Y563930D01*
X2535478Y557784D01*
X2523337Y550062D01*
X2512212Y540867D01*
X2502357Y530352D01*
X2493873Y518718D01*
X2486914Y506069D01*
X2481630Y492658D01*
X2478024Y478688D01*
X2476246Y464413D01*
X2476246Y449986D01*
X2478024Y435711D01*
X2481630Y421741D01*
X2486914Y408330D01*
X2493873Y395681D01*
X2502357Y384048D01*
X2512212Y373532D01*
X2523337Y364337D01*
X2535478Y356616D01*
X2548534Y350469D01*
X2562250Y345998D01*
X2576423Y343306D01*
G37*
G36*
X2248458Y342392D02*
G01*
X2425141Y342392D01*
X2431440Y343103D01*
X2436926Y345033D01*
X2441803Y348081D01*
X2445918Y352196D01*
X2448966Y357073D01*
X2450896Y362559D01*
X2451608Y368858D01*
X2451608Y545541D01*
X2450896Y551840D01*
X2448966Y557326D01*
X2445918Y562203D01*
X2441803Y566318D01*
X2436926Y569366D01*
X2431440Y571296D01*
X2425141Y572008D01*
X2248458Y572008D01*
X2242159Y571296D01*
X2236673Y569366D01*
X2231796Y566318D01*
X2227681Y562203D01*
X2224633Y557326D01*
X2222703Y551840D01*
X2221992Y545541D01*
X2221992Y368858D01*
X2222703Y362559D01*
X2224633Y357073D01*
X2227681Y352196D01*
X2231796Y348081D01*
X2236673Y345033D01*
X2242159Y343103D01*
G37*
G36*
X4622800Y342392D02*
G01*
X4637176Y343306D01*
X4651349Y345998D01*
X4665065Y350469D01*
X4678121Y356616D01*
X4690262Y364337D01*
X4701387Y373532D01*
X4711242Y384048D01*
X4719726Y395681D01*
X4726686Y408330D01*
X4731969Y421741D01*
X4735576Y435711D01*
X4737354Y449986D01*
X4737354Y464413D01*
X4735576Y478688D01*
X4733086Y488391D01*
X4732782Y491896D01*
X4733696Y495249D01*
X4735728Y498144D01*
X4920335Y682701D01*
X4923586Y684936D01*
X4927498Y685698D01*
X6324396Y685698D01*
X6329019Y685901D01*
X6333439Y686460D01*
X6337757Y687425D01*
X6342024Y688746D01*
X6346088Y690473D01*
X6350050Y692505D01*
X6353810Y694893D01*
X6357315Y697585D01*
X6360769Y700735D01*
X6970064Y1310030D01*
X6973214Y1313484D01*
X6975906Y1316990D01*
X6978294Y1320749D01*
X6980326Y1324711D01*
X6982053Y1328775D01*
X6983374Y1333042D01*
X6984339Y1337360D01*
X6984898Y1341780D01*
X6985101Y1346403D01*
X6985101Y2425801D01*
X6985863Y2429713D01*
X6988098Y2432964D01*
X7219035Y2663901D01*
X7222286Y2666136D01*
X7226198Y2666898D01*
X9435896Y2666898D01*
X9440519Y2667101D01*
X9444939Y2667660D01*
X9449257Y2668625D01*
X9453524Y2669946D01*
X9457588Y2671673D01*
X9461550Y2673705D01*
X9465310Y2676093D01*
X9468815Y2678785D01*
X9472269Y2681935D01*
X9725964Y2935630D01*
X9729114Y2939084D01*
X9731806Y2942590D01*
X9734194Y2946349D01*
X9736226Y2950311D01*
X9737953Y2954375D01*
X9739274Y2958642D01*
X9740239Y2962960D01*
X9740798Y2967380D01*
X9741001Y2972003D01*
X9741001Y3187801D01*
X9741763Y3191713D01*
X9743998Y3194964D01*
X9788601Y3239617D01*
X9791395Y3241598D01*
X9794646Y3242513D01*
X9798050Y3242310D01*
X9801199Y3241040D01*
X9805873Y3238093D01*
X9811359Y3236163D01*
X9817658Y3235452D01*
X10019741Y3235452D01*
X10026040Y3236163D01*
X10031526Y3238093D01*
X10036403Y3241141D01*
X10040518Y3245256D01*
X10043566Y3250133D01*
X10045496Y3255619D01*
X10046208Y3261918D01*
X10046208Y3464001D01*
X10045496Y3470300D01*
X10043566Y3475786D01*
X10040518Y3480663D01*
X10036403Y3484778D01*
X10031526Y3487826D01*
X10026040Y3489756D01*
X10019741Y3490468D01*
X9979761Y3490468D01*
X9975900Y3491229D01*
X9972598Y3493465D01*
X9970363Y3496716D01*
X9969601Y3500628D01*
X9969601Y3734511D01*
X9970363Y3738422D01*
X9972598Y3741674D01*
X9975900Y3743909D01*
X9982301Y3746550D01*
X9996678Y3754475D01*
X10010089Y3764026D01*
X10022332Y3774948D01*
X10033254Y3787190D01*
X10042804Y3800601D01*
X10050729Y3814978D01*
X10057028Y3830167D01*
X10061549Y3845966D01*
X10064343Y3862171D01*
X10065258Y3878579D01*
X10064343Y3894988D01*
X10061549Y3911193D01*
X10057028Y3926992D01*
X10050729Y3942181D01*
X10042804Y3956558D01*
X10033254Y3969969D01*
X10022332Y3982212D01*
X10010089Y3993134D01*
X9996678Y4002684D01*
X9982301Y4010609D01*
X9967112Y4016908D01*
X9951313Y4021429D01*
X9935108Y4024223D01*
X9918700Y4025137D01*
X9902291Y4024223D01*
X9886086Y4021429D01*
X9870287Y4016908D01*
X9855098Y4010609D01*
X9840722Y4002684D01*
X9827310Y3993134D01*
X9815068Y3982212D01*
X9804146Y3969969D01*
X9794595Y3956558D01*
X9786670Y3942181D01*
X9784029Y3935780D01*
X9781794Y3932478D01*
X9778542Y3930243D01*
X9774631Y3929481D01*
X9697618Y3929481D01*
X9693706Y3930243D01*
X9690455Y3932478D01*
X9489998Y4132935D01*
X9487763Y4136186D01*
X9487001Y4140098D01*
X9487001Y4724196D01*
X9486798Y4728819D01*
X9486239Y4733239D01*
X9485274Y4737557D01*
X9483953Y4741824D01*
X9482226Y4745888D01*
X9480194Y4749850D01*
X9477806Y4753610D01*
X9475114Y4757115D01*
X9471964Y4760569D01*
X9230969Y5001564D01*
X9227515Y5004714D01*
X9224010Y5007406D01*
X9220250Y5009794D01*
X9216288Y5011826D01*
X9212224Y5013553D01*
X9207957Y5014874D01*
X9203639Y5015839D01*
X9199219Y5016398D01*
X9194596Y5016601D01*
X2928823Y5016601D01*
X2924200Y5016398D01*
X2919780Y5015839D01*
X2915462Y5014874D01*
X2911195Y5013553D01*
X2907131Y5011826D01*
X2903169Y5009794D01*
X2899410Y5007406D01*
X2895904Y5004714D01*
X2892450Y5001564D01*
X2707335Y4816398D01*
X2704033Y4814214D01*
X2700121Y4813401D01*
X2609545Y4813401D01*
X2603195Y4812690D01*
X2597759Y4810810D01*
X2592832Y4807712D01*
X2588768Y4803648D01*
X2585669Y4798720D01*
X2583789Y4793284D01*
X2583027Y4786934D01*
X2583027Y4646625D01*
X2583789Y4640275D01*
X2585669Y4634839D01*
X2588768Y4629912D01*
X2592832Y4625848D01*
X2597759Y4622749D01*
X2603195Y4620869D01*
X2609545Y4620107D01*
X2749854Y4620107D01*
X2756204Y4620869D01*
X2761640Y4622749D01*
X2766568Y4625848D01*
X2770632Y4629912D01*
X2773730Y4634839D01*
X2775610Y4640275D01*
X2776372Y4646625D01*
X2776372Y4737201D01*
X2777134Y4741113D01*
X2779318Y4744415D01*
X2819704Y4784801D01*
X2823006Y4786985D01*
X2826918Y4787747D01*
X2830779Y4786985D01*
X2834081Y4784801D01*
X2836265Y4781499D01*
X2837027Y4777587D01*
X2837027Y4646625D01*
X2837789Y4640275D01*
X2839669Y4634839D01*
X2842768Y4629912D01*
X2846832Y4625848D01*
X2851759Y4622749D01*
X2857195Y4620869D01*
X2863545Y4620107D01*
X3003854Y4620107D01*
X3010204Y4620869D01*
X3015640Y4622749D01*
X3020568Y4625848D01*
X3024632Y4629912D01*
X3027730Y4634839D01*
X3029610Y4640275D01*
X3030372Y4646625D01*
X3030372Y4786934D01*
X3029610Y4793284D01*
X3027730Y4798720D01*
X3024632Y4803648D01*
X3020568Y4807712D01*
X3015640Y4810810D01*
X3010204Y4812690D01*
X3003854Y4813401D01*
X2872892Y4813401D01*
X2868980Y4814214D01*
X2865678Y4816398D01*
X2863494Y4819700D01*
X2862732Y4823561D01*
X2863494Y4827473D01*
X2865678Y4830775D01*
X2946755Y4911801D01*
X2950006Y4914036D01*
X2953918Y4914798D01*
X7847380Y4914798D01*
X7851749Y4913782D01*
X7855305Y4910988D01*
X7857236Y4906924D01*
X7857286Y4902454D01*
X7855356Y4898390D01*
X7851851Y4895545D01*
X7830362Y4884877D01*
X7808264Y4871720D01*
X7787182Y4856937D01*
X7767370Y4840528D01*
X7748828Y4822698D01*
X7731709Y4803495D01*
X7716113Y4783023D01*
X7702092Y4761433D01*
X7689799Y4738827D01*
X7679283Y4715357D01*
X7670596Y4691126D01*
X7663789Y4666335D01*
X7658862Y4641037D01*
X7655915Y4615484D01*
X7654950Y4589780D01*
X7655915Y4564075D01*
X7658862Y4538522D01*
X7663789Y4513224D01*
X7670596Y4488434D01*
X7679283Y4464202D01*
X7689799Y4440732D01*
X7702092Y4418126D01*
X7716113Y4396536D01*
X7731709Y4376064D01*
X7748828Y4356862D01*
X7767370Y4339031D01*
X7787182Y4322622D01*
X7808264Y4307840D01*
X7830362Y4294682D01*
X7853425Y4283252D01*
X7877302Y4273651D01*
X7901838Y4265879D01*
X7926882Y4260037D01*
X7952333Y4256074D01*
X7977987Y4254093D01*
X8003692Y4254093D01*
X8029346Y4256074D01*
X8054797Y4260037D01*
X8079841Y4265879D01*
X8104378Y4273651D01*
X8128253Y4283252D01*
X8151317Y4294682D01*
X8173415Y4307840D01*
X8194497Y4322622D01*
X8214309Y4339031D01*
X8232851Y4356862D01*
X8249970Y4376064D01*
X8265566Y4396536D01*
X8279587Y4418126D01*
X8291880Y4440732D01*
X8302396Y4464202D01*
X8311083Y4488434D01*
X8317890Y4513224D01*
X8322818Y4538522D01*
X8325764Y4564075D01*
X8326729Y4589780D01*
X8325764Y4615484D01*
X8322818Y4641037D01*
X8317890Y4666335D01*
X8311083Y4691126D01*
X8302396Y4715357D01*
X8291880Y4738827D01*
X8279587Y4761433D01*
X8265566Y4783023D01*
X8249970Y4803495D01*
X8232851Y4822698D01*
X8214309Y4840528D01*
X8194497Y4856937D01*
X8173415Y4871720D01*
X8151317Y4884877D01*
X8129828Y4895545D01*
X8126323Y4898390D01*
X8124393Y4902454D01*
X8124444Y4906924D01*
X8126374Y4910988D01*
X8129930Y4913782D01*
X8134299Y4914798D01*
X9169501Y4914798D01*
X9173413Y4914036D01*
X9176664Y4911801D01*
X9382201Y4706264D01*
X9384436Y4703013D01*
X9385198Y4699101D01*
X9385198Y4115003D01*
X9385401Y4110380D01*
X9385960Y4105960D01*
X9386925Y4101642D01*
X9388246Y4097375D01*
X9389973Y4093311D01*
X9392005Y4089349D01*
X9394393Y4085590D01*
X9397085Y4082084D01*
X9400235Y4078630D01*
X9636150Y3842715D01*
X9639604Y3839565D01*
X9643110Y3836873D01*
X9646869Y3834485D01*
X9650831Y3832453D01*
X9654895Y3830726D01*
X9659162Y3829405D01*
X9663480Y3828440D01*
X9667900Y3827881D01*
X9672523Y3827678D01*
X9774631Y3827678D01*
X9778542Y3826916D01*
X9781794Y3824681D01*
X9784029Y3821379D01*
X9786670Y3814978D01*
X9794595Y3800601D01*
X9804146Y3787190D01*
X9815068Y3774948D01*
X9827310Y3764026D01*
X9840722Y3754475D01*
X9855098Y3746550D01*
X9861499Y3743909D01*
X9864801Y3741674D01*
X9867036Y3738422D01*
X9867798Y3734511D01*
X9867798Y3500628D01*
X9867036Y3496716D01*
X9864801Y3493465D01*
X9861499Y3491229D01*
X9857638Y3490468D01*
X9817658Y3490468D01*
X9811359Y3489756D01*
X9805873Y3487826D01*
X9800996Y3484778D01*
X9796881Y3480663D01*
X9793833Y3475786D01*
X9791903Y3470300D01*
X9791192Y3464001D01*
X9791192Y3390392D01*
X9790430Y3386531D01*
X9788194Y3383229D01*
X9654235Y3249269D01*
X9651085Y3245815D01*
X9648393Y3242310D01*
X9646005Y3238550D01*
X9643973Y3234588D01*
X9642246Y3230524D01*
X9640925Y3226257D01*
X9639960Y3221939D01*
X9639401Y3217519D01*
X9639198Y3212896D01*
X9639198Y2997098D01*
X9638436Y2993186D01*
X9636201Y2989935D01*
X9417964Y2771698D01*
X9414713Y2769463D01*
X9410801Y2768701D01*
X7201103Y2768701D01*
X7196480Y2768498D01*
X7192060Y2767939D01*
X7187742Y2766974D01*
X7183475Y2765653D01*
X7179411Y2763926D01*
X7175449Y2761894D01*
X7171690Y2759506D01*
X7168184Y2756814D01*
X7164730Y2753664D01*
X6898335Y2487269D01*
X6895185Y2483815D01*
X6892493Y2480310D01*
X6890105Y2476550D01*
X6888073Y2472588D01*
X6886346Y2468524D01*
X6885025Y2464257D01*
X6884060Y2459939D01*
X6883501Y2455519D01*
X6883298Y2450896D01*
X6883298Y1371498D01*
X6882536Y1367586D01*
X6880301Y1364335D01*
X6306464Y790498D01*
X6303213Y788263D01*
X6299301Y787501D01*
X4902403Y787501D01*
X4897780Y787298D01*
X4893360Y786739D01*
X4889042Y785774D01*
X4884775Y784453D01*
X4880711Y782726D01*
X4876749Y780694D01*
X4872990Y778306D01*
X4869484Y775614D01*
X4866030Y772464D01*
X4663795Y570179D01*
X4660747Y568096D01*
X4657140Y567232D01*
X4653432Y567690D01*
X4651349Y568401D01*
X4637176Y571093D01*
X4622800Y572008D01*
X4608423Y571093D01*
X4594250Y568401D01*
X4580534Y563930D01*
X4567478Y557784D01*
X4555337Y550062D01*
X4544212Y540867D01*
X4534357Y530352D01*
X4525873Y518718D01*
X4518914Y506069D01*
X4513630Y492658D01*
X4510024Y478688D01*
X4508246Y464413D01*
X4508246Y449986D01*
X4510024Y435711D01*
X4513630Y421741D01*
X4518914Y408330D01*
X4525873Y395681D01*
X4534357Y384048D01*
X4544212Y373532D01*
X4555337Y364337D01*
X4567478Y356616D01*
X4580534Y350469D01*
X4594250Y345998D01*
X4608423Y343306D01*
G37*
G36*
X8382000Y427024D02*
G01*
X8396528Y427939D01*
X8410803Y430631D01*
X8424672Y435152D01*
X8437829Y441350D01*
X8450122Y449122D01*
X8461349Y458419D01*
X8471306Y469036D01*
X8479840Y480822D01*
X8486851Y493572D01*
X8492236Y507085D01*
X8495842Y521157D01*
X8497671Y535635D01*
X8497671Y550164D01*
X8495842Y564591D01*
X8492236Y578713D01*
X8486851Y592226D01*
X8479840Y604977D01*
X8471306Y616762D01*
X8461349Y627380D01*
X8450122Y636625D01*
X8437829Y644448D01*
X8424672Y650646D01*
X8410803Y655116D01*
X8396528Y657860D01*
X8382000Y658774D01*
X8367471Y657860D01*
X8353196Y655116D01*
X8339328Y650646D01*
X8326170Y644448D01*
X8313877Y636625D01*
X8302650Y627380D01*
X8292693Y616762D01*
X8284159Y604977D01*
X8277148Y592226D01*
X8271764Y578713D01*
X8268157Y564591D01*
X8266328Y550164D01*
X8266328Y535635D01*
X8268157Y521157D01*
X8271764Y507085D01*
X8277148Y493572D01*
X8284159Y480822D01*
X8292693Y469036D01*
X8302650Y458419D01*
X8313877Y449122D01*
X8326170Y441350D01*
X8339328Y435152D01*
X8353196Y430631D01*
X8367471Y427939D01*
G37*
G36*
X7435545Y4620107D02*
G01*
X7575854Y4620107D01*
X7582204Y4620869D01*
X7587640Y4622749D01*
X7592568Y4625848D01*
X7596631Y4629912D01*
X7599730Y4634839D01*
X7601610Y4640275D01*
X7602372Y4646625D01*
X7602372Y4786934D01*
X7601610Y4793284D01*
X7599730Y4798720D01*
X7596631Y4803648D01*
X7592568Y4807712D01*
X7587640Y4810810D01*
X7582204Y4812690D01*
X7575854Y4813401D01*
X7435545Y4813401D01*
X7429195Y4812690D01*
X7423759Y4810810D01*
X7418831Y4807712D01*
X7414768Y4803648D01*
X7411669Y4798720D01*
X7409789Y4793284D01*
X7409078Y4786934D01*
X7409078Y4646625D01*
X7409789Y4640275D01*
X7411669Y4634839D01*
X7414768Y4629912D01*
X7418831Y4625848D01*
X7423759Y4622749D01*
X7429195Y4620869D01*
G37*
G36*
X7098792Y684174D02*
G01*
X7277608Y684174D01*
X7283958Y684885D01*
X7289393Y686816D01*
X7294321Y689914D01*
X7298385Y693978D01*
X7301484Y698906D01*
X7303414Y704342D01*
X7304125Y710692D01*
X7304125Y889508D01*
X7303414Y895858D01*
X7301484Y901293D01*
X7298385Y906221D01*
X7294321Y910285D01*
X7289393Y913384D01*
X7283958Y915314D01*
X7277608Y916025D01*
X7098792Y916025D01*
X7092442Y915314D01*
X7087006Y913384D01*
X7082078Y910285D01*
X7078014Y906221D01*
X7074916Y901293D01*
X7072985Y895858D01*
X7072274Y889508D01*
X7072274Y710692D01*
X7072985Y704342D01*
X7074916Y698906D01*
X7078014Y693978D01*
X7082078Y689914D01*
X7087006Y686816D01*
X7092442Y684885D01*
G37*
G36*
X8826500Y793496D02*
G01*
X8843416Y794410D01*
X8860078Y797255D01*
X8876334Y801928D01*
X8891981Y808431D01*
X8906764Y816610D01*
X8920581Y826414D01*
X8933180Y837692D01*
X8944457Y850290D01*
X8954262Y864108D01*
X8962440Y878890D01*
X8968943Y894537D01*
X8973616Y910793D01*
X8976461Y927455D01*
X8977376Y944371D01*
X8976461Y961288D01*
X8973616Y977950D01*
X8968943Y994206D01*
X8962440Y1009853D01*
X8954262Y1024636D01*
X8944457Y1038453D01*
X8933180Y1051052D01*
X8920581Y1062329D01*
X8906764Y1072134D01*
X8891981Y1080312D01*
X8876334Y1086815D01*
X8860078Y1091488D01*
X8843416Y1094333D01*
X8826500Y1095248D01*
X8809583Y1094333D01*
X8792921Y1091488D01*
X8776665Y1086815D01*
X8761018Y1080312D01*
X8746236Y1072134D01*
X8732418Y1062329D01*
X8719820Y1051052D01*
X8708542Y1038453D01*
X8698738Y1024636D01*
X8690559Y1009853D01*
X8684056Y994206D01*
X8679383Y977950D01*
X8676538Y961288D01*
X8675624Y944371D01*
X8676538Y927455D01*
X8679383Y910793D01*
X8684056Y894537D01*
X8690559Y878890D01*
X8698738Y864108D01*
X8708542Y850290D01*
X8719820Y837692D01*
X8732418Y826414D01*
X8746236Y816610D01*
X8761018Y808431D01*
X8776665Y801928D01*
X8792921Y797255D01*
X8809583Y794410D01*
G37*
G36*
X5649518Y938174D02*
G01*
X5805881Y938174D01*
X5812180Y938885D01*
X5817666Y940816D01*
X5822543Y943914D01*
X5826658Y947978D01*
X5829706Y952906D01*
X5831636Y958342D01*
X5832348Y964692D01*
X5832348Y1082548D01*
X5833110Y1086408D01*
X5835345Y1089710D01*
X5860846Y1115263D01*
X5864250Y1117498D01*
X5868212Y1118260D01*
X5872124Y1117396D01*
X5875426Y1115060D01*
X5877560Y1111656D01*
X5878220Y1107694D01*
X5877255Y1103782D01*
X5873953Y1096772D01*
X5869432Y1082903D01*
X5866739Y1068628D01*
X5865825Y1054100D01*
X5866739Y1039571D01*
X5869432Y1025296D01*
X5873953Y1011428D01*
X5880150Y998270D01*
X5887923Y985977D01*
X5897219Y974750D01*
X5907836Y964793D01*
X5919622Y956259D01*
X5932373Y949248D01*
X5945886Y943864D01*
X5960008Y940257D01*
X5974435Y938428D01*
X5988964Y938428D01*
X6003391Y940257D01*
X6017514Y943864D01*
X6031026Y949248D01*
X6043777Y956259D01*
X6055563Y964793D01*
X6066180Y974750D01*
X6075476Y985977D01*
X6083249Y998270D01*
X6089446Y1011428D01*
X6093968Y1025296D01*
X6096660Y1039571D01*
X6097574Y1054100D01*
X6096660Y1068628D01*
X6093968Y1082903D01*
X6089446Y1096772D01*
X6083249Y1109929D01*
X6075476Y1122222D01*
X6066180Y1133449D01*
X6055563Y1143406D01*
X6043777Y1151940D01*
X6031026Y1158951D01*
X6017514Y1164336D01*
X6003391Y1167942D01*
X5988964Y1169771D01*
X5974435Y1169771D01*
X5960008Y1167942D01*
X5945886Y1164336D01*
X5931966Y1158798D01*
X5928055Y1158087D01*
X5924194Y1158900D01*
X5920943Y1161135D01*
X5918809Y1164437D01*
X5918047Y1168298D01*
X5918809Y1172159D01*
X5921044Y1175410D01*
X6271564Y1525930D01*
X6274714Y1529384D01*
X6277406Y1532890D01*
X6279794Y1536649D01*
X6281826Y1540611D01*
X6283553Y1544675D01*
X6284874Y1548942D01*
X6285839Y1553260D01*
X6286398Y1557680D01*
X6286601Y1562303D01*
X6286601Y1693418D01*
X6287262Y1696923D01*
X6289090Y1700022D01*
X6291884Y1702307D01*
X6297777Y1705559D01*
X6309563Y1714093D01*
X6320180Y1724050D01*
X6329476Y1735277D01*
X6337249Y1747570D01*
X6343446Y1760728D01*
X6347968Y1774596D01*
X6350660Y1788871D01*
X6351574Y1803400D01*
X6350660Y1817928D01*
X6347968Y1832203D01*
X6343446Y1846072D01*
X6337249Y1859229D01*
X6329476Y1871522D01*
X6320180Y1882749D01*
X6309563Y1892706D01*
X6297777Y1901240D01*
X6285026Y1908251D01*
X6271514Y1913636D01*
X6257391Y1917242D01*
X6242964Y1919071D01*
X6228435Y1919071D01*
X6214008Y1917242D01*
X6203594Y1914550D01*
X6200089Y1914296D01*
X6196736Y1915210D01*
X6193891Y1917242D01*
X5781598Y2329535D01*
X5779363Y2332786D01*
X5778601Y2336698D01*
X5778601Y2490114D01*
X5779363Y2494026D01*
X5781598Y2497328D01*
X5784900Y2499512D01*
X5788761Y2500274D01*
X5805881Y2500274D01*
X5812180Y2500985D01*
X5817666Y2502916D01*
X5822543Y2506014D01*
X5826658Y2510078D01*
X5829706Y2515006D01*
X5831636Y2520442D01*
X5832348Y2526792D01*
X5832348Y2644648D01*
X5833110Y2648508D01*
X5835345Y2651810D01*
X5860846Y2677363D01*
X5864250Y2679598D01*
X5868212Y2680360D01*
X5872124Y2679496D01*
X5875426Y2677160D01*
X5877560Y2673756D01*
X5878220Y2669794D01*
X5877255Y2665882D01*
X5873953Y2658872D01*
X5869432Y2645003D01*
X5866739Y2630728D01*
X5865825Y2616200D01*
X5866739Y2601671D01*
X5869432Y2587396D01*
X5873953Y2573528D01*
X5880150Y2560370D01*
X5887923Y2548077D01*
X5897219Y2536850D01*
X5907836Y2526893D01*
X5919622Y2518359D01*
X5932373Y2511348D01*
X5945886Y2505964D01*
X5960008Y2502357D01*
X5974435Y2500528D01*
X5988964Y2500528D01*
X6003391Y2502357D01*
X6017514Y2505964D01*
X6031026Y2511348D01*
X6043777Y2518359D01*
X6055563Y2526893D01*
X6066180Y2536850D01*
X6075476Y2548077D01*
X6083249Y2560370D01*
X6089446Y2573528D01*
X6093968Y2587396D01*
X6096660Y2601671D01*
X6097574Y2616200D01*
X6096660Y2630728D01*
X6093968Y2645003D01*
X6089446Y2658872D01*
X6083249Y2672029D01*
X6075476Y2684322D01*
X6066180Y2695549D01*
X6055563Y2705506D01*
X6043777Y2714040D01*
X6031026Y2721051D01*
X6017514Y2726436D01*
X6003391Y2730042D01*
X5988964Y2731871D01*
X5974435Y2731871D01*
X5960008Y2730042D01*
X5945886Y2726436D01*
X5931966Y2720898D01*
X5928055Y2720187D01*
X5924194Y2721000D01*
X5920943Y2723235D01*
X5918809Y2726537D01*
X5918047Y2730398D01*
X5918809Y2734259D01*
X5921044Y2737510D01*
X6271564Y3088030D01*
X6274714Y3091484D01*
X6277406Y3094990D01*
X6279794Y3098749D01*
X6281826Y3102711D01*
X6283553Y3106775D01*
X6284874Y3111042D01*
X6285839Y3115360D01*
X6286398Y3119780D01*
X6286601Y3124403D01*
X6286601Y3268217D01*
X6287262Y3271723D01*
X6289090Y3274822D01*
X6291884Y3277108D01*
X6297777Y3280359D01*
X6309563Y3288893D01*
X6320180Y3298850D01*
X6329476Y3310077D01*
X6337249Y3322370D01*
X6343446Y3335528D01*
X6347968Y3349396D01*
X6350660Y3363671D01*
X6351574Y3378200D01*
X6350660Y3392728D01*
X6347968Y3407003D01*
X6343446Y3420872D01*
X6337249Y3434029D01*
X6329476Y3446322D01*
X6320180Y3457549D01*
X6309563Y3467506D01*
X6297777Y3476040D01*
X6285026Y3483051D01*
X6271514Y3488436D01*
X6257391Y3492042D01*
X6242964Y3493871D01*
X6228435Y3493871D01*
X6214008Y3492042D01*
X6199886Y3488436D01*
X6186373Y3483051D01*
X6173622Y3476040D01*
X6161836Y3467506D01*
X6151219Y3457549D01*
X6141923Y3446322D01*
X6134150Y3434029D01*
X6127953Y3420872D01*
X6123432Y3407003D01*
X6120739Y3392728D01*
X6119825Y3378200D01*
X6120739Y3363671D01*
X6123432Y3349396D01*
X6127953Y3335528D01*
X6134150Y3322370D01*
X6141923Y3310077D01*
X6151219Y3298850D01*
X6161836Y3288893D01*
X6173622Y3280359D01*
X6179515Y3277108D01*
X6182309Y3274822D01*
X6184138Y3271723D01*
X6184798Y3268217D01*
X6184798Y3149498D01*
X6184036Y3145586D01*
X6181801Y3142335D01*
X5774588Y2735072D01*
X5771286Y2732887D01*
X5767425Y2732125D01*
X5649518Y2732125D01*
X5643219Y2731414D01*
X5637733Y2729484D01*
X5632856Y2726385D01*
X5628741Y2722321D01*
X5625693Y2717393D01*
X5623763Y2711958D01*
X5623052Y2705608D01*
X5623052Y2526792D01*
X5623763Y2520442D01*
X5625693Y2515006D01*
X5628741Y2510078D01*
X5632856Y2506014D01*
X5637733Y2502916D01*
X5643219Y2500985D01*
X5649518Y2500274D01*
X5666638Y2500274D01*
X5670499Y2499512D01*
X5673801Y2497328D01*
X5676036Y2494026D01*
X5676798Y2490114D01*
X5676798Y2311603D01*
X5677001Y2306980D01*
X5677560Y2302560D01*
X5678525Y2298242D01*
X5679846Y2293975D01*
X5681573Y2289911D01*
X5683605Y2285949D01*
X5685993Y2282190D01*
X5688685Y2278684D01*
X5691835Y2275230D01*
X6042355Y1924710D01*
X6044692Y1921103D01*
X6045352Y1916836D01*
X6044133Y1912670D01*
X6041288Y1909419D01*
X6037376Y1907590D01*
X6033058Y1907590D01*
X6033058Y1854758D01*
X6085738Y1854758D01*
X6085179Y1856993D01*
X6085840Y1860956D01*
X6087973Y1864360D01*
X6091275Y1866696D01*
X6095187Y1867560D01*
X6099149Y1866798D01*
X6102553Y1864563D01*
X6121857Y1845259D01*
X6123940Y1842211D01*
X6124803Y1838604D01*
X6124346Y1834946D01*
X6123432Y1832203D01*
X6120739Y1817928D01*
X6119825Y1803400D01*
X6120739Y1788871D01*
X6123432Y1774596D01*
X6127953Y1760728D01*
X6134150Y1747570D01*
X6141923Y1735277D01*
X6151219Y1724050D01*
X6161836Y1714093D01*
X6173622Y1705559D01*
X6179515Y1702307D01*
X6182309Y1700022D01*
X6184138Y1696923D01*
X6184798Y1693418D01*
X6184798Y1587398D01*
X6184036Y1583486D01*
X6181801Y1580235D01*
X5774588Y1172972D01*
X5771286Y1170787D01*
X5767425Y1170025D01*
X5649518Y1170025D01*
X5643219Y1169314D01*
X5637733Y1167384D01*
X5632856Y1164285D01*
X5628741Y1160221D01*
X5625693Y1155293D01*
X5623763Y1149858D01*
X5623052Y1143508D01*
X5623052Y1115161D01*
X5622290Y1111300D01*
X5620054Y1107998D01*
X5616803Y1105763D01*
X5612892Y1105001D01*
X5321198Y1105001D01*
X5317286Y1105763D01*
X5314035Y1107998D01*
X4735728Y1686255D01*
X4733696Y1689150D01*
X4732782Y1692503D01*
X4733086Y1696008D01*
X4735576Y1705711D01*
X4737354Y1719986D01*
X4737354Y1734413D01*
X4735576Y1748688D01*
X4731969Y1762658D01*
X4726686Y1776069D01*
X4719726Y1788718D01*
X4711242Y1800352D01*
X4701387Y1810867D01*
X4690262Y1820062D01*
X4678426Y1827580D01*
X4675886Y1829866D01*
X4674260Y1832813D01*
X4673701Y1836166D01*
X4673701Y2412796D01*
X4673498Y2417419D01*
X4672939Y2421839D01*
X4671974Y2426157D01*
X4670653Y2430424D01*
X4668926Y2434488D01*
X4666894Y2438450D01*
X4664506Y2442210D01*
X4661814Y2445715D01*
X4658664Y2449169D01*
X4443069Y2664764D01*
X4439615Y2667914D01*
X4436110Y2670606D01*
X4432350Y2672994D01*
X4428388Y2675026D01*
X4424324Y2676753D01*
X4420057Y2678074D01*
X4415739Y2679039D01*
X4411319Y2679598D01*
X4406696Y2679801D01*
X2958998Y2679801D01*
X2955086Y2680563D01*
X2951835Y2682798D01*
X2733598Y2901035D01*
X2731363Y2904286D01*
X2730601Y2908198D01*
X2730601Y4355947D01*
X2731363Y4359859D01*
X2733598Y4363161D01*
X2736900Y4365345D01*
X2740761Y4366107D01*
X2749854Y4366107D01*
X2756204Y4366869D01*
X2761640Y4368749D01*
X2766568Y4371848D01*
X2770632Y4375912D01*
X2773730Y4380839D01*
X2775610Y4386275D01*
X2776372Y4392625D01*
X2776372Y4532934D01*
X2775610Y4539284D01*
X2773730Y4544720D01*
X2770632Y4549648D01*
X2766568Y4553712D01*
X2761640Y4556810D01*
X2756204Y4558690D01*
X2749854Y4559401D01*
X2609545Y4559401D01*
X2603195Y4558690D01*
X2597759Y4556810D01*
X2592832Y4553712D01*
X2588768Y4549648D01*
X2585669Y4544720D01*
X2583789Y4539284D01*
X2583027Y4532934D01*
X2583027Y4392625D01*
X2583789Y4386275D01*
X2585669Y4380839D01*
X2588768Y4375912D01*
X2592832Y4371848D01*
X2597759Y4368749D01*
X2603195Y4366869D01*
X2609545Y4366107D01*
X2618638Y4366107D01*
X2622499Y4365345D01*
X2625801Y4363161D01*
X2628036Y4359859D01*
X2628798Y4355947D01*
X2628798Y2883103D01*
X2629001Y2878480D01*
X2629560Y2874060D01*
X2630525Y2869742D01*
X2631846Y2865475D01*
X2633573Y2861411D01*
X2635605Y2857449D01*
X2637993Y2853690D01*
X2640685Y2850184D01*
X2643835Y2846730D01*
X2897530Y2593035D01*
X2900984Y2589885D01*
X2904490Y2587193D01*
X2908249Y2584805D01*
X2912211Y2582773D01*
X2916275Y2581046D01*
X2920542Y2579725D01*
X2924860Y2578760D01*
X2929280Y2578201D01*
X2933903Y2577998D01*
X4381601Y2577998D01*
X4385513Y2577236D01*
X4388764Y2575001D01*
X4568901Y2394864D01*
X4571136Y2391613D01*
X4571898Y2387701D01*
X4571898Y1836166D01*
X4571339Y1832813D01*
X4569714Y1829866D01*
X4567174Y1827580D01*
X4555337Y1820062D01*
X4544212Y1810867D01*
X4534357Y1800352D01*
X4525873Y1788718D01*
X4518914Y1776069D01*
X4513630Y1762658D01*
X4510024Y1748688D01*
X4508246Y1734413D01*
X4508246Y1719986D01*
X4510024Y1705711D01*
X4513630Y1691741D01*
X4518914Y1678330D01*
X4525873Y1665681D01*
X4534357Y1654048D01*
X4544212Y1643532D01*
X4555337Y1634337D01*
X4567478Y1626616D01*
X4580534Y1620469D01*
X4594250Y1615998D01*
X4608423Y1613306D01*
X4622800Y1612392D01*
X4637176Y1613306D01*
X4651349Y1615998D01*
X4653432Y1616710D01*
X4657140Y1617167D01*
X4660747Y1616303D01*
X4663795Y1614220D01*
X5259730Y1018235D01*
X5263184Y1015085D01*
X5266690Y1012393D01*
X5270449Y1010005D01*
X5274411Y1007973D01*
X5278475Y1006246D01*
X5282742Y1004925D01*
X5287060Y1003960D01*
X5291480Y1003401D01*
X5296103Y1003198D01*
X5612892Y1003198D01*
X5616803Y1002436D01*
X5620054Y1000201D01*
X5622290Y996899D01*
X5623052Y993038D01*
X5623052Y964692D01*
X5623763Y958342D01*
X5625693Y952906D01*
X5628741Y947978D01*
X5632856Y943914D01*
X5637733Y940816D01*
X5643219Y938885D01*
G37*
G36*
X7180935Y938428D02*
G01*
X7195464Y938428D01*
X7209891Y940257D01*
X7224014Y943864D01*
X7237526Y949248D01*
X7250277Y956259D01*
X7262063Y964793D01*
X7272680Y974750D01*
X7281976Y985977D01*
X7289749Y998270D01*
X7295946Y1011428D01*
X7300468Y1025296D01*
X7303160Y1039571D01*
X7304074Y1054100D01*
X7303160Y1068628D01*
X7300468Y1082903D01*
X7295946Y1096772D01*
X7289749Y1109929D01*
X7281976Y1122222D01*
X7272680Y1133449D01*
X7262063Y1143406D01*
X7250277Y1151940D01*
X7237526Y1158951D01*
X7224014Y1164336D01*
X7209891Y1167942D01*
X7195464Y1169771D01*
X7180935Y1169771D01*
X7166508Y1167942D01*
X7152386Y1164336D01*
X7138873Y1158951D01*
X7126122Y1151940D01*
X7114336Y1143406D01*
X7103719Y1133449D01*
X7094423Y1122222D01*
X7086650Y1109929D01*
X7080453Y1096772D01*
X7075931Y1082903D01*
X7073239Y1068628D01*
X7072325Y1054100D01*
X7073239Y1039571D01*
X7075931Y1025296D01*
X7080453Y1011428D01*
X7086650Y998270D01*
X7094423Y985977D01*
X7103719Y974750D01*
X7114336Y964793D01*
X7126122Y956259D01*
X7138873Y949248D01*
X7152386Y943864D01*
X7166508Y940257D01*
G37*
G36*
X6228435Y938428D02*
G01*
X6242964Y938428D01*
X6257391Y940257D01*
X6271514Y943864D01*
X6285026Y949248D01*
X6297777Y956259D01*
X6309563Y964793D01*
X6320180Y974750D01*
X6329476Y985977D01*
X6337249Y998270D01*
X6343446Y1011428D01*
X6347968Y1025296D01*
X6350660Y1039571D01*
X6351574Y1054100D01*
X6350660Y1068628D01*
X6347968Y1082903D01*
X6343446Y1096772D01*
X6337249Y1109929D01*
X6329476Y1122222D01*
X6320180Y1133449D01*
X6309563Y1143406D01*
X6297777Y1151940D01*
X6285026Y1158951D01*
X6271514Y1164336D01*
X6257391Y1167942D01*
X6242964Y1169771D01*
X6228435Y1169771D01*
X6214008Y1167942D01*
X6199886Y1164336D01*
X6186373Y1158951D01*
X6173622Y1151940D01*
X6161836Y1143406D01*
X6151219Y1133449D01*
X6141923Y1122222D01*
X6134150Y1109929D01*
X6127953Y1096772D01*
X6123432Y1082903D01*
X6120739Y1068628D01*
X6119825Y1054100D01*
X6120739Y1039571D01*
X6123432Y1025296D01*
X6127953Y1011428D01*
X6134150Y998270D01*
X6141923Y985977D01*
X6151219Y974750D01*
X6161836Y964793D01*
X6173622Y956259D01*
X6186373Y949248D01*
X6199886Y943864D01*
X6214008Y940257D01*
G37*
G36*
X3117545Y4620107D02*
G01*
X3257854Y4620107D01*
X3264204Y4620869D01*
X3269640Y4622749D01*
X3274567Y4625848D01*
X3278632Y4629912D01*
X3281730Y4634839D01*
X3283610Y4640275D01*
X3284372Y4646625D01*
X3284372Y4786934D01*
X3283610Y4793284D01*
X3281730Y4798720D01*
X3278632Y4803648D01*
X3274567Y4807712D01*
X3269640Y4810810D01*
X3264204Y4812690D01*
X3257854Y4813401D01*
X3117545Y4813401D01*
X3111195Y4812690D01*
X3105759Y4810810D01*
X3100832Y4807712D01*
X3096768Y4803648D01*
X3093669Y4798720D01*
X3091789Y4793284D01*
X3091027Y4786934D01*
X3091027Y4646625D01*
X3091789Y4640275D01*
X3093669Y4634839D01*
X3096768Y4629912D01*
X3100832Y4625848D01*
X3105759Y4622749D01*
X3111195Y4620869D01*
G37*
G36*
X7480300Y997762D02*
G01*
X7490104Y998626D01*
X7499553Y1001166D01*
X7508494Y1005281D01*
X7516520Y1010919D01*
X7523480Y1017879D01*
X7529118Y1025906D01*
X7533233Y1034846D01*
X7535773Y1044295D01*
X7536637Y1054100D01*
X7535773Y1063904D01*
X7533233Y1073353D01*
X7532166Y1075690D01*
X7531201Y1080008D01*
X7531201Y1396492D01*
X7532166Y1400810D01*
X7533233Y1403146D01*
X7535773Y1412595D01*
X7536637Y1422400D01*
X7535773Y1432204D01*
X7533233Y1441653D01*
X7529118Y1450594D01*
X7523480Y1458620D01*
X7516520Y1465580D01*
X7508494Y1471218D01*
X7499553Y1475333D01*
X7490104Y1477873D01*
X7480300Y1478737D01*
X7470495Y1477873D01*
X7461046Y1475333D01*
X7452106Y1471218D01*
X7444079Y1465580D01*
X7437120Y1458620D01*
X7431481Y1450594D01*
X7427366Y1441653D01*
X7424826Y1432204D01*
X7423962Y1422400D01*
X7424826Y1412595D01*
X7427366Y1403146D01*
X7428433Y1400810D01*
X7429398Y1396492D01*
X7429398Y1080008D01*
X7428433Y1075690D01*
X7427366Y1073353D01*
X7424826Y1063904D01*
X7423962Y1054100D01*
X7424826Y1044295D01*
X7427366Y1034846D01*
X7431481Y1025906D01*
X7437120Y1017879D01*
X7444079Y1010919D01*
X7452106Y1005281D01*
X7461046Y1001166D01*
X7470495Y998626D01*
G37*
G36*
X3879545Y4620107D02*
G01*
X4019854Y4620107D01*
X4026204Y4620869D01*
X4031640Y4622749D01*
X4036568Y4625848D01*
X4040632Y4629912D01*
X4043730Y4634839D01*
X4045610Y4640275D01*
X4046372Y4646625D01*
X4046372Y4786934D01*
X4045610Y4793284D01*
X4043730Y4798720D01*
X4040632Y4803648D01*
X4036568Y4807712D01*
X4031640Y4810810D01*
X4026204Y4812690D01*
X4019854Y4813401D01*
X3879545Y4813401D01*
X3873195Y4812690D01*
X3867759Y4810810D01*
X3862832Y4807712D01*
X3858768Y4803648D01*
X3855669Y4798720D01*
X3853789Y4793284D01*
X3853027Y4786934D01*
X3853027Y4646625D01*
X3853789Y4640275D01*
X3855669Y4634839D01*
X3858768Y4629912D01*
X3862832Y4625848D01*
X3867759Y4622749D01*
X3873195Y4620869D01*
G37*
G36*
X7181545Y4620107D02*
G01*
X7321854Y4620107D01*
X7328204Y4620869D01*
X7333640Y4622749D01*
X7338568Y4625848D01*
X7342631Y4629912D01*
X7345730Y4634839D01*
X7347610Y4640275D01*
X7348372Y4646625D01*
X7348372Y4786934D01*
X7347610Y4793284D01*
X7345730Y4798720D01*
X7342631Y4803648D01*
X7338568Y4807712D01*
X7333640Y4810810D01*
X7328204Y4812690D01*
X7321854Y4813401D01*
X7181545Y4813401D01*
X7175195Y4812690D01*
X7169759Y4810810D01*
X7164831Y4807712D01*
X7160768Y4803648D01*
X7157669Y4798720D01*
X7155789Y4793284D01*
X7155078Y4786934D01*
X7155078Y4646625D01*
X7155789Y4640275D01*
X7157669Y4634839D01*
X7160768Y4629912D01*
X7164831Y4625848D01*
X7169759Y4622749D01*
X7175195Y4620869D01*
G37*
G36*
X7180935Y1192428D02*
G01*
X7195464Y1192428D01*
X7209891Y1194257D01*
X7224014Y1197864D01*
X7237526Y1203248D01*
X7250277Y1210259D01*
X7262063Y1218793D01*
X7272680Y1228750D01*
X7281976Y1239977D01*
X7289749Y1252270D01*
X7295946Y1265428D01*
X7300468Y1279296D01*
X7303160Y1293571D01*
X7304074Y1308100D01*
X7303160Y1322628D01*
X7300468Y1336903D01*
X7295946Y1350772D01*
X7289749Y1363929D01*
X7281976Y1376222D01*
X7272680Y1387449D01*
X7262063Y1397406D01*
X7250277Y1405940D01*
X7237526Y1412951D01*
X7224014Y1418336D01*
X7209891Y1421942D01*
X7195464Y1423771D01*
X7180935Y1423771D01*
X7166508Y1421942D01*
X7152386Y1418336D01*
X7138873Y1412951D01*
X7126122Y1405940D01*
X7114336Y1397406D01*
X7103719Y1387449D01*
X7094423Y1376222D01*
X7086650Y1363929D01*
X7080453Y1350772D01*
X7075931Y1336903D01*
X7073239Y1322628D01*
X7072325Y1308100D01*
X7073239Y1293571D01*
X7075931Y1279296D01*
X7080453Y1265428D01*
X7086650Y1252270D01*
X7094423Y1239977D01*
X7103719Y1228750D01*
X7114336Y1218793D01*
X7126122Y1210259D01*
X7138873Y1203248D01*
X7152386Y1197864D01*
X7166508Y1194257D01*
G37*
G36*
X10096500Y1293622D02*
G01*
X10113416Y1294536D01*
X10130078Y1297381D01*
X10146334Y1302054D01*
X10161981Y1308557D01*
X10176764Y1316736D01*
X10190581Y1326540D01*
X10203180Y1337818D01*
X10214457Y1350416D01*
X10224262Y1364234D01*
X10232440Y1379016D01*
X10238943Y1394663D01*
X10243616Y1410919D01*
X10246461Y1427581D01*
X10247376Y1444498D01*
X10246461Y1461414D01*
X10243616Y1478076D01*
X10238943Y1494332D01*
X10232440Y1509979D01*
X10224262Y1524762D01*
X10214457Y1538579D01*
X10203180Y1551178D01*
X10190581Y1562455D01*
X10176764Y1572260D01*
X10161981Y1580438D01*
X10146334Y1586941D01*
X10130078Y1591614D01*
X10113416Y1594459D01*
X10096500Y1595374D01*
X10079583Y1594459D01*
X10062921Y1591614D01*
X10046665Y1586941D01*
X10031018Y1580438D01*
X10016236Y1572260D01*
X10002418Y1562455D01*
X9989820Y1551178D01*
X9978542Y1538579D01*
X9968738Y1524762D01*
X9960559Y1509979D01*
X9954056Y1494332D01*
X9949383Y1478076D01*
X9946538Y1461414D01*
X9945624Y1444498D01*
X9946538Y1427581D01*
X9949383Y1410919D01*
X9954056Y1394663D01*
X9960559Y1379016D01*
X9968738Y1364234D01*
X9978542Y1350416D01*
X9989820Y1337818D01*
X10002418Y1326540D01*
X10016236Y1316736D01*
X10031018Y1308557D01*
X10046665Y1302054D01*
X10062921Y1297381D01*
X10079583Y1294536D01*
G37*
G36*
X9076436Y1293622D02*
G01*
X9093352Y1294536D01*
X9110014Y1297381D01*
X9126270Y1302054D01*
X9141917Y1308557D01*
X9156700Y1316736D01*
X9170517Y1326540D01*
X9183116Y1337818D01*
X9194393Y1350416D01*
X9204198Y1364234D01*
X9212376Y1379016D01*
X9218879Y1394663D01*
X9223552Y1410919D01*
X9226397Y1427581D01*
X9227312Y1444498D01*
X9226397Y1461414D01*
X9223552Y1478076D01*
X9218879Y1494332D01*
X9212376Y1509979D01*
X9204198Y1524762D01*
X9194393Y1538579D01*
X9183116Y1551178D01*
X9170517Y1562455D01*
X9156700Y1572260D01*
X9141917Y1580438D01*
X9126270Y1586941D01*
X9110014Y1591614D01*
X9093352Y1594459D01*
X9076436Y1595374D01*
X9059519Y1594459D01*
X9042857Y1591614D01*
X9026601Y1586941D01*
X9010954Y1580438D01*
X8996172Y1572260D01*
X8982354Y1562455D01*
X8969756Y1551178D01*
X8958478Y1538579D01*
X8948674Y1524762D01*
X8940495Y1509979D01*
X8933992Y1494332D01*
X8929319Y1478076D01*
X8926474Y1461414D01*
X8925560Y1444498D01*
X8926474Y1427581D01*
X8929319Y1410919D01*
X8933992Y1394663D01*
X8940495Y1379016D01*
X8948674Y1364234D01*
X8958478Y1350416D01*
X8969756Y1337818D01*
X8982354Y1326540D01*
X8996172Y1316736D01*
X9010954Y1308557D01*
X9026601Y1302054D01*
X9042857Y1297381D01*
X9059519Y1294536D01*
G37*
G36*
X8382000Y1297025D02*
G01*
X8396528Y1297940D01*
X8410803Y1300683D01*
X8424672Y1305153D01*
X8437829Y1311351D01*
X8450122Y1319174D01*
X8461349Y1328420D01*
X8471306Y1339037D01*
X8479840Y1350822D01*
X8486851Y1363573D01*
X8492236Y1377086D01*
X8495842Y1391208D01*
X8497671Y1405636D01*
X8497671Y1420164D01*
X8495842Y1434642D01*
X8492236Y1448714D01*
X8486851Y1462227D01*
X8479840Y1474978D01*
X8471306Y1486763D01*
X8461349Y1497380D01*
X8450122Y1506677D01*
X8437829Y1514449D01*
X8424672Y1520647D01*
X8410803Y1525168D01*
X8396528Y1527860D01*
X8382000Y1528775D01*
X8367471Y1527860D01*
X8353196Y1525168D01*
X8339328Y1520647D01*
X8326170Y1514449D01*
X8313877Y1506677D01*
X8302650Y1497380D01*
X8292693Y1486763D01*
X8284159Y1474978D01*
X8277148Y1462227D01*
X8271764Y1448714D01*
X8268157Y1434642D01*
X8266328Y1420164D01*
X8266328Y1405636D01*
X8268157Y1391208D01*
X8271764Y1377086D01*
X8277148Y1363573D01*
X8284159Y1350822D01*
X8292693Y1339037D01*
X8302650Y1328420D01*
X8313877Y1319174D01*
X8326170Y1311351D01*
X8339328Y1305153D01*
X8353196Y1300683D01*
X8367471Y1297940D01*
G37*
G36*
X9652000Y1366062D02*
G01*
X9661804Y1366926D01*
X9671253Y1369466D01*
X9680194Y1373581D01*
X9688220Y1379220D01*
X9695180Y1386179D01*
X9700818Y1394206D01*
X9704933Y1403146D01*
X9707473Y1412595D01*
X9708337Y1422400D01*
X9707473Y1432204D01*
X9704933Y1441653D01*
X9700818Y1450594D01*
X9695180Y1458620D01*
X9688220Y1465580D01*
X9680194Y1471218D01*
X9672472Y1474774D01*
X9669576Y1476806D01*
X9388906Y1757476D01*
X9386874Y1760372D01*
X9383318Y1768093D01*
X9377680Y1776120D01*
X9370720Y1783080D01*
X9362694Y1788718D01*
X9353753Y1792833D01*
X9344304Y1795373D01*
X9334500Y1796237D01*
X9324695Y1795373D01*
X9315246Y1792833D01*
X9306306Y1788718D01*
X9298279Y1783080D01*
X9291320Y1776120D01*
X9285681Y1768093D01*
X9281566Y1759153D01*
X9279026Y1749704D01*
X9278162Y1739900D01*
X9279026Y1730095D01*
X9281566Y1720646D01*
X9285681Y1711706D01*
X9291320Y1703679D01*
X9298279Y1696720D01*
X9306306Y1691081D01*
X9314027Y1687525D01*
X9316923Y1685493D01*
X9597593Y1404823D01*
X9599625Y1401927D01*
X9603181Y1394206D01*
X9608820Y1386179D01*
X9615779Y1379220D01*
X9623806Y1373581D01*
X9632746Y1369466D01*
X9642195Y1366926D01*
G37*
G36*
X2844800Y1612392D02*
G01*
X2859176Y1613306D01*
X2873349Y1615998D01*
X2887065Y1620469D01*
X2900121Y1626616D01*
X2912262Y1634337D01*
X2923387Y1643532D01*
X2933242Y1654048D01*
X2941726Y1665681D01*
X2948686Y1678330D01*
X2953969Y1691741D01*
X2957576Y1705711D01*
X2959354Y1719986D01*
X2959354Y1734413D01*
X2957576Y1748688D01*
X2953969Y1762658D01*
X2948686Y1776069D01*
X2941726Y1788718D01*
X2933242Y1800352D01*
X2923387Y1810867D01*
X2912262Y1820062D01*
X2900121Y1827784D01*
X2887065Y1833930D01*
X2873349Y1838401D01*
X2859176Y1841093D01*
X2844800Y1842007D01*
X2830423Y1841093D01*
X2816250Y1838401D01*
X2802534Y1833930D01*
X2789478Y1827784D01*
X2777337Y1820062D01*
X2766212Y1810867D01*
X2756357Y1800352D01*
X2747873Y1788718D01*
X2740914Y1776069D01*
X2735630Y1762658D01*
X2732024Y1748688D01*
X2730246Y1734413D01*
X2730246Y1719986D01*
X2732024Y1705711D01*
X2735630Y1691741D01*
X2740914Y1678330D01*
X2747873Y1665681D01*
X2756357Y1654048D01*
X2766212Y1643532D01*
X2777337Y1634337D01*
X2789478Y1626616D01*
X2802534Y1620469D01*
X2816250Y1615998D01*
X2830423Y1613306D01*
G37*
G36*
X3606800Y1612392D02*
G01*
X3621176Y1613306D01*
X3635349Y1615998D01*
X3649065Y1620469D01*
X3662121Y1626616D01*
X3674262Y1634337D01*
X3685387Y1643532D01*
X3695242Y1654048D01*
X3703726Y1665681D01*
X3710686Y1678330D01*
X3715969Y1691741D01*
X3719576Y1705711D01*
X3721354Y1719986D01*
X3721354Y1734413D01*
X3719576Y1748688D01*
X3715969Y1762658D01*
X3710686Y1776069D01*
X3703726Y1788718D01*
X3695242Y1800352D01*
X3685387Y1810867D01*
X3674262Y1820062D01*
X3662121Y1827784D01*
X3649065Y1833930D01*
X3635349Y1838401D01*
X3621176Y1841093D01*
X3606800Y1842007D01*
X3592423Y1841093D01*
X3578250Y1838401D01*
X3564534Y1833930D01*
X3551478Y1827784D01*
X3539337Y1820062D01*
X3528212Y1810867D01*
X3518357Y1800352D01*
X3509873Y1788718D01*
X3502914Y1776069D01*
X3497630Y1762658D01*
X3494024Y1748688D01*
X3492246Y1734413D01*
X3492246Y1719986D01*
X3494024Y1705711D01*
X3497630Y1691741D01*
X3502914Y1678330D01*
X3509873Y1665681D01*
X3518357Y1654048D01*
X3528212Y1643532D01*
X3539337Y1634337D01*
X3551478Y1626616D01*
X3564534Y1620469D01*
X3578250Y1615998D01*
X3592423Y1613306D01*
G37*
G36*
X4114800Y1612392D02*
G01*
X4129176Y1613306D01*
X4143349Y1615998D01*
X4157065Y1620469D01*
X4170121Y1626616D01*
X4182262Y1634337D01*
X4193387Y1643532D01*
X4203242Y1654048D01*
X4211726Y1665681D01*
X4218686Y1678330D01*
X4223969Y1691741D01*
X4227576Y1705711D01*
X4229354Y1719986D01*
X4229354Y1734413D01*
X4227576Y1748688D01*
X4223969Y1762658D01*
X4218686Y1776069D01*
X4211726Y1788718D01*
X4203242Y1800352D01*
X4193387Y1810867D01*
X4182262Y1820062D01*
X4170121Y1827784D01*
X4157065Y1833930D01*
X4143349Y1838401D01*
X4129176Y1841093D01*
X4114800Y1842007D01*
X4100423Y1841093D01*
X4086250Y1838401D01*
X4072534Y1833930D01*
X4059478Y1827784D01*
X4047337Y1820062D01*
X4036212Y1810867D01*
X4026357Y1800352D01*
X4017873Y1788718D01*
X4010914Y1776069D01*
X4005630Y1762658D01*
X4002024Y1748688D01*
X4000246Y1734413D01*
X4000246Y1719986D01*
X4002024Y1705711D01*
X4005630Y1691741D01*
X4010914Y1678330D01*
X4017873Y1665681D01*
X4026357Y1654048D01*
X4036212Y1643532D01*
X4047337Y1634337D01*
X4059478Y1626616D01*
X4072534Y1620469D01*
X4086250Y1615998D01*
X4100423Y1613306D01*
G37*
G36*
X3098800Y1612392D02*
G01*
X3113176Y1613306D01*
X3127349Y1615998D01*
X3141065Y1620469D01*
X3154121Y1626616D01*
X3166262Y1634337D01*
X3177387Y1643532D01*
X3187242Y1654048D01*
X3195726Y1665681D01*
X3202686Y1678330D01*
X3207969Y1691741D01*
X3211576Y1705711D01*
X3213354Y1719986D01*
X3213354Y1734413D01*
X3211576Y1748688D01*
X3207969Y1762658D01*
X3202686Y1776069D01*
X3195726Y1788718D01*
X3187242Y1800352D01*
X3177387Y1810867D01*
X3166262Y1820062D01*
X3154121Y1827784D01*
X3141065Y1833930D01*
X3127349Y1838401D01*
X3113176Y1841093D01*
X3098800Y1842007D01*
X3084423Y1841093D01*
X3070250Y1838401D01*
X3056534Y1833930D01*
X3043478Y1827784D01*
X3031337Y1820062D01*
X3020212Y1810867D01*
X3010357Y1800352D01*
X3001873Y1788718D01*
X2994914Y1776069D01*
X2989630Y1762658D01*
X2986024Y1748688D01*
X2984246Y1734413D01*
X2984246Y1719986D01*
X2986024Y1705711D01*
X2989630Y1691741D01*
X2994914Y1678330D01*
X3001873Y1665681D01*
X3010357Y1654048D01*
X3020212Y1643532D01*
X3031337Y1634337D01*
X3043478Y1626616D01*
X3056534Y1620469D01*
X3070250Y1615998D01*
X3084423Y1613306D01*
G37*
G36*
X3860800Y1612392D02*
G01*
X3875176Y1613306D01*
X3889349Y1615998D01*
X3903065Y1620469D01*
X3916121Y1626616D01*
X3928262Y1634337D01*
X3939387Y1643532D01*
X3949242Y1654048D01*
X3957726Y1665681D01*
X3964686Y1678330D01*
X3969969Y1691741D01*
X3973576Y1705711D01*
X3975354Y1719986D01*
X3975354Y1734413D01*
X3973576Y1748688D01*
X3969969Y1762658D01*
X3964686Y1776069D01*
X3957726Y1788718D01*
X3949242Y1800352D01*
X3939387Y1810867D01*
X3928262Y1820062D01*
X3916121Y1827784D01*
X3903065Y1833930D01*
X3889349Y1838401D01*
X3875176Y1841093D01*
X3860800Y1842007D01*
X3846423Y1841093D01*
X3832250Y1838401D01*
X3818534Y1833930D01*
X3805478Y1827784D01*
X3793337Y1820062D01*
X3782212Y1810867D01*
X3772357Y1800352D01*
X3763873Y1788718D01*
X3756914Y1776069D01*
X3751630Y1762658D01*
X3748024Y1748688D01*
X3746246Y1734413D01*
X3746246Y1719986D01*
X3748024Y1705711D01*
X3751630Y1691741D01*
X3756914Y1678330D01*
X3763873Y1665681D01*
X3772357Y1654048D01*
X3782212Y1643532D01*
X3793337Y1634337D01*
X3805478Y1626616D01*
X3818534Y1620469D01*
X3832250Y1615998D01*
X3846423Y1613306D01*
G37*
G36*
X4368800Y1612392D02*
G01*
X4383176Y1613306D01*
X4397349Y1615998D01*
X4411065Y1620469D01*
X4424121Y1626616D01*
X4436262Y1634337D01*
X4447387Y1643532D01*
X4457242Y1654048D01*
X4465726Y1665681D01*
X4472686Y1678330D01*
X4477969Y1691741D01*
X4481576Y1705711D01*
X4483354Y1719986D01*
X4483354Y1734413D01*
X4481576Y1748688D01*
X4477969Y1762658D01*
X4472686Y1776069D01*
X4465726Y1788718D01*
X4457242Y1800352D01*
X4447387Y1810867D01*
X4436262Y1820062D01*
X4424121Y1827784D01*
X4411065Y1833930D01*
X4397349Y1838401D01*
X4383176Y1841093D01*
X4368800Y1842007D01*
X4354423Y1841093D01*
X4340250Y1838401D01*
X4326534Y1833930D01*
X4313478Y1827784D01*
X4301337Y1820062D01*
X4290212Y1810867D01*
X4280357Y1800352D01*
X4271873Y1788718D01*
X4264914Y1776069D01*
X4259630Y1762658D01*
X4256024Y1748688D01*
X4254246Y1734413D01*
X4254246Y1719986D01*
X4256024Y1705711D01*
X4259630Y1691741D01*
X4264914Y1678330D01*
X4271873Y1665681D01*
X4280357Y1654048D01*
X4290212Y1643532D01*
X4301337Y1634337D01*
X4313478Y1626616D01*
X4326534Y1620469D01*
X4340250Y1615998D01*
X4354423Y1613306D01*
G37*
G36*
X2336800Y1612392D02*
G01*
X2351176Y1613306D01*
X2365349Y1615998D01*
X2379065Y1620469D01*
X2392121Y1626616D01*
X2404262Y1634337D01*
X2415387Y1643532D01*
X2425242Y1654048D01*
X2433726Y1665681D01*
X2440686Y1678330D01*
X2445969Y1691741D01*
X2449576Y1705711D01*
X2451354Y1719986D01*
X2451354Y1734413D01*
X2449576Y1748688D01*
X2445969Y1762658D01*
X2440686Y1776069D01*
X2433726Y1788718D01*
X2425242Y1800352D01*
X2415387Y1810867D01*
X2404262Y1820062D01*
X2392121Y1827784D01*
X2379065Y1833930D01*
X2365349Y1838401D01*
X2351176Y1841093D01*
X2336800Y1842007D01*
X2322423Y1841093D01*
X2308250Y1838401D01*
X2294534Y1833930D01*
X2281478Y1827784D01*
X2269337Y1820062D01*
X2258212Y1810867D01*
X2248357Y1800352D01*
X2239873Y1788718D01*
X2232914Y1776069D01*
X2227630Y1762658D01*
X2224024Y1748688D01*
X2222246Y1734413D01*
X2222246Y1719986D01*
X2224024Y1705711D01*
X2227630Y1691741D01*
X2232914Y1678330D01*
X2239873Y1665681D01*
X2248357Y1654048D01*
X2258212Y1643532D01*
X2269337Y1634337D01*
X2281478Y1626616D01*
X2294534Y1620469D01*
X2308250Y1615998D01*
X2322423Y1613306D01*
G37*
G36*
X3352800Y1612392D02*
G01*
X3367176Y1613306D01*
X3381349Y1615998D01*
X3395065Y1620469D01*
X3408121Y1626616D01*
X3420262Y1634337D01*
X3431387Y1643532D01*
X3441242Y1654048D01*
X3449726Y1665681D01*
X3456686Y1678330D01*
X3461969Y1691741D01*
X3465576Y1705711D01*
X3467354Y1719986D01*
X3467354Y1734413D01*
X3465576Y1748688D01*
X3461969Y1762658D01*
X3456686Y1776069D01*
X3449726Y1788718D01*
X3441242Y1800352D01*
X3431387Y1810867D01*
X3420262Y1820062D01*
X3408121Y1827784D01*
X3395065Y1833930D01*
X3381349Y1838401D01*
X3367176Y1841093D01*
X3352800Y1842007D01*
X3338423Y1841093D01*
X3324250Y1838401D01*
X3310534Y1833930D01*
X3297478Y1827784D01*
X3285337Y1820062D01*
X3274212Y1810867D01*
X3264357Y1800352D01*
X3255873Y1788718D01*
X3248914Y1776069D01*
X3243630Y1762658D01*
X3240024Y1748688D01*
X3238246Y1734413D01*
X3238246Y1719986D01*
X3240024Y1705711D01*
X3243630Y1691741D01*
X3248914Y1678330D01*
X3255873Y1665681D01*
X3264357Y1654048D01*
X3274212Y1643532D01*
X3285337Y1634337D01*
X3297478Y1626616D01*
X3310534Y1620469D01*
X3324250Y1615998D01*
X3338423Y1613306D01*
G37*
G36*
X2590800Y1612392D02*
G01*
X2605176Y1613306D01*
X2619349Y1615998D01*
X2633065Y1620469D01*
X2646121Y1626616D01*
X2658262Y1634337D01*
X2669387Y1643532D01*
X2679242Y1654048D01*
X2687726Y1665681D01*
X2694686Y1678330D01*
X2699969Y1691741D01*
X2703576Y1705711D01*
X2705354Y1719986D01*
X2705354Y1734413D01*
X2703576Y1748688D01*
X2699969Y1762658D01*
X2694686Y1776069D01*
X2687726Y1788718D01*
X2679242Y1800352D01*
X2669387Y1810867D01*
X2658262Y1820062D01*
X2646121Y1827784D01*
X2633065Y1833930D01*
X2619349Y1838401D01*
X2605176Y1841093D01*
X2590800Y1842007D01*
X2576423Y1841093D01*
X2562250Y1838401D01*
X2548534Y1833930D01*
X2535478Y1827784D01*
X2523337Y1820062D01*
X2512212Y1810867D01*
X2502357Y1800352D01*
X2493873Y1788718D01*
X2486914Y1776069D01*
X2481630Y1762658D01*
X2478024Y1748688D01*
X2476246Y1734413D01*
X2476246Y1719986D01*
X2478024Y1705711D01*
X2481630Y1691741D01*
X2486914Y1678330D01*
X2493873Y1665681D01*
X2502357Y1654048D01*
X2512212Y1643532D01*
X2523337Y1634337D01*
X2535478Y1626616D01*
X2548534Y1620469D01*
X2562250Y1615998D01*
X2576423Y1613306D01*
G37*
G36*
X6673545Y4620107D02*
G01*
X6813854Y4620107D01*
X6820204Y4620869D01*
X6825640Y4622749D01*
X6830568Y4625848D01*
X6834631Y4629912D01*
X6837730Y4634839D01*
X6839610Y4640275D01*
X6840372Y4646625D01*
X6840372Y4786934D01*
X6839610Y4793284D01*
X6837730Y4798720D01*
X6834631Y4803648D01*
X6830568Y4807712D01*
X6825640Y4810810D01*
X6820204Y4812690D01*
X6813854Y4813401D01*
X6673545Y4813401D01*
X6667195Y4812690D01*
X6661759Y4810810D01*
X6656831Y4807712D01*
X6652768Y4803648D01*
X6649669Y4798720D01*
X6647789Y4793284D01*
X6647078Y4786934D01*
X6647078Y4646625D01*
X6647789Y4640275D01*
X6649669Y4634839D01*
X6652768Y4629912D01*
X6656831Y4625848D01*
X6661759Y4622749D01*
X6667195Y4620869D01*
G37*
G36*
X5773420Y1687474D02*
G01*
X5805881Y1687474D01*
X5812180Y1688185D01*
X5817666Y1690116D01*
X5822543Y1693214D01*
X5826658Y1697278D01*
X5829706Y1702206D01*
X5831636Y1707642D01*
X5832348Y1713992D01*
X5832348Y1752041D01*
X5773420Y1752041D01*
G37*
G36*
X5649518Y1687474D02*
G01*
X5681980Y1687474D01*
X5681980Y1752041D01*
X5623052Y1752041D01*
X5623052Y1713992D01*
X5623763Y1707642D01*
X5625693Y1702206D01*
X5628741Y1697278D01*
X5632856Y1693214D01*
X5637733Y1690116D01*
X5643219Y1688185D01*
G37*
G36*
X5930341Y1699666D02*
G01*
X5930341Y1752041D01*
X5878017Y1752041D01*
X5880150Y1747570D01*
X5887923Y1735277D01*
X5897219Y1724050D01*
X5907836Y1714093D01*
X5919622Y1705559D01*
G37*
G36*
X6033058Y1699666D02*
G01*
X6043777Y1705559D01*
X6055563Y1714093D01*
X6066180Y1724050D01*
X6075476Y1735277D01*
X6083249Y1747570D01*
X6085382Y1752041D01*
X6033058Y1752041D01*
G37*
G36*
X5878017Y1854758D02*
G01*
X5930341Y1854758D01*
X5930341Y1907133D01*
X5919622Y1901240D01*
X5907836Y1892706D01*
X5897219Y1882749D01*
X5887923Y1871522D01*
X5880150Y1859229D01*
G37*
G36*
X5623052Y1854758D02*
G01*
X5681980Y1854758D01*
X5681980Y1919325D01*
X5649518Y1919325D01*
X5643219Y1918614D01*
X5637733Y1916684D01*
X5632856Y1913585D01*
X5628741Y1909521D01*
X5625693Y1904593D01*
X5623763Y1899157D01*
X5623052Y1892807D01*
G37*
G36*
X5773420Y1854758D02*
G01*
X5832348Y1854758D01*
X5832348Y1892807D01*
X5831636Y1899157D01*
X5829706Y1904593D01*
X5826658Y1909521D01*
X5822543Y1913585D01*
X5817666Y1916684D01*
X5812180Y1918614D01*
X5805881Y1919325D01*
X5773420Y1919325D01*
G37*
G36*
X6927545Y4620107D02*
G01*
X7067854Y4620107D01*
X7074204Y4620869D01*
X7079640Y4622749D01*
X7084568Y4625848D01*
X7088631Y4629912D01*
X7091730Y4634839D01*
X7093610Y4640275D01*
X7094372Y4646625D01*
X7094372Y4786934D01*
X7093610Y4793284D01*
X7091730Y4798720D01*
X7088631Y4803648D01*
X7084568Y4807712D01*
X7079640Y4810810D01*
X7074204Y4812690D01*
X7067854Y4813401D01*
X6927545Y4813401D01*
X6921195Y4812690D01*
X6915759Y4810810D01*
X6910831Y4807712D01*
X6906768Y4803648D01*
X6903669Y4798720D01*
X6901789Y4793284D01*
X6901078Y4786934D01*
X6901078Y4646625D01*
X6901789Y4640275D01*
X6903669Y4634839D01*
X6906768Y4629912D01*
X6910831Y4625848D01*
X6915759Y4622749D01*
X6921195Y4620869D01*
G37*
G36*
X3371545Y4620107D02*
G01*
X3511854Y4620107D01*
X3518204Y4620869D01*
X3523640Y4622749D01*
X3528568Y4625848D01*
X3532632Y4629912D01*
X3535730Y4634839D01*
X3537610Y4640275D01*
X3538372Y4646625D01*
X3538372Y4786934D01*
X3537610Y4793284D01*
X3535730Y4798720D01*
X3532632Y4803648D01*
X3528568Y4807712D01*
X3523640Y4810810D01*
X3518204Y4812690D01*
X3511854Y4813401D01*
X3371545Y4813401D01*
X3365195Y4812690D01*
X3359759Y4810810D01*
X3354832Y4807712D01*
X3350768Y4803648D01*
X3347669Y4798720D01*
X3345789Y4793284D01*
X3345027Y4786934D01*
X3345027Y4646625D01*
X3345789Y4640275D01*
X3347669Y4634839D01*
X3350768Y4629912D01*
X3354832Y4625848D01*
X3359759Y4622749D01*
X3365195Y4620869D01*
G37*
G36*
X9931400Y1970532D02*
G01*
X9946792Y1971497D01*
X9961930Y1974240D01*
X9976612Y1978812D01*
X9990632Y1985162D01*
X10003840Y1993138D01*
X10015931Y2002637D01*
X10026802Y2013508D01*
X10036302Y2025599D01*
X10044277Y2038807D01*
X10050627Y2052828D01*
X10055199Y2067509D01*
X10057942Y2082647D01*
X10058908Y2098040D01*
X10057942Y2113432D01*
X10055199Y2128570D01*
X10050627Y2143252D01*
X10044277Y2157272D01*
X10036302Y2170480D01*
X10026802Y2182571D01*
X10015931Y2193442D01*
X10003840Y2202942D01*
X9990632Y2210917D01*
X9976612Y2217267D01*
X9961930Y2221839D01*
X9946792Y2224582D01*
X9931400Y2225548D01*
X9916007Y2224582D01*
X9900869Y2221839D01*
X9886188Y2217267D01*
X9872167Y2210917D01*
X9858959Y2202942D01*
X9846868Y2193442D01*
X9835997Y2182571D01*
X9826498Y2170480D01*
X9818522Y2157272D01*
X9812172Y2143252D01*
X9807600Y2128570D01*
X9804857Y2113432D01*
X9803892Y2098040D01*
X9804857Y2082647D01*
X9807600Y2067509D01*
X9812172Y2052828D01*
X9818522Y2038807D01*
X9826498Y2025599D01*
X9835997Y2013508D01*
X9846868Y2002637D01*
X9858959Y1993138D01*
X9872167Y1985162D01*
X9886188Y1978812D01*
X9900869Y1974240D01*
X9916007Y1971497D01*
G37*
G36*
X9830358Y2321052D02*
G01*
X10032441Y2321052D01*
X10038740Y2321763D01*
X10044226Y2323693D01*
X10049103Y2326741D01*
X10053218Y2330856D01*
X10056266Y2335733D01*
X10058196Y2341219D01*
X10058908Y2347518D01*
X10058908Y2549601D01*
X10058196Y2555900D01*
X10056266Y2561386D01*
X10053218Y2566263D01*
X10049103Y2570378D01*
X10044226Y2573426D01*
X10038740Y2575356D01*
X10032441Y2576068D01*
X9830358Y2576068D01*
X9824059Y2575356D01*
X9818573Y2573426D01*
X9813696Y2570378D01*
X9809581Y2566263D01*
X9806533Y2561386D01*
X9804603Y2555900D01*
X9803892Y2549601D01*
X9803892Y2347518D01*
X9804603Y2341219D01*
X9806533Y2335733D01*
X9809581Y2330856D01*
X9813696Y2326741D01*
X9818573Y2323693D01*
X9824059Y2321763D01*
G37*
G36*
X6228435Y2500528D02*
G01*
X6242964Y2500528D01*
X6257391Y2502357D01*
X6271514Y2505964D01*
X6285026Y2511348D01*
X6297777Y2518359D01*
X6309563Y2526893D01*
X6320180Y2536850D01*
X6329476Y2548077D01*
X6337249Y2560370D01*
X6343446Y2573528D01*
X6347968Y2587396D01*
X6350660Y2601671D01*
X6351574Y2616200D01*
X6350660Y2630728D01*
X6347968Y2645003D01*
X6343446Y2658872D01*
X6337249Y2672029D01*
X6329476Y2684322D01*
X6320180Y2695549D01*
X6309563Y2705506D01*
X6297777Y2714040D01*
X6285026Y2721051D01*
X6271514Y2726436D01*
X6257391Y2730042D01*
X6242964Y2731871D01*
X6228435Y2731871D01*
X6214008Y2730042D01*
X6199886Y2726436D01*
X6186373Y2721051D01*
X6173622Y2714040D01*
X6161836Y2705506D01*
X6151219Y2695549D01*
X6141923Y2684322D01*
X6134150Y2672029D01*
X6127953Y2658872D01*
X6123432Y2645003D01*
X6120739Y2630728D01*
X6119825Y2616200D01*
X6120739Y2601671D01*
X6123432Y2587396D01*
X6127953Y2573528D01*
X6134150Y2560370D01*
X6141923Y2548077D01*
X6151219Y2536850D01*
X6161836Y2526893D01*
X6173622Y2518359D01*
X6186373Y2511348D01*
X6199886Y2505964D01*
X6214008Y2502357D01*
G37*
G36*
X3625545Y4620107D02*
G01*
X3765854Y4620107D01*
X3772204Y4620869D01*
X3777640Y4622749D01*
X3782568Y4625848D01*
X3786632Y4629912D01*
X3789730Y4634839D01*
X3791610Y4640275D01*
X3792372Y4646625D01*
X3792372Y4786934D01*
X3791610Y4793284D01*
X3789730Y4798720D01*
X3786632Y4803648D01*
X3782568Y4807712D01*
X3777640Y4810810D01*
X3772204Y4812690D01*
X3765854Y4813401D01*
X3625545Y4813401D01*
X3619195Y4812690D01*
X3613759Y4810810D01*
X3608832Y4807712D01*
X3604768Y4803648D01*
X3601669Y4798720D01*
X3599789Y4793284D01*
X3599027Y4786934D01*
X3599027Y4646625D01*
X3599789Y4640275D01*
X3601669Y4634839D01*
X3604768Y4629912D01*
X3608832Y4625848D01*
X3613759Y4622749D01*
X3619195Y4620869D01*
G37*
G36*
X1854758Y2542032D02*
G01*
X1898650Y2542032D01*
X1898650Y2612390D01*
X1828292Y2612390D01*
X1828292Y2568498D01*
X1829003Y2562199D01*
X1830933Y2556713D01*
X1833981Y2551836D01*
X1838096Y2547721D01*
X1842973Y2544673D01*
X1848459Y2542743D01*
G37*
G36*
X2012950Y2542032D02*
G01*
X2056841Y2542032D01*
X2063140Y2542743D01*
X2068626Y2544673D01*
X2073503Y2547721D01*
X2077618Y2551836D01*
X2080666Y2556713D01*
X2082596Y2562199D01*
X2083307Y2568498D01*
X2083307Y2612390D01*
X2012950Y2612390D01*
G37*
G36*
X4133545Y4620107D02*
G01*
X4273854Y4620107D01*
X4280204Y4620869D01*
X4285640Y4622749D01*
X4290568Y4625848D01*
X4294632Y4629912D01*
X4297730Y4634839D01*
X4299610Y4640275D01*
X4300372Y4646625D01*
X4300372Y4786934D01*
X4299610Y4793284D01*
X4297730Y4798720D01*
X4294632Y4803648D01*
X4290568Y4807712D01*
X4285640Y4810810D01*
X4280204Y4812690D01*
X4273854Y4813401D01*
X4133545Y4813401D01*
X4127195Y4812690D01*
X4121759Y4810810D01*
X4116832Y4807712D01*
X4112768Y4803648D01*
X4109669Y4798720D01*
X4107789Y4793284D01*
X4107027Y4786934D01*
X4107027Y4646625D01*
X4107789Y4640275D01*
X4109669Y4634839D01*
X4112768Y4629912D01*
X4116832Y4625848D01*
X4121759Y4622749D01*
X4127195Y4620869D01*
G37*
G36*
X1828292Y2726690D02*
G01*
X1898650Y2726690D01*
X1898650Y2797048D01*
X1854758Y2797048D01*
X1848459Y2796336D01*
X1842973Y2794406D01*
X1838096Y2791358D01*
X1833981Y2787243D01*
X1830933Y2782366D01*
X1829003Y2776880D01*
X1828292Y2770581D01*
G37*
G36*
X2012950Y2726690D02*
G01*
X2083307Y2726690D01*
X2083307Y2770581D01*
X2082596Y2776880D01*
X2080666Y2782366D01*
X2077618Y2787243D01*
X2073503Y2791358D01*
X2068626Y2794406D01*
X2063140Y2796336D01*
X2056841Y2797048D01*
X2012950Y2797048D01*
G37*
G36*
X5715000Y2826562D02*
G01*
X5724804Y2827426D01*
X5734253Y2829966D01*
X5743194Y2834081D01*
X5751220Y2839720D01*
X5758180Y2846679D01*
X5763818Y2854706D01*
X5767933Y2863646D01*
X5770473Y2873095D01*
X5771337Y2882900D01*
X5770473Y2892704D01*
X5767933Y2902153D01*
X5763818Y2911094D01*
X5758180Y2919120D01*
X5751220Y2926080D01*
X5743194Y2931718D01*
X5735472Y2935274D01*
X5732576Y2937306D01*
X5509869Y3160064D01*
X5506415Y3163214D01*
X5502910Y3165906D01*
X5499150Y3168294D01*
X5495188Y3170326D01*
X5491124Y3172053D01*
X5486857Y3173374D01*
X5482539Y3174339D01*
X5478119Y3174898D01*
X5473496Y3175101D01*
X3213608Y3175101D01*
X3209290Y3176066D01*
X3206953Y3177133D01*
X3197504Y3179673D01*
X3187700Y3180537D01*
X3177895Y3179673D01*
X3168446Y3177133D01*
X3159506Y3173018D01*
X3151479Y3167380D01*
X3144520Y3160420D01*
X3138881Y3152394D01*
X3134766Y3143453D01*
X3132226Y3134004D01*
X3131362Y3124200D01*
X3132226Y3114395D01*
X3134766Y3104946D01*
X3138881Y3096006D01*
X3144520Y3087979D01*
X3151479Y3081020D01*
X3159506Y3075381D01*
X3168446Y3071266D01*
X3177895Y3068726D01*
X3187700Y3067862D01*
X3197504Y3068726D01*
X3206953Y3071266D01*
X3209290Y3072333D01*
X3213608Y3073298D01*
X5448401Y3073298D01*
X5452313Y3072536D01*
X5455564Y3070301D01*
X5660593Y2865323D01*
X5662625Y2862427D01*
X5666181Y2854706D01*
X5671820Y2846679D01*
X5678779Y2839720D01*
X5686806Y2834081D01*
X5695746Y2829966D01*
X5705195Y2827426D01*
G37*
G36*
X6419545Y4620107D02*
G01*
X6559854Y4620107D01*
X6566204Y4620869D01*
X6571640Y4622749D01*
X6576568Y4625848D01*
X6580631Y4629912D01*
X6583730Y4634839D01*
X6585610Y4640275D01*
X6586372Y4646625D01*
X6586372Y4786934D01*
X6585610Y4793284D01*
X6583730Y4798720D01*
X6580631Y4803648D01*
X6576568Y4807712D01*
X6571640Y4810810D01*
X6566204Y4812690D01*
X6559854Y4813401D01*
X6419545Y4813401D01*
X6413195Y4812690D01*
X6407759Y4810810D01*
X6402832Y4807712D01*
X6398768Y4803648D01*
X6395669Y4798720D01*
X6393789Y4793284D01*
X6393078Y4786934D01*
X6393078Y4646625D01*
X6393789Y4640275D01*
X6395669Y4634839D01*
X6398768Y4629912D01*
X6402832Y4625848D01*
X6407759Y4622749D01*
X6413195Y4620869D01*
G37*
G36*
X1955800Y2892552D02*
G01*
X1971192Y2893517D01*
X1986330Y2896260D01*
X2001012Y2900832D01*
X2015032Y2907182D01*
X2028240Y2915158D01*
X2040331Y2924657D01*
X2051202Y2935528D01*
X2060702Y2947619D01*
X2068677Y2960827D01*
X2075027Y2974848D01*
X2079599Y2989529D01*
X2082342Y3004667D01*
X2083307Y3020060D01*
X2082342Y3035452D01*
X2079599Y3050590D01*
X2075027Y3065272D01*
X2068677Y3079292D01*
X2060702Y3092500D01*
X2051202Y3104591D01*
X2040331Y3115462D01*
X2028240Y3124962D01*
X2015032Y3132937D01*
X2001012Y3139287D01*
X1986330Y3143859D01*
X1971192Y3146602D01*
X1955800Y3147568D01*
X1940407Y3146602D01*
X1925269Y3143859D01*
X1910588Y3139287D01*
X1896567Y3132937D01*
X1883359Y3124962D01*
X1871268Y3115462D01*
X1860397Y3104591D01*
X1850898Y3092500D01*
X1842922Y3079292D01*
X1836572Y3065272D01*
X1832000Y3050590D01*
X1829257Y3035452D01*
X1828292Y3020060D01*
X1829257Y3004667D01*
X1832000Y2989529D01*
X1836572Y2974848D01*
X1842922Y2960827D01*
X1850898Y2947619D01*
X1860397Y2935528D01*
X1871268Y2924657D01*
X1883359Y2915158D01*
X1896567Y2907182D01*
X1910588Y2900832D01*
X1925269Y2896260D01*
X1940407Y2893517D01*
G37*
G36*
X8731046Y2939135D02*
G01*
X8744153Y2939135D01*
X8757208Y2940964D01*
X8769858Y2944469D01*
X8781948Y2949752D01*
X8793175Y2956560D01*
X8803386Y2964891D01*
X8812377Y2974492D01*
X8819946Y2985211D01*
X8825992Y2996895D01*
X8830411Y3009290D01*
X8833053Y3022193D01*
X8833967Y3035300D01*
X8833053Y3048406D01*
X8830411Y3061309D01*
X8825992Y3073704D01*
X8819946Y3085388D01*
X8812377Y3096107D01*
X8803386Y3105708D01*
X8793175Y3114040D01*
X8781948Y3120847D01*
X8769858Y3126079D01*
X8757208Y3129635D01*
X8744153Y3131464D01*
X8731046Y3131464D01*
X8717991Y3129635D01*
X8713012Y3129127D01*
X8709101Y3130499D01*
X8706053Y3133344D01*
X8704427Y3137103D01*
X8704427Y3141268D01*
X8706053Y3149193D01*
X8706967Y3162300D01*
X8706053Y3175406D01*
X8703411Y3188309D01*
X8698992Y3200704D01*
X8696299Y3206546D01*
X8695994Y3208934D01*
X8695994Y3247694D01*
X8657386Y3247694D01*
X8653373Y3248558D01*
X8642858Y3253079D01*
X8630208Y3256635D01*
X8617153Y3258464D01*
X8604046Y3258464D01*
X8590991Y3256635D01*
X8578342Y3253079D01*
X8566251Y3247847D01*
X8555024Y3241040D01*
X8544814Y3232708D01*
X8535822Y3223107D01*
X8528253Y3212388D01*
X8522208Y3200704D01*
X8517788Y3188309D01*
X8515146Y3175406D01*
X8514232Y3162300D01*
X8515146Y3149193D01*
X8517788Y3136290D01*
X8522208Y3123895D01*
X8528253Y3112211D01*
X8535822Y3101492D01*
X8544814Y3091891D01*
X8555024Y3083560D01*
X8566251Y3076752D01*
X8578342Y3071469D01*
X8590991Y3067964D01*
X8604046Y3066135D01*
X8617153Y3066135D01*
X8630208Y3067964D01*
X8635187Y3068472D01*
X8639098Y3067100D01*
X8642146Y3064256D01*
X8643772Y3060496D01*
X8643772Y3056331D01*
X8642146Y3048406D01*
X8641232Y3035300D01*
X8642146Y3022193D01*
X8644788Y3009290D01*
X8649208Y2996895D01*
X8655253Y2985211D01*
X8662822Y2974492D01*
X8671814Y2964891D01*
X8682024Y2956560D01*
X8693251Y2949752D01*
X8705342Y2944469D01*
X8717991Y2940964D01*
G37*
G36*
X5842000Y2953562D02*
G01*
X5851804Y2954426D01*
X5861253Y2956966D01*
X5870194Y2961081D01*
X5878220Y2966720D01*
X5885180Y2973679D01*
X5890818Y2981706D01*
X5894933Y2990646D01*
X5897473Y3000095D01*
X5898337Y3009900D01*
X5897473Y3019704D01*
X5894933Y3029153D01*
X5890818Y3038094D01*
X5885180Y3046120D01*
X5878220Y3053080D01*
X5870194Y3058718D01*
X5862472Y3062274D01*
X5859576Y3064306D01*
X5678932Y3244951D01*
X5676747Y3248202D01*
X5675985Y3252012D01*
X5676696Y3255873D01*
X5678779Y3259175D01*
X5681980Y3261410D01*
X5681980Y3326841D01*
X5623052Y3326841D01*
X5622290Y3321507D01*
X5620054Y3318205D01*
X5616803Y3315970D01*
X5612892Y3315208D01*
X5608980Y3315970D01*
X5605729Y3318205D01*
X5573369Y3350564D01*
X5569915Y3353714D01*
X5566410Y3356406D01*
X5562650Y3358794D01*
X5558688Y3360826D01*
X5554624Y3362553D01*
X5550357Y3363874D01*
X5546039Y3364839D01*
X5541619Y3365398D01*
X5536996Y3365601D01*
X3187598Y3365601D01*
X3183686Y3366363D01*
X3180435Y3368598D01*
X2987598Y3561435D01*
X2985363Y3564686D01*
X2984601Y3568598D01*
X2984601Y4355947D01*
X2985363Y4359859D01*
X2987598Y4363161D01*
X2990900Y4365345D01*
X2994761Y4366107D01*
X3003854Y4366107D01*
X3010204Y4366869D01*
X3015640Y4368749D01*
X3020568Y4371848D01*
X3024632Y4375912D01*
X3027730Y4380839D01*
X3029610Y4386275D01*
X3030372Y4392625D01*
X3030372Y4532934D01*
X3029610Y4539284D01*
X3027730Y4544720D01*
X3024632Y4549648D01*
X3020568Y4553712D01*
X3015640Y4556810D01*
X3010204Y4558690D01*
X3003854Y4559401D01*
X2863545Y4559401D01*
X2857195Y4558690D01*
X2851759Y4556810D01*
X2846832Y4553712D01*
X2842768Y4549648D01*
X2839669Y4544720D01*
X2837789Y4539284D01*
X2837027Y4532934D01*
X2837027Y4392625D01*
X2837789Y4386275D01*
X2839669Y4380839D01*
X2842768Y4375912D01*
X2846832Y4371848D01*
X2851759Y4368749D01*
X2857195Y4366869D01*
X2863545Y4366107D01*
X2872638Y4366107D01*
X2876499Y4365345D01*
X2879801Y4363161D01*
X2882036Y4359859D01*
X2882798Y4355947D01*
X2882798Y3543503D01*
X2883001Y3538880D01*
X2883560Y3534460D01*
X2884525Y3530142D01*
X2885846Y3525875D01*
X2887573Y3521811D01*
X2889605Y3517849D01*
X2891993Y3514090D01*
X2894685Y3510584D01*
X2897835Y3507130D01*
X3126130Y3278835D01*
X3129584Y3275685D01*
X3133090Y3272993D01*
X3136849Y3270605D01*
X3140811Y3268573D01*
X3144875Y3266846D01*
X3149142Y3265525D01*
X3153460Y3264560D01*
X3157880Y3264001D01*
X3162503Y3263798D01*
X5511901Y3263798D01*
X5515813Y3263036D01*
X5519064Y3260801D01*
X5787593Y2992323D01*
X5789625Y2989427D01*
X5793181Y2981706D01*
X5798820Y2973679D01*
X5805779Y2966720D01*
X5813806Y2961081D01*
X5822746Y2956966D01*
X5832195Y2954426D01*
G37*
G36*
X4387545Y4620107D02*
G01*
X4527854Y4620107D01*
X4534204Y4620869D01*
X4539640Y4622749D01*
X4544568Y4625848D01*
X4548632Y4629912D01*
X4551730Y4634839D01*
X4553610Y4640275D01*
X4554372Y4646625D01*
X4554372Y4786934D01*
X4553610Y4793284D01*
X4551730Y4798720D01*
X4548632Y4803648D01*
X4544568Y4807712D01*
X4539640Y4810810D01*
X4534204Y4812690D01*
X4527854Y4813401D01*
X4387545Y4813401D01*
X4381195Y4812690D01*
X4375759Y4810810D01*
X4370832Y4807712D01*
X4366768Y4803648D01*
X4363669Y4798720D01*
X4361789Y4793284D01*
X4361027Y4786934D01*
X4361027Y4646625D01*
X4361789Y4640275D01*
X4363669Y4634839D01*
X4366768Y4629912D01*
X4370832Y4625848D01*
X4375759Y4622749D01*
X4381195Y4620869D01*
G37*
G36*
X6165545Y4620107D02*
G01*
X6305854Y4620107D01*
X6312204Y4620869D01*
X6317640Y4622749D01*
X6322568Y4625848D01*
X6326632Y4629912D01*
X6329730Y4634839D01*
X6331610Y4640275D01*
X6332372Y4646625D01*
X6332372Y4786934D01*
X6331610Y4793284D01*
X6329730Y4798720D01*
X6326632Y4803648D01*
X6322568Y4807712D01*
X6317640Y4810810D01*
X6312204Y4812690D01*
X6305854Y4813401D01*
X6165545Y4813401D01*
X6159195Y4812690D01*
X6153759Y4810810D01*
X6148832Y4807712D01*
X6144768Y4803648D01*
X6141669Y4798720D01*
X6139789Y4793284D01*
X6139078Y4786934D01*
X6139078Y4646625D01*
X6139789Y4640275D01*
X6141669Y4634839D01*
X6144768Y4629912D01*
X6148832Y4625848D01*
X6153759Y4622749D01*
X6159195Y4620869D01*
G37*
G36*
X4641545Y4620107D02*
G01*
X4781854Y4620107D01*
X4788204Y4620869D01*
X4793640Y4622749D01*
X4798568Y4625848D01*
X4802632Y4629912D01*
X4805730Y4634839D01*
X4807610Y4640275D01*
X4808372Y4646625D01*
X4808372Y4786934D01*
X4807610Y4793284D01*
X4805730Y4798720D01*
X4802632Y4803648D01*
X4798568Y4807712D01*
X4793640Y4810810D01*
X4788204Y4812690D01*
X4781854Y4813401D01*
X4641545Y4813401D01*
X4635195Y4812690D01*
X4629759Y4810810D01*
X4624832Y4807712D01*
X4620768Y4803648D01*
X4617669Y4798720D01*
X4615789Y4793284D01*
X4615078Y4786934D01*
X4615078Y4646625D01*
X4615789Y4640275D01*
X4617669Y4634839D01*
X4620768Y4629912D01*
X4624832Y4625848D01*
X4629759Y4622749D01*
X4635195Y4620869D01*
G37*
G36*
X8779205Y3202533D02*
G01*
X8781948Y3203752D01*
X8793175Y3210560D01*
X8803386Y3218891D01*
X8812377Y3228492D01*
X8819946Y3239211D01*
X8824315Y3247694D01*
X8779205Y3247694D01*
G37*
G36*
X5911545Y4620107D02*
G01*
X6051854Y4620107D01*
X6058204Y4620869D01*
X6063640Y4622749D01*
X6068568Y4625848D01*
X6072632Y4629912D01*
X6075730Y4634839D01*
X6077610Y4640275D01*
X6078372Y4646625D01*
X6078372Y4786934D01*
X6077610Y4793284D01*
X6075730Y4798720D01*
X6072632Y4803648D01*
X6068568Y4807712D01*
X6063640Y4810810D01*
X6058204Y4812690D01*
X6051854Y4813401D01*
X5911545Y4813401D01*
X5905195Y4812690D01*
X5899759Y4810810D01*
X5894832Y4807712D01*
X5890768Y4803648D01*
X5887669Y4798720D01*
X5885789Y4793284D01*
X5885078Y4786934D01*
X5885078Y4646625D01*
X5885789Y4640275D01*
X5887669Y4634839D01*
X5890768Y4629912D01*
X5894832Y4625848D01*
X5899759Y4622749D01*
X5905195Y4620869D01*
G37*
G36*
X5773420Y3262274D02*
G01*
X5805881Y3262274D01*
X5812180Y3262985D01*
X5817666Y3264915D01*
X5822543Y3268014D01*
X5826658Y3272078D01*
X5829706Y3277006D01*
X5831636Y3282442D01*
X5832348Y3288792D01*
X5832348Y3326841D01*
X5773420Y3326841D01*
G37*
G36*
X5930341Y3274466D02*
G01*
X5930341Y3326841D01*
X5878017Y3326841D01*
X5880150Y3322370D01*
X5887923Y3310077D01*
X5897219Y3298850D01*
X5907836Y3288893D01*
X5919622Y3280359D01*
G37*
G36*
X6033058Y3274466D02*
G01*
X6043777Y3280359D01*
X6055563Y3288893D01*
X6066180Y3298850D01*
X6075476Y3310077D01*
X6083249Y3322370D01*
X6085382Y3326841D01*
X6033058Y3326841D01*
G37*
G36*
X4895545Y4620107D02*
G01*
X5035854Y4620107D01*
X5042204Y4620869D01*
X5047640Y4622749D01*
X5052568Y4625848D01*
X5056632Y4629912D01*
X5059730Y4634839D01*
X5061610Y4640275D01*
X5062372Y4646625D01*
X5062372Y4786934D01*
X5061610Y4793284D01*
X5059730Y4798720D01*
X5056632Y4803648D01*
X5052568Y4807712D01*
X5047640Y4810810D01*
X5042204Y4812690D01*
X5035854Y4813401D01*
X4895545Y4813401D01*
X4889195Y4812690D01*
X4883759Y4810810D01*
X4878832Y4807712D01*
X4874768Y4803648D01*
X4871669Y4798720D01*
X4869789Y4793284D01*
X4869078Y4786934D01*
X4869078Y4646625D01*
X4869789Y4640275D01*
X4871669Y4634839D01*
X4874768Y4629912D01*
X4878832Y4625848D01*
X4883759Y4622749D01*
X4889195Y4620869D01*
G37*
G36*
X1854758Y3316732D02*
G01*
X1898650Y3316732D01*
X1898650Y3387090D01*
X1828292Y3387090D01*
X1828292Y3343198D01*
X1829003Y3336899D01*
X1830933Y3331413D01*
X1833981Y3326536D01*
X1838096Y3322421D01*
X1842973Y3319373D01*
X1848459Y3317443D01*
G37*
G36*
X2012950Y3316732D02*
G01*
X2056841Y3316732D01*
X2063140Y3317443D01*
X2068626Y3319373D01*
X2073503Y3322421D01*
X2077618Y3326536D01*
X2080666Y3331413D01*
X2082596Y3336899D01*
X2083307Y3343198D01*
X2083307Y3387090D01*
X2012950Y3387090D01*
G37*
G36*
X8779205Y3330905D02*
G01*
X8824315Y3330905D01*
X8819946Y3339388D01*
X8812377Y3350107D01*
X8803386Y3359708D01*
X8793175Y3368040D01*
X8781948Y3374847D01*
X8779205Y3376066D01*
G37*
G36*
X8650884Y3330905D02*
G01*
X8695994Y3330905D01*
X8695994Y3376066D01*
X8693251Y3374847D01*
X8682024Y3368040D01*
X8671814Y3359708D01*
X8662822Y3350107D01*
X8655253Y3339388D01*
G37*
G36*
X6033058Y3429558D02*
G01*
X6085382Y3429558D01*
X6083249Y3434029D01*
X6075476Y3446322D01*
X6066180Y3457549D01*
X6055563Y3467506D01*
X6043777Y3476040D01*
X6033058Y3481933D01*
G37*
G36*
X5878017Y3429558D02*
G01*
X5930341Y3429558D01*
X5930341Y3481933D01*
X5919622Y3476040D01*
X5907836Y3467506D01*
X5897219Y3457549D01*
X5887923Y3446322D01*
X5880150Y3434029D01*
G37*
G36*
X5623052Y3429558D02*
G01*
X5681980Y3429558D01*
X5681980Y3494125D01*
X5649518Y3494125D01*
X5643219Y3493414D01*
X5637733Y3491484D01*
X5632856Y3488385D01*
X5628741Y3484321D01*
X5625693Y3479393D01*
X5623763Y3473958D01*
X5623052Y3467608D01*
G37*
G36*
X5773420Y3429558D02*
G01*
X5832348Y3429558D01*
X5832348Y3467608D01*
X5831636Y3473958D01*
X5829706Y3479393D01*
X5826658Y3484321D01*
X5822543Y3488385D01*
X5817666Y3491484D01*
X5812180Y3493414D01*
X5805881Y3494125D01*
X5773420Y3494125D01*
G37*
G36*
X1828292Y3501390D02*
G01*
X1898650Y3501390D01*
X1898650Y3571748D01*
X1854758Y3571748D01*
X1848459Y3571036D01*
X1842973Y3569106D01*
X1838096Y3566058D01*
X1833981Y3561943D01*
X1830933Y3557066D01*
X1829003Y3551580D01*
X1828292Y3545281D01*
G37*
G36*
X2012950Y3501390D02*
G01*
X2083307Y3501390D01*
X2083307Y3545281D01*
X2082596Y3551580D01*
X2080666Y3557066D01*
X2077618Y3561943D01*
X2073503Y3566058D01*
X2068626Y3569106D01*
X2063140Y3571036D01*
X2056841Y3571748D01*
X2012950Y3571748D01*
G37*
G36*
X3187700Y3512362D02*
G01*
X3197504Y3513226D01*
X3206953Y3515766D01*
X3215894Y3519881D01*
X3223920Y3525520D01*
X3230880Y3532479D01*
X3236518Y3540506D01*
X3240633Y3549446D01*
X3243173Y3558895D01*
X3244037Y3568700D01*
X3243173Y3578504D01*
X3240633Y3587953D01*
X3239566Y3590290D01*
X3238601Y3594608D01*
X3238601Y4355947D01*
X3239363Y4359859D01*
X3241598Y4363161D01*
X3244900Y4365345D01*
X3248761Y4366107D01*
X3257854Y4366107D01*
X3264204Y4366869D01*
X3269640Y4368749D01*
X3274567Y4371848D01*
X3278632Y4375912D01*
X3281730Y4380839D01*
X3283610Y4386275D01*
X3284372Y4392625D01*
X3284372Y4532934D01*
X3283610Y4539284D01*
X3281730Y4544720D01*
X3278632Y4549648D01*
X3274567Y4553712D01*
X3269640Y4556810D01*
X3264204Y4558690D01*
X3257854Y4559401D01*
X3117545Y4559401D01*
X3111195Y4558690D01*
X3105759Y4556810D01*
X3100832Y4553712D01*
X3096768Y4549648D01*
X3093669Y4544720D01*
X3091789Y4539284D01*
X3091027Y4532934D01*
X3091027Y4392625D01*
X3091789Y4386275D01*
X3093669Y4380839D01*
X3096768Y4375912D01*
X3100832Y4371848D01*
X3105759Y4368749D01*
X3111195Y4366869D01*
X3117545Y4366107D01*
X3126638Y4366107D01*
X3130499Y4365345D01*
X3133801Y4363161D01*
X3136036Y4359859D01*
X3136798Y4355947D01*
X3136798Y3594608D01*
X3135833Y3590290D01*
X3134766Y3587953D01*
X3132226Y3578504D01*
X3131362Y3568700D01*
X3132226Y3558895D01*
X3134766Y3549446D01*
X3138881Y3540506D01*
X3144520Y3532479D01*
X3151479Y3525520D01*
X3159506Y3519881D01*
X3168446Y3515766D01*
X3177895Y3513226D01*
G37*
G36*
X1955800Y3667251D02*
G01*
X1971192Y3668217D01*
X1986330Y3670960D01*
X2001012Y3675532D01*
X2015032Y3681882D01*
X2028240Y3689858D01*
X2040331Y3699357D01*
X2051202Y3710228D01*
X2060702Y3722319D01*
X2068677Y3735527D01*
X2075027Y3749548D01*
X2079599Y3764229D01*
X2082342Y3779367D01*
X2083307Y3794760D01*
X2082342Y3810152D01*
X2079599Y3825290D01*
X2075027Y3839972D01*
X2068677Y3853992D01*
X2060702Y3867200D01*
X2051202Y3879291D01*
X2040331Y3890162D01*
X2028240Y3899662D01*
X2015032Y3907637D01*
X2001012Y3913987D01*
X1986330Y3918559D01*
X1971192Y3921302D01*
X1955800Y3922268D01*
X1940407Y3921302D01*
X1925269Y3918559D01*
X1910588Y3913987D01*
X1896567Y3907637D01*
X1883359Y3899662D01*
X1871268Y3890162D01*
X1860397Y3879291D01*
X1850898Y3867200D01*
X1842922Y3853992D01*
X1836572Y3839972D01*
X1832000Y3825290D01*
X1829257Y3810152D01*
X1828292Y3794760D01*
X1829257Y3779367D01*
X1832000Y3764229D01*
X1836572Y3749548D01*
X1842922Y3735527D01*
X1850898Y3722319D01*
X1860397Y3710228D01*
X1871268Y3699357D01*
X1883359Y3689858D01*
X1896567Y3681882D01*
X1910588Y3675532D01*
X1925269Y3670960D01*
X1940407Y3668217D01*
G37*
G36*
X5657545Y4620107D02*
G01*
X5797854Y4620107D01*
X5804204Y4620869D01*
X5809640Y4622749D01*
X5814568Y4625848D01*
X5818632Y4629912D01*
X5821730Y4634839D01*
X5823610Y4640275D01*
X5824372Y4646625D01*
X5824372Y4786934D01*
X5823610Y4793284D01*
X5821730Y4798720D01*
X5818632Y4803648D01*
X5814568Y4807712D01*
X5809640Y4810810D01*
X5804204Y4812690D01*
X5797854Y4813401D01*
X5657545Y4813401D01*
X5651195Y4812690D01*
X5645759Y4810810D01*
X5640832Y4807712D01*
X5636768Y4803648D01*
X5633669Y4798720D01*
X5631789Y4793284D01*
X5631078Y4786934D01*
X5631078Y4646625D01*
X5631789Y4640275D01*
X5633669Y4634839D01*
X5636768Y4629912D01*
X5640832Y4625848D01*
X5645759Y4622749D01*
X5651195Y4620869D01*
G37*
G36*
X9918700Y4082542D02*
G01*
X9935108Y4083456D01*
X9951313Y4086250D01*
X9967112Y4090771D01*
X9982301Y4097070D01*
X9996678Y4104995D01*
X10010089Y4114546D01*
X10022332Y4125468D01*
X10033254Y4137710D01*
X10042804Y4151122D01*
X10050729Y4165498D01*
X10057028Y4180687D01*
X10061549Y4196486D01*
X10064343Y4212691D01*
X10065258Y4229100D01*
X10064343Y4245508D01*
X10061549Y4261713D01*
X10057028Y4277512D01*
X10050729Y4292701D01*
X10042804Y4307078D01*
X10033254Y4320489D01*
X10022332Y4332732D01*
X10010089Y4343654D01*
X9996678Y4353204D01*
X9982301Y4361129D01*
X9967112Y4367428D01*
X9951313Y4371949D01*
X9935108Y4374743D01*
X9918700Y4375658D01*
X9902291Y4374743D01*
X9886086Y4371949D01*
X9870287Y4367428D01*
X9855098Y4361129D01*
X9840722Y4353204D01*
X9827310Y4343654D01*
X9815068Y4332732D01*
X9804146Y4320489D01*
X9794595Y4307078D01*
X9786670Y4292701D01*
X9780371Y4277512D01*
X9775850Y4261713D01*
X9773056Y4245508D01*
X9772142Y4229100D01*
X9773056Y4212691D01*
X9775850Y4196486D01*
X9780371Y4180687D01*
X9786670Y4165498D01*
X9794595Y4151122D01*
X9804146Y4137710D01*
X9815068Y4125468D01*
X9827310Y4114546D01*
X9840722Y4104995D01*
X9855098Y4097070D01*
X9870287Y4090771D01*
X9886086Y4086250D01*
X9902291Y4083456D01*
G37*
G36*
X2179167Y4254093D02*
G01*
X2204872Y4254093D01*
X2230526Y4256074D01*
X2255977Y4260037D01*
X2281021Y4265879D01*
X2305558Y4273651D01*
X2329434Y4283252D01*
X2352497Y4294682D01*
X2374595Y4307840D01*
X2395677Y4322622D01*
X2415489Y4339031D01*
X2434031Y4356862D01*
X2451150Y4376064D01*
X2466746Y4396536D01*
X2480767Y4418126D01*
X2493060Y4440732D01*
X2503576Y4464202D01*
X2512263Y4488434D01*
X2519070Y4513224D01*
X2523998Y4538522D01*
X2526944Y4564075D01*
X2527909Y4589780D01*
X2526944Y4615484D01*
X2523998Y4641037D01*
X2519070Y4666335D01*
X2512263Y4691126D01*
X2503576Y4715357D01*
X2493060Y4738827D01*
X2480767Y4761433D01*
X2466746Y4783023D01*
X2451150Y4803495D01*
X2434031Y4822698D01*
X2415489Y4840528D01*
X2395677Y4856937D01*
X2374595Y4871720D01*
X2352497Y4884877D01*
X2329434Y4896307D01*
X2305558Y4905908D01*
X2281021Y4913680D01*
X2255977Y4919522D01*
X2230526Y4923485D01*
X2204872Y4925415D01*
X2179167Y4925415D01*
X2153513Y4923485D01*
X2128062Y4919522D01*
X2103018Y4913680D01*
X2078482Y4905908D01*
X2054606Y4896307D01*
X2031542Y4884877D01*
X2009444Y4871720D01*
X1988362Y4856937D01*
X1968550Y4840528D01*
X1950008Y4822698D01*
X1932889Y4803495D01*
X1917293Y4783023D01*
X1903272Y4761433D01*
X1890979Y4738827D01*
X1880463Y4715357D01*
X1871776Y4691126D01*
X1864969Y4666335D01*
X1860042Y4641037D01*
X1857095Y4615484D01*
X1856130Y4589780D01*
X1857095Y4564075D01*
X1860042Y4538522D01*
X1864969Y4513224D01*
X1871776Y4488434D01*
X1880463Y4464202D01*
X1890979Y4440732D01*
X1903272Y4418126D01*
X1917293Y4396536D01*
X1932889Y4376064D01*
X1950008Y4356862D01*
X1968550Y4339031D01*
X1988362Y4322622D01*
X2009444Y4307840D01*
X2031542Y4294682D01*
X2054606Y4283252D01*
X2078482Y4273651D01*
X2103018Y4265879D01*
X2128062Y4260037D01*
X2153513Y4256074D01*
G37*
G36*
X5149545Y4620107D02*
G01*
X5289854Y4620107D01*
X5296204Y4620869D01*
X5301640Y4622749D01*
X5306568Y4625848D01*
X5310632Y4629912D01*
X5313730Y4634839D01*
X5315610Y4640275D01*
X5316372Y4646625D01*
X5316372Y4786934D01*
X5315610Y4793284D01*
X5313730Y4798720D01*
X5310632Y4803648D01*
X5306568Y4807712D01*
X5301640Y4810810D01*
X5296204Y4812690D01*
X5289854Y4813401D01*
X5149545Y4813401D01*
X5143195Y4812690D01*
X5137759Y4810810D01*
X5132832Y4807712D01*
X5128768Y4803648D01*
X5125669Y4798720D01*
X5123789Y4793284D01*
X5123078Y4786934D01*
X5123078Y4646625D01*
X5123789Y4640275D01*
X5125669Y4634839D01*
X5128768Y4629912D01*
X5132832Y4625848D01*
X5137759Y4622749D01*
X5143195Y4620869D01*
G37*
G36*
X7547406Y4366107D02*
G01*
X7575854Y4366107D01*
X7582204Y4366869D01*
X7587640Y4368749D01*
X7592568Y4371848D01*
X7596631Y4375912D01*
X7599730Y4380839D01*
X7601610Y4386275D01*
X7602372Y4392625D01*
X7602372Y4421073D01*
X7547406Y4421073D01*
G37*
G36*
X7435545Y4366107D02*
G01*
X7463993Y4366107D01*
X7463993Y4421073D01*
X7409078Y4421073D01*
X7409078Y4392625D01*
X7409789Y4386275D01*
X7411669Y4380839D01*
X7414768Y4375912D01*
X7418831Y4371848D01*
X7423759Y4368749D01*
X7429195Y4366869D01*
G37*
G36*
X5149545Y4366107D02*
G01*
X5289854Y4366107D01*
X5296204Y4366869D01*
X5301640Y4368749D01*
X5306568Y4371848D01*
X5310632Y4375912D01*
X5313730Y4380839D01*
X5315610Y4386275D01*
X5316372Y4392625D01*
X5316372Y4532934D01*
X5315610Y4539284D01*
X5313730Y4544720D01*
X5310632Y4549648D01*
X5306568Y4553712D01*
X5301640Y4556810D01*
X5296204Y4558690D01*
X5289854Y4559401D01*
X5149545Y4559401D01*
X5143195Y4558690D01*
X5137759Y4556810D01*
X5132832Y4553712D01*
X5128768Y4549648D01*
X5125669Y4544720D01*
X5123789Y4539284D01*
X5123078Y4532934D01*
X5123078Y4392625D01*
X5123789Y4386275D01*
X5125669Y4380839D01*
X5128768Y4375912D01*
X5132832Y4371848D01*
X5137759Y4368749D01*
X5143195Y4366869D01*
G37*
G36*
X5403545Y4366107D02*
G01*
X5543854Y4366107D01*
X5550204Y4366869D01*
X5555640Y4368749D01*
X5560568Y4371848D01*
X5564632Y4375912D01*
X5567730Y4380839D01*
X5569610Y4386275D01*
X5570372Y4392625D01*
X5570372Y4532934D01*
X5569610Y4539284D01*
X5567730Y4544720D01*
X5564632Y4549648D01*
X5560568Y4553712D01*
X5555640Y4556810D01*
X5550204Y4558690D01*
X5543854Y4559401D01*
X5403545Y4559401D01*
X5397195Y4558690D01*
X5391759Y4556810D01*
X5386832Y4553712D01*
X5382768Y4549648D01*
X5379669Y4544720D01*
X5377789Y4539284D01*
X5377078Y4532934D01*
X5377078Y4392625D01*
X5377789Y4386275D01*
X5379669Y4380839D01*
X5382768Y4375912D01*
X5386832Y4371848D01*
X5391759Y4368749D01*
X5397195Y4366869D01*
G37*
G36*
X4895545Y4366107D02*
G01*
X5035854Y4366107D01*
X5042204Y4366869D01*
X5047640Y4368749D01*
X5052568Y4371848D01*
X5056632Y4375912D01*
X5059730Y4380839D01*
X5061610Y4386275D01*
X5062372Y4392625D01*
X5062372Y4532934D01*
X5061610Y4539284D01*
X5059730Y4544720D01*
X5056632Y4549648D01*
X5052568Y4553712D01*
X5047640Y4556810D01*
X5042204Y4558690D01*
X5035854Y4559401D01*
X4895545Y4559401D01*
X4889195Y4558690D01*
X4883759Y4556810D01*
X4878832Y4553712D01*
X4874768Y4549648D01*
X4871669Y4544720D01*
X4869789Y4539284D01*
X4869078Y4532934D01*
X4869078Y4392625D01*
X4869789Y4386275D01*
X4871669Y4380839D01*
X4874768Y4375912D01*
X4878832Y4371848D01*
X4883759Y4368749D01*
X4889195Y4366869D01*
G37*
G36*
X5657545Y4366107D02*
G01*
X5797854Y4366107D01*
X5804204Y4366869D01*
X5809640Y4368749D01*
X5814568Y4371848D01*
X5818632Y4375912D01*
X5821730Y4380839D01*
X5823610Y4386275D01*
X5824372Y4392625D01*
X5824372Y4532934D01*
X5823610Y4539284D01*
X5821730Y4544720D01*
X5818632Y4549648D01*
X5814568Y4553712D01*
X5809640Y4556810D01*
X5804204Y4558690D01*
X5797854Y4559401D01*
X5657545Y4559401D01*
X5651195Y4558690D01*
X5645759Y4556810D01*
X5640832Y4553712D01*
X5636768Y4549648D01*
X5633669Y4544720D01*
X5631789Y4539284D01*
X5631078Y4532934D01*
X5631078Y4392625D01*
X5631789Y4386275D01*
X5633669Y4380839D01*
X5636768Y4375912D01*
X5640832Y4371848D01*
X5645759Y4368749D01*
X5651195Y4366869D01*
G37*
G36*
X4641545Y4366107D02*
G01*
X4781854Y4366107D01*
X4788204Y4366869D01*
X4793640Y4368749D01*
X4798568Y4371848D01*
X4802632Y4375912D01*
X4805730Y4380839D01*
X4807610Y4386275D01*
X4808372Y4392625D01*
X4808372Y4532934D01*
X4807610Y4539284D01*
X4805730Y4544720D01*
X4802632Y4549648D01*
X4798568Y4553712D01*
X4793640Y4556810D01*
X4788204Y4558690D01*
X4781854Y4559401D01*
X4641545Y4559401D01*
X4635195Y4558690D01*
X4629759Y4556810D01*
X4624832Y4553712D01*
X4620768Y4549648D01*
X4617669Y4544720D01*
X4615789Y4539284D01*
X4615078Y4532934D01*
X4615078Y4392625D01*
X4615789Y4386275D01*
X4617669Y4380839D01*
X4620768Y4375912D01*
X4624832Y4371848D01*
X4629759Y4368749D01*
X4635195Y4366869D01*
G37*
G36*
X5911545Y4366107D02*
G01*
X6051854Y4366107D01*
X6058204Y4366869D01*
X6063640Y4368749D01*
X6068568Y4371848D01*
X6072632Y4375912D01*
X6075730Y4380839D01*
X6077610Y4386275D01*
X6078372Y4392625D01*
X6078372Y4532934D01*
X6077610Y4539284D01*
X6075730Y4544720D01*
X6072632Y4549648D01*
X6068568Y4553712D01*
X6063640Y4556810D01*
X6058204Y4558690D01*
X6051854Y4559401D01*
X5911545Y4559401D01*
X5905195Y4558690D01*
X5899759Y4556810D01*
X5894832Y4553712D01*
X5890768Y4549648D01*
X5887669Y4544720D01*
X5885789Y4539284D01*
X5885078Y4532934D01*
X5885078Y4392625D01*
X5885789Y4386275D01*
X5887669Y4380839D01*
X5890768Y4375912D01*
X5894832Y4371848D01*
X5899759Y4368749D01*
X5905195Y4366869D01*
G37*
G36*
X4387545Y4366107D02*
G01*
X4527854Y4366107D01*
X4534204Y4366869D01*
X4539640Y4368749D01*
X4544568Y4371848D01*
X4548632Y4375912D01*
X4551730Y4380839D01*
X4553610Y4386275D01*
X4554372Y4392625D01*
X4554372Y4532934D01*
X4553610Y4539284D01*
X4551730Y4544720D01*
X4548632Y4549648D01*
X4544568Y4553712D01*
X4539640Y4556810D01*
X4534204Y4558690D01*
X4527854Y4559401D01*
X4387545Y4559401D01*
X4381195Y4558690D01*
X4375759Y4556810D01*
X4370832Y4553712D01*
X4366768Y4549648D01*
X4363669Y4544720D01*
X4361789Y4539284D01*
X4361027Y4532934D01*
X4361027Y4392625D01*
X4361789Y4386275D01*
X4363669Y4380839D01*
X4366768Y4375912D01*
X4370832Y4371848D01*
X4375759Y4368749D01*
X4381195Y4366869D01*
G37*
G36*
X6165545Y4366107D02*
G01*
X6305854Y4366107D01*
X6312204Y4366869D01*
X6317640Y4368749D01*
X6322568Y4371848D01*
X6326632Y4375912D01*
X6329730Y4380839D01*
X6331610Y4386275D01*
X6332372Y4392625D01*
X6332372Y4532934D01*
X6331610Y4539284D01*
X6329730Y4544720D01*
X6326632Y4549648D01*
X6322568Y4553712D01*
X6317640Y4556810D01*
X6312204Y4558690D01*
X6305854Y4559401D01*
X6165545Y4559401D01*
X6159195Y4558690D01*
X6153759Y4556810D01*
X6148832Y4553712D01*
X6144768Y4549648D01*
X6141669Y4544720D01*
X6139789Y4539284D01*
X6139078Y4532934D01*
X6139078Y4392625D01*
X6139789Y4386275D01*
X6141669Y4380839D01*
X6144768Y4375912D01*
X6148832Y4371848D01*
X6153759Y4368749D01*
X6159195Y4366869D01*
G37*
G36*
X4133545Y4366107D02*
G01*
X4273854Y4366107D01*
X4280204Y4366869D01*
X4285640Y4368749D01*
X4290568Y4371848D01*
X4294632Y4375912D01*
X4297730Y4380839D01*
X4299610Y4386275D01*
X4300372Y4392625D01*
X4300372Y4532934D01*
X4299610Y4539284D01*
X4297730Y4544720D01*
X4294632Y4549648D01*
X4290568Y4553712D01*
X4285640Y4556810D01*
X4280204Y4558690D01*
X4273854Y4559401D01*
X4133545Y4559401D01*
X4127195Y4558690D01*
X4121759Y4556810D01*
X4116832Y4553712D01*
X4112768Y4549648D01*
X4109669Y4544720D01*
X4107789Y4539284D01*
X4107027Y4532934D01*
X4107027Y4392625D01*
X4107789Y4386275D01*
X4109669Y4380839D01*
X4112768Y4375912D01*
X4116832Y4371848D01*
X4121759Y4368749D01*
X4127195Y4366869D01*
G37*
G36*
X6927545Y4366107D02*
G01*
X7067854Y4366107D01*
X7074204Y4366869D01*
X7079640Y4368749D01*
X7084568Y4371848D01*
X7088631Y4375912D01*
X7091730Y4380839D01*
X7093610Y4386275D01*
X7094372Y4392625D01*
X7094372Y4532934D01*
X7093610Y4539284D01*
X7091730Y4544720D01*
X7088631Y4549648D01*
X7084568Y4553712D01*
X7079640Y4556810D01*
X7074204Y4558690D01*
X7067854Y4559401D01*
X6927545Y4559401D01*
X6921195Y4558690D01*
X6915759Y4556810D01*
X6910831Y4553712D01*
X6906768Y4549648D01*
X6903669Y4544720D01*
X6901789Y4539284D01*
X6901078Y4532934D01*
X6901078Y4392625D01*
X6901789Y4386275D01*
X6903669Y4380839D01*
X6906768Y4375912D01*
X6910831Y4371848D01*
X6915759Y4368749D01*
X6921195Y4366869D01*
G37*
G36*
X3371545Y4366107D02*
G01*
X3511854Y4366107D01*
X3518204Y4366869D01*
X3523640Y4368749D01*
X3528568Y4371848D01*
X3532632Y4375912D01*
X3535730Y4380839D01*
X3537610Y4386275D01*
X3538372Y4392625D01*
X3538372Y4532934D01*
X3537610Y4539284D01*
X3535730Y4544720D01*
X3532632Y4549648D01*
X3528568Y4553712D01*
X3523640Y4556810D01*
X3518204Y4558690D01*
X3511854Y4559401D01*
X3371545Y4559401D01*
X3365195Y4558690D01*
X3359759Y4556810D01*
X3354832Y4553712D01*
X3350768Y4549648D01*
X3347669Y4544720D01*
X3345789Y4539284D01*
X3345027Y4532934D01*
X3345027Y4392625D01*
X3345789Y4386275D01*
X3347669Y4380839D01*
X3350768Y4375912D01*
X3354832Y4371848D01*
X3359759Y4368749D01*
X3365195Y4366869D01*
G37*
G36*
X6419545Y4366107D02*
G01*
X6559854Y4366107D01*
X6566204Y4366869D01*
X6571640Y4368749D01*
X6576568Y4371848D01*
X6580631Y4375912D01*
X6583730Y4380839D01*
X6585610Y4386275D01*
X6586372Y4392625D01*
X6586372Y4532934D01*
X6585610Y4539284D01*
X6583730Y4544720D01*
X6580631Y4549648D01*
X6576568Y4553712D01*
X6571640Y4556810D01*
X6566204Y4558690D01*
X6559854Y4559401D01*
X6419545Y4559401D01*
X6413195Y4558690D01*
X6407759Y4556810D01*
X6402832Y4553712D01*
X6398768Y4549648D01*
X6395669Y4544720D01*
X6393789Y4539284D01*
X6393078Y4532934D01*
X6393078Y4392625D01*
X6393789Y4386275D01*
X6395669Y4380839D01*
X6398768Y4375912D01*
X6402832Y4371848D01*
X6407759Y4368749D01*
X6413195Y4366869D01*
G37*
G36*
X6673545Y4366107D02*
G01*
X6813854Y4366107D01*
X6820204Y4366869D01*
X6825640Y4368749D01*
X6830568Y4371848D01*
X6834631Y4375912D01*
X6837730Y4380839D01*
X6839610Y4386275D01*
X6840372Y4392625D01*
X6840372Y4532934D01*
X6839610Y4539284D01*
X6837730Y4544720D01*
X6834631Y4549648D01*
X6830568Y4553712D01*
X6825640Y4556810D01*
X6820204Y4558690D01*
X6813854Y4559401D01*
X6673545Y4559401D01*
X6667195Y4558690D01*
X6661759Y4556810D01*
X6656831Y4553712D01*
X6652768Y4549648D01*
X6649669Y4544720D01*
X6647789Y4539284D01*
X6647078Y4532934D01*
X6647078Y4392625D01*
X6647789Y4386275D01*
X6649669Y4380839D01*
X6652768Y4375912D01*
X6656831Y4371848D01*
X6661759Y4368749D01*
X6667195Y4366869D01*
G37*
G36*
X3879545Y4366107D02*
G01*
X4019854Y4366107D01*
X4026204Y4366869D01*
X4031640Y4368749D01*
X4036568Y4371848D01*
X4040632Y4375912D01*
X4043730Y4380839D01*
X4045610Y4386275D01*
X4046372Y4392625D01*
X4046372Y4532934D01*
X4045610Y4539284D01*
X4043730Y4544720D01*
X4040632Y4549648D01*
X4036568Y4553712D01*
X4031640Y4556810D01*
X4026204Y4558690D01*
X4019854Y4559401D01*
X3879545Y4559401D01*
X3873195Y4558690D01*
X3867759Y4556810D01*
X3862832Y4553712D01*
X3858768Y4549648D01*
X3855669Y4544720D01*
X3853789Y4539284D01*
X3853027Y4532934D01*
X3853027Y4392625D01*
X3853789Y4386275D01*
X3855669Y4380839D01*
X3858768Y4375912D01*
X3862832Y4371848D01*
X3867759Y4368749D01*
X3873195Y4366869D01*
G37*
G36*
X7181545Y4366107D02*
G01*
X7321854Y4366107D01*
X7328204Y4366869D01*
X7333640Y4368749D01*
X7338568Y4371848D01*
X7342631Y4375912D01*
X7345730Y4380839D01*
X7347610Y4386275D01*
X7348372Y4392625D01*
X7348372Y4532934D01*
X7347610Y4539284D01*
X7345730Y4544720D01*
X7342631Y4549648D01*
X7338568Y4553712D01*
X7333640Y4556810D01*
X7328204Y4558690D01*
X7321854Y4559401D01*
X7181545Y4559401D01*
X7175195Y4558690D01*
X7169759Y4556810D01*
X7164831Y4553712D01*
X7160768Y4549648D01*
X7157669Y4544720D01*
X7155789Y4539284D01*
X7155078Y4532934D01*
X7155078Y4392625D01*
X7155789Y4386275D01*
X7157669Y4380839D01*
X7160768Y4375912D01*
X7164831Y4371848D01*
X7169759Y4368749D01*
X7175195Y4366869D01*
G37*
G36*
X3625545Y4366107D02*
G01*
X3765854Y4366107D01*
X3772204Y4366869D01*
X3777640Y4368749D01*
X3782568Y4371848D01*
X3786632Y4375912D01*
X3789730Y4380839D01*
X3791610Y4386275D01*
X3792372Y4392625D01*
X3792372Y4532934D01*
X3791610Y4539284D01*
X3789730Y4544720D01*
X3786632Y4549648D01*
X3782568Y4553712D01*
X3777640Y4556810D01*
X3772204Y4558690D01*
X3765854Y4559401D01*
X3625545Y4559401D01*
X3619195Y4558690D01*
X3613759Y4556810D01*
X3608832Y4553712D01*
X3604768Y4549648D01*
X3601669Y4544720D01*
X3599789Y4539284D01*
X3599027Y4532934D01*
X3599027Y4392625D01*
X3599789Y4386275D01*
X3601669Y4380839D01*
X3604768Y4375912D01*
X3608832Y4371848D01*
X3613759Y4368749D01*
X3619195Y4366869D01*
G37*
G36*
X9985400Y4433062D02*
G01*
X10038791Y4433062D01*
X10045090Y4433773D01*
X10050576Y4435703D01*
X10055453Y4438751D01*
X10059568Y4442866D01*
X10062616Y4447743D01*
X10064546Y4453229D01*
X10065258Y4459528D01*
X10065258Y4512919D01*
X9985400Y4512919D01*
G37*
G36*
X9798608Y4433062D02*
G01*
X9852050Y4433062D01*
X9852050Y4512919D01*
X9772142Y4512919D01*
X9772142Y4459528D01*
X9772853Y4453229D01*
X9774783Y4447743D01*
X9777831Y4442866D01*
X9781946Y4438751D01*
X9786823Y4435703D01*
X9792309Y4433773D01*
G37*
G36*
X7409078Y4504486D02*
G01*
X7463993Y4504486D01*
X7463993Y4559401D01*
X7435545Y4559401D01*
X7429195Y4558690D01*
X7423759Y4556810D01*
X7418831Y4553712D01*
X7414768Y4549648D01*
X7411669Y4544720D01*
X7409789Y4539284D01*
X7409078Y4532934D01*
G37*
G36*
X7547406Y4504486D02*
G01*
X7602372Y4504486D01*
X7602372Y4532934D01*
X7601610Y4539284D01*
X7599730Y4544720D01*
X7596631Y4549648D01*
X7592568Y4553712D01*
X7587640Y4556810D01*
X7582204Y4558690D01*
X7575854Y4559401D01*
X7547406Y4559401D01*
G37*
G36*
X5403545Y4620107D02*
G01*
X5543854Y4620107D01*
X5550204Y4620869D01*
X5555640Y4622749D01*
X5560568Y4625848D01*
X5564632Y4629912D01*
X5567730Y4634839D01*
X5569610Y4640275D01*
X5570372Y4646625D01*
X5570372Y4786934D01*
X5569610Y4793284D01*
X5567730Y4798720D01*
X5564632Y4803648D01*
X5560568Y4807712D01*
X5555640Y4810810D01*
X5550204Y4812690D01*
X5543854Y4813401D01*
X5403545Y4813401D01*
X5397195Y4812690D01*
X5391759Y4810810D01*
X5386832Y4807712D01*
X5382768Y4803648D01*
X5379669Y4798720D01*
X5377789Y4793284D01*
X5377078Y4786934D01*
X5377078Y4646625D01*
X5377789Y4640275D01*
X5379669Y4634839D01*
X5382768Y4629912D01*
X5386832Y4625848D01*
X5391759Y4622749D01*
X5397195Y4620869D01*
G37*
G36*
X9918700Y2884932D02*
G01*
X9934092Y2885897D01*
X9949230Y2888640D01*
X9963912Y2893212D01*
X9977932Y2899562D01*
X9991140Y2907538D01*
X10003231Y2917037D01*
X10014102Y2927908D01*
X10023602Y2939999D01*
X10031577Y2953207D01*
X10037927Y2967228D01*
X10042499Y2981909D01*
X10045242Y2997047D01*
X10046208Y3012440D01*
X10045242Y3027832D01*
X10042499Y3042970D01*
X10037927Y3057652D01*
X10031577Y3071672D01*
X10023602Y3084880D01*
X10014102Y3096971D01*
X10003231Y3107842D01*
X9991140Y3117342D01*
X9977932Y3125317D01*
X9963912Y3131667D01*
X9949230Y3136239D01*
X9934092Y3138982D01*
X9918700Y3139948D01*
X9903307Y3138982D01*
X9888169Y3136239D01*
X9873488Y3131667D01*
X9859467Y3125317D01*
X9846259Y3117342D01*
X9834168Y3107842D01*
X9823297Y3096971D01*
X9813798Y3084880D01*
X9805822Y3071672D01*
X9799472Y3057652D01*
X9794900Y3042970D01*
X9792157Y3027832D01*
X9791192Y3012440D01*
X9792157Y2997047D01*
X9794900Y2981909D01*
X9799472Y2967228D01*
X9805822Y2953207D01*
X9813798Y2939999D01*
X9823297Y2927908D01*
X9834168Y2917037D01*
X9846259Y2907538D01*
X9859467Y2899562D01*
X9873488Y2893212D01*
X9888169Y2888640D01*
X9903307Y2885897D01*
G37*

%LPD*%
D11*
X9652000Y1422400D02*
G01*
X9334500Y1739900D01*
X7480300Y1054100D02*
G01*
X7480300Y1422400D01*
X5727700Y2616200D02*
G01*
X6235700Y3124200D01*
X6235700Y3378200D01*
X6235700Y1803400D02*
G01*
X5727700Y2311400D01*
X5727700Y2616200D01*
X5727700Y1054100D02*
G01*
X6235700Y1562100D01*
X6235700Y1803400D01*
X4622800Y1727200D02*
G01*
X5295900Y1054100D01*
X5727700Y1054100D01*
X9918700Y3362960D02*
G01*
X9918700Y3878579D01*
X4622800Y1727200D02*
G01*
X4622800Y2413000D01*
X4406900Y2628900D01*
X2933700Y2628900D01*
X2679700Y2882900D01*
X2679700Y4462779D01*
X5842000Y3009900D02*
G01*
X5537200Y3314700D01*
X3162300Y3314700D01*
X2933700Y3543300D01*
X2933700Y4462779D01*
X5715000Y2882900D02*
G01*
X5473700Y3124200D01*
X3187700Y3124200D01*
X3187700Y3568700D02*
G01*
X3187700Y4462779D01*
X4622800Y457200D02*
G01*
X4902200Y736600D01*
X6324600Y736600D01*
X6934200Y1346200D01*
X6934200Y2451100D01*
X7200900Y2717800D01*
X9436100Y2717800D01*
X9690100Y2971800D01*
X9690100Y3213100D01*
X9839959Y3362960D01*
X9918700Y3362960D01*
X2679700Y4716779D02*
G01*
X2928620Y4965700D01*
X9194800Y4965700D01*
X9436100Y4724400D01*
X9436100Y4114800D01*
X9672320Y3878579D01*
X9918700Y3878579D01*
D15*
G01*
X8382000Y1412900D03*
G01*
X8382000Y542899D03*
G01*
X6235700Y1803400D03*
G01*
X5981700Y1803400D03*
G36*
X5648959Y1893399D02*
G01*
X5806440Y1893399D01*
X5806440Y1713400D01*
X5648959Y1713400D01*
G37*
G01*
X6235700Y2616200D03*
G01*
X5981700Y2616200D03*
G36*
X5648959Y2706199D02*
G01*
X5806440Y2706199D01*
X5806440Y2526200D01*
X5648959Y2526200D01*
G37*
G01*
X6235700Y1054100D03*
G01*
X5981700Y1054100D03*
G36*
X5648959Y1144099D02*
G01*
X5806440Y1144099D01*
X5806440Y964100D01*
X5648959Y964100D01*
G37*
G01*
X6235700Y3378200D03*
G01*
X5981700Y3378200D03*
G36*
X5648959Y3468199D02*
G01*
X5806440Y3468199D01*
X5806440Y3288200D01*
X5648959Y3288200D01*
G37*
D17*
G01*
X6861809Y-254000D03*
D18*
G01*
X6511290Y-254000D03*
G01*
X6160770Y-254000D03*
G01*
X5812790Y-254000D03*
D19*
G01*
X9918700Y4579620D03*
D20*
G01*
X9918700Y4229100D03*
G01*
X9918700Y3878579D03*
D17*
G01*
X9918700Y3362960D03*
D18*
G01*
X9918700Y3012439D03*
D17*
G01*
X9931400Y2448560D03*
D18*
G01*
X9931400Y2098039D03*
D17*
G01*
X1955800Y3444239D03*
D18*
G01*
X1955800Y3794760D03*
D17*
G01*
X1955800Y2669539D03*
D18*
G01*
X1955800Y3020060D03*
D17*
G01*
X4583429Y-254000D03*
D18*
G01*
X4232909Y-254000D03*
G01*
X3882390Y-254000D03*
G01*
X3534409Y-254000D03*
G01*
X3183890Y-254000D03*
G01*
X2833370Y-254000D03*
D21*
G01*
X10096500Y444500D03*
G01*
X10096500Y1444497D03*
G01*
X9076436Y1444497D03*
G01*
X9076436Y444500D03*
G01*
X8826500Y944371D03*
D22*
G01*
X3860800Y457200D03*
G01*
X4114800Y457200D03*
G01*
X4368800Y457200D03*
G01*
X4622800Y457200D03*
G01*
X3606800Y457200D03*
G01*
X2844800Y457200D03*
G01*
X2590800Y457200D03*
D23*
G01*
X2336800Y457200D03*
D22*
G01*
X4622800Y1727200D03*
G01*
X4368800Y1727200D03*
G01*
X4114800Y1727200D03*
G01*
X3860800Y1727200D03*
G01*
X3606800Y1727200D03*
G01*
X3352800Y1727200D03*
G01*
X3098800Y1727200D03*
G01*
X2844800Y1727200D03*
G01*
X2590800Y1727200D03*
G01*
X2336800Y1727200D03*
G01*
X3352800Y457200D03*
G01*
X3098800Y457200D03*
D24*
G01*
X2192020Y-309879D03*
G01*
X7990840Y-309879D03*
G01*
X7990840Y4589779D03*
G01*
X2192020Y4589779D03*
G36*
X2608961Y4533519D02*
G01*
X2750438Y4533519D01*
X2750438Y4392040D01*
X2608961Y4392040D01*
G37*
G36*
X2862961Y4533519D02*
G01*
X3004438Y4533519D01*
X3004438Y4392040D01*
X2862961Y4392040D01*
G37*
G36*
X3116961Y4533519D02*
G01*
X3258438Y4533519D01*
X3258438Y4392040D01*
X3116961Y4392040D01*
G37*
G36*
X3370961Y4533519D02*
G01*
X3512438Y4533519D01*
X3512438Y4392040D01*
X3370961Y4392040D01*
G37*
G36*
X3624961Y4533519D02*
G01*
X3766438Y4533519D01*
X3766438Y4392040D01*
X3624961Y4392040D01*
G37*
G36*
X3878961Y4533519D02*
G01*
X4020438Y4533519D01*
X4020438Y4392040D01*
X3878961Y4392040D01*
G37*
G36*
X2608961Y4787519D02*
G01*
X2750438Y4787519D01*
X2750438Y4646040D01*
X2608961Y4646040D01*
G37*
G36*
X2862961Y4787519D02*
G01*
X3004438Y4787519D01*
X3004438Y4646040D01*
X2862961Y4646040D01*
G37*
G36*
X3116961Y4787519D02*
G01*
X3258438Y4787519D01*
X3258438Y4646040D01*
X3116961Y4646040D01*
G37*
G36*
X3370961Y4787519D02*
G01*
X3512438Y4787519D01*
X3512438Y4646040D01*
X3370961Y4646040D01*
G37*
G36*
X3624961Y4787519D02*
G01*
X3766438Y4787519D01*
X3766438Y4646040D01*
X3624961Y4646040D01*
G37*
G36*
X3878961Y4787519D02*
G01*
X4020438Y4787519D01*
X4020438Y4646040D01*
X3878961Y4646040D01*
G37*
G36*
X4132961Y4533519D02*
G01*
X4274438Y4533519D01*
X4274438Y4392040D01*
X4132961Y4392040D01*
G37*
G36*
X4132961Y4787519D02*
G01*
X4274438Y4787519D01*
X4274438Y4646040D01*
X4132961Y4646040D01*
G37*
G36*
X4386961Y4533519D02*
G01*
X4528438Y4533519D01*
X4528438Y4392040D01*
X4386961Y4392040D01*
G37*
G36*
X4640961Y4533519D02*
G01*
X4782438Y4533519D01*
X4782438Y4392040D01*
X4640961Y4392040D01*
G37*
G36*
X4894961Y4533519D02*
G01*
X5036438Y4533519D01*
X5036438Y4392040D01*
X4894961Y4392040D01*
G37*
G36*
X5148961Y4533519D02*
G01*
X5290438Y4533519D01*
X5290438Y4392040D01*
X5148961Y4392040D01*
G37*
G36*
X5402961Y4533519D02*
G01*
X5544438Y4533519D01*
X5544438Y4392040D01*
X5402961Y4392040D01*
G37*
G36*
X5656961Y4533519D02*
G01*
X5798438Y4533519D01*
X5798438Y4392040D01*
X5656961Y4392040D01*
G37*
G36*
X4386961Y4787519D02*
G01*
X4528438Y4787519D01*
X4528438Y4646040D01*
X4386961Y4646040D01*
G37*
G36*
X4640961Y4787519D02*
G01*
X4782438Y4787519D01*
X4782438Y4646040D01*
X4640961Y4646040D01*
G37*
G36*
X4894961Y4787519D02*
G01*
X5036438Y4787519D01*
X5036438Y4646040D01*
X4894961Y4646040D01*
G37*
G36*
X5148961Y4787519D02*
G01*
X5290438Y4787519D01*
X5290438Y4646040D01*
X5148961Y4646040D01*
G37*
G36*
X5402961Y4787519D02*
G01*
X5544438Y4787519D01*
X5544438Y4646040D01*
X5402961Y4646040D01*
G37*
G36*
X5656961Y4787519D02*
G01*
X5798438Y4787519D01*
X5798438Y4646040D01*
X5656961Y4646040D01*
G37*
G36*
X5910961Y4533519D02*
G01*
X6052438Y4533519D01*
X6052438Y4392040D01*
X5910961Y4392040D01*
G37*
G36*
X5910961Y4787519D02*
G01*
X6052438Y4787519D01*
X6052438Y4646040D01*
X5910961Y4646040D01*
G37*
G36*
X6164961Y4533519D02*
G01*
X6306438Y4533519D01*
X6306438Y4392040D01*
X6164961Y4392040D01*
G37*
G36*
X6418961Y4533519D02*
G01*
X6560438Y4533519D01*
X6560438Y4392040D01*
X6418961Y4392040D01*
G37*
G36*
X6672961Y4533519D02*
G01*
X6814438Y4533519D01*
X6814438Y4392040D01*
X6672961Y4392040D01*
G37*
G36*
X6926961Y4533519D02*
G01*
X7068438Y4533519D01*
X7068438Y4392040D01*
X6926961Y4392040D01*
G37*
G36*
X7180961Y4533519D02*
G01*
X7322438Y4533519D01*
X7322438Y4392040D01*
X7180961Y4392040D01*
G37*
G36*
X7434961Y4533519D02*
G01*
X7576438Y4533519D01*
X7576438Y4392040D01*
X7434961Y4392040D01*
G37*
G36*
X6164961Y4787519D02*
G01*
X6306438Y4787519D01*
X6306438Y4646040D01*
X6164961Y4646040D01*
G37*
G36*
X6418961Y4787519D02*
G01*
X6560438Y4787519D01*
X6560438Y4646040D01*
X6418961Y4646040D01*
G37*
G36*
X6672961Y4787519D02*
G01*
X6814438Y4787519D01*
X6814438Y4646040D01*
X6672961Y4646040D01*
G37*
G36*
X6926961Y4787519D02*
G01*
X7068438Y4787519D01*
X7068438Y4646040D01*
X6926961Y4646040D01*
G37*
G36*
X7180961Y4787519D02*
G01*
X7322438Y4787519D01*
X7322438Y4646040D01*
X7180961Y4646040D01*
G37*
G36*
X7434961Y4787519D02*
G01*
X7576438Y4787519D01*
X7576438Y4646040D01*
X7434961Y4646040D01*
G37*
G36*
X7098200Y890099D02*
G01*
X7278199Y890099D01*
X7278199Y710100D01*
X7098200Y710100D01*
G37*
D27*
G01*
X8737600Y3035300D03*
G01*
X8610600Y3162300D03*
G01*
X8737600Y3289300D03*
D12*
G01*
X9652000Y1422400D03*
G01*
X9334500Y1739900D03*
G01*
X7480300Y1054100D03*
G01*
X7480300Y1422400D03*
G01*
X5715000Y2882900D03*
G01*
X5842000Y3009900D03*
G01*
X3187700Y3124200D03*
G01*
X3187700Y3568700D03*
D15*
X7188200Y1308100D02*
G01*
X7188200Y1308100D01*
X7188200Y1054100D02*
G01*
X7188200Y1054100D01*
M02*
