G04 Layer: TopLayer*
G04 EasyEDA v6.4.25, 2021-11-05T10:47:30--3:00*
G04 159a448e8e33406d94cad16c6973356b,c2117e28123c44379a42240d4d7dbbcc,10*
G04 Gerber Generator version 0.2*
G04 Scale: 100 percent, Rotated: No, Reflected: No *
G04 Dimensions in millimeters *
G04 leading zeros omitted , absolute positions ,4 integer and 5 decimal *
%FSLAX45Y45*%
%MOMM*%

%ADD11C,0.5000*%
%ADD12C,0.6096*%
%ADD15C,1.8000*%
%ADD17R,2.0320X2.0320*%
%ADD18C,2.0320*%
%ADD19R,2.4130X2.4130*%
%ADD20C,2.4130*%
%ADD21C,2.5000*%
%ADD22C,1.7780*%
%ADD23R,1.7780X1.7780*%
%ADD24C,6.2001*%
%ADD27C,1.4097*%

%LPD*%
G36*
X1560068Y-634492D02*
G01*
X1556156Y-633730D01*
X1552905Y-631494D01*
X1550670Y-628243D01*
X1549908Y-624332D01*
X1549908Y5297932D01*
X1550670Y5301843D01*
X1552905Y5305094D01*
X1556156Y5307330D01*
X1560068Y5308092D01*
X10301732Y5308092D01*
X10305643Y5307330D01*
X10308894Y5305094D01*
X10311130Y5301843D01*
X10311892Y5297932D01*
X10311892Y-624332D01*
X10311130Y-628243D01*
X10308894Y-631494D01*
X10305643Y-633730D01*
X10301732Y-634492D01*
X8135112Y-634492D01*
X8130743Y-633476D01*
X8127187Y-630682D01*
X8125206Y-626668D01*
X8125206Y-622147D01*
X8127136Y-618083D01*
X8130590Y-615238D01*
X8151317Y-604977D01*
X8173415Y-591820D01*
X8194497Y-577037D01*
X8214309Y-560628D01*
X8232851Y-542798D01*
X8249970Y-523595D01*
X8265566Y-503123D01*
X8279587Y-481533D01*
X8291880Y-458927D01*
X8302396Y-435457D01*
X8311083Y-411226D01*
X8317890Y-386435D01*
X8322818Y-361137D01*
X8325764Y-335584D01*
X8326729Y-309880D01*
X8325764Y-284175D01*
X8322818Y-258622D01*
X8317890Y-233324D01*
X8311083Y-208534D01*
X8302396Y-184302D01*
X8291880Y-160832D01*
X8279587Y-138226D01*
X8265566Y-116636D01*
X8249970Y-96164D01*
X8232851Y-76962D01*
X8214309Y-59131D01*
X8194497Y-42722D01*
X8173415Y-27940D01*
X8151317Y-14782D01*
X8128253Y-3352D01*
X8104378Y6248D01*
X8079841Y14020D01*
X8054797Y19862D01*
X8029346Y23825D01*
X8003692Y25755D01*
X7977987Y25755D01*
X7952333Y23825D01*
X7926882Y19862D01*
X7901838Y14020D01*
X7877302Y6248D01*
X7853425Y-3352D01*
X7830362Y-14782D01*
X7808264Y-27940D01*
X7787182Y-42722D01*
X7767370Y-59131D01*
X7748828Y-76962D01*
X7731709Y-96164D01*
X7716113Y-116636D01*
X7702092Y-138226D01*
X7689799Y-160832D01*
X7679283Y-184302D01*
X7670596Y-208534D01*
X7663789Y-233324D01*
X7658862Y-258622D01*
X7655915Y-284175D01*
X7654950Y-309880D01*
X7655915Y-335584D01*
X7658862Y-361137D01*
X7663789Y-386435D01*
X7670596Y-411226D01*
X7679283Y-435457D01*
X7689799Y-458927D01*
X7702092Y-481533D01*
X7716113Y-503123D01*
X7731709Y-523595D01*
X7748828Y-542798D01*
X7767370Y-560628D01*
X7787182Y-577037D01*
X7808264Y-591820D01*
X7830362Y-604977D01*
X7851089Y-615238D01*
X7854543Y-618083D01*
X7856474Y-622147D01*
X7856474Y-626668D01*
X7854492Y-630682D01*
X7850936Y-633476D01*
X7846568Y-634492D01*
X2336292Y-634492D01*
X2331923Y-633476D01*
X2328367Y-630682D01*
X2326386Y-626668D01*
X2326386Y-622147D01*
X2328316Y-618083D01*
X2331770Y-615238D01*
X2352497Y-604977D01*
X2374595Y-591820D01*
X2395677Y-577037D01*
X2415489Y-560628D01*
X2434031Y-542798D01*
X2451150Y-523595D01*
X2466746Y-503123D01*
X2480767Y-481533D01*
X2493060Y-458927D01*
X2503576Y-435457D01*
X2512263Y-411226D01*
X2519070Y-386435D01*
X2523998Y-361137D01*
X2526944Y-335584D01*
X2527909Y-309880D01*
X2526944Y-284175D01*
X2523998Y-258622D01*
X2519070Y-233324D01*
X2512263Y-208534D01*
X2503576Y-184302D01*
X2493060Y-160832D01*
X2480767Y-138226D01*
X2466746Y-116636D01*
X2451150Y-96164D01*
X2434031Y-76962D01*
X2415489Y-59131D01*
X2395677Y-42722D01*
X2374595Y-27940D01*
X2352497Y-14782D01*
X2329434Y-3352D01*
X2305558Y6248D01*
X2281021Y14020D01*
X2255977Y19862D01*
X2230526Y23825D01*
X2204872Y25755D01*
X2179167Y25755D01*
X2153513Y23825D01*
X2128062Y19862D01*
X2103018Y14020D01*
X2078482Y6248D01*
X2054606Y-3352D01*
X2031542Y-14782D01*
X2009444Y-27940D01*
X1988362Y-42722D01*
X1968550Y-59131D01*
X1950008Y-76962D01*
X1932889Y-96164D01*
X1917293Y-116636D01*
X1903272Y-138226D01*
X1890979Y-160832D01*
X1880463Y-184302D01*
X1871776Y-208534D01*
X1864969Y-233324D01*
X1860042Y-258622D01*
X1857095Y-284175D01*
X1856130Y-309880D01*
X1857095Y-335584D01*
X1860042Y-361137D01*
X1864969Y-386435D01*
X1871776Y-411226D01*
X1880463Y-435457D01*
X1890979Y-458927D01*
X1903272Y-481533D01*
X1917293Y-503123D01*
X1932889Y-523595D01*
X1950008Y-542798D01*
X1968550Y-560628D01*
X1988362Y-577037D01*
X2009444Y-591820D01*
X2031542Y-604977D01*
X2052269Y-615238D01*
X2055723Y-618083D01*
X2057654Y-622147D01*
X2057654Y-626668D01*
X2055672Y-630682D01*
X2052116Y-633476D01*
X2047748Y-634492D01*
G37*

%LPC*%
G36*
X9772142Y4646269D02*
G01*
X9852050Y4646269D01*
X9852050Y4726178D01*
X9798608Y4726178D01*
X9792309Y4725466D01*
X9786823Y4723536D01*
X9781946Y4720488D01*
X9777831Y4716373D01*
X9774783Y4711496D01*
X9772853Y4706010D01*
X9772142Y4699711D01*
G37*
G36*
X9985400Y4646269D02*
G01*
X10065258Y4646269D01*
X10065258Y4699711D01*
X10064546Y4706010D01*
X10062616Y4711496D01*
X10059568Y4716373D01*
X10055453Y4720488D01*
X10050576Y4723536D01*
X10045090Y4725466D01*
X10038791Y4726178D01*
X9985400Y4726178D01*
G37*
G36*
X6016193Y-508101D02*
G01*
X7238796Y-508101D01*
X7243419Y-507898D01*
X7247839Y-507339D01*
X7252157Y-506374D01*
X7256424Y-505053D01*
X7260488Y-503326D01*
X7264450Y-501294D01*
X7268209Y-498906D01*
X7271715Y-496214D01*
X7275169Y-493064D01*
X7841335Y73101D01*
X7844586Y75336D01*
X7848498Y76098D01*
X9537496Y76098D01*
X9542119Y76301D01*
X9546539Y76860D01*
X9550857Y77825D01*
X9555124Y79146D01*
X9559188Y80873D01*
X9563150Y82905D01*
X9566910Y85293D01*
X9570415Y87985D01*
X9573869Y91135D01*
X9687864Y205130D01*
X9691014Y208584D01*
X9693706Y212090D01*
X9696094Y215849D01*
X9698126Y219811D01*
X9699853Y223875D01*
X9701174Y228142D01*
X9702139Y232460D01*
X9702698Y236880D01*
X9702901Y241503D01*
X9702901Y1396492D01*
X9703866Y1400810D01*
X9704933Y1403146D01*
X9707473Y1412595D01*
X9708337Y1422400D01*
X9707473Y1432204D01*
X9704933Y1441653D01*
X9700818Y1450594D01*
X9695180Y1458620D01*
X9688220Y1465580D01*
X9680194Y1471218D01*
X9671253Y1475333D01*
X9661804Y1477873D01*
X9652000Y1478737D01*
X9642195Y1477873D01*
X9632746Y1475333D01*
X9623806Y1471218D01*
X9615779Y1465580D01*
X9608820Y1458620D01*
X9603181Y1450594D01*
X9599066Y1441653D01*
X9596526Y1432204D01*
X9595662Y1422400D01*
X9596526Y1412595D01*
X9599066Y1403146D01*
X9600133Y1400810D01*
X9601098Y1396492D01*
X9601098Y266598D01*
X9600336Y262686D01*
X9598101Y259435D01*
X9519564Y180898D01*
X9516313Y178663D01*
X9512401Y177901D01*
X7823403Y177901D01*
X7818780Y177698D01*
X7814360Y177139D01*
X7810042Y176174D01*
X7805775Y174853D01*
X7801711Y173126D01*
X7797749Y171094D01*
X7793990Y168706D01*
X7790484Y166014D01*
X7787030Y162864D01*
X7220864Y-403301D01*
X7217613Y-405536D01*
X7213701Y-406298D01*
X6041288Y-406298D01*
X6037376Y-405536D01*
X6034125Y-403301D01*
X5935878Y-305054D01*
X5933795Y-302056D01*
X5932881Y-298500D01*
X5933338Y-294894D01*
X5936589Y-284530D01*
X5939332Y-269392D01*
X5940298Y-254000D01*
X5939332Y-238607D01*
X5936589Y-223469D01*
X5932017Y-208788D01*
X5925667Y-194767D01*
X5917692Y-181559D01*
X5908192Y-169468D01*
X5897321Y-158597D01*
X5885230Y-149098D01*
X5872022Y-141122D01*
X5858002Y-134772D01*
X5843320Y-130200D01*
X5828182Y-127457D01*
X5812790Y-126492D01*
X5797397Y-127457D01*
X5790590Y-128676D01*
X5786170Y-128524D01*
X5782259Y-126492D01*
X5779566Y-122986D01*
X5778601Y-118719D01*
X5778601Y928014D01*
X5779363Y931926D01*
X5781598Y935228D01*
X5784900Y937412D01*
X5788761Y938174D01*
X5805881Y938174D01*
X5812180Y938885D01*
X5817666Y940816D01*
X5822543Y943914D01*
X5826658Y947978D01*
X5829706Y952906D01*
X5831636Y958342D01*
X5832348Y964692D01*
X5832348Y1143508D01*
X5831636Y1149858D01*
X5829706Y1155293D01*
X5826658Y1160221D01*
X5822543Y1164285D01*
X5817666Y1167384D01*
X5812180Y1169314D01*
X5805881Y1170025D01*
X5649518Y1170025D01*
X5643219Y1169314D01*
X5637733Y1167384D01*
X5632856Y1164285D01*
X5628741Y1160221D01*
X5625693Y1155293D01*
X5623763Y1149858D01*
X5623052Y1143508D01*
X5623052Y964692D01*
X5623763Y958342D01*
X5625693Y952906D01*
X5628741Y947978D01*
X5632856Y943914D01*
X5637733Y940816D01*
X5643219Y938885D01*
X5649518Y938174D01*
X5666638Y938174D01*
X5670499Y937412D01*
X5673801Y935228D01*
X5676036Y931926D01*
X5676798Y928014D01*
X5676798Y-168706D01*
X5677001Y-173329D01*
X5677560Y-177749D01*
X5678525Y-182067D01*
X5679846Y-186334D01*
X5681573Y-190398D01*
X5683605Y-194360D01*
X5685891Y-197916D01*
X5690412Y-203352D01*
X5692089Y-206248D01*
X5692749Y-209550D01*
X5692292Y-212902D01*
X5688990Y-223469D01*
X5686247Y-238607D01*
X5685282Y-254000D01*
X5686247Y-269392D01*
X5688990Y-284530D01*
X5693562Y-299212D01*
X5699912Y-313232D01*
X5707888Y-326440D01*
X5717387Y-338531D01*
X5728258Y-349402D01*
X5740349Y-358902D01*
X5753557Y-366877D01*
X5767578Y-373227D01*
X5782259Y-377799D01*
X5797397Y-380542D01*
X5812790Y-381508D01*
X5828182Y-380542D01*
X5843320Y-377799D01*
X5853684Y-374548D01*
X5857290Y-374091D01*
X5860846Y-375005D01*
X5863844Y-377088D01*
X5979820Y-493064D01*
X5983274Y-496214D01*
X5986780Y-498906D01*
X5990539Y-501294D01*
X5994501Y-503326D01*
X5998565Y-505053D01*
X6002832Y-506374D01*
X6007150Y-507339D01*
X6011570Y-507898D01*
G37*
G36*
X2609545Y4620107D02*
G01*
X2749854Y4620107D01*
X2756204Y4620869D01*
X2761640Y4622749D01*
X2766568Y4625848D01*
X2770632Y4629912D01*
X2773730Y4634839D01*
X2775610Y4640275D01*
X2776372Y4646625D01*
X2776372Y4786934D01*
X2775610Y4793284D01*
X2773730Y4798720D01*
X2770632Y4803648D01*
X2766568Y4807712D01*
X2761640Y4810810D01*
X2756204Y4812690D01*
X2749854Y4813401D01*
X2609545Y4813401D01*
X2603195Y4812690D01*
X2597759Y4810810D01*
X2592832Y4807712D01*
X2588768Y4803648D01*
X2585669Y4798720D01*
X2583789Y4793284D01*
X2583027Y4786934D01*
X2583027Y4646625D01*
X2583789Y4640275D01*
X2585669Y4634839D01*
X2588768Y4629912D01*
X2592832Y4625848D01*
X2597759Y4622749D01*
X2603195Y4620869D01*
G37*
G36*
X3882390Y-381508D02*
G01*
X3897782Y-380542D01*
X3912920Y-377799D01*
X3927601Y-373227D01*
X3941622Y-366877D01*
X3954830Y-358902D01*
X3966921Y-349402D01*
X3977792Y-338531D01*
X3987292Y-326440D01*
X3995267Y-313232D01*
X4001617Y-299212D01*
X4006189Y-284530D01*
X4008932Y-269392D01*
X4009898Y-254000D01*
X4008932Y-238607D01*
X4006189Y-223469D01*
X4001617Y-208788D01*
X3995267Y-194767D01*
X3987292Y-181559D01*
X3977792Y-169468D01*
X3966921Y-158597D01*
X3954830Y-149098D01*
X3941622Y-141122D01*
X3927601Y-134772D01*
X3918864Y-132080D01*
X3915156Y-129997D01*
X3912615Y-126542D01*
X3911701Y-122377D01*
X3911701Y348234D01*
X3912260Y351586D01*
X3913886Y354533D01*
X3916426Y356819D01*
X3928262Y364337D01*
X3939387Y373532D01*
X3949242Y384048D01*
X3957726Y395681D01*
X3964686Y408330D01*
X3969969Y421741D01*
X3973576Y435711D01*
X3975354Y449986D01*
X3975354Y464413D01*
X3973576Y478688D01*
X3969969Y492658D01*
X3964686Y506069D01*
X3957726Y518718D01*
X3949242Y530352D01*
X3939387Y540867D01*
X3928262Y550062D01*
X3916121Y557784D01*
X3903065Y563930D01*
X3889349Y568401D01*
X3875176Y571093D01*
X3860800Y572008D01*
X3846423Y571093D01*
X3832250Y568401D01*
X3818534Y563930D01*
X3805478Y557784D01*
X3793337Y550062D01*
X3782212Y540867D01*
X3772357Y530352D01*
X3763873Y518718D01*
X3756914Y506069D01*
X3751630Y492658D01*
X3748024Y478688D01*
X3746246Y464413D01*
X3746246Y449986D01*
X3748024Y435711D01*
X3751630Y421741D01*
X3756914Y408330D01*
X3763873Y395681D01*
X3772357Y384048D01*
X3782212Y373532D01*
X3793337Y364337D01*
X3805174Y356819D01*
X3807714Y354533D01*
X3809339Y351586D01*
X3809898Y348234D01*
X3809898Y-144170D01*
X3809441Y-147218D01*
X3808069Y-149961D01*
X3805986Y-152196D01*
X3797858Y-158597D01*
X3786987Y-169468D01*
X3777487Y-181559D01*
X3769512Y-194767D01*
X3763162Y-208788D01*
X3758590Y-223469D01*
X3755847Y-238607D01*
X3754882Y-254000D01*
X3755847Y-269392D01*
X3758590Y-284530D01*
X3763162Y-299212D01*
X3769512Y-313232D01*
X3777487Y-326440D01*
X3786987Y-338531D01*
X3797858Y-349402D01*
X3809949Y-358902D01*
X3823157Y-366877D01*
X3837178Y-373227D01*
X3851859Y-377799D01*
X3866997Y-380542D01*
G37*
G36*
X3534410Y-381508D02*
G01*
X3549802Y-380542D01*
X3564940Y-377799D01*
X3579622Y-373227D01*
X3593642Y-366877D01*
X3606850Y-358902D01*
X3618941Y-349402D01*
X3629812Y-338531D01*
X3639312Y-326440D01*
X3647287Y-313232D01*
X3653637Y-299212D01*
X3658209Y-284530D01*
X3660952Y-269392D01*
X3661918Y-254000D01*
X3660952Y-238607D01*
X3658209Y-223469D01*
X3653434Y-208229D01*
X3652977Y-205028D01*
X3653536Y-201879D01*
X3655974Y-194665D01*
X3656939Y-190449D01*
X3657498Y-186029D01*
X3657701Y-181406D01*
X3657701Y348234D01*
X3658260Y351586D01*
X3659886Y354533D01*
X3662426Y356819D01*
X3674262Y364337D01*
X3685387Y373532D01*
X3695242Y384048D01*
X3703726Y395681D01*
X3710686Y408330D01*
X3715969Y421741D01*
X3719576Y435711D01*
X3721354Y449986D01*
X3721354Y464413D01*
X3719576Y478688D01*
X3715969Y492658D01*
X3710686Y506069D01*
X3703726Y518718D01*
X3695242Y530352D01*
X3685387Y540867D01*
X3674262Y550062D01*
X3662121Y557784D01*
X3649065Y563930D01*
X3635349Y568401D01*
X3621176Y571093D01*
X3606800Y572008D01*
X3592423Y571093D01*
X3578250Y568401D01*
X3564534Y563930D01*
X3551478Y557784D01*
X3539337Y550062D01*
X3528212Y540867D01*
X3518357Y530352D01*
X3509873Y518718D01*
X3502914Y506069D01*
X3497630Y492658D01*
X3494024Y478688D01*
X3492246Y464413D01*
X3492246Y449986D01*
X3494024Y435711D01*
X3497630Y421741D01*
X3502914Y408330D01*
X3509873Y395681D01*
X3518357Y384048D01*
X3528212Y373532D01*
X3539337Y364337D01*
X3551174Y356819D01*
X3553714Y354533D01*
X3555339Y351586D01*
X3555898Y348234D01*
X3555898Y-116992D01*
X3555034Y-121056D01*
X3552698Y-124409D01*
X3549192Y-126593D01*
X3545128Y-127152D01*
X3534410Y-126492D01*
X3519017Y-127457D01*
X3503879Y-130200D01*
X3489198Y-134772D01*
X3475177Y-141122D01*
X3461969Y-149098D01*
X3449878Y-158597D01*
X3439007Y-169468D01*
X3429508Y-181559D01*
X3421532Y-194767D01*
X3415182Y-208788D01*
X3410610Y-223469D01*
X3407867Y-238607D01*
X3406901Y-254000D01*
X3407867Y-269392D01*
X3410610Y-284530D01*
X3415182Y-299212D01*
X3421532Y-313232D01*
X3429508Y-326440D01*
X3439007Y-338531D01*
X3449878Y-349402D01*
X3461969Y-358902D01*
X3475177Y-366877D01*
X3489198Y-373227D01*
X3503879Y-377799D01*
X3519017Y-380542D01*
G37*
G36*
X4232910Y-381508D02*
G01*
X4248302Y-380542D01*
X4263440Y-377799D01*
X4278122Y-373227D01*
X4292142Y-366877D01*
X4305350Y-358902D01*
X4317441Y-349402D01*
X4328312Y-338531D01*
X4337812Y-326440D01*
X4345787Y-313232D01*
X4352137Y-299212D01*
X4356709Y-284530D01*
X4359452Y-269392D01*
X4360418Y-254000D01*
X4359452Y-238607D01*
X4356709Y-223469D01*
X4352137Y-208788D01*
X4345787Y-194767D01*
X4337812Y-181559D01*
X4328312Y-169468D01*
X4317441Y-158597D01*
X4305350Y-149098D01*
X4292142Y-141122D01*
X4278122Y-134772D01*
X4263440Y-130200D01*
X4248302Y-127457D01*
X4232910Y-126492D01*
X4217517Y-127457D01*
X4202379Y-130200D01*
X4192015Y-133451D01*
X4188409Y-133908D01*
X4184853Y-132994D01*
X4181856Y-130911D01*
X4168698Y-117754D01*
X4166463Y-114503D01*
X4165701Y-110591D01*
X4165701Y348234D01*
X4166260Y351586D01*
X4167886Y354533D01*
X4170426Y356819D01*
X4182262Y364337D01*
X4193387Y373532D01*
X4203242Y384048D01*
X4211726Y395681D01*
X4218686Y408330D01*
X4223969Y421741D01*
X4227576Y435711D01*
X4229354Y449986D01*
X4229354Y464413D01*
X4227576Y478688D01*
X4223969Y492658D01*
X4218686Y506069D01*
X4211726Y518718D01*
X4203242Y530352D01*
X4193387Y540867D01*
X4182262Y550062D01*
X4170121Y557784D01*
X4157065Y563930D01*
X4143349Y568401D01*
X4129176Y571093D01*
X4114800Y572008D01*
X4100423Y571093D01*
X4086250Y568401D01*
X4072534Y563930D01*
X4059478Y557784D01*
X4047337Y550062D01*
X4036212Y540867D01*
X4026357Y530352D01*
X4017873Y518718D01*
X4010914Y506069D01*
X4005630Y492658D01*
X4002024Y478688D01*
X4000246Y464413D01*
X4000246Y449986D01*
X4002024Y435711D01*
X4005630Y421741D01*
X4010914Y408330D01*
X4017873Y395681D01*
X4026357Y384048D01*
X4036212Y373532D01*
X4047337Y364337D01*
X4059174Y356819D01*
X4061714Y354533D01*
X4063339Y351586D01*
X4063898Y348234D01*
X4063898Y-135686D01*
X4064101Y-140309D01*
X4064660Y-144729D01*
X4065625Y-149047D01*
X4066946Y-153314D01*
X4068673Y-157378D01*
X4070705Y-161340D01*
X4073093Y-165100D01*
X4075785Y-168605D01*
X4078935Y-172059D01*
X4109821Y-202946D01*
X4111904Y-205943D01*
X4112818Y-209499D01*
X4112361Y-213106D01*
X4109110Y-223469D01*
X4106367Y-238607D01*
X4105401Y-254000D01*
X4106367Y-269392D01*
X4109110Y-284530D01*
X4113682Y-299212D01*
X4120032Y-313232D01*
X4128008Y-326440D01*
X4137507Y-338531D01*
X4148378Y-349402D01*
X4160469Y-358902D01*
X4173677Y-366877D01*
X4187698Y-373227D01*
X4202379Y-377799D01*
X4217517Y-380542D01*
G37*
G36*
X3183890Y-381508D02*
G01*
X3199282Y-380542D01*
X3214420Y-377799D01*
X3229102Y-373227D01*
X3243122Y-366877D01*
X3256330Y-358902D01*
X3268421Y-349402D01*
X3279292Y-338531D01*
X3288792Y-326440D01*
X3296767Y-313232D01*
X3303117Y-299212D01*
X3307689Y-284530D01*
X3310432Y-269392D01*
X3311398Y-254000D01*
X3310432Y-238607D01*
X3307689Y-223469D01*
X3304438Y-213106D01*
X3303981Y-209499D01*
X3304895Y-205943D01*
X3306978Y-202946D01*
X3388664Y-121259D01*
X3391814Y-117805D01*
X3394506Y-114300D01*
X3396894Y-110540D01*
X3398926Y-106578D01*
X3400653Y-102514D01*
X3401974Y-98247D01*
X3402939Y-93929D01*
X3403498Y-89509D01*
X3403701Y-84886D01*
X3403701Y348234D01*
X3404260Y351586D01*
X3405886Y354533D01*
X3408426Y356819D01*
X3420262Y364337D01*
X3431387Y373532D01*
X3441242Y384048D01*
X3449726Y395681D01*
X3456686Y408330D01*
X3461969Y421741D01*
X3465576Y435711D01*
X3467354Y449986D01*
X3467354Y464413D01*
X3465576Y478688D01*
X3461969Y492658D01*
X3456686Y506069D01*
X3449726Y518718D01*
X3441242Y530352D01*
X3431387Y540867D01*
X3420262Y550062D01*
X3408121Y557784D01*
X3395065Y563930D01*
X3381349Y568401D01*
X3367176Y571093D01*
X3352800Y572008D01*
X3338423Y571093D01*
X3324250Y568401D01*
X3310534Y563930D01*
X3297478Y557784D01*
X3285337Y550062D01*
X3274212Y540867D01*
X3264357Y530352D01*
X3255873Y518718D01*
X3248914Y506069D01*
X3243630Y492658D01*
X3240024Y478688D01*
X3238246Y464413D01*
X3238246Y449986D01*
X3240024Y435711D01*
X3243630Y421741D01*
X3248914Y408330D01*
X3255873Y395681D01*
X3264357Y384048D01*
X3274212Y373532D01*
X3285337Y364337D01*
X3297174Y356819D01*
X3299714Y354533D01*
X3301339Y351586D01*
X3301898Y348234D01*
X3301898Y-59791D01*
X3301136Y-63703D01*
X3298901Y-66954D01*
X3234944Y-130911D01*
X3231946Y-132994D01*
X3228390Y-133908D01*
X3224784Y-133451D01*
X3214420Y-130200D01*
X3199282Y-127457D01*
X3183890Y-126492D01*
X3168497Y-127457D01*
X3153359Y-130200D01*
X3138678Y-134772D01*
X3124657Y-141122D01*
X3111449Y-149098D01*
X3099358Y-158597D01*
X3088487Y-169468D01*
X3078988Y-181559D01*
X3071012Y-194767D01*
X3064662Y-208788D01*
X3060090Y-223469D01*
X3057347Y-238607D01*
X3056382Y-254000D01*
X3057347Y-269392D01*
X3060090Y-284530D01*
X3064662Y-299212D01*
X3071012Y-313232D01*
X3078988Y-326440D01*
X3088487Y-338531D01*
X3099358Y-349402D01*
X3111449Y-358902D01*
X3124657Y-366877D01*
X3138678Y-373227D01*
X3153359Y-377799D01*
X3168497Y-380542D01*
G37*
G36*
X4482388Y-381508D02*
G01*
X4684471Y-381508D01*
X4690770Y-380796D01*
X4696256Y-378866D01*
X4701133Y-375818D01*
X4705248Y-371703D01*
X4708296Y-366826D01*
X4710226Y-361340D01*
X4710938Y-355041D01*
X4710938Y-152958D01*
X4710226Y-146659D01*
X4708296Y-141173D01*
X4705248Y-136296D01*
X4701133Y-132181D01*
X4696256Y-129133D01*
X4690770Y-127203D01*
X4684471Y-126492D01*
X4532122Y-126492D01*
X4528261Y-125730D01*
X4524959Y-123494D01*
X4422698Y-21234D01*
X4420463Y-17983D01*
X4419701Y-14071D01*
X4419701Y348234D01*
X4420260Y351586D01*
X4421886Y354533D01*
X4424426Y356819D01*
X4436262Y364337D01*
X4447387Y373532D01*
X4457242Y384048D01*
X4465726Y395681D01*
X4472686Y408330D01*
X4477969Y421741D01*
X4481576Y435711D01*
X4483354Y449986D01*
X4483354Y464413D01*
X4481576Y478688D01*
X4477969Y492658D01*
X4472686Y506069D01*
X4465726Y518718D01*
X4457242Y530352D01*
X4447387Y540867D01*
X4436262Y550062D01*
X4424121Y557784D01*
X4411065Y563930D01*
X4397349Y568401D01*
X4383176Y571093D01*
X4368800Y572008D01*
X4354423Y571093D01*
X4340250Y568401D01*
X4326534Y563930D01*
X4313478Y557784D01*
X4301337Y550062D01*
X4290212Y540867D01*
X4280357Y530352D01*
X4271873Y518718D01*
X4264914Y506069D01*
X4259630Y492658D01*
X4256024Y478688D01*
X4254246Y464413D01*
X4254246Y449986D01*
X4256024Y435711D01*
X4259630Y421741D01*
X4264914Y408330D01*
X4271873Y395681D01*
X4280357Y384048D01*
X4290212Y373532D01*
X4301337Y364337D01*
X4313174Y356819D01*
X4315714Y354533D01*
X4317339Y351586D01*
X4317898Y348234D01*
X4317898Y-39166D01*
X4318101Y-43789D01*
X4318660Y-48209D01*
X4319625Y-52527D01*
X4320946Y-56794D01*
X4322673Y-60858D01*
X4324705Y-64820D01*
X4327093Y-68580D01*
X4329785Y-72085D01*
X4332935Y-75539D01*
X4452924Y-195529D01*
X4455160Y-198831D01*
X4455922Y-202692D01*
X4455922Y-355041D01*
X4456633Y-361340D01*
X4458563Y-366826D01*
X4461611Y-371703D01*
X4465726Y-375818D01*
X4470603Y-378866D01*
X4476089Y-380796D01*
G37*
G36*
X2833370Y-381508D02*
G01*
X2848762Y-380542D01*
X2863900Y-377799D01*
X2878582Y-373227D01*
X2892602Y-366877D01*
X2905810Y-358902D01*
X2917901Y-349402D01*
X2928772Y-338531D01*
X2938272Y-326440D01*
X2946247Y-313232D01*
X2952597Y-299212D01*
X2957169Y-284530D01*
X2959912Y-269392D01*
X2960878Y-254000D01*
X2959912Y-238607D01*
X2957169Y-223469D01*
X2953918Y-213106D01*
X2953461Y-209499D01*
X2954375Y-205943D01*
X2956458Y-202946D01*
X3134664Y-24739D01*
X3137814Y-21285D01*
X3140506Y-17780D01*
X3142894Y-14020D01*
X3144926Y-10058D01*
X3146653Y-5994D01*
X3147974Y-1727D01*
X3148939Y2590D01*
X3149498Y7010D01*
X3149701Y11633D01*
X3149701Y348234D01*
X3150260Y351586D01*
X3151886Y354533D01*
X3154426Y356819D01*
X3166262Y364337D01*
X3177387Y373532D01*
X3187242Y384048D01*
X3195726Y395681D01*
X3202686Y408330D01*
X3207969Y421741D01*
X3211576Y435711D01*
X3213354Y449986D01*
X3213354Y464413D01*
X3211576Y478688D01*
X3207969Y492658D01*
X3202686Y506069D01*
X3195726Y518718D01*
X3187242Y530352D01*
X3177387Y540867D01*
X3166262Y550062D01*
X3154121Y557784D01*
X3141065Y563930D01*
X3127349Y568401D01*
X3113176Y571093D01*
X3098800Y572008D01*
X3084423Y571093D01*
X3070250Y568401D01*
X3056534Y563930D01*
X3043478Y557784D01*
X3031337Y550062D01*
X3020212Y540867D01*
X3010357Y530352D01*
X3001873Y518718D01*
X2994914Y506069D01*
X2989630Y492658D01*
X2986024Y478688D01*
X2984246Y464413D01*
X2984246Y449986D01*
X2986024Y435711D01*
X2989630Y421741D01*
X2994914Y408330D01*
X3001873Y395681D01*
X3010357Y384048D01*
X3020212Y373532D01*
X3031337Y364337D01*
X3043174Y356819D01*
X3045714Y354533D01*
X3047339Y351586D01*
X3047898Y348234D01*
X3047898Y36728D01*
X3047136Y32816D01*
X3044901Y29565D01*
X2884424Y-130911D01*
X2881426Y-132994D01*
X2877870Y-133908D01*
X2874264Y-133451D01*
X2863900Y-130200D01*
X2848762Y-127457D01*
X2833370Y-126492D01*
X2817977Y-127457D01*
X2802839Y-130200D01*
X2788158Y-134772D01*
X2774137Y-141122D01*
X2760929Y-149098D01*
X2748838Y-158597D01*
X2737967Y-169468D01*
X2728468Y-181559D01*
X2720492Y-194767D01*
X2714142Y-208788D01*
X2709570Y-223469D01*
X2706827Y-238607D01*
X2705862Y-254000D01*
X2706827Y-269392D01*
X2709570Y-284530D01*
X2714142Y-299212D01*
X2720492Y-313232D01*
X2728468Y-326440D01*
X2737967Y-338531D01*
X2748838Y-349402D01*
X2760929Y-358902D01*
X2774137Y-366877D01*
X2788158Y-373227D01*
X2802839Y-377799D01*
X2817977Y-380542D01*
G37*
G36*
X6511290Y-381508D02*
G01*
X6526682Y-380542D01*
X6541820Y-377799D01*
X6556502Y-373227D01*
X6570522Y-366877D01*
X6583730Y-358902D01*
X6595821Y-349402D01*
X6606692Y-338531D01*
X6616192Y-326440D01*
X6624167Y-313232D01*
X6630517Y-299212D01*
X6635089Y-284530D01*
X6637832Y-269392D01*
X6638798Y-254000D01*
X6637832Y-238607D01*
X6635089Y-223469D01*
X6630517Y-208788D01*
X6624167Y-194767D01*
X6616192Y-181559D01*
X6606692Y-169468D01*
X6595821Y-158597D01*
X6583730Y-149098D01*
X6570522Y-141122D01*
X6556502Y-134772D01*
X6541820Y-130200D01*
X6526682Y-127457D01*
X6511290Y-126492D01*
X6495897Y-127457D01*
X6480759Y-130200D01*
X6470396Y-133451D01*
X6466789Y-133908D01*
X6463233Y-132994D01*
X6460236Y-130911D01*
X6344259Y-14935D01*
X6340805Y-11785D01*
X6337300Y-9093D01*
X6333540Y-6705D01*
X6329578Y-4673D01*
X6325514Y-2946D01*
X6321247Y-1625D01*
X6316929Y-660D01*
X6312509Y-101D01*
X6307886Y101D01*
X6146698Y101D01*
X6142786Y863D01*
X6139535Y3098D01*
X6035598Y107035D01*
X6033363Y110286D01*
X6032601Y114198D01*
X6032601Y944118D01*
X6033262Y947623D01*
X6035090Y950721D01*
X6037884Y953008D01*
X6043777Y956259D01*
X6055563Y964793D01*
X6066180Y974750D01*
X6075476Y985977D01*
X6083249Y998270D01*
X6089446Y1011428D01*
X6093968Y1025296D01*
X6096660Y1039571D01*
X6097574Y1054100D01*
X6096660Y1068628D01*
X6093968Y1082903D01*
X6093053Y1085646D01*
X6092596Y1089304D01*
X6093460Y1092911D01*
X6095542Y1095959D01*
X6114846Y1115263D01*
X6118250Y1117498D01*
X6122212Y1118260D01*
X6126124Y1117396D01*
X6129426Y1115060D01*
X6131560Y1111656D01*
X6132220Y1107694D01*
X6131255Y1103782D01*
X6127953Y1096772D01*
X6123432Y1082903D01*
X6120739Y1068628D01*
X6119825Y1054100D01*
X6120739Y1039571D01*
X6123432Y1025296D01*
X6127953Y1011428D01*
X6134150Y998270D01*
X6141923Y985977D01*
X6151219Y974750D01*
X6161836Y964793D01*
X6173622Y956259D01*
X6179515Y953008D01*
X6182309Y950721D01*
X6184138Y947623D01*
X6184798Y944118D01*
X6184798Y228803D01*
X6185001Y224180D01*
X6185560Y219760D01*
X6186525Y215442D01*
X6187846Y211175D01*
X6189573Y207111D01*
X6191605Y203149D01*
X6193993Y199390D01*
X6196685Y195884D01*
X6199835Y192430D01*
X6478930Y-86664D01*
X6482384Y-89814D01*
X6485890Y-92506D01*
X6489649Y-94894D01*
X6493611Y-96926D01*
X6497675Y-98653D01*
X6501942Y-99974D01*
X6506260Y-100939D01*
X6510680Y-101498D01*
X6515303Y-101701D01*
X6633311Y-101701D01*
X6637223Y-102463D01*
X6640474Y-104698D01*
X6731304Y-195529D01*
X6733540Y-198831D01*
X6734302Y-202692D01*
X6734302Y-355041D01*
X6735013Y-361340D01*
X6736943Y-366826D01*
X6739991Y-371703D01*
X6744106Y-375818D01*
X6748983Y-378866D01*
X6754469Y-380796D01*
X6760768Y-381508D01*
X6962851Y-381508D01*
X6969150Y-380796D01*
X6974636Y-378866D01*
X6979513Y-375818D01*
X6983628Y-371703D01*
X6986676Y-366826D01*
X6988606Y-361340D01*
X6989318Y-355041D01*
X6989318Y-152958D01*
X6988606Y-146659D01*
X6986676Y-141173D01*
X6983628Y-136296D01*
X6979513Y-132181D01*
X6974636Y-129133D01*
X6969150Y-127203D01*
X6962851Y-126492D01*
X6810502Y-126492D01*
X6806641Y-125730D01*
X6803339Y-123494D01*
X6694779Y-14935D01*
X6691325Y-11785D01*
X6687820Y-9093D01*
X6684060Y-6705D01*
X6680098Y-4673D01*
X6676034Y-2946D01*
X6671767Y-1625D01*
X6667449Y-660D01*
X6663029Y-101D01*
X6658406Y101D01*
X6540398Y101D01*
X6536486Y863D01*
X6533235Y3098D01*
X6289598Y246735D01*
X6287363Y249986D01*
X6286601Y253898D01*
X6286601Y944118D01*
X6287262Y947623D01*
X6289090Y950721D01*
X6291884Y953008D01*
X6297777Y956259D01*
X6309563Y964793D01*
X6320180Y974750D01*
X6329476Y985977D01*
X6337249Y998270D01*
X6343446Y1011428D01*
X6347968Y1025296D01*
X6350660Y1039571D01*
X6351574Y1054100D01*
X6350660Y1068628D01*
X6347968Y1082903D01*
X6347053Y1085646D01*
X6346596Y1089304D01*
X6347460Y1092911D01*
X6349542Y1095959D01*
X6703364Y1449730D01*
X6706514Y1453184D01*
X6709206Y1456690D01*
X6711594Y1460449D01*
X6713626Y1464411D01*
X6715353Y1468475D01*
X6716674Y1472742D01*
X6717639Y1477060D01*
X6718198Y1481480D01*
X6718401Y1486103D01*
X6718401Y2133396D01*
X6718198Y2138019D01*
X6717639Y2142439D01*
X6716674Y2146757D01*
X6715353Y2151024D01*
X6713626Y2155088D01*
X6711594Y2159050D01*
X6709206Y2162810D01*
X6706514Y2166315D01*
X6703364Y2169769D01*
X6333490Y2539593D01*
X6331508Y2542387D01*
X6330594Y2545689D01*
X6330797Y2549093D01*
X6332067Y2552242D01*
X6337249Y2560370D01*
X6343446Y2573528D01*
X6347968Y2587396D01*
X6350660Y2601671D01*
X6351574Y2616200D01*
X6350660Y2630728D01*
X6347968Y2645003D01*
X6343446Y2658872D01*
X6337249Y2672029D01*
X6329476Y2684322D01*
X6320180Y2695549D01*
X6309563Y2705506D01*
X6297777Y2714040D01*
X6285026Y2721051D01*
X6271514Y2726436D01*
X6257391Y2730042D01*
X6242964Y2731871D01*
X6228435Y2731871D01*
X6214008Y2730042D01*
X6203594Y2727350D01*
X6200089Y2727096D01*
X6196736Y2728010D01*
X6193891Y2730042D01*
X5896406Y3027476D01*
X5894374Y3030372D01*
X5890818Y3038094D01*
X5885180Y3046120D01*
X5878220Y3053080D01*
X5870194Y3058718D01*
X5861253Y3062833D01*
X5851804Y3065373D01*
X5842000Y3066237D01*
X5832195Y3065373D01*
X5822746Y3062833D01*
X5813806Y3058718D01*
X5805779Y3053080D01*
X5798820Y3046120D01*
X5793181Y3038094D01*
X5789066Y3029153D01*
X5786526Y3019704D01*
X5785662Y3009900D01*
X5786526Y3000095D01*
X5789066Y2990646D01*
X5793181Y2981706D01*
X5798820Y2973679D01*
X5805779Y2966720D01*
X5813806Y2961081D01*
X5821527Y2957525D01*
X5824423Y2955493D01*
X6042355Y2737510D01*
X6044590Y2734259D01*
X6045352Y2730398D01*
X6044590Y2726537D01*
X6042456Y2723235D01*
X6039205Y2721000D01*
X6035344Y2720187D01*
X6031433Y2720898D01*
X6017514Y2726436D01*
X6003391Y2730042D01*
X5988964Y2731871D01*
X5974435Y2731871D01*
X5960008Y2730042D01*
X5949594Y2727350D01*
X5946089Y2727096D01*
X5942736Y2728010D01*
X5939891Y2730042D01*
X5769406Y2900476D01*
X5767374Y2903372D01*
X5763818Y2911094D01*
X5758180Y2919120D01*
X5751220Y2926080D01*
X5743194Y2931718D01*
X5734253Y2935833D01*
X5724804Y2938373D01*
X5715000Y2939237D01*
X5705195Y2938373D01*
X5695746Y2935833D01*
X5686806Y2931718D01*
X5678779Y2926080D01*
X5671820Y2919120D01*
X5666181Y2911094D01*
X5662066Y2902153D01*
X5659526Y2892704D01*
X5658662Y2882900D01*
X5659526Y2873095D01*
X5662066Y2863646D01*
X5666181Y2854706D01*
X5671820Y2846679D01*
X5678779Y2839720D01*
X5686806Y2834081D01*
X5694527Y2830525D01*
X5697423Y2828493D01*
X5776468Y2749448D01*
X5778652Y2746146D01*
X5779414Y2742285D01*
X5778652Y2738374D01*
X5776468Y2735072D01*
X5773166Y2732887D01*
X5769254Y2732125D01*
X5649518Y2732125D01*
X5643219Y2731414D01*
X5637733Y2729484D01*
X5632856Y2726385D01*
X5628741Y2722321D01*
X5625693Y2717393D01*
X5623763Y2711958D01*
X5623052Y2705608D01*
X5623052Y2526792D01*
X5623763Y2520442D01*
X5625693Y2515006D01*
X5628741Y2510078D01*
X5632856Y2506014D01*
X5637733Y2502916D01*
X5643219Y2500985D01*
X5649518Y2500274D01*
X5805881Y2500274D01*
X5812180Y2500985D01*
X5817666Y2502916D01*
X5822543Y2506014D01*
X5826658Y2510078D01*
X5829706Y2515006D01*
X5831636Y2520442D01*
X5832348Y2526792D01*
X5832348Y2669032D01*
X5833110Y2672892D01*
X5835345Y2676194D01*
X5838596Y2678430D01*
X5842508Y2679192D01*
X5846419Y2678430D01*
X5849670Y2676194D01*
X5867857Y2658059D01*
X5869940Y2655011D01*
X5870803Y2651404D01*
X5870346Y2647746D01*
X5869432Y2645003D01*
X5866739Y2630728D01*
X5865825Y2616200D01*
X5866739Y2601671D01*
X5869432Y2587396D01*
X5873953Y2573528D01*
X5880150Y2560370D01*
X5887923Y2548077D01*
X5897219Y2536850D01*
X5907836Y2526893D01*
X5919622Y2518359D01*
X5932373Y2511348D01*
X5945886Y2505964D01*
X5960008Y2502357D01*
X5974435Y2500528D01*
X5988964Y2500528D01*
X6003696Y2502458D01*
X6007201Y2502712D01*
X6010554Y2501798D01*
X6013399Y2499766D01*
X6461201Y2051964D01*
X6463436Y2048713D01*
X6464198Y2044801D01*
X6464198Y1612798D01*
X6463436Y1608886D01*
X6461201Y1605635D01*
X6023508Y1167942D01*
X6020663Y1165910D01*
X6017310Y1164996D01*
X6013805Y1165250D01*
X6003391Y1167942D01*
X5988964Y1169771D01*
X5974435Y1169771D01*
X5960008Y1167942D01*
X5945886Y1164336D01*
X5932373Y1158951D01*
X5919622Y1151940D01*
X5907836Y1143406D01*
X5897219Y1133449D01*
X5887923Y1122222D01*
X5880150Y1109929D01*
X5873953Y1096772D01*
X5869432Y1082903D01*
X5866739Y1068628D01*
X5865825Y1054100D01*
X5866739Y1039571D01*
X5869432Y1025296D01*
X5873953Y1011428D01*
X5880150Y998270D01*
X5887923Y985977D01*
X5897219Y974750D01*
X5907836Y964793D01*
X5919622Y956259D01*
X5925515Y953008D01*
X5928309Y950721D01*
X5930138Y947623D01*
X5930798Y944118D01*
X5930798Y89103D01*
X5931001Y84480D01*
X5931560Y80060D01*
X5932525Y75742D01*
X5933846Y71475D01*
X5935573Y67411D01*
X5937605Y63449D01*
X5939993Y59690D01*
X5942685Y56184D01*
X5945835Y52730D01*
X6085230Y-86664D01*
X6088684Y-89814D01*
X6092190Y-92506D01*
X6095949Y-94894D01*
X6099911Y-96926D01*
X6103975Y-98653D01*
X6108242Y-99974D01*
X6112560Y-100939D01*
X6116980Y-101498D01*
X6121603Y-101701D01*
X6282791Y-101701D01*
X6286703Y-102463D01*
X6289954Y-104698D01*
X6388201Y-202946D01*
X6390284Y-205943D01*
X6391198Y-209499D01*
X6390741Y-213106D01*
X6387490Y-223469D01*
X6384747Y-238607D01*
X6383782Y-254000D01*
X6384747Y-269392D01*
X6387490Y-284530D01*
X6392062Y-299212D01*
X6398412Y-313232D01*
X6406388Y-326440D01*
X6415887Y-338531D01*
X6426758Y-349402D01*
X6438849Y-358902D01*
X6452057Y-366877D01*
X6466078Y-373227D01*
X6480759Y-377799D01*
X6495897Y-380542D01*
G37*
G36*
X4895545Y4620107D02*
G01*
X5035854Y4620107D01*
X5042204Y4620869D01*
X5047640Y4622749D01*
X5052568Y4625848D01*
X5056632Y4629912D01*
X5059730Y4634839D01*
X5061610Y4640275D01*
X5062372Y4646625D01*
X5062372Y4786934D01*
X5061610Y4793284D01*
X5059730Y4798720D01*
X5056632Y4803648D01*
X5052568Y4807712D01*
X5047640Y4810810D01*
X5042204Y4812690D01*
X5035854Y4813401D01*
X4895545Y4813401D01*
X4889195Y4812690D01*
X4883759Y4810810D01*
X4878832Y4807712D01*
X4874768Y4803648D01*
X4871669Y4798720D01*
X4869789Y4793284D01*
X4869078Y4786934D01*
X4869078Y4646625D01*
X4869789Y4640275D01*
X4871669Y4634839D01*
X4874768Y4629912D01*
X4878832Y4625848D01*
X4883759Y4622749D01*
X4889195Y4620869D01*
G37*
G36*
X4133545Y4620107D02*
G01*
X4273854Y4620107D01*
X4280204Y4620869D01*
X4285640Y4622749D01*
X4290568Y4625848D01*
X4294632Y4629912D01*
X4297730Y4634839D01*
X4299610Y4640275D01*
X4300372Y4646625D01*
X4300372Y4786934D01*
X4299610Y4793284D01*
X4297730Y4798720D01*
X4294632Y4803648D01*
X4290568Y4807712D01*
X4285640Y4810810D01*
X4280204Y4812690D01*
X4273854Y4813401D01*
X4133545Y4813401D01*
X4127195Y4812690D01*
X4121759Y4810810D01*
X4116832Y4807712D01*
X4112768Y4803648D01*
X4109669Y4798720D01*
X4107789Y4793284D01*
X4107027Y4786934D01*
X4107027Y4646625D01*
X4107789Y4640275D01*
X4109669Y4634839D01*
X4112768Y4629912D01*
X4116832Y4625848D01*
X4121759Y4622749D01*
X4127195Y4620869D01*
G37*
G36*
X6103620Y-367842D02*
G01*
X6103620Y-311150D01*
X6046927Y-311150D01*
X6047892Y-313232D01*
X6055868Y-326440D01*
X6065367Y-338531D01*
X6076238Y-349402D01*
X6088329Y-358902D01*
X6101537Y-366877D01*
G37*
G36*
X6217920Y-367842D02*
G01*
X6220002Y-366877D01*
X6233210Y-358902D01*
X6245301Y-349402D01*
X6256172Y-338531D01*
X6265672Y-326440D01*
X6273647Y-313232D01*
X6274612Y-311150D01*
X6217920Y-311150D01*
G37*
G36*
X6046927Y-196850D02*
G01*
X6103620Y-196850D01*
X6103620Y-140157D01*
X6101537Y-141122D01*
X6088329Y-149098D01*
X6076238Y-158597D01*
X6065367Y-169468D01*
X6055868Y-181559D01*
X6047892Y-194767D01*
G37*
G36*
X6217920Y-196850D02*
G01*
X6274612Y-196850D01*
X6273647Y-194767D01*
X6265672Y-181559D01*
X6256172Y-169468D01*
X6245301Y-158597D01*
X6233210Y-149098D01*
X6220002Y-141122D01*
X6217920Y-140157D01*
G37*
G36*
X6165545Y4620107D02*
G01*
X6305854Y4620107D01*
X6312204Y4620869D01*
X6317640Y4622749D01*
X6322568Y4625848D01*
X6326632Y4629912D01*
X6329730Y4634839D01*
X6331610Y4640275D01*
X6332372Y4646625D01*
X6332372Y4786934D01*
X6331610Y4793284D01*
X6329730Y4798720D01*
X6326632Y4803648D01*
X6322568Y4807712D01*
X6317640Y4810810D01*
X6312204Y4812690D01*
X6305854Y4813401D01*
X6165545Y4813401D01*
X6159195Y4812690D01*
X6153759Y4810810D01*
X6148832Y4807712D01*
X6144768Y4803648D01*
X6141669Y4798720D01*
X6139789Y4793284D01*
X6139078Y4786934D01*
X6139078Y4646625D01*
X6139789Y4640275D01*
X6141669Y4634839D01*
X6144768Y4629912D01*
X6148832Y4625848D01*
X6153759Y4622749D01*
X6159195Y4620869D01*
G37*
G36*
X5911545Y4620107D02*
G01*
X6051854Y4620107D01*
X6058204Y4620869D01*
X6063640Y4622749D01*
X6068568Y4625848D01*
X6072632Y4629912D01*
X6075730Y4634839D01*
X6077610Y4640275D01*
X6078372Y4646625D01*
X6078372Y4786934D01*
X6077610Y4793284D01*
X6075730Y4798720D01*
X6072632Y4803648D01*
X6068568Y4807712D01*
X6063640Y4810810D01*
X6058204Y4812690D01*
X6051854Y4813401D01*
X5911545Y4813401D01*
X5905195Y4812690D01*
X5899759Y4810810D01*
X5894832Y4807712D01*
X5890768Y4803648D01*
X5887669Y4798720D01*
X5885789Y4793284D01*
X5885078Y4786934D01*
X5885078Y4646625D01*
X5885789Y4640275D01*
X5887669Y4634839D01*
X5890768Y4629912D01*
X5894832Y4625848D01*
X5899759Y4622749D01*
X5905195Y4620869D01*
G37*
G36*
X7181545Y4620107D02*
G01*
X7321854Y4620107D01*
X7328204Y4620869D01*
X7333640Y4622749D01*
X7338568Y4625848D01*
X7342631Y4629912D01*
X7345730Y4634839D01*
X7347610Y4640275D01*
X7348372Y4646625D01*
X7348372Y4786934D01*
X7347610Y4793284D01*
X7345730Y4798720D01*
X7342631Y4803648D01*
X7338568Y4807712D01*
X7333640Y4810810D01*
X7328204Y4812690D01*
X7321854Y4813401D01*
X7181545Y4813401D01*
X7175195Y4812690D01*
X7169759Y4810810D01*
X7164831Y4807712D01*
X7160768Y4803648D01*
X7157669Y4798720D01*
X7155789Y4793284D01*
X7155078Y4786934D01*
X7155078Y4646625D01*
X7155789Y4640275D01*
X7157669Y4634839D01*
X7160768Y4629912D01*
X7164831Y4625848D01*
X7169759Y4622749D01*
X7175195Y4620869D01*
G37*
G36*
X7435545Y4620107D02*
G01*
X7575854Y4620107D01*
X7582204Y4620869D01*
X7587640Y4622749D01*
X7592568Y4625848D01*
X7596631Y4629912D01*
X7599730Y4634839D01*
X7601610Y4640275D01*
X7602372Y4646625D01*
X7602372Y4786934D01*
X7601610Y4793284D01*
X7599730Y4798720D01*
X7596631Y4803648D01*
X7592568Y4807712D01*
X7587640Y4810810D01*
X7582204Y4812690D01*
X7575854Y4813401D01*
X7435545Y4813401D01*
X7429195Y4812690D01*
X7423759Y4810810D01*
X7418831Y4807712D01*
X7414768Y4803648D01*
X7411669Y4798720D01*
X7409789Y4793284D01*
X7409078Y4786934D01*
X7409078Y4646625D01*
X7409789Y4640275D01*
X7411669Y4634839D01*
X7414768Y4629912D01*
X7418831Y4625848D01*
X7423759Y4622749D01*
X7429195Y4620869D01*
G37*
G36*
X3879545Y4620107D02*
G01*
X4019854Y4620107D01*
X4026204Y4620869D01*
X4031640Y4622749D01*
X4036568Y4625848D01*
X4040632Y4629912D01*
X4043730Y4634839D01*
X4045610Y4640275D01*
X4046372Y4646625D01*
X4046372Y4786934D01*
X4045610Y4793284D01*
X4043730Y4798720D01*
X4040632Y4803648D01*
X4036568Y4807712D01*
X4031640Y4810810D01*
X4026204Y4812690D01*
X4019854Y4813401D01*
X3879545Y4813401D01*
X3873195Y4812690D01*
X3867759Y4810810D01*
X3862832Y4807712D01*
X3858768Y4803648D01*
X3855669Y4798720D01*
X3853789Y4793284D01*
X3853027Y4786934D01*
X3853027Y4646625D01*
X3853789Y4640275D01*
X3855669Y4634839D01*
X3858768Y4629912D01*
X3862832Y4625848D01*
X3867759Y4622749D01*
X3873195Y4620869D01*
G37*
G36*
X6419545Y4620107D02*
G01*
X6559854Y4620107D01*
X6566204Y4620869D01*
X6571640Y4622749D01*
X6576568Y4625848D01*
X6580631Y4629912D01*
X6583730Y4634839D01*
X6585610Y4640275D01*
X6586372Y4646625D01*
X6586372Y4786934D01*
X6585610Y4793284D01*
X6583730Y4798720D01*
X6580631Y4803648D01*
X6576568Y4807712D01*
X6571640Y4810810D01*
X6566204Y4812690D01*
X6559854Y4813401D01*
X6419545Y4813401D01*
X6413195Y4812690D01*
X6407759Y4810810D01*
X6402832Y4807712D01*
X6398768Y4803648D01*
X6395669Y4798720D01*
X6393789Y4793284D01*
X6393078Y4786934D01*
X6393078Y4646625D01*
X6393789Y4640275D01*
X6395669Y4634839D01*
X6398768Y4629912D01*
X6402832Y4625848D01*
X6407759Y4622749D01*
X6413195Y4620869D01*
G37*
G36*
X7494422Y228498D02*
G01*
X8153196Y228498D01*
X8157819Y228701D01*
X8162239Y229260D01*
X8166557Y230225D01*
X8170824Y231546D01*
X8174888Y233273D01*
X8178850Y235305D01*
X8182609Y237693D01*
X8186115Y240385D01*
X8189569Y243535D01*
X8370265Y424281D01*
X8373872Y426618D01*
X8378088Y427228D01*
X8382000Y427024D01*
X8396528Y427939D01*
X8410803Y430631D01*
X8424672Y435152D01*
X8437829Y441350D01*
X8450122Y449122D01*
X8461349Y458419D01*
X8471306Y469036D01*
X8479840Y480822D01*
X8483092Y486714D01*
X8485378Y489508D01*
X8488476Y491337D01*
X8492032Y491998D01*
X8919819Y491998D01*
X8923528Y491286D01*
X8926677Y489305D01*
X8928963Y486359D01*
X8929979Y482752D01*
X8926474Y461416D01*
X8925560Y444500D01*
X8926474Y427583D01*
X8929319Y410921D01*
X8933992Y394665D01*
X8940495Y379018D01*
X8948674Y364236D01*
X8958478Y350418D01*
X8969756Y337820D01*
X8982354Y326542D01*
X8996172Y316738D01*
X9010954Y308559D01*
X9026601Y302056D01*
X9042857Y297383D01*
X9059519Y294538D01*
X9076436Y293624D01*
X9093352Y294538D01*
X9110014Y297383D01*
X9126270Y302056D01*
X9141917Y308559D01*
X9156700Y316738D01*
X9170517Y326542D01*
X9183116Y337820D01*
X9194393Y350418D01*
X9204198Y364236D01*
X9212376Y379018D01*
X9218879Y394665D01*
X9223552Y410921D01*
X9226397Y427583D01*
X9227312Y444500D01*
X9226397Y461416D01*
X9223552Y478078D01*
X9218879Y494334D01*
X9212376Y509981D01*
X9204198Y524764D01*
X9194393Y538581D01*
X9183116Y551180D01*
X9170517Y562457D01*
X9156700Y572262D01*
X9141917Y580440D01*
X9126270Y586943D01*
X9110014Y591616D01*
X9093352Y594461D01*
X9076436Y595376D01*
X9059519Y594461D01*
X9042857Y591616D01*
X9026601Y586943D01*
X9017457Y583133D01*
X9014256Y582371D01*
X9010954Y582676D01*
X9007957Y584047D01*
X9003436Y586994D01*
X8999524Y589026D01*
X8995460Y590753D01*
X8991193Y592074D01*
X8986875Y593039D01*
X8982456Y593598D01*
X8977833Y593801D01*
X8491982Y593801D01*
X8488476Y594461D01*
X8485378Y596290D01*
X8483092Y599084D01*
X8479840Y604977D01*
X8471306Y616762D01*
X8461349Y627380D01*
X8450122Y636625D01*
X8437829Y644448D01*
X8424672Y650646D01*
X8410803Y655116D01*
X8396528Y657860D01*
X8382000Y658774D01*
X8367471Y657860D01*
X8353196Y655116D01*
X8339328Y650646D01*
X8326170Y644448D01*
X8313877Y636625D01*
X8302650Y627380D01*
X8292693Y616762D01*
X8284159Y604977D01*
X8277148Y592226D01*
X8271764Y578713D01*
X8268157Y564591D01*
X8266328Y550164D01*
X8266328Y535635D01*
X8268157Y521157D01*
X8271764Y507085D01*
X8277148Y493572D01*
X8279993Y488340D01*
X8281212Y484225D01*
X8280603Y479907D01*
X8278266Y476250D01*
X8135264Y333298D01*
X8132013Y331063D01*
X8128101Y330301D01*
X7519466Y330301D01*
X7515606Y331063D01*
X7512303Y333298D01*
X7499756Y345846D01*
X7497521Y349148D01*
X7496759Y353009D01*
X7497521Y356920D01*
X7499756Y360222D01*
X7503058Y362407D01*
X7506919Y363169D01*
X7516063Y363169D01*
X7522362Y363880D01*
X7527798Y365810D01*
X7532725Y368909D01*
X7536789Y372973D01*
X7539888Y377901D01*
X7541818Y383336D01*
X7542530Y389686D01*
X7542530Y406298D01*
X7543292Y410209D01*
X7545476Y413512D01*
X7758328Y626313D01*
X7761478Y629716D01*
X7764170Y633272D01*
X7766558Y637032D01*
X7768590Y640943D01*
X7770317Y645058D01*
X7771587Y649224D01*
X7772298Y652678D01*
X7773924Y656386D01*
X7776870Y659180D01*
X7778902Y660501D01*
X7783017Y664565D01*
X7786065Y669493D01*
X7788198Y675538D01*
X7790332Y679094D01*
X7793736Y681532D01*
X7797800Y682345D01*
X7801864Y681532D01*
X7805267Y679094D01*
X7807401Y675538D01*
X7809534Y669493D01*
X7812582Y664565D01*
X7816697Y660501D01*
X7821574Y657402D01*
X7827060Y655523D01*
X7833359Y654812D01*
X7912862Y654812D01*
X7919212Y655523D01*
X7924647Y657402D01*
X7929575Y660501D01*
X7933639Y664565D01*
X7936738Y669493D01*
X7938668Y674928D01*
X7939379Y681278D01*
X7939379Y713892D01*
X7940141Y717804D01*
X7942325Y721106D01*
X8417864Y1196594D01*
X8421014Y1200048D01*
X8423706Y1203553D01*
X8426094Y1207312D01*
X8428126Y1211275D01*
X8429853Y1215339D01*
X8431174Y1219606D01*
X8432139Y1223924D01*
X8432698Y1228344D01*
X8432901Y1232966D01*
X8432901Y1302664D01*
X8433460Y1305966D01*
X8435086Y1308963D01*
X8437626Y1311198D01*
X8450122Y1319174D01*
X8461349Y1328420D01*
X8471306Y1339037D01*
X8479840Y1350822D01*
X8483092Y1356715D01*
X8485378Y1359509D01*
X8488476Y1361338D01*
X8491982Y1361998D01*
X8945016Y1361998D01*
X8948166Y1361490D01*
X8951061Y1360017D01*
X8953296Y1357731D01*
X8958478Y1350416D01*
X8969756Y1337818D01*
X8982354Y1326540D01*
X8996172Y1316736D01*
X9010954Y1308557D01*
X9026601Y1302054D01*
X9042857Y1297381D01*
X9059519Y1294536D01*
X9076436Y1293622D01*
X9093352Y1294536D01*
X9110014Y1297381D01*
X9126270Y1302054D01*
X9141917Y1308557D01*
X9156700Y1316736D01*
X9170517Y1326540D01*
X9183116Y1337818D01*
X9194393Y1350416D01*
X9204198Y1364234D01*
X9212376Y1379016D01*
X9218879Y1394663D01*
X9223552Y1410919D01*
X9226397Y1427581D01*
X9227312Y1444498D01*
X9226397Y1461414D01*
X9223552Y1478076D01*
X9218879Y1494332D01*
X9212376Y1509979D01*
X9204198Y1524762D01*
X9194393Y1538579D01*
X9183116Y1551178D01*
X9170517Y1562455D01*
X9156700Y1572260D01*
X9141917Y1580438D01*
X9133636Y1583893D01*
X9130334Y1586077D01*
X9128099Y1589379D01*
X9127337Y1593291D01*
X9127337Y1596237D01*
X9128099Y1600149D01*
X9130334Y1603400D01*
X9212935Y1686001D01*
X9216186Y1688236D01*
X9220098Y1688998D01*
X9308592Y1688998D01*
X9312910Y1688033D01*
X9315246Y1686966D01*
X9324695Y1684426D01*
X9334500Y1683562D01*
X9344304Y1684426D01*
X9353753Y1686966D01*
X9362694Y1691081D01*
X9370720Y1696720D01*
X9377680Y1703679D01*
X9379407Y1706168D01*
X9382506Y1709064D01*
X9386570Y1710436D01*
X9390786Y1710029D01*
X9394494Y1707946D01*
X9396984Y1704492D01*
X9397898Y1700326D01*
X9397898Y1180998D01*
X9397136Y1177086D01*
X9394901Y1173835D01*
X9219336Y998270D01*
X9216085Y996035D01*
X9212173Y995273D01*
X8975293Y995273D01*
X8971381Y996035D01*
X8968079Y998270D01*
X8965895Y1001572D01*
X8962440Y1009853D01*
X8954262Y1024636D01*
X8944457Y1038453D01*
X8933180Y1051052D01*
X8920581Y1062329D01*
X8906764Y1072134D01*
X8891981Y1080312D01*
X8876334Y1086815D01*
X8860078Y1091488D01*
X8843416Y1094333D01*
X8826500Y1095248D01*
X8809583Y1094333D01*
X8792921Y1091488D01*
X8776665Y1086815D01*
X8761018Y1080312D01*
X8746236Y1072134D01*
X8732418Y1062329D01*
X8719820Y1051052D01*
X8708542Y1038453D01*
X8698738Y1024636D01*
X8690559Y1009853D01*
X8684056Y994206D01*
X8679383Y977950D01*
X8676538Y961288D01*
X8675624Y944371D01*
X8676538Y927455D01*
X8679383Y910793D01*
X8684056Y894537D01*
X8690559Y878890D01*
X8698738Y864108D01*
X8708542Y850290D01*
X8719820Y837692D01*
X8732418Y826414D01*
X8746236Y816610D01*
X8761018Y808431D01*
X8776665Y801928D01*
X8792921Y797255D01*
X8809583Y794410D01*
X8826500Y793496D01*
X8843416Y794410D01*
X8860078Y797255D01*
X8876334Y801928D01*
X8891981Y808431D01*
X8906764Y816610D01*
X8920581Y826414D01*
X8933180Y837692D01*
X8944457Y850290D01*
X8954262Y864108D01*
X8962440Y878890D01*
X8965895Y887171D01*
X8968079Y890473D01*
X8971381Y892708D01*
X8975293Y893470D01*
X9237268Y893470D01*
X9241891Y893673D01*
X9246311Y894232D01*
X9250629Y895197D01*
X9254896Y896518D01*
X9258960Y898245D01*
X9262922Y900277D01*
X9266682Y902665D01*
X9270187Y905357D01*
X9273641Y908507D01*
X9484664Y1119530D01*
X9487814Y1122984D01*
X9490506Y1126490D01*
X9492894Y1130249D01*
X9494926Y1134211D01*
X9496653Y1138275D01*
X9497974Y1142542D01*
X9498939Y1146860D01*
X9499498Y1151280D01*
X9499701Y1155903D01*
X9499701Y1940661D01*
X9500463Y1944573D01*
X9502698Y1947824D01*
X9872929Y2318054D01*
X9876231Y2320290D01*
X9880092Y2321052D01*
X10032441Y2321052D01*
X10038740Y2321763D01*
X10044226Y2323693D01*
X10049103Y2326741D01*
X10053218Y2330856D01*
X10056266Y2335733D01*
X10058196Y2341219D01*
X10058908Y2347518D01*
X10058908Y2549601D01*
X10058196Y2555900D01*
X10056266Y2561386D01*
X10053218Y2566263D01*
X10049103Y2570378D01*
X10044226Y2573426D01*
X10038740Y2575356D01*
X10032441Y2576068D01*
X9830358Y2576068D01*
X9824059Y2575356D01*
X9818573Y2573426D01*
X9813696Y2570378D01*
X9809581Y2566263D01*
X9806533Y2561386D01*
X9804603Y2555900D01*
X9803892Y2549601D01*
X9803892Y2397252D01*
X9803130Y2393391D01*
X9800894Y2390089D01*
X9412935Y2002129D01*
X9409785Y1998675D01*
X9407093Y1995170D01*
X9404705Y1991410D01*
X9402673Y1987448D01*
X9400946Y1983384D01*
X9399625Y1979117D01*
X9398660Y1974799D01*
X9398101Y1970379D01*
X9397898Y1965756D01*
X9397898Y1779473D01*
X9396984Y1775307D01*
X9394494Y1771853D01*
X9390786Y1769770D01*
X9386570Y1769364D01*
X9382506Y1770735D01*
X9379407Y1773631D01*
X9377680Y1776120D01*
X9370720Y1783080D01*
X9362694Y1788718D01*
X9353753Y1792833D01*
X9344304Y1795373D01*
X9334500Y1796237D01*
X9324695Y1795373D01*
X9315246Y1792833D01*
X9312910Y1791766D01*
X9308592Y1790801D01*
X9195003Y1790801D01*
X9190380Y1790598D01*
X9185960Y1790039D01*
X9181642Y1789074D01*
X9177375Y1787753D01*
X9173311Y1786026D01*
X9169349Y1783994D01*
X9165590Y1781606D01*
X9162084Y1778914D01*
X9158630Y1775764D01*
X9040571Y1657705D01*
X9037421Y1654251D01*
X9034729Y1650746D01*
X9032341Y1646986D01*
X9030309Y1643024D01*
X9028582Y1638960D01*
X9027261Y1634693D01*
X9026296Y1630375D01*
X9025737Y1625955D01*
X9025534Y1621332D01*
X9025534Y1593291D01*
X9024772Y1589379D01*
X9022537Y1586077D01*
X9019235Y1583893D01*
X9010954Y1580438D01*
X8996172Y1572260D01*
X8982354Y1562455D01*
X8969756Y1551178D01*
X8958478Y1538579D01*
X8948674Y1524762D01*
X8940495Y1509979D01*
X8933992Y1494332D01*
X8929319Y1478076D01*
X8928354Y1472285D01*
X8927134Y1468932D01*
X8924899Y1466189D01*
X8921800Y1464411D01*
X8918346Y1463802D01*
X8492032Y1463802D01*
X8488476Y1464462D01*
X8485378Y1466291D01*
X8483092Y1469085D01*
X8479840Y1474978D01*
X8471306Y1486763D01*
X8461349Y1497380D01*
X8450122Y1506677D01*
X8437829Y1514449D01*
X8424672Y1520647D01*
X8410803Y1525168D01*
X8396528Y1527860D01*
X8382000Y1528775D01*
X8367471Y1527860D01*
X8353196Y1525168D01*
X8339328Y1520647D01*
X8326170Y1514449D01*
X8313877Y1506677D01*
X8302650Y1497380D01*
X8292693Y1486763D01*
X8284159Y1474978D01*
X8277148Y1462227D01*
X8271764Y1448714D01*
X8268157Y1434642D01*
X8266328Y1420164D01*
X8266328Y1405636D01*
X8268157Y1391208D01*
X8271764Y1377086D01*
X8277148Y1363573D01*
X8284159Y1350822D01*
X8292693Y1339037D01*
X8302650Y1328420D01*
X8313877Y1319174D01*
X8326374Y1311198D01*
X8328914Y1308963D01*
X8330539Y1305966D01*
X8331098Y1302664D01*
X8331098Y1258062D01*
X8330336Y1254150D01*
X8328101Y1250899D01*
X7873238Y795985D01*
X7869936Y793800D01*
X7866024Y792988D01*
X7833359Y792988D01*
X7827060Y792276D01*
X7821574Y790397D01*
X7816697Y787298D01*
X7812582Y783234D01*
X7809534Y778306D01*
X7807401Y772261D01*
X7805267Y768705D01*
X7801864Y766267D01*
X7797800Y765454D01*
X7793736Y766267D01*
X7790332Y768705D01*
X7788198Y772261D01*
X7786065Y778306D01*
X7783017Y783234D01*
X7778902Y787298D01*
X7774025Y790397D01*
X7768539Y792276D01*
X7762240Y792988D01*
X7682738Y792988D01*
X7676388Y792276D01*
X7670952Y790397D01*
X7666024Y787298D01*
X7661960Y783234D01*
X7658862Y778306D01*
X7656931Y772871D01*
X7656220Y766521D01*
X7656220Y681278D01*
X7657033Y674420D01*
X7656880Y671372D01*
X7655915Y668528D01*
X7654086Y666089D01*
X7465974Y477977D01*
X7462723Y475792D01*
X7458811Y475030D01*
X7442200Y475030D01*
X7435850Y474319D01*
X7430414Y472389D01*
X7425486Y469290D01*
X7423962Y467817D01*
X7420711Y465582D01*
X7416800Y464820D01*
X7412888Y465582D01*
X7409637Y467817D01*
X7408113Y469290D01*
X7403185Y472389D01*
X7397750Y474319D01*
X7391400Y475030D01*
X7374788Y475030D01*
X7370876Y475792D01*
X7367625Y477977D01*
X7242098Y603504D01*
X7239863Y606806D01*
X7239101Y610666D01*
X7239101Y674014D01*
X7239863Y677926D01*
X7242098Y681228D01*
X7245400Y683412D01*
X7249261Y684174D01*
X7277608Y684174D01*
X7283958Y684885D01*
X7289393Y686816D01*
X7294321Y689914D01*
X7298385Y693978D01*
X7301484Y698906D01*
X7303414Y704342D01*
X7304125Y710692D01*
X7304125Y846632D01*
X7304887Y850544D01*
X7307122Y853846D01*
X7310424Y856030D01*
X7314336Y856792D01*
X7318248Y855980D01*
X7323226Y853846D01*
X7327442Y852525D01*
X7331760Y851560D01*
X7336180Y851001D01*
X7340803Y850798D01*
X7784896Y850798D01*
X7789519Y851001D01*
X7793939Y851560D01*
X7798257Y852525D01*
X7802524Y853846D01*
X7806588Y855573D01*
X7810550Y857605D01*
X7814309Y859993D01*
X7817815Y862685D01*
X7821269Y865835D01*
X7909001Y953566D01*
X7912150Y957021D01*
X7914843Y960526D01*
X7917230Y964285D01*
X7919262Y968248D01*
X7920990Y972312D01*
X7922259Y976376D01*
X7923479Y982980D01*
X7925053Y986840D01*
X7928051Y989736D01*
X7929575Y990701D01*
X7933639Y994765D01*
X7936738Y999693D01*
X7938668Y1005128D01*
X7939379Y1011478D01*
X7939379Y1096721D01*
X7938668Y1103071D01*
X7936738Y1108506D01*
X7933639Y1113434D01*
X7929575Y1117498D01*
X7924647Y1120597D01*
X7919212Y1122476D01*
X7912862Y1123188D01*
X7833359Y1123188D01*
X7827060Y1122476D01*
X7821574Y1120597D01*
X7816697Y1117498D01*
X7812582Y1113434D01*
X7809534Y1108506D01*
X7807401Y1102461D01*
X7805267Y1098905D01*
X7801864Y1096467D01*
X7797800Y1095654D01*
X7793736Y1096467D01*
X7790332Y1098905D01*
X7788198Y1102461D01*
X7786065Y1108506D01*
X7783017Y1113434D01*
X7778902Y1117498D01*
X7774025Y1120597D01*
X7768539Y1122476D01*
X7762240Y1123188D01*
X7682738Y1123188D01*
X7676388Y1122476D01*
X7670952Y1120597D01*
X7666024Y1117498D01*
X7661960Y1113434D01*
X7659674Y1109776D01*
X7657388Y1107236D01*
X7654391Y1105560D01*
X7651038Y1105001D01*
X7506208Y1105001D01*
X7501890Y1105966D01*
X7499553Y1107033D01*
X7490104Y1109573D01*
X7480300Y1110437D01*
X7470495Y1109573D01*
X7461046Y1107033D01*
X7452106Y1102918D01*
X7444079Y1097280D01*
X7437120Y1090320D01*
X7431481Y1082294D01*
X7427366Y1073353D01*
X7424826Y1063904D01*
X7423962Y1054100D01*
X7424826Y1044295D01*
X7427366Y1034846D01*
X7431481Y1025906D01*
X7437120Y1017879D01*
X7444079Y1010919D01*
X7452106Y1005281D01*
X7461046Y1001166D01*
X7470495Y998626D01*
X7480300Y997762D01*
X7490104Y998626D01*
X7499553Y1001166D01*
X7501890Y1002233D01*
X7506208Y1003198D01*
X7651038Y1003198D01*
X7654391Y1002639D01*
X7657388Y1000963D01*
X7659674Y998423D01*
X7661960Y994765D01*
X7666024Y990701D01*
X7670952Y987602D01*
X7676388Y985723D01*
X7682738Y985012D01*
X7762240Y985012D01*
X7768539Y985723D01*
X7770469Y986383D01*
X7774330Y986942D01*
X7778089Y986028D01*
X7781239Y983742D01*
X7783322Y980440D01*
X7783982Y976630D01*
X7783169Y972819D01*
X7780985Y969619D01*
X7766964Y955598D01*
X7763713Y953363D01*
X7759801Y952601D01*
X7365898Y952601D01*
X7361986Y953363D01*
X7358735Y955598D01*
X7302042Y1012240D01*
X7299959Y1015288D01*
X7299096Y1018895D01*
X7299553Y1022553D01*
X7300468Y1025296D01*
X7303160Y1039571D01*
X7304074Y1054100D01*
X7303160Y1068628D01*
X7300468Y1082903D01*
X7295946Y1096772D01*
X7289749Y1109929D01*
X7281976Y1122222D01*
X7272680Y1133449D01*
X7262063Y1143406D01*
X7250277Y1151940D01*
X7237526Y1158951D01*
X7224014Y1164336D01*
X7209891Y1167942D01*
X7195464Y1169771D01*
X7180935Y1169771D01*
X7166508Y1167942D01*
X7152386Y1164336D01*
X7138873Y1158951D01*
X7126122Y1151940D01*
X7114336Y1143406D01*
X7103719Y1133449D01*
X7094423Y1122222D01*
X7086650Y1109929D01*
X7080453Y1096772D01*
X7075931Y1082903D01*
X7073239Y1068628D01*
X7072325Y1054100D01*
X7073239Y1039571D01*
X7075931Y1025296D01*
X7080453Y1011428D01*
X7086650Y998270D01*
X7094423Y985977D01*
X7103719Y974750D01*
X7114336Y964793D01*
X7126122Y956259D01*
X7138873Y949248D01*
X7152386Y943864D01*
X7166508Y940257D01*
X7180935Y938428D01*
X7195464Y938428D01*
X7209891Y940257D01*
X7220305Y942949D01*
X7223810Y943203D01*
X7227163Y942289D01*
X7230008Y940257D01*
X7236968Y933348D01*
X7239152Y930046D01*
X7239914Y926185D01*
X7239152Y922274D01*
X7236968Y918971D01*
X7233666Y916787D01*
X7229754Y916025D01*
X7098792Y916025D01*
X7092442Y915314D01*
X7087006Y913384D01*
X7082078Y910285D01*
X7078014Y906221D01*
X7074916Y901293D01*
X7072985Y895858D01*
X7072274Y889508D01*
X7072274Y710692D01*
X7072985Y704342D01*
X7074916Y698906D01*
X7078014Y693978D01*
X7082078Y689914D01*
X7087006Y686816D01*
X7092442Y684885D01*
X7098792Y684174D01*
X7127138Y684174D01*
X7130999Y683412D01*
X7134301Y681228D01*
X7136536Y677926D01*
X7137298Y674014D01*
X7137298Y585622D01*
X7137501Y580948D01*
X7138060Y576580D01*
X7139025Y572211D01*
X7140346Y567994D01*
X7142073Y563880D01*
X7144105Y559968D01*
X7146493Y556209D01*
X7149185Y552653D01*
X7152335Y549249D01*
X7288123Y413512D01*
X7290308Y410209D01*
X7291070Y406298D01*
X7291070Y389686D01*
X7291781Y383336D01*
X7293711Y377901D01*
X7296810Y372973D01*
X7300874Y368909D01*
X7305802Y365810D01*
X7311237Y363880D01*
X7317536Y363169D01*
X7334199Y363169D01*
X7338110Y362407D01*
X7341362Y360222D01*
X7458049Y243535D01*
X7461453Y240385D01*
X7465009Y237693D01*
X7468768Y235305D01*
X7472680Y233273D01*
X7476794Y231546D01*
X7481011Y230225D01*
X7485380Y229260D01*
X7489748Y228701D01*
G37*
G36*
X10096500Y293624D02*
G01*
X10113416Y294538D01*
X10130078Y297383D01*
X10146334Y302056D01*
X10161981Y308559D01*
X10176764Y316738D01*
X10190581Y326542D01*
X10203180Y337820D01*
X10214457Y350418D01*
X10224262Y364236D01*
X10232440Y379018D01*
X10238943Y394665D01*
X10243616Y410921D01*
X10246461Y427583D01*
X10247376Y444500D01*
X10246461Y461416D01*
X10243616Y478078D01*
X10238943Y494334D01*
X10232440Y509981D01*
X10224262Y524764D01*
X10214457Y538581D01*
X10203180Y551180D01*
X10190581Y562457D01*
X10176764Y572262D01*
X10161981Y580440D01*
X10146334Y586943D01*
X10130078Y591616D01*
X10113416Y594461D01*
X10096500Y595376D01*
X10079583Y594461D01*
X10062921Y591616D01*
X10046665Y586943D01*
X10031018Y580440D01*
X10016236Y572262D01*
X10002418Y562457D01*
X9989820Y551180D01*
X9978542Y538581D01*
X9968738Y524764D01*
X9960559Y509981D01*
X9954056Y494334D01*
X9949383Y478078D01*
X9946538Y461416D01*
X9945624Y444500D01*
X9946538Y427583D01*
X9949383Y410921D01*
X9954056Y394665D01*
X9960559Y379018D01*
X9968738Y364236D01*
X9978542Y350418D01*
X9989820Y337820D01*
X10002418Y326542D01*
X10016236Y316738D01*
X10031018Y308559D01*
X10046665Y302056D01*
X10062921Y297383D01*
X10079583Y294538D01*
G37*
G36*
X6673545Y4620107D02*
G01*
X6813854Y4620107D01*
X6820204Y4620869D01*
X6825640Y4622749D01*
X6830568Y4625848D01*
X6834631Y4629912D01*
X6837730Y4634839D01*
X6839610Y4640275D01*
X6840372Y4646625D01*
X6840372Y4786934D01*
X6839610Y4793284D01*
X6837730Y4798720D01*
X6834631Y4803648D01*
X6830568Y4807712D01*
X6825640Y4810810D01*
X6820204Y4812690D01*
X6813854Y4813401D01*
X6673545Y4813401D01*
X6667195Y4812690D01*
X6661759Y4810810D01*
X6656831Y4807712D01*
X6652768Y4803648D01*
X6649669Y4798720D01*
X6647789Y4793284D01*
X6647078Y4786934D01*
X6647078Y4646625D01*
X6647789Y4640275D01*
X6649669Y4634839D01*
X6652768Y4629912D01*
X6656831Y4625848D01*
X6661759Y4622749D01*
X6667195Y4620869D01*
G37*
G36*
X5657545Y4620107D02*
G01*
X5797854Y4620107D01*
X5804204Y4620869D01*
X5809640Y4622749D01*
X5814568Y4625848D01*
X5818632Y4629912D01*
X5821730Y4634839D01*
X5823610Y4640275D01*
X5824372Y4646625D01*
X5824372Y4786934D01*
X5823610Y4793284D01*
X5821730Y4798720D01*
X5818632Y4803648D01*
X5814568Y4807712D01*
X5809640Y4810810D01*
X5804204Y4812690D01*
X5797854Y4813401D01*
X5657545Y4813401D01*
X5651195Y4812690D01*
X5645759Y4810810D01*
X5640832Y4807712D01*
X5636768Y4803648D01*
X5633669Y4798720D01*
X5631789Y4793284D01*
X5631078Y4786934D01*
X5631078Y4646625D01*
X5631789Y4640275D01*
X5633669Y4634839D01*
X5636768Y4629912D01*
X5640832Y4625848D01*
X5645759Y4622749D01*
X5651195Y4620869D01*
G37*
G36*
X2844800Y342392D02*
G01*
X2859176Y343306D01*
X2873349Y345998D01*
X2887065Y350469D01*
X2900121Y356616D01*
X2912262Y364337D01*
X2923387Y373532D01*
X2933242Y384048D01*
X2941726Y395681D01*
X2948686Y408330D01*
X2953969Y421741D01*
X2957576Y435711D01*
X2959354Y449986D01*
X2959354Y464413D01*
X2957576Y478688D01*
X2953969Y492658D01*
X2948686Y506069D01*
X2941726Y518718D01*
X2933242Y530352D01*
X2923387Y540867D01*
X2912262Y550062D01*
X2900121Y557784D01*
X2887065Y563930D01*
X2873349Y568401D01*
X2859176Y571093D01*
X2844800Y572008D01*
X2830423Y571093D01*
X2816250Y568401D01*
X2802534Y563930D01*
X2789478Y557784D01*
X2777337Y550062D01*
X2766212Y540867D01*
X2756357Y530352D01*
X2747873Y518718D01*
X2740914Y506069D01*
X2735630Y492658D01*
X2732024Y478688D01*
X2730246Y464413D01*
X2730246Y449986D01*
X2732024Y435711D01*
X2735630Y421741D01*
X2740914Y408330D01*
X2747873Y395681D01*
X2756357Y384048D01*
X2766212Y373532D01*
X2777337Y364337D01*
X2789478Y356616D01*
X2802534Y350469D01*
X2816250Y345998D01*
X2830423Y343306D01*
G37*
G36*
X4622800Y342392D02*
G01*
X4637176Y343306D01*
X4651349Y345998D01*
X4665065Y350469D01*
X4678121Y356616D01*
X4690262Y364337D01*
X4701387Y373532D01*
X4711242Y384048D01*
X4719726Y395681D01*
X4726686Y408330D01*
X4731969Y421741D01*
X4735576Y435711D01*
X4737354Y449986D01*
X4737354Y464413D01*
X4735576Y478688D01*
X4731969Y492658D01*
X4726686Y506069D01*
X4719726Y518718D01*
X4711242Y530352D01*
X4701387Y540867D01*
X4690262Y550062D01*
X4678121Y557784D01*
X4665065Y563930D01*
X4651349Y568401D01*
X4637176Y571093D01*
X4622800Y572008D01*
X4608423Y571093D01*
X4594250Y568401D01*
X4580534Y563930D01*
X4567478Y557784D01*
X4555337Y550062D01*
X4544212Y540867D01*
X4534357Y530352D01*
X4525873Y518718D01*
X4518914Y506069D01*
X4513630Y492658D01*
X4510024Y478688D01*
X4508246Y464413D01*
X4508246Y449986D01*
X4510024Y435711D01*
X4513630Y421741D01*
X4518914Y408330D01*
X4525873Y395681D01*
X4534357Y384048D01*
X4544212Y373532D01*
X4555337Y364337D01*
X4567478Y356616D01*
X4580534Y350469D01*
X4594250Y345998D01*
X4608423Y343306D01*
G37*
G36*
X2590800Y342392D02*
G01*
X2605176Y343306D01*
X2619349Y345998D01*
X2633065Y350469D01*
X2646121Y356616D01*
X2658262Y364337D01*
X2669387Y373532D01*
X2679242Y384048D01*
X2687726Y395681D01*
X2694686Y408330D01*
X2699969Y421741D01*
X2703576Y435711D01*
X2705354Y449986D01*
X2705354Y464413D01*
X2703576Y478688D01*
X2699969Y492658D01*
X2694686Y506069D01*
X2687726Y518718D01*
X2679242Y530352D01*
X2669387Y540867D01*
X2658262Y550062D01*
X2646121Y557784D01*
X2633065Y563930D01*
X2619349Y568401D01*
X2605176Y571093D01*
X2590800Y572008D01*
X2576423Y571093D01*
X2562250Y568401D01*
X2548534Y563930D01*
X2535478Y557784D01*
X2523337Y550062D01*
X2512212Y540867D01*
X2502357Y530352D01*
X2493873Y518718D01*
X2486914Y506069D01*
X2481630Y492658D01*
X2478024Y478688D01*
X2476246Y464413D01*
X2476246Y449986D01*
X2478024Y435711D01*
X2481630Y421741D01*
X2486914Y408330D01*
X2493873Y395681D01*
X2502357Y384048D01*
X2512212Y373532D01*
X2523337Y364337D01*
X2535478Y356616D01*
X2548534Y350469D01*
X2562250Y345998D01*
X2576423Y343306D01*
G37*
G36*
X2248458Y342392D02*
G01*
X2425141Y342392D01*
X2431440Y343103D01*
X2436926Y345033D01*
X2441803Y348081D01*
X2445918Y352196D01*
X2448966Y357073D01*
X2450896Y362559D01*
X2451608Y368858D01*
X2451608Y545541D01*
X2450896Y551840D01*
X2448966Y557326D01*
X2445918Y562203D01*
X2441803Y566318D01*
X2436926Y569366D01*
X2431440Y571296D01*
X2425141Y572008D01*
X2248458Y572008D01*
X2242159Y571296D01*
X2236673Y569366D01*
X2231796Y566318D01*
X2227681Y562203D01*
X2224633Y557326D01*
X2222703Y551840D01*
X2221992Y545541D01*
X2221992Y368858D01*
X2222703Y362559D01*
X2224633Y357073D01*
X2227681Y352196D01*
X2231796Y348081D01*
X2236673Y345033D01*
X2242159Y343103D01*
G37*
G36*
X3371545Y4620107D02*
G01*
X3511854Y4620107D01*
X3518204Y4620869D01*
X3523640Y4622749D01*
X3528568Y4625848D01*
X3532632Y4629912D01*
X3535730Y4634839D01*
X3537610Y4640275D01*
X3538372Y4646625D01*
X3538372Y4786934D01*
X3537610Y4793284D01*
X3535730Y4798720D01*
X3532632Y4803648D01*
X3528568Y4807712D01*
X3523640Y4810810D01*
X3518204Y4812690D01*
X3511854Y4813401D01*
X3371545Y4813401D01*
X3365195Y4812690D01*
X3359759Y4810810D01*
X3354832Y4807712D01*
X3350768Y4803648D01*
X3347669Y4798720D01*
X3345789Y4793284D01*
X3345027Y4786934D01*
X3345027Y4646625D01*
X3345789Y4640275D01*
X3347669Y4634839D01*
X3350768Y4629912D01*
X3354832Y4625848D01*
X3359759Y4622749D01*
X3365195Y4620869D01*
G37*
G36*
X6927545Y4620107D02*
G01*
X7067854Y4620107D01*
X7074204Y4620869D01*
X7079640Y4622749D01*
X7084568Y4625848D01*
X7088631Y4629912D01*
X7091730Y4634839D01*
X7093610Y4640275D01*
X7094372Y4646625D01*
X7094372Y4786934D01*
X7093610Y4793284D01*
X7091730Y4798720D01*
X7088631Y4803648D01*
X7084568Y4807712D01*
X7079640Y4810810D01*
X7074204Y4812690D01*
X7067854Y4813401D01*
X6927545Y4813401D01*
X6921195Y4812690D01*
X6915759Y4810810D01*
X6910831Y4807712D01*
X6906768Y4803648D01*
X6903669Y4798720D01*
X6901789Y4793284D01*
X6901078Y4786934D01*
X6901078Y4646625D01*
X6901789Y4640275D01*
X6903669Y4634839D01*
X6906768Y4629912D01*
X6910831Y4625848D01*
X6915759Y4622749D01*
X6921195Y4620869D01*
G37*
G36*
X5149545Y4620107D02*
G01*
X5289854Y4620107D01*
X5296204Y4620869D01*
X5301640Y4622749D01*
X5306568Y4625848D01*
X5310632Y4629912D01*
X5313730Y4634839D01*
X5315610Y4640275D01*
X5316372Y4646625D01*
X5316372Y4786934D01*
X5315610Y4793284D01*
X5313730Y4798720D01*
X5310632Y4803648D01*
X5306568Y4807712D01*
X5301640Y4810810D01*
X5296204Y4812690D01*
X5289854Y4813401D01*
X5149545Y4813401D01*
X5143195Y4812690D01*
X5137759Y4810810D01*
X5132832Y4807712D01*
X5128768Y4803648D01*
X5125669Y4798720D01*
X5123789Y4793284D01*
X5123078Y4786934D01*
X5123078Y4646625D01*
X5123789Y4640275D01*
X5125669Y4634839D01*
X5128768Y4629912D01*
X5132832Y4625848D01*
X5137759Y4622749D01*
X5143195Y4620869D01*
G37*
G36*
X3625545Y4620107D02*
G01*
X3765854Y4620107D01*
X3772204Y4620869D01*
X3777640Y4622749D01*
X3782568Y4625848D01*
X3786632Y4629912D01*
X3789730Y4634839D01*
X3791610Y4640275D01*
X3792372Y4646625D01*
X3792372Y4786934D01*
X3791610Y4793284D01*
X3789730Y4798720D01*
X3786632Y4803648D01*
X3782568Y4807712D01*
X3777640Y4810810D01*
X3772204Y4812690D01*
X3765854Y4813401D01*
X3625545Y4813401D01*
X3619195Y4812690D01*
X3613759Y4810810D01*
X3608832Y4807712D01*
X3604768Y4803648D01*
X3601669Y4798720D01*
X3599789Y4793284D01*
X3599027Y4786934D01*
X3599027Y4646625D01*
X3599789Y4640275D01*
X3601669Y4634839D01*
X3604768Y4629912D01*
X3608832Y4625848D01*
X3613759Y4622749D01*
X3619195Y4620869D01*
G37*
G36*
X5403545Y4620107D02*
G01*
X5543854Y4620107D01*
X5550204Y4620869D01*
X5555640Y4622749D01*
X5560568Y4625848D01*
X5564632Y4629912D01*
X5567730Y4634839D01*
X5569610Y4640275D01*
X5570372Y4646625D01*
X5570372Y4786934D01*
X5569610Y4793284D01*
X5567730Y4798720D01*
X5564632Y4803648D01*
X5560568Y4807712D01*
X5555640Y4810810D01*
X5550204Y4812690D01*
X5543854Y4813401D01*
X5403545Y4813401D01*
X5397195Y4812690D01*
X5391759Y4810810D01*
X5386832Y4807712D01*
X5382768Y4803648D01*
X5379669Y4798720D01*
X5377789Y4793284D01*
X5377078Y4786934D01*
X5377078Y4646625D01*
X5377789Y4640275D01*
X5379669Y4634839D01*
X5382768Y4629912D01*
X5386832Y4625848D01*
X5391759Y4622749D01*
X5397195Y4620869D01*
G37*
G36*
X2863545Y4620107D02*
G01*
X3003854Y4620107D01*
X3010204Y4620869D01*
X3015640Y4622749D01*
X3020568Y4625848D01*
X3024632Y4629912D01*
X3027730Y4634839D01*
X3029610Y4640275D01*
X3030372Y4646625D01*
X3030372Y4786934D01*
X3029610Y4793284D01*
X3027730Y4798720D01*
X3024632Y4803648D01*
X3020568Y4807712D01*
X3015640Y4810810D01*
X3010204Y4812690D01*
X3003854Y4813401D01*
X2863545Y4813401D01*
X2857195Y4812690D01*
X2851759Y4810810D01*
X2846832Y4807712D01*
X2842768Y4803648D01*
X2839669Y4798720D01*
X2837789Y4793284D01*
X2837027Y4786934D01*
X2837027Y4646625D01*
X2837789Y4640275D01*
X2839669Y4634839D01*
X2842768Y4629912D01*
X2846832Y4625848D01*
X2851759Y4622749D01*
X2857195Y4620869D01*
G37*
G36*
X3117545Y4620107D02*
G01*
X3257854Y4620107D01*
X3264204Y4620869D01*
X3269640Y4622749D01*
X3274567Y4625848D01*
X3278632Y4629912D01*
X3281730Y4634839D01*
X3283610Y4640275D01*
X3284372Y4646625D01*
X3284372Y4786934D01*
X3283610Y4793284D01*
X3281730Y4798720D01*
X3278632Y4803648D01*
X3274567Y4807712D01*
X3269640Y4810810D01*
X3264204Y4812690D01*
X3257854Y4813401D01*
X3117545Y4813401D01*
X3111195Y4812690D01*
X3105759Y4810810D01*
X3100832Y4807712D01*
X3096768Y4803648D01*
X3093669Y4798720D01*
X3091789Y4793284D01*
X3091027Y4786934D01*
X3091027Y4646625D01*
X3091789Y4640275D01*
X3093669Y4634839D01*
X3096768Y4629912D01*
X3100832Y4625848D01*
X3105759Y4622749D01*
X3111195Y4620869D01*
G37*
G36*
X7409078Y4504486D02*
G01*
X7463993Y4504486D01*
X7463993Y4559401D01*
X7435545Y4559401D01*
X7429195Y4558690D01*
X7423759Y4556810D01*
X7418831Y4553712D01*
X7414768Y4549648D01*
X7411669Y4544720D01*
X7409789Y4539284D01*
X7409078Y4532934D01*
G37*
G36*
X7547406Y4504486D02*
G01*
X7602372Y4504486D01*
X7602372Y4532934D01*
X7601610Y4539284D01*
X7599730Y4544720D01*
X7596631Y4549648D01*
X7592568Y4553712D01*
X7587640Y4556810D01*
X7582204Y4558690D01*
X7575854Y4559401D01*
X7547406Y4559401D01*
G37*
G36*
X9985400Y4433062D02*
G01*
X10038791Y4433062D01*
X10045090Y4433773D01*
X10050576Y4435703D01*
X10055453Y4438751D01*
X10059568Y4442866D01*
X10062616Y4447743D01*
X10064546Y4453229D01*
X10065258Y4459528D01*
X10065258Y4512919D01*
X9985400Y4512919D01*
G37*
G36*
X9798608Y4433062D02*
G01*
X9852050Y4433062D01*
X9852050Y4512919D01*
X9772142Y4512919D01*
X9772142Y4459528D01*
X9772853Y4453229D01*
X9774783Y4447743D01*
X9777831Y4442866D01*
X9781946Y4438751D01*
X9786823Y4435703D01*
X9792309Y4433773D01*
G37*
G36*
X3625545Y4366107D02*
G01*
X3765854Y4366107D01*
X3772204Y4366869D01*
X3777640Y4368749D01*
X3782568Y4371848D01*
X3786632Y4375912D01*
X3789730Y4380839D01*
X3791610Y4386275D01*
X3792372Y4392625D01*
X3792372Y4532934D01*
X3791610Y4539284D01*
X3789730Y4544720D01*
X3786632Y4549648D01*
X3782568Y4553712D01*
X3777640Y4556810D01*
X3772204Y4558690D01*
X3765854Y4559401D01*
X3625545Y4559401D01*
X3619195Y4558690D01*
X3613759Y4556810D01*
X3608832Y4553712D01*
X3604768Y4549648D01*
X3601669Y4544720D01*
X3599789Y4539284D01*
X3599027Y4532934D01*
X3599027Y4392625D01*
X3599789Y4386275D01*
X3601669Y4380839D01*
X3604768Y4375912D01*
X3608832Y4371848D01*
X3613759Y4368749D01*
X3619195Y4366869D01*
G37*
G36*
X5911545Y4366107D02*
G01*
X6051854Y4366107D01*
X6058204Y4366869D01*
X6063640Y4368749D01*
X6068568Y4371848D01*
X6072632Y4375912D01*
X6075730Y4380839D01*
X6077610Y4386275D01*
X6078372Y4392625D01*
X6078372Y4532934D01*
X6077610Y4539284D01*
X6075730Y4544720D01*
X6072632Y4549648D01*
X6068568Y4553712D01*
X6063640Y4556810D01*
X6058204Y4558690D01*
X6051854Y4559401D01*
X5911545Y4559401D01*
X5905195Y4558690D01*
X5899759Y4556810D01*
X5894832Y4553712D01*
X5890768Y4549648D01*
X5887669Y4544720D01*
X5885789Y4539284D01*
X5885078Y4532934D01*
X5885078Y4392625D01*
X5885789Y4386275D01*
X5887669Y4380839D01*
X5890768Y4375912D01*
X5894832Y4371848D01*
X5899759Y4368749D01*
X5905195Y4366869D01*
G37*
G36*
X5657545Y4366107D02*
G01*
X5797854Y4366107D01*
X5804204Y4366869D01*
X5809640Y4368749D01*
X5814568Y4371848D01*
X5818632Y4375912D01*
X5821730Y4380839D01*
X5823610Y4386275D01*
X5824372Y4392625D01*
X5824372Y4532934D01*
X5823610Y4539284D01*
X5821730Y4544720D01*
X5818632Y4549648D01*
X5814568Y4553712D01*
X5809640Y4556810D01*
X5804204Y4558690D01*
X5797854Y4559401D01*
X5657545Y4559401D01*
X5651195Y4558690D01*
X5645759Y4556810D01*
X5640832Y4553712D01*
X5636768Y4549648D01*
X5633669Y4544720D01*
X5631789Y4539284D01*
X5631078Y4532934D01*
X5631078Y4392625D01*
X5631789Y4386275D01*
X5633669Y4380839D01*
X5636768Y4375912D01*
X5640832Y4371848D01*
X5645759Y4368749D01*
X5651195Y4366869D01*
G37*
G36*
X2609545Y4366107D02*
G01*
X2749854Y4366107D01*
X2756204Y4366869D01*
X2761640Y4368749D01*
X2766568Y4371848D01*
X2770632Y4375912D01*
X2773730Y4380839D01*
X2775610Y4386275D01*
X2776372Y4392625D01*
X2776372Y4532934D01*
X2775610Y4539284D01*
X2773730Y4544720D01*
X2770632Y4549648D01*
X2766568Y4553712D01*
X2761640Y4556810D01*
X2756204Y4558690D01*
X2749854Y4559401D01*
X2609545Y4559401D01*
X2603195Y4558690D01*
X2597759Y4556810D01*
X2592832Y4553712D01*
X2588768Y4549648D01*
X2585669Y4544720D01*
X2583789Y4539284D01*
X2583027Y4532934D01*
X2583027Y4392625D01*
X2583789Y4386275D01*
X2585669Y4380839D01*
X2588768Y4375912D01*
X2592832Y4371848D01*
X2597759Y4368749D01*
X2603195Y4366869D01*
G37*
G36*
X7277303Y1168298D02*
G01*
X7784896Y1168298D01*
X7789519Y1168501D01*
X7793939Y1169060D01*
X7798257Y1170025D01*
X7802524Y1171346D01*
X7806588Y1173073D01*
X7810550Y1175105D01*
X7814309Y1177493D01*
X7817815Y1180185D01*
X7821269Y1183335D01*
X7909001Y1271066D01*
X7912150Y1274521D01*
X7914843Y1278026D01*
X7917230Y1281785D01*
X7919262Y1285748D01*
X7920990Y1289812D01*
X7922310Y1294079D01*
X7923275Y1298397D01*
X7923834Y1302715D01*
X7924038Y1312062D01*
X7924647Y1315313D01*
X7926324Y1318209D01*
X7929575Y1320901D01*
X7933639Y1324965D01*
X7936738Y1329893D01*
X7938668Y1335328D01*
X7939379Y1341678D01*
X7939379Y1426921D01*
X7938668Y1433271D01*
X7936738Y1438706D01*
X7933639Y1443634D01*
X7929575Y1447698D01*
X7924647Y1450797D01*
X7919212Y1452676D01*
X7912862Y1453388D01*
X7833359Y1453388D01*
X7827060Y1452676D01*
X7821574Y1450797D01*
X7816697Y1447698D01*
X7812582Y1443634D01*
X7809534Y1438706D01*
X7807401Y1432661D01*
X7805267Y1429105D01*
X7801864Y1426667D01*
X7797800Y1425854D01*
X7793736Y1426667D01*
X7790332Y1429105D01*
X7788198Y1432661D01*
X7786065Y1438706D01*
X7783017Y1443634D01*
X7778902Y1447698D01*
X7774025Y1450797D01*
X7768539Y1452676D01*
X7762240Y1453388D01*
X7748981Y1453388D01*
X7748981Y1412240D01*
X7796733Y1412240D01*
X7800644Y1411478D01*
X7803896Y1409293D01*
X7806131Y1405991D01*
X7806893Y1402080D01*
X7806893Y1366520D01*
X7806131Y1362608D01*
X7803896Y1359306D01*
X7800644Y1357122D01*
X7796733Y1356360D01*
X7748981Y1356360D01*
X7748981Y1315212D01*
X7762240Y1315212D01*
X7768539Y1315923D01*
X7774025Y1317802D01*
X7778902Y1320901D01*
X7783017Y1324965D01*
X7786065Y1329893D01*
X7788198Y1335938D01*
X7790332Y1339494D01*
X7793736Y1341932D01*
X7797800Y1342745D01*
X7801864Y1341932D01*
X7805267Y1339494D01*
X7807401Y1335938D01*
X7809534Y1329893D01*
X7812024Y1324813D01*
X7812227Y1321460D01*
X7811262Y1318158D01*
X7809280Y1315415D01*
X7766964Y1273098D01*
X7763713Y1270863D01*
X7759801Y1270101D01*
X7310983Y1270101D01*
X7306665Y1271066D01*
X7303160Y1273810D01*
X7301128Y1277721D01*
X7300975Y1282192D01*
X7303160Y1293571D01*
X7304074Y1308100D01*
X7303160Y1322628D01*
X7300468Y1336903D01*
X7295946Y1350772D01*
X7289749Y1363929D01*
X7281976Y1376222D01*
X7272680Y1387449D01*
X7262063Y1397406D01*
X7250277Y1405940D01*
X7237526Y1412951D01*
X7224014Y1418336D01*
X7209891Y1421942D01*
X7195464Y1423771D01*
X7180935Y1423771D01*
X7166508Y1421942D01*
X7152386Y1418336D01*
X7138873Y1412951D01*
X7126122Y1405940D01*
X7114336Y1397406D01*
X7103719Y1387449D01*
X7094423Y1376222D01*
X7086650Y1363929D01*
X7080453Y1350772D01*
X7075931Y1336903D01*
X7073239Y1322628D01*
X7072325Y1308100D01*
X7073239Y1293571D01*
X7075931Y1279296D01*
X7080453Y1265428D01*
X7086650Y1252270D01*
X7094423Y1239977D01*
X7103719Y1228750D01*
X7114336Y1218793D01*
X7126122Y1210259D01*
X7138873Y1203248D01*
X7152386Y1197864D01*
X7166508Y1194257D01*
X7180935Y1192428D01*
X7195464Y1192428D01*
X7209891Y1194257D01*
X7220305Y1196949D01*
X7223810Y1197203D01*
X7227163Y1196289D01*
X7230008Y1194257D01*
X7240930Y1183335D01*
X7244384Y1180185D01*
X7247890Y1177493D01*
X7251649Y1175105D01*
X7255611Y1173073D01*
X7259675Y1171346D01*
X7263942Y1170025D01*
X7268260Y1169060D01*
X7272680Y1168501D01*
G37*
G36*
X4641545Y4366107D02*
G01*
X4781854Y4366107D01*
X4788204Y4366869D01*
X4793640Y4368749D01*
X4798568Y4371848D01*
X4802632Y4375912D01*
X4805730Y4380839D01*
X4807610Y4386275D01*
X4808372Y4392625D01*
X4808372Y4532934D01*
X4807610Y4539284D01*
X4805730Y4544720D01*
X4802632Y4549648D01*
X4798568Y4553712D01*
X4793640Y4556810D01*
X4788204Y4558690D01*
X4781854Y4559401D01*
X4641545Y4559401D01*
X4635195Y4558690D01*
X4629759Y4556810D01*
X4624832Y4553712D01*
X4620768Y4549648D01*
X4617669Y4544720D01*
X4615789Y4539284D01*
X4615078Y4532934D01*
X4615078Y4392625D01*
X4615789Y4386275D01*
X4617669Y4380839D01*
X4620768Y4375912D01*
X4624832Y4371848D01*
X4629759Y4368749D01*
X4635195Y4366869D01*
G37*
G36*
X7181545Y4366107D02*
G01*
X7321854Y4366107D01*
X7328204Y4366869D01*
X7333640Y4368749D01*
X7338568Y4371848D01*
X7342631Y4375912D01*
X7345730Y4380839D01*
X7347610Y4386275D01*
X7348372Y4392625D01*
X7348372Y4532934D01*
X7347610Y4539284D01*
X7345730Y4544720D01*
X7342631Y4549648D01*
X7338568Y4553712D01*
X7333640Y4556810D01*
X7328204Y4558690D01*
X7321854Y4559401D01*
X7181545Y4559401D01*
X7175195Y4558690D01*
X7169759Y4556810D01*
X7164831Y4553712D01*
X7160768Y4549648D01*
X7157669Y4544720D01*
X7155789Y4539284D01*
X7155078Y4532934D01*
X7155078Y4392625D01*
X7155789Y4386275D01*
X7157669Y4380839D01*
X7160768Y4375912D01*
X7164831Y4371848D01*
X7169759Y4368749D01*
X7175195Y4366869D01*
G37*
G36*
X10096500Y1293622D02*
G01*
X10113416Y1294536D01*
X10130078Y1297381D01*
X10146334Y1302054D01*
X10161981Y1308557D01*
X10176764Y1316736D01*
X10190581Y1326540D01*
X10203180Y1337818D01*
X10214457Y1350416D01*
X10224262Y1364234D01*
X10232440Y1379016D01*
X10238943Y1394663D01*
X10243616Y1410919D01*
X10246461Y1427581D01*
X10247376Y1444498D01*
X10246461Y1461414D01*
X10243616Y1478076D01*
X10238943Y1494332D01*
X10232440Y1509979D01*
X10224262Y1524762D01*
X10214457Y1538579D01*
X10203180Y1551178D01*
X10190581Y1562455D01*
X10176764Y1572260D01*
X10161981Y1580438D01*
X10146334Y1586941D01*
X10130078Y1591614D01*
X10113416Y1594459D01*
X10096500Y1595374D01*
X10079583Y1594459D01*
X10062921Y1591614D01*
X10046665Y1586941D01*
X10038384Y1583486D01*
X10034473Y1582724D01*
X10030612Y1583486D01*
X10027310Y1585671D01*
X9985298Y1627733D01*
X9983063Y1630984D01*
X9982301Y1634896D01*
X9982301Y1974850D01*
X9983063Y1978609D01*
X9985146Y1981860D01*
X9988296Y1984095D01*
X9990632Y1985162D01*
X10003840Y1993138D01*
X10015931Y2002637D01*
X10026802Y2013508D01*
X10036302Y2025599D01*
X10044277Y2038807D01*
X10050627Y2052828D01*
X10055199Y2067509D01*
X10057942Y2082647D01*
X10058908Y2098040D01*
X10057942Y2113432D01*
X10055199Y2128570D01*
X10050627Y2143252D01*
X10044277Y2157272D01*
X10036302Y2170480D01*
X10026802Y2182571D01*
X10015931Y2193442D01*
X10003840Y2202942D01*
X9990632Y2210917D01*
X9976612Y2217267D01*
X9961930Y2221839D01*
X9946792Y2224582D01*
X9931400Y2225548D01*
X9916007Y2224582D01*
X9900869Y2221839D01*
X9886188Y2217267D01*
X9872167Y2210917D01*
X9858959Y2202942D01*
X9846868Y2193442D01*
X9835997Y2182571D01*
X9826498Y2170480D01*
X9818522Y2157272D01*
X9812172Y2143252D01*
X9807600Y2128570D01*
X9804857Y2113432D01*
X9803892Y2098040D01*
X9804857Y2082647D01*
X9807600Y2067509D01*
X9812172Y2052828D01*
X9818522Y2038807D01*
X9826498Y2025599D01*
X9835997Y2013508D01*
X9846868Y2002637D01*
X9858959Y1993138D01*
X9872167Y1985162D01*
X9874504Y1984095D01*
X9877653Y1981860D01*
X9879736Y1978609D01*
X9880498Y1974850D01*
X9880498Y1609801D01*
X9880701Y1605178D01*
X9881260Y1600758D01*
X9882225Y1596440D01*
X9883546Y1592173D01*
X9885273Y1588109D01*
X9887305Y1584147D01*
X9889693Y1580388D01*
X9892385Y1576882D01*
X9895535Y1573428D01*
X9955326Y1513687D01*
X9957511Y1510385D01*
X9958273Y1506524D01*
X9957511Y1502613D01*
X9954056Y1494332D01*
X9949383Y1478076D01*
X9946538Y1461414D01*
X9945624Y1444498D01*
X9946538Y1427581D01*
X9949383Y1410919D01*
X9954056Y1394663D01*
X9960559Y1379016D01*
X9968738Y1364234D01*
X9978542Y1350416D01*
X9989820Y1337818D01*
X10002418Y1326540D01*
X10016236Y1316736D01*
X10031018Y1308557D01*
X10046665Y1302054D01*
X10062921Y1297381D01*
X10079583Y1294536D01*
G37*
G36*
X3117545Y4366107D02*
G01*
X3257854Y4366107D01*
X3264204Y4366869D01*
X3269640Y4368749D01*
X3274567Y4371848D01*
X3278632Y4375912D01*
X3281730Y4380839D01*
X3283610Y4386275D01*
X3284372Y4392625D01*
X3284372Y4532934D01*
X3283610Y4539284D01*
X3281730Y4544720D01*
X3278632Y4549648D01*
X3274567Y4553712D01*
X3269640Y4556810D01*
X3264204Y4558690D01*
X3257854Y4559401D01*
X3117545Y4559401D01*
X3111195Y4558690D01*
X3105759Y4556810D01*
X3100832Y4553712D01*
X3096768Y4549648D01*
X3093669Y4544720D01*
X3091789Y4539284D01*
X3091027Y4532934D01*
X3091027Y4392625D01*
X3091789Y4386275D01*
X3093669Y4380839D01*
X3096768Y4375912D01*
X3100832Y4371848D01*
X3105759Y4368749D01*
X3111195Y4366869D01*
G37*
G36*
X7682738Y1315212D02*
G01*
X7695946Y1315212D01*
X7695946Y1356360D01*
X7656220Y1356360D01*
X7656220Y1341678D01*
X7656931Y1335328D01*
X7658862Y1329893D01*
X7661960Y1324965D01*
X7666024Y1320901D01*
X7670952Y1317802D01*
X7676388Y1315923D01*
G37*
G36*
X3371545Y4366107D02*
G01*
X3511854Y4366107D01*
X3518204Y4366869D01*
X3523640Y4368749D01*
X3528568Y4371848D01*
X3532632Y4375912D01*
X3535730Y4380839D01*
X3537610Y4386275D01*
X3538372Y4392625D01*
X3538372Y4532934D01*
X3537610Y4539284D01*
X3535730Y4544720D01*
X3532632Y4549648D01*
X3528568Y4553712D01*
X3523640Y4556810D01*
X3518204Y4558690D01*
X3511854Y4559401D01*
X3371545Y4559401D01*
X3365195Y4558690D01*
X3359759Y4556810D01*
X3354832Y4553712D01*
X3350768Y4549648D01*
X3347669Y4544720D01*
X3345789Y4539284D01*
X3345027Y4532934D01*
X3345027Y4392625D01*
X3345789Y4386275D01*
X3347669Y4380839D01*
X3350768Y4375912D01*
X3354832Y4371848D01*
X3359759Y4368749D01*
X3365195Y4366869D01*
G37*
G36*
X7480300Y1366062D02*
G01*
X7490104Y1366926D01*
X7499553Y1369466D01*
X7508494Y1373581D01*
X7516520Y1379220D01*
X7523480Y1386179D01*
X7529118Y1394206D01*
X7533233Y1403146D01*
X7535773Y1412595D01*
X7536637Y1422400D01*
X7535773Y1432204D01*
X7533233Y1441653D01*
X7532166Y1443990D01*
X7531201Y1448308D01*
X7531201Y1904796D01*
X7530998Y1909419D01*
X7530439Y1913839D01*
X7529474Y1918157D01*
X7528153Y1922424D01*
X7526426Y1926488D01*
X7524394Y1930450D01*
X7522006Y1934210D01*
X7519314Y1937715D01*
X7516164Y1941169D01*
X7275169Y2182164D01*
X7271715Y2185314D01*
X7268209Y2188006D01*
X7264450Y2190394D01*
X7260488Y2192426D01*
X7256424Y2194153D01*
X7252157Y2195474D01*
X7247839Y2196439D01*
X7243419Y2196998D01*
X7238796Y2197201D01*
X6946798Y2197201D01*
X6942886Y2197963D01*
X6939635Y2200198D01*
X6543598Y2596235D01*
X6541363Y2599486D01*
X6540601Y2603398D01*
X6540601Y4355947D01*
X6541363Y4359859D01*
X6543598Y4363161D01*
X6546900Y4365345D01*
X6550761Y4366107D01*
X6559854Y4366107D01*
X6566204Y4366869D01*
X6571640Y4368749D01*
X6576568Y4371848D01*
X6580631Y4375912D01*
X6583730Y4380839D01*
X6585610Y4386275D01*
X6586372Y4392625D01*
X6586372Y4532934D01*
X6585610Y4539284D01*
X6583730Y4544720D01*
X6580631Y4549648D01*
X6576568Y4553712D01*
X6571640Y4556810D01*
X6566204Y4558690D01*
X6559854Y4559401D01*
X6419545Y4559401D01*
X6413195Y4558690D01*
X6407759Y4556810D01*
X6402832Y4553712D01*
X6398768Y4549648D01*
X6395669Y4544720D01*
X6393789Y4539284D01*
X6393078Y4532934D01*
X6393078Y4392625D01*
X6393789Y4386275D01*
X6395669Y4380839D01*
X6398768Y4375912D01*
X6402832Y4371848D01*
X6407759Y4368749D01*
X6413195Y4366869D01*
X6419545Y4366107D01*
X6428638Y4366107D01*
X6432499Y4365345D01*
X6435801Y4363161D01*
X6438036Y4359859D01*
X6438798Y4355947D01*
X6438798Y2578303D01*
X6439001Y2573680D01*
X6439560Y2569260D01*
X6440525Y2564942D01*
X6441846Y2560675D01*
X6443573Y2556611D01*
X6445605Y2552649D01*
X6447993Y2548890D01*
X6450685Y2545384D01*
X6453835Y2541930D01*
X6885330Y2110435D01*
X6888784Y2107285D01*
X6892290Y2104593D01*
X6896049Y2102205D01*
X6900011Y2100173D01*
X6904075Y2098446D01*
X6908342Y2097125D01*
X6912660Y2096160D01*
X6917080Y2095601D01*
X6921703Y2095398D01*
X7213701Y2095398D01*
X7217613Y2094636D01*
X7220864Y2092401D01*
X7426401Y1886864D01*
X7428636Y1883613D01*
X7429398Y1879701D01*
X7429398Y1448308D01*
X7428433Y1443990D01*
X7427366Y1441653D01*
X7424826Y1432204D01*
X7423962Y1422400D01*
X7424826Y1412595D01*
X7427366Y1403146D01*
X7431481Y1394206D01*
X7437120Y1386179D01*
X7444079Y1379220D01*
X7452106Y1373581D01*
X7461046Y1369466D01*
X7470495Y1366926D01*
G37*
G36*
X7656220Y1412240D02*
G01*
X7695946Y1412240D01*
X7695946Y1453388D01*
X7682738Y1453388D01*
X7676388Y1452676D01*
X7670952Y1450797D01*
X7666024Y1447698D01*
X7661960Y1443634D01*
X7658862Y1438706D01*
X7656931Y1433271D01*
X7656220Y1426921D01*
G37*
G36*
X2863545Y4366107D02*
G01*
X3003854Y4366107D01*
X3010204Y4366869D01*
X3015640Y4368749D01*
X3020568Y4371848D01*
X3024632Y4375912D01*
X3027730Y4380839D01*
X3029610Y4386275D01*
X3030372Y4392625D01*
X3030372Y4532934D01*
X3029610Y4539284D01*
X3027730Y4544720D01*
X3024632Y4549648D01*
X3020568Y4553712D01*
X3015640Y4556810D01*
X3010204Y4558690D01*
X3003854Y4559401D01*
X2863545Y4559401D01*
X2857195Y4558690D01*
X2851759Y4556810D01*
X2846832Y4553712D01*
X2842768Y4549648D01*
X2839669Y4544720D01*
X2837789Y4539284D01*
X2837027Y4532934D01*
X2837027Y4392625D01*
X2837789Y4386275D01*
X2839669Y4380839D01*
X2842768Y4375912D01*
X2846832Y4371848D01*
X2851759Y4368749D01*
X2857195Y4366869D01*
G37*
G36*
X7435545Y4366107D02*
G01*
X7463993Y4366107D01*
X7463993Y4421073D01*
X7409078Y4421073D01*
X7409078Y4392625D01*
X7409789Y4386275D01*
X7411669Y4380839D01*
X7414768Y4375912D01*
X7418831Y4371848D01*
X7423759Y4368749D01*
X7429195Y4366869D01*
G37*
G36*
X7547406Y4366107D02*
G01*
X7575854Y4366107D01*
X7582204Y4366869D01*
X7587640Y4368749D01*
X7592568Y4371848D01*
X7596631Y4375912D01*
X7599730Y4380839D01*
X7601610Y4386275D01*
X7602372Y4392625D01*
X7602372Y4421073D01*
X7547406Y4421073D01*
G37*
G36*
X2590800Y1612392D02*
G01*
X2605176Y1613306D01*
X2619349Y1615998D01*
X2633065Y1620469D01*
X2646121Y1626616D01*
X2658262Y1634337D01*
X2669387Y1643532D01*
X2679242Y1654048D01*
X2687726Y1665681D01*
X2694686Y1678330D01*
X2699969Y1691741D01*
X2703576Y1705711D01*
X2705354Y1719986D01*
X2705354Y1734413D01*
X2703576Y1748688D01*
X2699969Y1762658D01*
X2694686Y1776069D01*
X2687726Y1788718D01*
X2679242Y1800352D01*
X2669387Y1810867D01*
X2658262Y1820062D01*
X2646121Y1827784D01*
X2633065Y1833930D01*
X2619349Y1838401D01*
X2605176Y1841093D01*
X2590800Y1842007D01*
X2576423Y1841093D01*
X2562250Y1838401D01*
X2548534Y1833930D01*
X2535478Y1827784D01*
X2523337Y1820062D01*
X2512212Y1810867D01*
X2502357Y1800352D01*
X2493873Y1788718D01*
X2486914Y1776069D01*
X2481630Y1762658D01*
X2478024Y1748688D01*
X2476246Y1734413D01*
X2476246Y1719986D01*
X2478024Y1705711D01*
X2481630Y1691741D01*
X2486914Y1678330D01*
X2493873Y1665681D01*
X2502357Y1654048D01*
X2512212Y1643532D01*
X2523337Y1634337D01*
X2535478Y1626616D01*
X2548534Y1620469D01*
X2562250Y1615998D01*
X2576423Y1613306D01*
G37*
G36*
X2336800Y1612392D02*
G01*
X2351176Y1613306D01*
X2365349Y1615998D01*
X2379065Y1620469D01*
X2392121Y1626616D01*
X2404262Y1634337D01*
X2415387Y1643532D01*
X2425242Y1654048D01*
X2433726Y1665681D01*
X2440686Y1678330D01*
X2445969Y1691741D01*
X2449576Y1705711D01*
X2451354Y1719986D01*
X2451354Y1734413D01*
X2449576Y1748688D01*
X2445969Y1762658D01*
X2440686Y1776069D01*
X2433726Y1788718D01*
X2425242Y1800352D01*
X2415387Y1810867D01*
X2404262Y1820062D01*
X2392121Y1827784D01*
X2379065Y1833930D01*
X2365349Y1838401D01*
X2351176Y1841093D01*
X2336800Y1842007D01*
X2322423Y1841093D01*
X2308250Y1838401D01*
X2294534Y1833930D01*
X2281478Y1827784D01*
X2269337Y1820062D01*
X2258212Y1810867D01*
X2248357Y1800352D01*
X2239873Y1788718D01*
X2232914Y1776069D01*
X2227630Y1762658D01*
X2224024Y1748688D01*
X2222246Y1734413D01*
X2222246Y1719986D01*
X2224024Y1705711D01*
X2227630Y1691741D01*
X2232914Y1678330D01*
X2239873Y1665681D01*
X2248357Y1654048D01*
X2258212Y1643532D01*
X2269337Y1634337D01*
X2281478Y1626616D01*
X2294534Y1620469D01*
X2308250Y1615998D01*
X2322423Y1613306D01*
G37*
G36*
X2844800Y1612392D02*
G01*
X2859176Y1613306D01*
X2873349Y1615998D01*
X2887065Y1620469D01*
X2900121Y1626616D01*
X2912262Y1634337D01*
X2923387Y1643532D01*
X2933242Y1654048D01*
X2941726Y1665681D01*
X2948686Y1678330D01*
X2953969Y1691741D01*
X2957576Y1705711D01*
X2959354Y1719986D01*
X2959354Y1734413D01*
X2957576Y1748688D01*
X2955086Y1758391D01*
X2954782Y1761896D01*
X2955696Y1765249D01*
X2957728Y1768144D01*
X2980182Y1790598D01*
X2983636Y1792884D01*
X2987700Y1793544D01*
X2991713Y1792630D01*
X2995015Y1790141D01*
X2997047Y1786534D01*
X2997504Y1782470D01*
X2996285Y1778507D01*
X2994914Y1776069D01*
X2989630Y1762658D01*
X2986024Y1748688D01*
X2984246Y1734413D01*
X2984246Y1719986D01*
X2986024Y1705711D01*
X2989630Y1691741D01*
X2994914Y1678330D01*
X3001873Y1665681D01*
X3010357Y1654048D01*
X3020212Y1643532D01*
X3031337Y1634337D01*
X3043478Y1626616D01*
X3056534Y1620469D01*
X3070250Y1615998D01*
X3084423Y1613306D01*
X3098800Y1612392D01*
X3113176Y1613306D01*
X3127349Y1615998D01*
X3141065Y1620469D01*
X3154121Y1626616D01*
X3166262Y1634337D01*
X3177387Y1643532D01*
X3187242Y1654048D01*
X3195726Y1665681D01*
X3202686Y1678330D01*
X3207969Y1691741D01*
X3211576Y1705711D01*
X3213354Y1719986D01*
X3213354Y1734413D01*
X3211576Y1748688D01*
X3209086Y1758391D01*
X3208782Y1761896D01*
X3209696Y1765249D01*
X3211728Y1768144D01*
X3234182Y1790598D01*
X3237636Y1792884D01*
X3241700Y1793544D01*
X3245713Y1792630D01*
X3249015Y1790141D01*
X3251047Y1786534D01*
X3251504Y1782470D01*
X3250285Y1778507D01*
X3248914Y1776069D01*
X3243630Y1762658D01*
X3240024Y1748688D01*
X3238246Y1734413D01*
X3238246Y1719986D01*
X3240024Y1705711D01*
X3243630Y1691741D01*
X3248914Y1678330D01*
X3255873Y1665681D01*
X3264357Y1654048D01*
X3274212Y1643532D01*
X3285337Y1634337D01*
X3297478Y1626616D01*
X3310534Y1620469D01*
X3324250Y1615998D01*
X3338423Y1613306D01*
X3352800Y1612392D01*
X3367176Y1613306D01*
X3381349Y1615998D01*
X3395065Y1620469D01*
X3408121Y1626616D01*
X3420262Y1634337D01*
X3431387Y1643532D01*
X3441242Y1654048D01*
X3449726Y1665681D01*
X3456686Y1678330D01*
X3461969Y1691741D01*
X3465576Y1705711D01*
X3467354Y1719986D01*
X3467354Y1734413D01*
X3465576Y1748688D01*
X3463086Y1758391D01*
X3462782Y1761896D01*
X3463696Y1765249D01*
X3465728Y1768144D01*
X3488182Y1790598D01*
X3491636Y1792884D01*
X3495700Y1793544D01*
X3499713Y1792630D01*
X3503015Y1790141D01*
X3505047Y1786534D01*
X3505504Y1782470D01*
X3504285Y1778507D01*
X3502914Y1776069D01*
X3497630Y1762658D01*
X3494024Y1748688D01*
X3492246Y1734413D01*
X3492246Y1719986D01*
X3494024Y1705711D01*
X3497630Y1691741D01*
X3502914Y1678330D01*
X3509873Y1665681D01*
X3518357Y1654048D01*
X3528212Y1643532D01*
X3539337Y1634337D01*
X3551478Y1626616D01*
X3564534Y1620469D01*
X3578250Y1615998D01*
X3592423Y1613306D01*
X3606800Y1612392D01*
X3621176Y1613306D01*
X3635349Y1615998D01*
X3649065Y1620469D01*
X3662121Y1626616D01*
X3674262Y1634337D01*
X3685387Y1643532D01*
X3695242Y1654048D01*
X3703726Y1665681D01*
X3710686Y1678330D01*
X3715969Y1691741D01*
X3719576Y1705711D01*
X3721354Y1719986D01*
X3721354Y1734413D01*
X3719576Y1748688D01*
X3717086Y1758391D01*
X3716782Y1761896D01*
X3717696Y1765249D01*
X3719728Y1768144D01*
X3742182Y1790598D01*
X3745636Y1792884D01*
X3749700Y1793544D01*
X3753713Y1792630D01*
X3757015Y1790141D01*
X3759047Y1786534D01*
X3759504Y1782470D01*
X3758285Y1778507D01*
X3756914Y1776069D01*
X3751630Y1762658D01*
X3748024Y1748688D01*
X3746246Y1734413D01*
X3746246Y1719986D01*
X3748024Y1705711D01*
X3751630Y1691741D01*
X3756914Y1678330D01*
X3763873Y1665681D01*
X3772357Y1654048D01*
X3782212Y1643532D01*
X3793337Y1634337D01*
X3805478Y1626616D01*
X3818534Y1620469D01*
X3832250Y1615998D01*
X3846423Y1613306D01*
X3860800Y1612392D01*
X3875176Y1613306D01*
X3889349Y1615998D01*
X3903065Y1620469D01*
X3916121Y1626616D01*
X3928262Y1634337D01*
X3939387Y1643532D01*
X3949242Y1654048D01*
X3957726Y1665681D01*
X3964686Y1678330D01*
X3969969Y1691741D01*
X3973576Y1705711D01*
X3975354Y1719986D01*
X3975354Y1734413D01*
X3973576Y1748688D01*
X3971086Y1758391D01*
X3970782Y1761896D01*
X3971696Y1765249D01*
X3973728Y1768144D01*
X3996182Y1790598D01*
X3999636Y1792884D01*
X4003700Y1793544D01*
X4007713Y1792630D01*
X4011015Y1790141D01*
X4013047Y1786534D01*
X4013504Y1782470D01*
X4012285Y1778507D01*
X4010914Y1776069D01*
X4005630Y1762658D01*
X4002024Y1748688D01*
X4000246Y1734413D01*
X4000246Y1719986D01*
X4002024Y1705711D01*
X4005630Y1691741D01*
X4010914Y1678330D01*
X4017873Y1665681D01*
X4026357Y1654048D01*
X4036212Y1643532D01*
X4047337Y1634337D01*
X4059478Y1626616D01*
X4072534Y1620469D01*
X4086250Y1615998D01*
X4100423Y1613306D01*
X4114800Y1612392D01*
X4129176Y1613306D01*
X4143349Y1615998D01*
X4157065Y1620469D01*
X4170121Y1626616D01*
X4182262Y1634337D01*
X4193387Y1643532D01*
X4203242Y1654048D01*
X4211726Y1665681D01*
X4218686Y1678330D01*
X4223969Y1691741D01*
X4227576Y1705711D01*
X4229354Y1719986D01*
X4229354Y1734413D01*
X4227576Y1748688D01*
X4225086Y1758391D01*
X4224782Y1761896D01*
X4225696Y1765249D01*
X4227728Y1768144D01*
X4250182Y1790598D01*
X4253636Y1792884D01*
X4257700Y1793544D01*
X4261713Y1792630D01*
X4265015Y1790141D01*
X4267047Y1786534D01*
X4267504Y1782470D01*
X4266285Y1778507D01*
X4264914Y1776069D01*
X4259630Y1762658D01*
X4256024Y1748688D01*
X4254246Y1734413D01*
X4254246Y1719986D01*
X4256024Y1705711D01*
X4259630Y1691741D01*
X4264914Y1678330D01*
X4271873Y1665681D01*
X4280357Y1654048D01*
X4290212Y1643532D01*
X4301337Y1634337D01*
X4313478Y1626616D01*
X4326534Y1620469D01*
X4340250Y1615998D01*
X4354423Y1613306D01*
X4368800Y1612392D01*
X4383176Y1613306D01*
X4397349Y1615998D01*
X4411065Y1620469D01*
X4424121Y1626616D01*
X4436262Y1634337D01*
X4447387Y1643532D01*
X4457242Y1654048D01*
X4465726Y1665681D01*
X4472686Y1678330D01*
X4477969Y1691741D01*
X4481576Y1705711D01*
X4483354Y1719986D01*
X4483354Y1734413D01*
X4481576Y1748688D01*
X4479086Y1758391D01*
X4478782Y1761896D01*
X4479696Y1765249D01*
X4481728Y1768144D01*
X4504182Y1790598D01*
X4507636Y1792884D01*
X4511700Y1793544D01*
X4515713Y1792630D01*
X4519015Y1790141D01*
X4521047Y1786534D01*
X4521504Y1782470D01*
X4520285Y1778507D01*
X4518914Y1776069D01*
X4513630Y1762658D01*
X4510024Y1748688D01*
X4508246Y1734413D01*
X4508246Y1719986D01*
X4510024Y1705711D01*
X4513630Y1691741D01*
X4518914Y1678330D01*
X4525873Y1665681D01*
X4534357Y1654048D01*
X4544212Y1643532D01*
X4555337Y1634337D01*
X4567478Y1626616D01*
X4580534Y1620469D01*
X4594250Y1615998D01*
X4608423Y1613306D01*
X4622800Y1612392D01*
X4637176Y1613306D01*
X4651349Y1615998D01*
X4665065Y1620469D01*
X4678121Y1626616D01*
X4690262Y1634337D01*
X4701387Y1643532D01*
X4711242Y1654048D01*
X4719726Y1665681D01*
X4726686Y1678330D01*
X4731969Y1691741D01*
X4735576Y1705711D01*
X4737354Y1719986D01*
X4737354Y1734413D01*
X4735576Y1748688D01*
X4731969Y1762658D01*
X4726686Y1776069D01*
X4719726Y1788718D01*
X4711242Y1800352D01*
X4701387Y1810867D01*
X4690262Y1820062D01*
X4678121Y1827784D01*
X4665065Y1833930D01*
X4651349Y1838401D01*
X4637176Y1841093D01*
X4622800Y1842007D01*
X4608423Y1841093D01*
X4594250Y1838401D01*
X4580534Y1833930D01*
X4570831Y1829358D01*
X4566920Y1828393D01*
X4562957Y1829054D01*
X4559554Y1831187D01*
X4557217Y1834489D01*
X4556353Y1838401D01*
X4557115Y1842363D01*
X4559350Y1845716D01*
X5484164Y2770530D01*
X5487314Y2773984D01*
X5490006Y2777490D01*
X5492394Y2781249D01*
X5494426Y2785211D01*
X5496153Y2789275D01*
X5497474Y2793542D01*
X5498439Y2797860D01*
X5498998Y2802280D01*
X5499201Y2806903D01*
X5499201Y3911701D01*
X5499963Y3915613D01*
X5502198Y3918864D01*
X5707735Y4124401D01*
X5710986Y4126636D01*
X5714898Y4127398D01*
X6133896Y4127398D01*
X6138519Y4127601D01*
X6142939Y4128160D01*
X6147257Y4129125D01*
X6151524Y4130446D01*
X6155588Y4132173D01*
X6159550Y4134205D01*
X6163310Y4136593D01*
X6166815Y4139285D01*
X6170269Y4142435D01*
X6271564Y4243730D01*
X6274714Y4247184D01*
X6277406Y4250690D01*
X6279794Y4254449D01*
X6281826Y4258411D01*
X6283553Y4262475D01*
X6284874Y4266742D01*
X6285839Y4271060D01*
X6286398Y4275480D01*
X6286601Y4280103D01*
X6286601Y4355947D01*
X6287363Y4359859D01*
X6289598Y4363161D01*
X6292900Y4365345D01*
X6296761Y4366107D01*
X6305854Y4366107D01*
X6312204Y4366869D01*
X6317640Y4368749D01*
X6322568Y4371848D01*
X6326632Y4375912D01*
X6329730Y4380839D01*
X6331610Y4386275D01*
X6332372Y4392625D01*
X6332372Y4532934D01*
X6331610Y4539284D01*
X6329730Y4544720D01*
X6326632Y4549648D01*
X6322568Y4553712D01*
X6317640Y4556810D01*
X6312204Y4558690D01*
X6305854Y4559401D01*
X6165545Y4559401D01*
X6159195Y4558690D01*
X6153759Y4556810D01*
X6148832Y4553712D01*
X6144768Y4549648D01*
X6141669Y4544720D01*
X6139789Y4539284D01*
X6139078Y4532934D01*
X6139078Y4392625D01*
X6139789Y4386275D01*
X6141669Y4380839D01*
X6144768Y4375912D01*
X6148832Y4371848D01*
X6153759Y4368749D01*
X6159195Y4366869D01*
X6165545Y4366107D01*
X6174638Y4366107D01*
X6178499Y4365345D01*
X6181801Y4363161D01*
X6184036Y4359859D01*
X6184798Y4355947D01*
X6184798Y4305198D01*
X6184036Y4301286D01*
X6181801Y4298035D01*
X6115964Y4232198D01*
X6112713Y4229963D01*
X6108801Y4229201D01*
X5689803Y4229201D01*
X5685180Y4228998D01*
X5680760Y4228439D01*
X5676442Y4227474D01*
X5672175Y4226153D01*
X5668111Y4224426D01*
X5664149Y4222394D01*
X5660390Y4220006D01*
X5656884Y4217314D01*
X5653430Y4214164D01*
X5412435Y3973169D01*
X5409285Y3969715D01*
X5406593Y3966210D01*
X5404205Y3962450D01*
X5402173Y3958488D01*
X5400446Y3954424D01*
X5399125Y3950157D01*
X5398160Y3945839D01*
X5397601Y3941419D01*
X5397398Y3936796D01*
X5397398Y2831998D01*
X5396636Y2828086D01*
X5394401Y2824835D01*
X4409795Y1840179D01*
X4406747Y1838096D01*
X4403140Y1837232D01*
X4399432Y1837689D01*
X4397349Y1838401D01*
X4383176Y1841093D01*
X4368800Y1842007D01*
X4354423Y1841093D01*
X4340250Y1838401D01*
X4326534Y1833930D01*
X4316831Y1829358D01*
X4312920Y1828393D01*
X4308957Y1829054D01*
X4305554Y1831187D01*
X4303217Y1834489D01*
X4302353Y1838401D01*
X4303115Y1842363D01*
X4305350Y1845716D01*
X5230164Y2770530D01*
X5233314Y2773984D01*
X5236006Y2777490D01*
X5238394Y2781249D01*
X5240426Y2785211D01*
X5242153Y2789275D01*
X5243474Y2793542D01*
X5244439Y2797860D01*
X5244998Y2802280D01*
X5245201Y2806903D01*
X5245201Y3911701D01*
X5245963Y3915613D01*
X5248198Y3918864D01*
X5509564Y4180230D01*
X5512714Y4183684D01*
X5515406Y4187190D01*
X5517794Y4190949D01*
X5519826Y4194911D01*
X5521553Y4198975D01*
X5522874Y4203242D01*
X5523839Y4207560D01*
X5524398Y4211980D01*
X5524601Y4216603D01*
X5524601Y4355947D01*
X5525363Y4359859D01*
X5527598Y4363161D01*
X5530900Y4365345D01*
X5534761Y4366107D01*
X5543854Y4366107D01*
X5550204Y4366869D01*
X5555640Y4368749D01*
X5560568Y4371848D01*
X5564632Y4375912D01*
X5567730Y4380839D01*
X5569610Y4386275D01*
X5570372Y4392625D01*
X5570372Y4532934D01*
X5569610Y4539284D01*
X5567730Y4544720D01*
X5564632Y4549648D01*
X5560568Y4553712D01*
X5555640Y4556810D01*
X5550204Y4558690D01*
X5543854Y4559401D01*
X5403545Y4559401D01*
X5397195Y4558690D01*
X5391759Y4556810D01*
X5386832Y4553712D01*
X5382768Y4549648D01*
X5379669Y4544720D01*
X5377789Y4539284D01*
X5377078Y4532934D01*
X5377078Y4392625D01*
X5377789Y4386275D01*
X5379669Y4380839D01*
X5382768Y4375912D01*
X5386832Y4371848D01*
X5391759Y4368749D01*
X5397195Y4366869D01*
X5403545Y4366107D01*
X5412638Y4366107D01*
X5416499Y4365345D01*
X5419801Y4363161D01*
X5422036Y4359859D01*
X5422798Y4355947D01*
X5422798Y4241698D01*
X5422036Y4237786D01*
X5419801Y4234535D01*
X5158435Y3973169D01*
X5155285Y3969715D01*
X5152593Y3966210D01*
X5150205Y3962450D01*
X5148173Y3958488D01*
X5146446Y3954424D01*
X5145125Y3950157D01*
X5144160Y3945839D01*
X5143601Y3941419D01*
X5143398Y3936796D01*
X5143398Y2831998D01*
X5142636Y2828086D01*
X5140401Y2824835D01*
X4155795Y1840179D01*
X4152747Y1838096D01*
X4149140Y1837232D01*
X4145432Y1837689D01*
X4143349Y1838401D01*
X4129176Y1841093D01*
X4114800Y1842007D01*
X4100423Y1841093D01*
X4086250Y1838401D01*
X4072534Y1833930D01*
X4062831Y1829358D01*
X4058920Y1828393D01*
X4054957Y1829054D01*
X4051554Y1831187D01*
X4049217Y1834489D01*
X4048353Y1838401D01*
X4049115Y1842363D01*
X4051350Y1845716D01*
X4976164Y2770530D01*
X4979314Y2773984D01*
X4982006Y2777490D01*
X4984394Y2781249D01*
X4986426Y2785211D01*
X4988153Y2789275D01*
X4989474Y2793542D01*
X4990439Y2797860D01*
X4990998Y2802280D01*
X4991201Y2806903D01*
X4991201Y3937101D01*
X4991963Y3941013D01*
X4994198Y3944264D01*
X5255564Y4205630D01*
X5258714Y4209084D01*
X5261406Y4212590D01*
X5263794Y4216349D01*
X5265826Y4220311D01*
X5267553Y4224375D01*
X5268874Y4228642D01*
X5269839Y4232960D01*
X5270398Y4237380D01*
X5270601Y4242003D01*
X5270601Y4355947D01*
X5271363Y4359859D01*
X5273598Y4363161D01*
X5276900Y4365345D01*
X5280761Y4366107D01*
X5289854Y4366107D01*
X5296204Y4366869D01*
X5301640Y4368749D01*
X5306568Y4371848D01*
X5310632Y4375912D01*
X5313730Y4380839D01*
X5315610Y4386275D01*
X5316372Y4392625D01*
X5316372Y4532934D01*
X5315610Y4539284D01*
X5313730Y4544720D01*
X5310632Y4549648D01*
X5306568Y4553712D01*
X5301640Y4556810D01*
X5296204Y4558690D01*
X5289854Y4559401D01*
X5149545Y4559401D01*
X5143195Y4558690D01*
X5137759Y4556810D01*
X5132832Y4553712D01*
X5128768Y4549648D01*
X5125669Y4544720D01*
X5123789Y4539284D01*
X5123078Y4532934D01*
X5123078Y4392625D01*
X5123789Y4386275D01*
X5125669Y4380839D01*
X5128768Y4375912D01*
X5132832Y4371848D01*
X5137759Y4368749D01*
X5143195Y4366869D01*
X5149545Y4366107D01*
X5158638Y4366107D01*
X5162499Y4365345D01*
X5165801Y4363161D01*
X5168036Y4359859D01*
X5168798Y4355947D01*
X5168798Y4267098D01*
X5168036Y4263186D01*
X5165801Y4259935D01*
X4904435Y3998569D01*
X4901285Y3995115D01*
X4898593Y3991610D01*
X4896205Y3987850D01*
X4894173Y3983888D01*
X4892446Y3979824D01*
X4891125Y3975557D01*
X4890160Y3971239D01*
X4889601Y3966819D01*
X4889398Y3962196D01*
X4889398Y2831998D01*
X4888636Y2828086D01*
X4886401Y2824835D01*
X3901795Y1840179D01*
X3898747Y1838096D01*
X3895140Y1837232D01*
X3891432Y1837689D01*
X3889349Y1838401D01*
X3875176Y1841093D01*
X3860800Y1842007D01*
X3846423Y1841093D01*
X3832250Y1838401D01*
X3818534Y1833930D01*
X3808831Y1829358D01*
X3804920Y1828393D01*
X3800957Y1829054D01*
X3797554Y1831187D01*
X3795217Y1834489D01*
X3794353Y1838401D01*
X3795115Y1842363D01*
X3797350Y1845716D01*
X4722164Y2770530D01*
X4725314Y2773984D01*
X4728006Y2777490D01*
X4730394Y2781249D01*
X4732426Y2785211D01*
X4734153Y2789275D01*
X4735474Y2793542D01*
X4736439Y2797860D01*
X4736998Y2802280D01*
X4737201Y2806903D01*
X4737201Y4000601D01*
X4737963Y4004513D01*
X4740198Y4007764D01*
X5001564Y4269130D01*
X5004714Y4272584D01*
X5007406Y4276090D01*
X5009794Y4279849D01*
X5011826Y4283811D01*
X5013553Y4287875D01*
X5014874Y4292142D01*
X5015839Y4296460D01*
X5016398Y4300880D01*
X5016601Y4305503D01*
X5016601Y4355947D01*
X5017363Y4359859D01*
X5019598Y4363161D01*
X5022900Y4365345D01*
X5026761Y4366107D01*
X5035854Y4366107D01*
X5042204Y4366869D01*
X5047640Y4368749D01*
X5052568Y4371848D01*
X5056632Y4375912D01*
X5059730Y4380839D01*
X5061610Y4386275D01*
X5062372Y4392625D01*
X5062372Y4532934D01*
X5061610Y4539284D01*
X5059730Y4544720D01*
X5056632Y4549648D01*
X5052568Y4553712D01*
X5047640Y4556810D01*
X5042204Y4558690D01*
X5035854Y4559401D01*
X4895545Y4559401D01*
X4889195Y4558690D01*
X4883759Y4556810D01*
X4878832Y4553712D01*
X4874768Y4549648D01*
X4871669Y4544720D01*
X4869789Y4539284D01*
X4869078Y4532934D01*
X4869078Y4392625D01*
X4869789Y4386275D01*
X4871669Y4380839D01*
X4874768Y4375912D01*
X4878832Y4371848D01*
X4883759Y4368749D01*
X4889195Y4366869D01*
X4895545Y4366107D01*
X4904638Y4366107D01*
X4908499Y4365345D01*
X4911801Y4363161D01*
X4914036Y4359859D01*
X4914798Y4355947D01*
X4914798Y4330598D01*
X4914036Y4326686D01*
X4911801Y4323435D01*
X4650435Y4062069D01*
X4647285Y4058615D01*
X4644593Y4055110D01*
X4642205Y4051350D01*
X4640173Y4047388D01*
X4638446Y4043324D01*
X4637125Y4039057D01*
X4636160Y4034739D01*
X4635601Y4030319D01*
X4635398Y4025696D01*
X4635398Y2831998D01*
X4634636Y2828086D01*
X4632401Y2824835D01*
X3647795Y1840179D01*
X3644747Y1838096D01*
X3641140Y1837232D01*
X3637432Y1837689D01*
X3635349Y1838401D01*
X3621176Y1841093D01*
X3606800Y1842007D01*
X3592423Y1841093D01*
X3578250Y1838401D01*
X3564534Y1833930D01*
X3554831Y1829358D01*
X3550920Y1828393D01*
X3546957Y1829054D01*
X3543554Y1831187D01*
X3541217Y1834489D01*
X3540353Y1838401D01*
X3541115Y1842363D01*
X3543350Y1845716D01*
X4493564Y2795930D01*
X4496714Y2799384D01*
X4499406Y2802890D01*
X4501794Y2806649D01*
X4503826Y2810611D01*
X4505553Y2814675D01*
X4506874Y2818942D01*
X4507839Y2823260D01*
X4508398Y2827680D01*
X4508601Y2832303D01*
X4508601Y4355947D01*
X4509363Y4359859D01*
X4511598Y4363161D01*
X4514900Y4365345D01*
X4518761Y4366107D01*
X4527854Y4366107D01*
X4534204Y4366869D01*
X4539640Y4368749D01*
X4544568Y4371848D01*
X4548632Y4375912D01*
X4551730Y4380839D01*
X4553610Y4386275D01*
X4554372Y4392625D01*
X4554372Y4532934D01*
X4553610Y4539284D01*
X4551730Y4544720D01*
X4548632Y4549648D01*
X4544568Y4553712D01*
X4539640Y4556810D01*
X4534204Y4558690D01*
X4527854Y4559401D01*
X4387545Y4559401D01*
X4381195Y4558690D01*
X4375759Y4556810D01*
X4370832Y4553712D01*
X4366768Y4549648D01*
X4363669Y4544720D01*
X4361789Y4539284D01*
X4361027Y4532934D01*
X4361027Y4392625D01*
X4361789Y4386275D01*
X4363669Y4380839D01*
X4366768Y4375912D01*
X4370832Y4371848D01*
X4375759Y4368749D01*
X4381195Y4366869D01*
X4387545Y4366107D01*
X4396638Y4366107D01*
X4400499Y4365345D01*
X4403801Y4363161D01*
X4406036Y4359859D01*
X4406798Y4355947D01*
X4406798Y2857398D01*
X4406036Y2853486D01*
X4403801Y2850235D01*
X3393795Y1840179D01*
X3390747Y1838096D01*
X3387140Y1837232D01*
X3383432Y1837689D01*
X3381349Y1838401D01*
X3367176Y1841093D01*
X3352800Y1842007D01*
X3338423Y1841093D01*
X3324250Y1838401D01*
X3310534Y1833930D01*
X3300831Y1829358D01*
X3296920Y1828393D01*
X3292957Y1829054D01*
X3289554Y1831187D01*
X3287217Y1834489D01*
X3286353Y1838401D01*
X3287115Y1842363D01*
X3289350Y1845716D01*
X4239564Y2795930D01*
X4242714Y2799384D01*
X4245406Y2802890D01*
X4247794Y2806649D01*
X4249826Y2810611D01*
X4251553Y2814675D01*
X4252874Y2818942D01*
X4253839Y2823260D01*
X4254398Y2827680D01*
X4254601Y2832303D01*
X4254601Y4355947D01*
X4255363Y4359859D01*
X4257598Y4363161D01*
X4260900Y4365345D01*
X4264761Y4366107D01*
X4273854Y4366107D01*
X4280204Y4366869D01*
X4285640Y4368749D01*
X4290568Y4371848D01*
X4294632Y4375912D01*
X4297730Y4380839D01*
X4299610Y4386275D01*
X4300372Y4392625D01*
X4300372Y4532934D01*
X4299610Y4539284D01*
X4297730Y4544720D01*
X4294632Y4549648D01*
X4290568Y4553712D01*
X4285640Y4556810D01*
X4280204Y4558690D01*
X4273854Y4559401D01*
X4133545Y4559401D01*
X4127195Y4558690D01*
X4121759Y4556810D01*
X4116832Y4553712D01*
X4112768Y4549648D01*
X4109669Y4544720D01*
X4107789Y4539284D01*
X4107027Y4532934D01*
X4107027Y4392625D01*
X4107789Y4386275D01*
X4109669Y4380839D01*
X4112768Y4375912D01*
X4116832Y4371848D01*
X4121759Y4368749D01*
X4127195Y4366869D01*
X4133545Y4366107D01*
X4142638Y4366107D01*
X4146499Y4365345D01*
X4149801Y4363161D01*
X4152036Y4359859D01*
X4152798Y4355947D01*
X4152798Y2857398D01*
X4152036Y2853486D01*
X4149801Y2850235D01*
X3139795Y1840179D01*
X3136747Y1838096D01*
X3133140Y1837232D01*
X3129432Y1837689D01*
X3127349Y1838401D01*
X3113176Y1841093D01*
X3098800Y1842007D01*
X3084423Y1841093D01*
X3070250Y1838401D01*
X3056534Y1833930D01*
X3046831Y1829358D01*
X3042920Y1828393D01*
X3038957Y1829054D01*
X3035554Y1831187D01*
X3033217Y1834489D01*
X3032353Y1838401D01*
X3033115Y1842363D01*
X3035350Y1845716D01*
X3985564Y2795930D01*
X3988714Y2799384D01*
X3991406Y2802890D01*
X3993794Y2806649D01*
X3995826Y2810611D01*
X3997553Y2814675D01*
X3998874Y2818942D01*
X3999839Y2823260D01*
X4000398Y2827680D01*
X4000601Y2832303D01*
X4000601Y4355947D01*
X4001363Y4359859D01*
X4003598Y4363161D01*
X4006900Y4365345D01*
X4010761Y4366107D01*
X4019854Y4366107D01*
X4026204Y4366869D01*
X4031640Y4368749D01*
X4036568Y4371848D01*
X4040632Y4375912D01*
X4043730Y4380839D01*
X4045610Y4386275D01*
X4046372Y4392625D01*
X4046372Y4532934D01*
X4045610Y4539284D01*
X4043730Y4544720D01*
X4040632Y4549648D01*
X4036568Y4553712D01*
X4031640Y4556810D01*
X4026204Y4558690D01*
X4019854Y4559401D01*
X3879545Y4559401D01*
X3873195Y4558690D01*
X3867759Y4556810D01*
X3862832Y4553712D01*
X3858768Y4549648D01*
X3855669Y4544720D01*
X3853789Y4539284D01*
X3853027Y4532934D01*
X3853027Y4392625D01*
X3853789Y4386275D01*
X3855669Y4380839D01*
X3858768Y4375912D01*
X3862832Y4371848D01*
X3867759Y4368749D01*
X3873195Y4366869D01*
X3879545Y4366107D01*
X3888638Y4366107D01*
X3892499Y4365345D01*
X3895801Y4363161D01*
X3898036Y4359859D01*
X3898798Y4355947D01*
X3898798Y2857398D01*
X3898036Y2853486D01*
X3895801Y2850235D01*
X2885795Y1840179D01*
X2882747Y1838096D01*
X2879140Y1837232D01*
X2875432Y1837689D01*
X2873349Y1838401D01*
X2859176Y1841093D01*
X2844800Y1842007D01*
X2830423Y1841093D01*
X2816250Y1838401D01*
X2802534Y1833930D01*
X2789478Y1827784D01*
X2777337Y1820062D01*
X2766212Y1810867D01*
X2756357Y1800352D01*
X2747873Y1788718D01*
X2740914Y1776069D01*
X2735630Y1762658D01*
X2732024Y1748688D01*
X2730246Y1734413D01*
X2730246Y1719986D01*
X2732024Y1705711D01*
X2735630Y1691741D01*
X2740914Y1678330D01*
X2747873Y1665681D01*
X2756357Y1654048D01*
X2766212Y1643532D01*
X2777337Y1634337D01*
X2789478Y1626616D01*
X2802534Y1620469D01*
X2816250Y1615998D01*
X2830423Y1613306D01*
G37*
G36*
X7977987Y4254093D02*
G01*
X8003692Y4254093D01*
X8029346Y4256074D01*
X8054797Y4260037D01*
X8079841Y4265879D01*
X8104378Y4273651D01*
X8128253Y4283252D01*
X8151317Y4294682D01*
X8173415Y4307840D01*
X8194497Y4322622D01*
X8214309Y4339031D01*
X8232851Y4356862D01*
X8249970Y4376064D01*
X8265566Y4396536D01*
X8279587Y4418126D01*
X8291880Y4440732D01*
X8302396Y4464202D01*
X8311083Y4488434D01*
X8317890Y4513224D01*
X8322818Y4538522D01*
X8325764Y4564075D01*
X8326729Y4589780D01*
X8325764Y4615484D01*
X8322818Y4641037D01*
X8317890Y4666335D01*
X8311083Y4691126D01*
X8302396Y4715357D01*
X8291880Y4738827D01*
X8279587Y4761433D01*
X8265566Y4783023D01*
X8249970Y4803495D01*
X8232851Y4822698D01*
X8214309Y4840528D01*
X8194497Y4856937D01*
X8173415Y4871720D01*
X8151317Y4884877D01*
X8128253Y4896307D01*
X8104378Y4905908D01*
X8079841Y4913680D01*
X8054797Y4919522D01*
X8029346Y4923485D01*
X8003692Y4925415D01*
X7977987Y4925415D01*
X7952333Y4923485D01*
X7926882Y4919522D01*
X7901838Y4913680D01*
X7877302Y4905908D01*
X7853425Y4896307D01*
X7830362Y4884877D01*
X7808264Y4871720D01*
X7787182Y4856937D01*
X7767370Y4840528D01*
X7748828Y4822698D01*
X7731709Y4803495D01*
X7716113Y4783023D01*
X7702092Y4761433D01*
X7689799Y4738827D01*
X7679283Y4715357D01*
X7670596Y4691126D01*
X7663789Y4666335D01*
X7658862Y4641037D01*
X7655915Y4615484D01*
X7654950Y4589780D01*
X7655915Y4564075D01*
X7658862Y4538522D01*
X7663789Y4513224D01*
X7670596Y4488434D01*
X7679283Y4464202D01*
X7689799Y4440732D01*
X7702092Y4418126D01*
X7716113Y4396536D01*
X7731709Y4376064D01*
X7748828Y4356862D01*
X7767370Y4339031D01*
X7787182Y4322622D01*
X7808264Y4307840D01*
X7830362Y4294682D01*
X7853425Y4283252D01*
X7877302Y4273651D01*
X7901838Y4265879D01*
X7926882Y4260037D01*
X7952333Y4256074D01*
G37*
G36*
X9918700Y4082542D02*
G01*
X9935108Y4083456D01*
X9951313Y4086250D01*
X9967112Y4090771D01*
X9982301Y4097070D01*
X9996678Y4104995D01*
X10010089Y4114546D01*
X10022332Y4125468D01*
X10033254Y4137710D01*
X10042804Y4151122D01*
X10050729Y4165498D01*
X10057028Y4180687D01*
X10061549Y4196486D01*
X10064343Y4212691D01*
X10065258Y4229100D01*
X10064343Y4245508D01*
X10061549Y4261713D01*
X10057028Y4277512D01*
X10050729Y4292701D01*
X10042804Y4307078D01*
X10033254Y4320489D01*
X10022332Y4332732D01*
X10010089Y4343654D01*
X9996678Y4353204D01*
X9982301Y4361129D01*
X9967112Y4367428D01*
X9951313Y4371949D01*
X9935108Y4374743D01*
X9918700Y4375658D01*
X9902291Y4374743D01*
X9886086Y4371949D01*
X9870287Y4367428D01*
X9855098Y4361129D01*
X9840722Y4353204D01*
X9827310Y4343654D01*
X9815068Y4332732D01*
X9804146Y4320489D01*
X9794595Y4307078D01*
X9786670Y4292701D01*
X9780371Y4277512D01*
X9775850Y4261713D01*
X9773056Y4245508D01*
X9772700Y4238802D01*
X9771786Y4235094D01*
X9769551Y4231995D01*
X9766300Y4229912D01*
X9762540Y4229201D01*
X7149998Y4229201D01*
X7146086Y4229963D01*
X7142835Y4232198D01*
X7051598Y4323435D01*
X7049363Y4326686D01*
X7048601Y4330598D01*
X7048601Y4355947D01*
X7049363Y4359859D01*
X7051598Y4363161D01*
X7054900Y4365345D01*
X7058761Y4366107D01*
X7067854Y4366107D01*
X7074204Y4366869D01*
X7079640Y4368749D01*
X7084568Y4371848D01*
X7088631Y4375912D01*
X7091730Y4380839D01*
X7093610Y4386275D01*
X7094372Y4392625D01*
X7094372Y4532934D01*
X7093610Y4539284D01*
X7091730Y4544720D01*
X7088631Y4549648D01*
X7084568Y4553712D01*
X7079640Y4556810D01*
X7074204Y4558690D01*
X7067854Y4559401D01*
X6927545Y4559401D01*
X6921195Y4558690D01*
X6915759Y4556810D01*
X6910831Y4553712D01*
X6906768Y4549648D01*
X6903669Y4544720D01*
X6901789Y4539284D01*
X6901078Y4532934D01*
X6901078Y4392625D01*
X6901789Y4386275D01*
X6903669Y4380839D01*
X6906768Y4375912D01*
X6910831Y4371848D01*
X6915759Y4368749D01*
X6921195Y4366869D01*
X6927545Y4366107D01*
X6936638Y4366107D01*
X6940499Y4365345D01*
X6943801Y4363161D01*
X6946036Y4359859D01*
X6946798Y4355947D01*
X6946798Y4305503D01*
X6947001Y4300880D01*
X6947560Y4296460D01*
X6948525Y4292142D01*
X6949846Y4287875D01*
X6951573Y4283811D01*
X6953605Y4279849D01*
X6955993Y4276090D01*
X6958685Y4272584D01*
X6961835Y4269130D01*
X7088530Y4142435D01*
X7091984Y4139285D01*
X7095490Y4136593D01*
X7099249Y4134205D01*
X7103211Y4132173D01*
X7107275Y4130446D01*
X7111542Y4129125D01*
X7115860Y4128160D01*
X7120280Y4127601D01*
X7124903Y4127398D01*
X9809073Y4127398D01*
X9812680Y4126737D01*
X9815830Y4124807D01*
X9827310Y4114546D01*
X9840722Y4104995D01*
X9855098Y4097070D01*
X9870287Y4090771D01*
X9886086Y4086250D01*
X9902291Y4083456D01*
G37*
G36*
X9918700Y3732022D02*
G01*
X9935108Y3732936D01*
X9951313Y3735730D01*
X9967112Y3740251D01*
X9982301Y3746550D01*
X9996678Y3754475D01*
X10010089Y3764026D01*
X10022332Y3774948D01*
X10033254Y3787190D01*
X10042804Y3800601D01*
X10050729Y3814978D01*
X10057028Y3830167D01*
X10061549Y3845966D01*
X10064343Y3862171D01*
X10065258Y3878579D01*
X10064343Y3894988D01*
X10061549Y3911193D01*
X10057028Y3926992D01*
X10050729Y3942181D01*
X10042804Y3956558D01*
X10033254Y3969969D01*
X10022332Y3982212D01*
X10010089Y3993134D01*
X9996678Y4002684D01*
X9982301Y4010609D01*
X9967112Y4016908D01*
X9951313Y4021429D01*
X9935108Y4024223D01*
X9918700Y4025137D01*
X9902291Y4024223D01*
X9886086Y4021429D01*
X9870287Y4016908D01*
X9855098Y4010609D01*
X9840722Y4002684D01*
X9827310Y3993134D01*
X9815068Y3982212D01*
X9804146Y3969969D01*
X9794595Y3956558D01*
X9786670Y3942181D01*
X9780371Y3926992D01*
X9775850Y3911193D01*
X9773056Y3894988D01*
X9772142Y3878579D01*
X9773056Y3862171D01*
X9775850Y3845966D01*
X9780371Y3830167D01*
X9786670Y3814978D01*
X9794595Y3800601D01*
X9804146Y3787190D01*
X9815068Y3774948D01*
X9827310Y3764026D01*
X9840722Y3754475D01*
X9855098Y3746550D01*
X9870287Y3740251D01*
X9886086Y3735730D01*
X9902291Y3732936D01*
G37*
G36*
X2012950Y3501390D02*
G01*
X2083307Y3501390D01*
X2083307Y3545281D01*
X2082596Y3551580D01*
X2080666Y3557066D01*
X2077618Y3561943D01*
X2073503Y3566058D01*
X2068626Y3569106D01*
X2063140Y3571036D01*
X2056841Y3571748D01*
X2012950Y3571748D01*
G37*
G36*
X1828292Y3501390D02*
G01*
X1898650Y3501390D01*
X1898650Y3571748D01*
X1854758Y3571748D01*
X1848459Y3571036D01*
X1842973Y3569106D01*
X1838096Y3566058D01*
X1833981Y3561943D01*
X1830933Y3557066D01*
X1829003Y3551580D01*
X1828292Y3545281D01*
G37*
G36*
X5773420Y3429558D02*
G01*
X5832348Y3429558D01*
X5832348Y3467608D01*
X5831636Y3473958D01*
X5829706Y3479393D01*
X5826658Y3484321D01*
X5822543Y3488385D01*
X5817666Y3491484D01*
X5812180Y3493414D01*
X5805881Y3494125D01*
X5773420Y3494125D01*
G37*
G36*
X5623052Y3429558D02*
G01*
X5681980Y3429558D01*
X5681980Y3494125D01*
X5649518Y3494125D01*
X5643219Y3493414D01*
X5637733Y3491484D01*
X5632856Y3488385D01*
X5628741Y3484321D01*
X5625693Y3479393D01*
X5623763Y3473958D01*
X5623052Y3467608D01*
G37*
G36*
X5878017Y3429558D02*
G01*
X5930341Y3429558D01*
X5930341Y3481933D01*
X5919622Y3476040D01*
X5907836Y3467506D01*
X5897219Y3457549D01*
X5887923Y3446322D01*
X5880150Y3434029D01*
G37*
G36*
X5649518Y1687474D02*
G01*
X5681980Y1687474D01*
X5681980Y1752041D01*
X5623052Y1752041D01*
X5623052Y1713992D01*
X5623763Y1707642D01*
X5625693Y1702206D01*
X5628741Y1697278D01*
X5632856Y1693214D01*
X5637733Y1690116D01*
X5643219Y1688185D01*
G37*
G36*
X5773420Y1687474D02*
G01*
X5805881Y1687474D01*
X5812180Y1688185D01*
X5817666Y1690116D01*
X5822543Y1693214D01*
X5826658Y1697278D01*
X5829706Y1702206D01*
X5831636Y1707642D01*
X5832348Y1713992D01*
X5832348Y1752041D01*
X5773420Y1752041D01*
G37*
G36*
X6228435Y1687728D02*
G01*
X6242964Y1687728D01*
X6257391Y1689557D01*
X6271514Y1693164D01*
X6285026Y1698548D01*
X6297777Y1705559D01*
X6309563Y1714093D01*
X6320180Y1724050D01*
X6329476Y1735277D01*
X6337249Y1747570D01*
X6343446Y1760728D01*
X6347968Y1774596D01*
X6350660Y1788871D01*
X6351574Y1803400D01*
X6350660Y1817928D01*
X6347968Y1832203D01*
X6343446Y1846072D01*
X6337249Y1859229D01*
X6329476Y1871522D01*
X6320180Y1882749D01*
X6309563Y1892706D01*
X6297777Y1901240D01*
X6285026Y1908251D01*
X6271514Y1913636D01*
X6257391Y1917242D01*
X6242964Y1919071D01*
X6228435Y1919071D01*
X6214008Y1917242D01*
X6199886Y1913636D01*
X6186373Y1908251D01*
X6173622Y1901240D01*
X6161836Y1892706D01*
X6151219Y1882749D01*
X6141923Y1871522D01*
X6134150Y1859229D01*
X6127953Y1846072D01*
X6123432Y1832203D01*
X6120739Y1817928D01*
X6119825Y1803400D01*
X6120739Y1788871D01*
X6123432Y1774596D01*
X6127953Y1760728D01*
X6134150Y1747570D01*
X6141923Y1735277D01*
X6151219Y1724050D01*
X6161836Y1714093D01*
X6173622Y1705559D01*
X6186373Y1698548D01*
X6199886Y1693164D01*
X6214008Y1689557D01*
G37*
G36*
X6033058Y1699666D02*
G01*
X6043777Y1705559D01*
X6055563Y1714093D01*
X6066180Y1724050D01*
X6075476Y1735277D01*
X6083249Y1747570D01*
X6085382Y1752041D01*
X6033058Y1752041D01*
G37*
G36*
X5930341Y1699666D02*
G01*
X5930341Y1752041D01*
X5878017Y1752041D01*
X5880150Y1747570D01*
X5887923Y1735277D01*
X5897219Y1724050D01*
X5907836Y1714093D01*
X5919622Y1705559D01*
G37*
G36*
X6033058Y3429558D02*
G01*
X6085382Y3429558D01*
X6083249Y3434029D01*
X6075476Y3446322D01*
X6066180Y3457549D01*
X6055563Y3467506D01*
X6043777Y3476040D01*
X6033058Y3481933D01*
G37*
G36*
X8650884Y3330905D02*
G01*
X8695994Y3330905D01*
X8695994Y3376066D01*
X8693251Y3374847D01*
X8682024Y3368040D01*
X8671814Y3359708D01*
X8662822Y3350107D01*
X8655253Y3339388D01*
G37*
G36*
X8779205Y3330905D02*
G01*
X8824315Y3330905D01*
X8819946Y3339388D01*
X8812377Y3350107D01*
X8803386Y3359708D01*
X8793175Y3368040D01*
X8781948Y3374847D01*
X8779205Y3376066D01*
G37*
G36*
X2012950Y3316732D02*
G01*
X2056841Y3316732D01*
X2063140Y3317443D01*
X2068626Y3319373D01*
X2073503Y3322421D01*
X2077618Y3326536D01*
X2080666Y3331413D01*
X2082596Y3336899D01*
X2083307Y3343198D01*
X2083307Y3387090D01*
X2012950Y3387090D01*
G37*
G36*
X1854758Y3316732D02*
G01*
X1898650Y3316732D01*
X1898650Y3387090D01*
X1828292Y3387090D01*
X1828292Y3343198D01*
X1829003Y3336899D01*
X1830933Y3331413D01*
X1833981Y3326536D01*
X1838096Y3322421D01*
X1842973Y3319373D01*
X1848459Y3317443D01*
G37*
G36*
X6033058Y3274466D02*
G01*
X6043777Y3280359D01*
X6055563Y3288893D01*
X6066180Y3298850D01*
X6075476Y3310077D01*
X6083249Y3322370D01*
X6085382Y3326841D01*
X6033058Y3326841D01*
G37*
G36*
X5930341Y3274466D02*
G01*
X5930341Y3326841D01*
X5878017Y3326841D01*
X5880150Y3322370D01*
X5887923Y3310077D01*
X5897219Y3298850D01*
X5907836Y3288893D01*
X5919622Y3280359D01*
G37*
G36*
X6228435Y3262528D02*
G01*
X6242964Y3262528D01*
X6257391Y3264357D01*
X6271514Y3267964D01*
X6285026Y3273348D01*
X6297777Y3280359D01*
X6309563Y3288893D01*
X6320180Y3298850D01*
X6329476Y3310077D01*
X6337249Y3322370D01*
X6343446Y3335528D01*
X6347968Y3349396D01*
X6350660Y3363671D01*
X6351574Y3378200D01*
X6350660Y3392728D01*
X6347968Y3407003D01*
X6343446Y3420872D01*
X6337249Y3434029D01*
X6329476Y3446322D01*
X6320180Y3457549D01*
X6309563Y3467506D01*
X6297777Y3476040D01*
X6285026Y3483051D01*
X6271514Y3488436D01*
X6257391Y3492042D01*
X6242964Y3493871D01*
X6228435Y3493871D01*
X6214008Y3492042D01*
X6199886Y3488436D01*
X6186373Y3483051D01*
X6173622Y3476040D01*
X6161836Y3467506D01*
X6151219Y3457549D01*
X6141923Y3446322D01*
X6134150Y3434029D01*
X6127953Y3420872D01*
X6123432Y3407003D01*
X6120739Y3392728D01*
X6119825Y3378200D01*
X6120739Y3363671D01*
X6123432Y3349396D01*
X6127953Y3335528D01*
X6134150Y3322370D01*
X6141923Y3310077D01*
X6151219Y3298850D01*
X6161836Y3288893D01*
X6173622Y3280359D01*
X6186373Y3273348D01*
X6199886Y3267964D01*
X6214008Y3264357D01*
G37*
G36*
X5773420Y3262274D02*
G01*
X5805881Y3262274D01*
X5812180Y3262985D01*
X5817666Y3264915D01*
X5822543Y3268014D01*
X5826658Y3272078D01*
X5829706Y3277006D01*
X5831636Y3282442D01*
X5832348Y3288792D01*
X5832348Y3326841D01*
X5773420Y3326841D01*
G37*
G36*
X5649518Y3262274D02*
G01*
X5681980Y3262274D01*
X5681980Y3326841D01*
X5623052Y3326841D01*
X5623052Y3288792D01*
X5623763Y3282442D01*
X5625693Y3277006D01*
X5628741Y3272078D01*
X5632856Y3268014D01*
X5637733Y3264915D01*
X5643219Y3262985D01*
G37*
G36*
X9817658Y3235452D02*
G01*
X10019741Y3235452D01*
X10026040Y3236163D01*
X10031526Y3238093D01*
X10036403Y3241141D01*
X10040518Y3245256D01*
X10043566Y3250133D01*
X10045496Y3255619D01*
X10046208Y3261918D01*
X10046208Y3464001D01*
X10045496Y3470300D01*
X10043566Y3475786D01*
X10040518Y3480663D01*
X10036403Y3484778D01*
X10031526Y3487826D01*
X10026040Y3489756D01*
X10019741Y3490468D01*
X9817658Y3490468D01*
X9811359Y3489756D01*
X9805873Y3487826D01*
X9800996Y3484778D01*
X9796881Y3480663D01*
X9793833Y3475786D01*
X9791903Y3470300D01*
X9791192Y3464001D01*
X9791192Y3261918D01*
X9791903Y3255619D01*
X9793833Y3250133D01*
X9796881Y3245256D01*
X9800996Y3241141D01*
X9805873Y3238093D01*
X9811359Y3236163D01*
G37*
G36*
X8779205Y3202533D02*
G01*
X8781948Y3203752D01*
X8793175Y3210560D01*
X8803386Y3218891D01*
X8812377Y3228492D01*
X8819946Y3239211D01*
X8824315Y3247694D01*
X8779205Y3247694D01*
G37*
G36*
X3187700Y3067862D02*
G01*
X3197504Y3068726D01*
X3206953Y3071266D01*
X3215894Y3075381D01*
X3223920Y3081020D01*
X3230880Y3087979D01*
X3236518Y3096006D01*
X3240633Y3104946D01*
X3243173Y3114395D01*
X3244037Y3124200D01*
X3243173Y3134004D01*
X3240633Y3143453D01*
X3239566Y3145790D01*
X3238601Y3150108D01*
X3238601Y3542792D01*
X3239566Y3547110D01*
X3240633Y3549446D01*
X3243173Y3558895D01*
X3244037Y3568700D01*
X3243173Y3578504D01*
X3240633Y3587953D01*
X3236518Y3596894D01*
X3230880Y3604920D01*
X3223920Y3611879D01*
X3215894Y3617518D01*
X3206953Y3621633D01*
X3197504Y3624173D01*
X3187700Y3625037D01*
X3177895Y3624173D01*
X3168446Y3621633D01*
X3159506Y3617518D01*
X3151479Y3611879D01*
X3144520Y3604920D01*
X3138881Y3596894D01*
X3134766Y3587953D01*
X3132226Y3578504D01*
X3131362Y3568700D01*
X3132226Y3558895D01*
X3134766Y3549446D01*
X3135833Y3547110D01*
X3136798Y3542792D01*
X3136798Y3150108D01*
X3135833Y3145790D01*
X3134766Y3143453D01*
X3132226Y3134004D01*
X3131362Y3124200D01*
X3132226Y3114395D01*
X3134766Y3104946D01*
X3138881Y3096006D01*
X3144520Y3087979D01*
X3151479Y3081020D01*
X3159506Y3075381D01*
X3168446Y3071266D01*
X3177895Y3068726D01*
G37*
G36*
X1955800Y2892552D02*
G01*
X1971192Y2893517D01*
X1986330Y2896260D01*
X2001012Y2900832D01*
X2015032Y2907182D01*
X2028240Y2915158D01*
X2040331Y2924657D01*
X2051202Y2935528D01*
X2060702Y2947619D01*
X2068677Y2960827D01*
X2075027Y2974848D01*
X2079599Y2989529D01*
X2082342Y3004667D01*
X2083307Y3020060D01*
X2082342Y3035452D01*
X2079599Y3050590D01*
X2075027Y3065272D01*
X2068677Y3079292D01*
X2060702Y3092500D01*
X2051202Y3104591D01*
X2040331Y3115462D01*
X2028240Y3124962D01*
X2015032Y3132937D01*
X2001012Y3139287D01*
X1986330Y3143859D01*
X1971192Y3146602D01*
X1955800Y3147568D01*
X1940407Y3146602D01*
X1925269Y3143859D01*
X1914906Y3140608D01*
X1911299Y3140151D01*
X1907743Y3141065D01*
X1904746Y3143148D01*
X1679498Y3368395D01*
X1677263Y3371646D01*
X1676501Y3375558D01*
X1676501Y4864201D01*
X1677263Y4868113D01*
X1679498Y4871364D01*
X1713738Y4905654D01*
X1717548Y4908042D01*
X1722018Y4908600D01*
X1726285Y4907127D01*
X1729486Y4903978D01*
X1731010Y4899761D01*
X1730603Y4895291D01*
X1728825Y4889906D01*
X1727860Y4885639D01*
X1727301Y4881219D01*
X1727098Y4876596D01*
X1727098Y3972763D01*
X1727301Y3968140D01*
X1727860Y3963720D01*
X1728825Y3959402D01*
X1730146Y3955135D01*
X1731873Y3951071D01*
X1733905Y3947109D01*
X1736293Y3943350D01*
X1738985Y3939844D01*
X1742135Y3936390D01*
X1832711Y3845814D01*
X1834794Y3842816D01*
X1835708Y3839260D01*
X1835251Y3835654D01*
X1832000Y3825290D01*
X1829257Y3810152D01*
X1828292Y3794760D01*
X1829257Y3779367D01*
X1832000Y3764229D01*
X1836572Y3749548D01*
X1842922Y3735527D01*
X1850898Y3722319D01*
X1860397Y3710228D01*
X1871268Y3699357D01*
X1883359Y3689858D01*
X1896567Y3681882D01*
X1910588Y3675532D01*
X1925269Y3670960D01*
X1940407Y3668217D01*
X1955800Y3667251D01*
X1971192Y3668217D01*
X1986330Y3670960D01*
X2001012Y3675532D01*
X2015032Y3681882D01*
X2028240Y3689858D01*
X2040331Y3699357D01*
X2051202Y3710228D01*
X2060702Y3722319D01*
X2068677Y3735527D01*
X2075027Y3749548D01*
X2079599Y3764229D01*
X2082342Y3779367D01*
X2083307Y3794760D01*
X2082342Y3810152D01*
X2079599Y3825290D01*
X2075027Y3839972D01*
X2068677Y3853992D01*
X2060702Y3867200D01*
X2051202Y3879291D01*
X2040331Y3890162D01*
X2028240Y3899662D01*
X2015032Y3907637D01*
X2001012Y3913987D01*
X1986330Y3918559D01*
X1971192Y3921302D01*
X1955800Y3922268D01*
X1940407Y3921302D01*
X1925269Y3918559D01*
X1914906Y3915308D01*
X1911299Y3914851D01*
X1907743Y3915765D01*
X1904746Y3917848D01*
X1831898Y3990695D01*
X1829663Y3993946D01*
X1828901Y3997858D01*
X1828901Y4851501D01*
X1829663Y4855413D01*
X1831898Y4858664D01*
X1885035Y4911801D01*
X1888286Y4914036D01*
X1892198Y4914798D01*
X2048560Y4914798D01*
X2052929Y4913782D01*
X2056485Y4910988D01*
X2058416Y4906924D01*
X2058466Y4902454D01*
X2056536Y4898390D01*
X2053031Y4895545D01*
X2031542Y4884877D01*
X2009444Y4871720D01*
X1988362Y4856937D01*
X1968550Y4840528D01*
X1950008Y4822698D01*
X1932889Y4803495D01*
X1917293Y4783023D01*
X1903272Y4761433D01*
X1890979Y4738827D01*
X1880463Y4715357D01*
X1871776Y4691126D01*
X1864969Y4666335D01*
X1860042Y4641037D01*
X1857095Y4615484D01*
X1856130Y4589780D01*
X1857095Y4564075D01*
X1860042Y4538522D01*
X1864969Y4513224D01*
X1871776Y4488434D01*
X1880463Y4464202D01*
X1890979Y4440732D01*
X1903272Y4418126D01*
X1917293Y4396536D01*
X1932889Y4376064D01*
X1950008Y4356862D01*
X1968550Y4339031D01*
X1988362Y4322622D01*
X2009444Y4307840D01*
X2031542Y4294682D01*
X2054606Y4283252D01*
X2078482Y4273651D01*
X2103018Y4265879D01*
X2128062Y4260037D01*
X2153513Y4256074D01*
X2179167Y4254093D01*
X2204872Y4254093D01*
X2230526Y4256074D01*
X2255977Y4260037D01*
X2281021Y4265879D01*
X2305558Y4273651D01*
X2329434Y4283252D01*
X2352497Y4294682D01*
X2374595Y4307840D01*
X2395677Y4322622D01*
X2415489Y4339031D01*
X2434031Y4356862D01*
X2451150Y4376064D01*
X2466746Y4396536D01*
X2480767Y4418126D01*
X2493060Y4440732D01*
X2503576Y4464202D01*
X2512263Y4488434D01*
X2519070Y4513224D01*
X2523998Y4538522D01*
X2526944Y4564075D01*
X2527909Y4589780D01*
X2526944Y4615484D01*
X2523998Y4641037D01*
X2519070Y4666335D01*
X2512263Y4691126D01*
X2503576Y4715357D01*
X2493060Y4738827D01*
X2480767Y4761433D01*
X2466746Y4783023D01*
X2451150Y4803495D01*
X2434031Y4822698D01*
X2415489Y4840528D01*
X2395677Y4856937D01*
X2374595Y4871720D01*
X2352497Y4884877D01*
X2331008Y4895545D01*
X2327503Y4898390D01*
X2325573Y4902454D01*
X2325624Y4906924D01*
X2327554Y4910988D01*
X2331110Y4913782D01*
X2335479Y4914798D01*
X4216501Y4914798D01*
X4220413Y4914036D01*
X4223664Y4911801D01*
X4358081Y4777435D01*
X4360265Y4774133D01*
X4361027Y4770221D01*
X4361027Y4646625D01*
X4361789Y4640275D01*
X4363669Y4634839D01*
X4366768Y4629912D01*
X4370832Y4625848D01*
X4375759Y4622749D01*
X4381195Y4620869D01*
X4387545Y4620107D01*
X4527854Y4620107D01*
X4534204Y4620869D01*
X4539640Y4622749D01*
X4544568Y4625848D01*
X4548632Y4629912D01*
X4551730Y4634839D01*
X4553610Y4640275D01*
X4554372Y4646625D01*
X4554372Y4777587D01*
X4555134Y4781499D01*
X4557318Y4784801D01*
X4560620Y4786985D01*
X4564532Y4787747D01*
X4568393Y4786985D01*
X4571695Y4784801D01*
X4612081Y4744415D01*
X4614265Y4741113D01*
X4615078Y4737201D01*
X4615078Y4646625D01*
X4615789Y4640275D01*
X4617669Y4634839D01*
X4620768Y4629912D01*
X4624832Y4625848D01*
X4629759Y4622749D01*
X4635195Y4620869D01*
X4641545Y4620107D01*
X4781854Y4620107D01*
X4788204Y4620869D01*
X4793640Y4622749D01*
X4798568Y4625848D01*
X4802632Y4629912D01*
X4805730Y4634839D01*
X4807610Y4640275D01*
X4808372Y4646625D01*
X4808372Y4786934D01*
X4807610Y4793284D01*
X4805730Y4798720D01*
X4802632Y4803648D01*
X4798568Y4807712D01*
X4793640Y4810810D01*
X4788204Y4812690D01*
X4781854Y4813401D01*
X4691278Y4813401D01*
X4687366Y4814214D01*
X4684064Y4816398D01*
X4346549Y5153964D01*
X4343095Y5157114D01*
X4339590Y5159806D01*
X4335830Y5162194D01*
X4331868Y5164226D01*
X4327804Y5165953D01*
X4323537Y5167274D01*
X4319219Y5168239D01*
X4314799Y5168798D01*
X4310176Y5169001D01*
X1854403Y5169001D01*
X1849780Y5168798D01*
X1845360Y5168239D01*
X1841042Y5167274D01*
X1836775Y5165953D01*
X1832711Y5164226D01*
X1828749Y5162194D01*
X1824989Y5159806D01*
X1821484Y5157114D01*
X1818030Y5153964D01*
X1589735Y4925669D01*
X1586585Y4922215D01*
X1583893Y4918710D01*
X1581505Y4914950D01*
X1579473Y4910988D01*
X1577746Y4906924D01*
X1576425Y4902657D01*
X1575460Y4898339D01*
X1574901Y4893919D01*
X1574698Y4889296D01*
X1574698Y3350463D01*
X1574901Y3345840D01*
X1575460Y3341420D01*
X1576425Y3337102D01*
X1577746Y3332835D01*
X1579473Y3328771D01*
X1581505Y3324809D01*
X1583893Y3321050D01*
X1586585Y3317544D01*
X1589735Y3314090D01*
X1832711Y3071114D01*
X1834794Y3068116D01*
X1835708Y3064560D01*
X1835251Y3060954D01*
X1832000Y3050590D01*
X1829257Y3035452D01*
X1828292Y3020060D01*
X1829257Y3004667D01*
X1832000Y2989529D01*
X1836572Y2974848D01*
X1842922Y2960827D01*
X1850898Y2947619D01*
X1860397Y2935528D01*
X1871268Y2924657D01*
X1883359Y2915158D01*
X1896567Y2907182D01*
X1910588Y2900832D01*
X1925269Y2896260D01*
X1940407Y2893517D01*
G37*
G36*
X9918700Y2884932D02*
G01*
X9934092Y2885897D01*
X9949230Y2888640D01*
X9963912Y2893212D01*
X9977932Y2899562D01*
X9991140Y2907538D01*
X10003231Y2917037D01*
X10014102Y2927908D01*
X10023602Y2939999D01*
X10031577Y2953207D01*
X10037927Y2967228D01*
X10042499Y2981909D01*
X10045242Y2997047D01*
X10046208Y3012440D01*
X10045242Y3027832D01*
X10042499Y3042970D01*
X10037927Y3057652D01*
X10031577Y3071672D01*
X10023602Y3084880D01*
X10014102Y3096971D01*
X10003231Y3107842D01*
X9991140Y3117342D01*
X9977932Y3125317D01*
X9963912Y3131667D01*
X9949230Y3136239D01*
X9934092Y3138982D01*
X9918700Y3139948D01*
X9903307Y3138982D01*
X9888169Y3136239D01*
X9873488Y3131667D01*
X9859467Y3125317D01*
X9846259Y3117342D01*
X9834168Y3107842D01*
X9823297Y3096971D01*
X9813798Y3084880D01*
X9805822Y3071672D01*
X9804755Y3069336D01*
X9802520Y3066186D01*
X9799269Y3064103D01*
X9795510Y3063341D01*
X8836863Y3063341D01*
X8832799Y3064205D01*
X8829395Y3066592D01*
X8827262Y3070098D01*
X8825992Y3073704D01*
X8819946Y3085388D01*
X8812377Y3096107D01*
X8803386Y3105708D01*
X8793175Y3114040D01*
X8781948Y3120847D01*
X8769858Y3126079D01*
X8757208Y3129635D01*
X8744153Y3131464D01*
X8731046Y3131464D01*
X8717991Y3129635D01*
X8713012Y3129127D01*
X8709101Y3130499D01*
X8706053Y3133344D01*
X8704427Y3137103D01*
X8704427Y3141268D01*
X8706053Y3149193D01*
X8706967Y3162300D01*
X8706053Y3175406D01*
X8703411Y3188309D01*
X8698992Y3200704D01*
X8696299Y3206546D01*
X8695994Y3208934D01*
X8695994Y3247694D01*
X8657386Y3247694D01*
X8653373Y3248558D01*
X8642858Y3253079D01*
X8630208Y3256635D01*
X8617153Y3258464D01*
X8604046Y3258464D01*
X8590991Y3256635D01*
X8578342Y3253079D01*
X8566251Y3247847D01*
X8555024Y3241040D01*
X8544814Y3232708D01*
X8535822Y3223107D01*
X8531910Y3217519D01*
X8529624Y3215182D01*
X8526780Y3213709D01*
X8523579Y3213201D01*
X7035698Y3213201D01*
X7031786Y3213963D01*
X7028535Y3216198D01*
X6797598Y3447135D01*
X6795363Y3450386D01*
X6794601Y3454298D01*
X6794601Y4355947D01*
X6795363Y4359859D01*
X6797598Y4363161D01*
X6800900Y4365345D01*
X6804761Y4366107D01*
X6813854Y4366107D01*
X6820204Y4366869D01*
X6825640Y4368749D01*
X6830568Y4371848D01*
X6834631Y4375912D01*
X6837730Y4380839D01*
X6839610Y4386275D01*
X6840372Y4392625D01*
X6840372Y4532934D01*
X6839610Y4539284D01*
X6837730Y4544720D01*
X6834631Y4549648D01*
X6830568Y4553712D01*
X6825640Y4556810D01*
X6820204Y4558690D01*
X6813854Y4559401D01*
X6673545Y4559401D01*
X6667195Y4558690D01*
X6661759Y4556810D01*
X6656831Y4553712D01*
X6652768Y4549648D01*
X6649669Y4544720D01*
X6647789Y4539284D01*
X6647078Y4532934D01*
X6647078Y4392625D01*
X6647789Y4386275D01*
X6649669Y4380839D01*
X6652768Y4375912D01*
X6656831Y4371848D01*
X6661759Y4368749D01*
X6667195Y4366869D01*
X6673545Y4366107D01*
X6682638Y4366107D01*
X6686499Y4365345D01*
X6689801Y4363161D01*
X6692036Y4359859D01*
X6692798Y4355947D01*
X6692798Y3429203D01*
X6693001Y3424580D01*
X6693560Y3420160D01*
X6694525Y3415842D01*
X6695846Y3411575D01*
X6697573Y3407511D01*
X6699605Y3403549D01*
X6701993Y3399790D01*
X6704685Y3396284D01*
X6707835Y3392830D01*
X6974230Y3126435D01*
X6977684Y3123285D01*
X6981190Y3120593D01*
X6984949Y3118205D01*
X6988911Y3116173D01*
X6992975Y3114446D01*
X6997242Y3113125D01*
X7001560Y3112160D01*
X7005980Y3111601D01*
X7010603Y3111398D01*
X8523579Y3111398D01*
X8526780Y3110890D01*
X8529624Y3109417D01*
X8531910Y3107080D01*
X8535822Y3101492D01*
X8544814Y3091891D01*
X8555024Y3083560D01*
X8566251Y3076752D01*
X8578342Y3071469D01*
X8590991Y3067964D01*
X8604046Y3066135D01*
X8617153Y3066135D01*
X8630208Y3067964D01*
X8635187Y3068472D01*
X8639098Y3067100D01*
X8642146Y3064256D01*
X8643772Y3060496D01*
X8643772Y3056331D01*
X8642146Y3048406D01*
X8641232Y3035300D01*
X8642146Y3022193D01*
X8644788Y3009290D01*
X8649208Y2996895D01*
X8655253Y2985211D01*
X8662822Y2974492D01*
X8671814Y2964891D01*
X8682024Y2956560D01*
X8693251Y2949752D01*
X8705342Y2944469D01*
X8717991Y2940964D01*
X8731046Y2939135D01*
X8744153Y2939135D01*
X8757208Y2940964D01*
X8769858Y2944469D01*
X8781948Y2949752D01*
X8793175Y2956560D01*
X8796477Y2959252D01*
X8799474Y2960928D01*
X8802878Y2961538D01*
X9795510Y2961538D01*
X9799269Y2960776D01*
X9802520Y2958693D01*
X9804755Y2955544D01*
X9805822Y2953207D01*
X9813798Y2939999D01*
X9823297Y2927908D01*
X9834168Y2917037D01*
X9846259Y2907538D01*
X9859467Y2899562D01*
X9873488Y2893212D01*
X9888169Y2888640D01*
X9903307Y2885897D01*
G37*
G36*
X6033058Y1854758D02*
G01*
X6085382Y1854758D01*
X6083249Y1859229D01*
X6075476Y1871522D01*
X6066180Y1882749D01*
X6055563Y1892706D01*
X6043777Y1901240D01*
X6033058Y1907133D01*
G37*
G36*
X5878017Y1854758D02*
G01*
X5930341Y1854758D01*
X5930341Y1907133D01*
X5919622Y1901240D01*
X5907836Y1892706D01*
X5897219Y1882749D01*
X5887923Y1871522D01*
X5880150Y1859229D01*
G37*
G36*
X5623052Y1854758D02*
G01*
X5681980Y1854758D01*
X5681980Y1919325D01*
X5649518Y1919325D01*
X5643219Y1918614D01*
X5637733Y1916684D01*
X5632856Y1913585D01*
X5628741Y1909521D01*
X5625693Y1904593D01*
X5623763Y1899157D01*
X5623052Y1892807D01*
G37*
G36*
X5773420Y1854758D02*
G01*
X5832348Y1854758D01*
X5832348Y1892807D01*
X5831636Y1899157D01*
X5829706Y1904593D01*
X5826658Y1909521D01*
X5822543Y1913585D01*
X5817666Y1916684D01*
X5812180Y1918614D01*
X5805881Y1919325D01*
X5773420Y1919325D01*
G37*
G36*
X2012950Y2726690D02*
G01*
X2083307Y2726690D01*
X2083307Y2770581D01*
X2082596Y2776880D01*
X2080666Y2782366D01*
X2077618Y2787243D01*
X2073503Y2791358D01*
X2068626Y2794406D01*
X2063140Y2796336D01*
X2056841Y2797048D01*
X2012950Y2797048D01*
G37*
G36*
X1828292Y2726690D02*
G01*
X1898650Y2726690D01*
X1898650Y2797048D01*
X1854758Y2797048D01*
X1848459Y2796336D01*
X1842973Y2794406D01*
X1838096Y2791358D01*
X1833981Y2787243D01*
X1830933Y2782366D01*
X1829003Y2776880D01*
X1828292Y2770581D01*
G37*
G36*
X1854758Y2542032D02*
G01*
X1898650Y2542032D01*
X1898650Y2612390D01*
X1828292Y2612390D01*
X1828292Y2568498D01*
X1829003Y2562199D01*
X1830933Y2556713D01*
X1833981Y2551836D01*
X1838096Y2547721D01*
X1842973Y2544673D01*
X1848459Y2542743D01*
G37*
G36*
X2012950Y2542032D02*
G01*
X2056841Y2542032D01*
X2063140Y2542743D01*
X2068626Y2544673D01*
X2073503Y2547721D01*
X2077618Y2551836D01*
X2080666Y2556713D01*
X2082596Y2562199D01*
X2083307Y2568498D01*
X2083307Y2612390D01*
X2012950Y2612390D01*
G37*

%LPD*%
D11*
X7479106Y419100D02*
G01*
X7722463Y662457D01*
X7722463Y723900D01*
X7354493Y419100D02*
G01*
X7188200Y585393D01*
X7188200Y800100D01*
X8382000Y1412900D02*
G01*
X9044838Y1412900D01*
X9076436Y1444497D01*
X8826500Y944371D02*
G01*
X9237472Y944371D01*
X9448800Y1155700D01*
X9448800Y1965960D01*
X9931400Y2448560D01*
X10096500Y1444497D02*
G01*
X9931400Y1609597D01*
X9931400Y2098039D01*
X9076436Y444500D02*
G01*
X8978036Y542899D01*
X8382000Y542899D01*
X5812790Y-254000D02*
G01*
X5727700Y-168910D01*
X5727700Y1054100D01*
X6511290Y-254000D02*
G01*
X6308090Y-50800D01*
X6121400Y-50800D01*
X5981700Y88900D01*
X5981700Y1054100D01*
X6861809Y-254000D02*
G01*
X6658609Y-50800D01*
X6515100Y-50800D01*
X6235700Y228600D01*
X6235700Y1054100D01*
X6235700Y1054100D02*
G01*
X6667500Y1485900D01*
X6667500Y2133600D01*
X6235700Y2565400D01*
X6235700Y2616200D01*
X5981700Y1054100D02*
G01*
X6515100Y1587500D01*
X6515100Y2070100D01*
X5981700Y2603500D01*
X5981700Y2616200D01*
X7354493Y419100D02*
G01*
X7494193Y279400D01*
X8153400Y279400D01*
X8382000Y508000D01*
X8382000Y542899D01*
X7873136Y723900D02*
G01*
X8382000Y1232763D01*
X8382000Y1412900D01*
X7188200Y1054100D02*
G01*
X7340600Y901700D01*
X7785100Y901700D01*
X7873136Y989736D01*
X7873136Y1054100D01*
X7188200Y1308100D02*
G01*
X7277100Y1219200D01*
X7785100Y1219200D01*
X7873136Y1307236D01*
X7873136Y1384300D01*
X5812790Y-254000D02*
G01*
X6015990Y-457200D01*
X7239000Y-457200D01*
X7823200Y127000D01*
X9537700Y127000D01*
X9537700Y127000D02*
G01*
X9652000Y241300D01*
X9652000Y1422400D01*
X9334500Y1739900D02*
G01*
X9194800Y1739900D01*
X9076436Y1621536D01*
X9076436Y1444497D01*
X8737600Y3035300D02*
G01*
X8760459Y3012439D01*
X9918700Y3012439D01*
X2833370Y-254000D02*
G01*
X3098800Y11429D01*
X3098800Y457200D01*
X3183890Y-254000D02*
G01*
X3352800Y-85089D01*
X3352800Y457200D01*
X3534409Y-254000D02*
G01*
X3606800Y-181610D01*
X3606800Y457200D01*
X3882390Y-254000D02*
G01*
X3860800Y-232410D01*
X3860800Y457200D01*
X4232909Y-254000D02*
G01*
X4114800Y-135889D01*
X4114800Y457200D01*
X4583429Y-254000D02*
G01*
X4368800Y-39370D01*
X4368800Y457200D01*
X1955800Y3794760D02*
G01*
X1778000Y3972560D01*
X1778000Y4876800D01*
X1866900Y4965700D01*
X4241800Y4965700D01*
X4457700Y4749800D01*
X4457700Y4716779D01*
X1955800Y3020060D02*
G01*
X1625600Y3350260D01*
X1625600Y4889500D01*
X1854200Y5118100D01*
X4310379Y5118100D01*
X4711700Y4716779D01*
X2844800Y1727200D02*
G01*
X3949700Y2832100D01*
X3949700Y4462779D01*
X3098800Y1727200D02*
G01*
X4203700Y2832100D01*
X4203700Y4462779D01*
X3352800Y1727200D02*
G01*
X4457700Y2832100D01*
X4457700Y4462779D01*
X3606800Y1727200D02*
G01*
X4686300Y2806700D01*
X4686300Y4025900D01*
X4965700Y4305300D01*
X4965700Y4462779D01*
X3860800Y1727200D02*
G01*
X4940300Y2806700D01*
X4940300Y3962400D01*
X5219700Y4241800D01*
X5219700Y4462779D01*
X4114800Y1727200D02*
G01*
X5194300Y2806700D01*
X5194300Y3937000D01*
X5473700Y4216400D01*
X5473700Y4462779D01*
X4368800Y1727200D02*
G01*
X5448300Y2806700D01*
X5448300Y3937000D01*
X5689600Y4178300D01*
X6134100Y4178300D01*
X6235700Y4279900D01*
X6235700Y4462779D01*
X7722463Y1054100D02*
G01*
X7480300Y1054100D01*
X6489700Y4462779D02*
G01*
X6489700Y2578100D01*
X6921500Y2146300D01*
X7239000Y2146300D01*
X7480300Y1905000D01*
X7480300Y1422400D01*
X6743700Y4462779D02*
G01*
X6743700Y3429000D01*
X7010400Y3162300D01*
X8610600Y3162300D01*
X9918700Y4229100D02*
G01*
X9867900Y4178300D01*
X7124700Y4178300D01*
X6997700Y4305300D01*
X6997700Y4462779D01*
X5981700Y2616200D02*
G01*
X5715000Y2882900D01*
X6235700Y2616200D02*
G01*
X5842000Y3009900D01*
X3187700Y3124200D02*
G01*
X3187700Y3568700D01*
G36*
X7441608Y449099D02*
G01*
X7516609Y449099D01*
X7516609Y389100D01*
X7441608Y389100D01*
G37*
G36*
X7316990Y449099D02*
G01*
X7391991Y449099D01*
X7391991Y389100D01*
X7316990Y389100D01*
G37*
G36*
X7832801Y680699D02*
G01*
X7832801Y767100D01*
X7913448Y767100D01*
X7913448Y680699D01*
G37*
G36*
X7762798Y680699D02*
G01*
X7762798Y767100D01*
X7682151Y767100D01*
X7682151Y680699D01*
G37*
G36*
X7832801Y1341099D02*
G01*
X7832801Y1427500D01*
X7913448Y1427500D01*
X7913448Y1341099D01*
G37*
G36*
X7762798Y1341099D02*
G01*
X7762798Y1427500D01*
X7682151Y1427500D01*
X7682151Y1341099D01*
G37*
G36*
X7832801Y1010899D02*
G01*
X7832801Y1097300D01*
X7913448Y1097300D01*
X7913448Y1010899D01*
G37*
G36*
X7762798Y1010899D02*
G01*
X7762798Y1097300D01*
X7682151Y1097300D01*
X7682151Y1010899D01*
G37*
D15*
G01*
X8382000Y1412900D03*
G01*
X8382000Y542899D03*
G01*
X6235700Y1803400D03*
G01*
X5981700Y1803400D03*
G36*
X5648959Y1893399D02*
G01*
X5806440Y1893399D01*
X5806440Y1713400D01*
X5648959Y1713400D01*
G37*
G01*
X6235700Y2616200D03*
G01*
X5981700Y2616200D03*
G36*
X5648959Y2706199D02*
G01*
X5806440Y2706199D01*
X5806440Y2526200D01*
X5648959Y2526200D01*
G37*
G01*
X6235700Y1054100D03*
G01*
X5981700Y1054100D03*
G36*
X5648959Y1144099D02*
G01*
X5806440Y1144099D01*
X5806440Y964100D01*
X5648959Y964100D01*
G37*
G01*
X6235700Y3378200D03*
G01*
X5981700Y3378200D03*
G36*
X5648959Y3468199D02*
G01*
X5806440Y3468199D01*
X5806440Y3288200D01*
X5648959Y3288200D01*
G37*
D17*
G01*
X6861809Y-254000D03*
D18*
G01*
X6511290Y-254000D03*
G01*
X6160770Y-254000D03*
G01*
X5812790Y-254000D03*
D19*
G01*
X9918700Y4579620D03*
D20*
G01*
X9918700Y4229100D03*
G01*
X9918700Y3878579D03*
D17*
G01*
X9918700Y3362960D03*
D18*
G01*
X9918700Y3012439D03*
D17*
G01*
X9931400Y2448560D03*
D18*
G01*
X9931400Y2098039D03*
D17*
G01*
X1955800Y3444239D03*
D18*
G01*
X1955800Y3794760D03*
D17*
G01*
X1955800Y2669539D03*
D18*
G01*
X1955800Y3020060D03*
D17*
G01*
X4583429Y-254000D03*
D18*
G01*
X4232909Y-254000D03*
G01*
X3882390Y-254000D03*
G01*
X3534409Y-254000D03*
G01*
X3183890Y-254000D03*
G01*
X2833370Y-254000D03*
D21*
G01*
X10096500Y444500D03*
G01*
X10096500Y1444497D03*
G01*
X9076436Y1444497D03*
G01*
X9076436Y444500D03*
G01*
X8826500Y944371D03*
D22*
G01*
X3860800Y457200D03*
G01*
X4114800Y457200D03*
G01*
X4368800Y457200D03*
G01*
X4622800Y457200D03*
G01*
X3606800Y457200D03*
G01*
X2844800Y457200D03*
G01*
X2590800Y457200D03*
D23*
G01*
X2336800Y457200D03*
D22*
G01*
X4622800Y1727200D03*
G01*
X4368800Y1727200D03*
G01*
X4114800Y1727200D03*
G01*
X3860800Y1727200D03*
G01*
X3606800Y1727200D03*
G01*
X3352800Y1727200D03*
G01*
X3098800Y1727200D03*
G01*
X2844800Y1727200D03*
G01*
X2590800Y1727200D03*
G01*
X2336800Y1727200D03*
G01*
X3352800Y457200D03*
G01*
X3098800Y457200D03*
D24*
G01*
X2192020Y-309879D03*
G01*
X7990840Y-309879D03*
G01*
X7990840Y4589779D03*
G01*
X2192020Y4589779D03*
G36*
X2608961Y4533519D02*
G01*
X2750438Y4533519D01*
X2750438Y4392040D01*
X2608961Y4392040D01*
G37*
G36*
X2862961Y4533519D02*
G01*
X3004438Y4533519D01*
X3004438Y4392040D01*
X2862961Y4392040D01*
G37*
G36*
X3116961Y4533519D02*
G01*
X3258438Y4533519D01*
X3258438Y4392040D01*
X3116961Y4392040D01*
G37*
G36*
X3370961Y4533519D02*
G01*
X3512438Y4533519D01*
X3512438Y4392040D01*
X3370961Y4392040D01*
G37*
G36*
X3624961Y4533519D02*
G01*
X3766438Y4533519D01*
X3766438Y4392040D01*
X3624961Y4392040D01*
G37*
G36*
X3878961Y4533519D02*
G01*
X4020438Y4533519D01*
X4020438Y4392040D01*
X3878961Y4392040D01*
G37*
G36*
X2608961Y4787519D02*
G01*
X2750438Y4787519D01*
X2750438Y4646040D01*
X2608961Y4646040D01*
G37*
G36*
X2862961Y4787519D02*
G01*
X3004438Y4787519D01*
X3004438Y4646040D01*
X2862961Y4646040D01*
G37*
G36*
X3116961Y4787519D02*
G01*
X3258438Y4787519D01*
X3258438Y4646040D01*
X3116961Y4646040D01*
G37*
G36*
X3370961Y4787519D02*
G01*
X3512438Y4787519D01*
X3512438Y4646040D01*
X3370961Y4646040D01*
G37*
G36*
X3624961Y4787519D02*
G01*
X3766438Y4787519D01*
X3766438Y4646040D01*
X3624961Y4646040D01*
G37*
G36*
X3878961Y4787519D02*
G01*
X4020438Y4787519D01*
X4020438Y4646040D01*
X3878961Y4646040D01*
G37*
G36*
X4132961Y4533519D02*
G01*
X4274438Y4533519D01*
X4274438Y4392040D01*
X4132961Y4392040D01*
G37*
G36*
X4132961Y4787519D02*
G01*
X4274438Y4787519D01*
X4274438Y4646040D01*
X4132961Y4646040D01*
G37*
G36*
X4386961Y4533519D02*
G01*
X4528438Y4533519D01*
X4528438Y4392040D01*
X4386961Y4392040D01*
G37*
G36*
X4640961Y4533519D02*
G01*
X4782438Y4533519D01*
X4782438Y4392040D01*
X4640961Y4392040D01*
G37*
G36*
X4894961Y4533519D02*
G01*
X5036438Y4533519D01*
X5036438Y4392040D01*
X4894961Y4392040D01*
G37*
G36*
X5148961Y4533519D02*
G01*
X5290438Y4533519D01*
X5290438Y4392040D01*
X5148961Y4392040D01*
G37*
G36*
X5402961Y4533519D02*
G01*
X5544438Y4533519D01*
X5544438Y4392040D01*
X5402961Y4392040D01*
G37*
G36*
X5656961Y4533519D02*
G01*
X5798438Y4533519D01*
X5798438Y4392040D01*
X5656961Y4392040D01*
G37*
G36*
X4386961Y4787519D02*
G01*
X4528438Y4787519D01*
X4528438Y4646040D01*
X4386961Y4646040D01*
G37*
G36*
X4640961Y4787519D02*
G01*
X4782438Y4787519D01*
X4782438Y4646040D01*
X4640961Y4646040D01*
G37*
G36*
X4894961Y4787519D02*
G01*
X5036438Y4787519D01*
X5036438Y4646040D01*
X4894961Y4646040D01*
G37*
G36*
X5148961Y4787519D02*
G01*
X5290438Y4787519D01*
X5290438Y4646040D01*
X5148961Y4646040D01*
G37*
G36*
X5402961Y4787519D02*
G01*
X5544438Y4787519D01*
X5544438Y4646040D01*
X5402961Y4646040D01*
G37*
G36*
X5656961Y4787519D02*
G01*
X5798438Y4787519D01*
X5798438Y4646040D01*
X5656961Y4646040D01*
G37*
G36*
X5910961Y4533519D02*
G01*
X6052438Y4533519D01*
X6052438Y4392040D01*
X5910961Y4392040D01*
G37*
G36*
X5910961Y4787519D02*
G01*
X6052438Y4787519D01*
X6052438Y4646040D01*
X5910961Y4646040D01*
G37*
G36*
X6164961Y4533519D02*
G01*
X6306438Y4533519D01*
X6306438Y4392040D01*
X6164961Y4392040D01*
G37*
G36*
X6418961Y4533519D02*
G01*
X6560438Y4533519D01*
X6560438Y4392040D01*
X6418961Y4392040D01*
G37*
G36*
X6672961Y4533519D02*
G01*
X6814438Y4533519D01*
X6814438Y4392040D01*
X6672961Y4392040D01*
G37*
G36*
X6926961Y4533519D02*
G01*
X7068438Y4533519D01*
X7068438Y4392040D01*
X6926961Y4392040D01*
G37*
G36*
X7180961Y4533519D02*
G01*
X7322438Y4533519D01*
X7322438Y4392040D01*
X7180961Y4392040D01*
G37*
G36*
X7434961Y4533519D02*
G01*
X7576438Y4533519D01*
X7576438Y4392040D01*
X7434961Y4392040D01*
G37*
G36*
X6164961Y4787519D02*
G01*
X6306438Y4787519D01*
X6306438Y4646040D01*
X6164961Y4646040D01*
G37*
G36*
X6418961Y4787519D02*
G01*
X6560438Y4787519D01*
X6560438Y4646040D01*
X6418961Y4646040D01*
G37*
G36*
X6672961Y4787519D02*
G01*
X6814438Y4787519D01*
X6814438Y4646040D01*
X6672961Y4646040D01*
G37*
G36*
X6926961Y4787519D02*
G01*
X7068438Y4787519D01*
X7068438Y4646040D01*
X6926961Y4646040D01*
G37*
G36*
X7180961Y4787519D02*
G01*
X7322438Y4787519D01*
X7322438Y4646040D01*
X7180961Y4646040D01*
G37*
G36*
X7434961Y4787519D02*
G01*
X7576438Y4787519D01*
X7576438Y4646040D01*
X7434961Y4646040D01*
G37*
G36*
X7098200Y890099D02*
G01*
X7278199Y890099D01*
X7278199Y710100D01*
X7098200Y710100D01*
G37*
D27*
G01*
X8737600Y3035300D03*
G01*
X8610600Y3162300D03*
G01*
X8737600Y3289300D03*
D12*
G01*
X9652000Y1422400D03*
G01*
X9334500Y1739900D03*
G01*
X7480300Y1054100D03*
G01*
X7480300Y1422400D03*
G01*
X5715000Y2882900D03*
G01*
X5842000Y3009900D03*
G01*
X3187700Y3124200D03*
G01*
X3187700Y3568700D03*
D15*
X7188200Y1308100D02*
G01*
X7188200Y1308100D01*
X7188200Y1054100D02*
G01*
X7188200Y1054100D01*
M02*
