G04 Layer: TopPasteMaskLayer*
G04 EasyEDA v6.4.25, 2021-11-05T10:47:30--3:00*
G04 159a448e8e33406d94cad16c6973356b,c2117e28123c44379a42240d4d7dbbcc,10*
G04 Gerber Generator version 0.2*
G04 Scale: 100 percent, Rotated: No, Reflected: No *
G04 Dimensions in millimeters *
G04 leading zeros omitted , absolute positions ,4 integer and 5 decimal *
%FSLAX45Y45*%
%MOMM*%

%ADD10C,0.0001*%

%LPD*%
G36*
X7837322Y768908D02*
G01*
X7832293Y763879D01*
X7832293Y741121D01*
X7869275Y741121D01*
X7869275Y708101D01*
X7832293Y708101D01*
X7832293Y683920D01*
X7837322Y678891D01*
X7917281Y678891D01*
X7922310Y683920D01*
X7922310Y763879D01*
X7917281Y768908D01*
G37*
G36*
X7678318Y768908D02*
G01*
X7673289Y763879D01*
X7673289Y683920D01*
X7678318Y678891D01*
X7757312Y678891D01*
X7762290Y683920D01*
X7762290Y708101D01*
X7724292Y708101D01*
X7724292Y741121D01*
X7762290Y741121D01*
X7762290Y763879D01*
X7757312Y768908D01*
G37*
G36*
X7837322Y1429308D02*
G01*
X7832293Y1424279D01*
X7832293Y1401521D01*
X7869275Y1401521D01*
X7869275Y1368501D01*
X7832293Y1368501D01*
X7832293Y1344320D01*
X7837322Y1339291D01*
X7917281Y1339291D01*
X7922310Y1344320D01*
X7922310Y1424279D01*
X7917281Y1429308D01*
G37*
G36*
X7678318Y1429308D02*
G01*
X7673289Y1424279D01*
X7673289Y1344320D01*
X7678318Y1339291D01*
X7757312Y1339291D01*
X7762290Y1344320D01*
X7762290Y1368501D01*
X7724292Y1368501D01*
X7724292Y1401521D01*
X7762290Y1401521D01*
X7762290Y1424279D01*
X7757312Y1429308D01*
G37*
G36*
X7837322Y1099108D02*
G01*
X7832293Y1094079D01*
X7832293Y1071321D01*
X7869275Y1071321D01*
X7869275Y1038301D01*
X7832293Y1038301D01*
X7832293Y1014120D01*
X7837322Y1009091D01*
X7917281Y1009091D01*
X7922310Y1014120D01*
X7922310Y1094079D01*
X7917281Y1099108D01*
G37*
G36*
X7678318Y1099108D02*
G01*
X7673289Y1094079D01*
X7673289Y1014120D01*
X7678318Y1009091D01*
X7757312Y1009091D01*
X7762290Y1014120D01*
X7762290Y1038301D01*
X7724292Y1038301D01*
X7724292Y1071321D01*
X7762290Y1071321D01*
X7762290Y1094079D01*
X7757312Y1099108D01*
G37*
G36*
X7441608Y449099D02*
G01*
X7516609Y449099D01*
X7516609Y389100D01*
X7441608Y389100D01*
G37*
G36*
X7316990Y449099D02*
G01*
X7391991Y449099D01*
X7391991Y389100D01*
X7316990Y389100D01*
G37*
M02*
